<?xml version="1.0" encoding="UTF-8" standalone="no"?>
<!DOCTYPE svg PUBLIC "-//W3C//DTD SVG 1.1//EN"
 "http://www.w3.org/Graphics/SVG/1.1/DTD/svg11.dtd">
<!-- Generated by graphviz version 2.50.0 (0)
 -->
<!-- Title: G Pages: 1 -->
<svg width="1349pt" height="1291pt"
 viewBox="0.00 0.00 1012.00 968.00" xmlns="http://www.w3.org/2000/svg" xmlns:xlink="http://www.w3.org/1999/xlink">
<g id="graph0" class="graph" transform="scale(1.33 1.33) rotate(0) translate(4 964)">
<title>G</title>
<polygon fill="white" stroke="transparent" points="-4,4 -4,-964 1008,-964 1008,4 -4,4"/>
<!-- 2516352274696 -->
<g id="node1" class="node">
<title>2516352274696</title>
<polygon fill="none" stroke="black" points="340.5,-913.5 340.5,-959.5 740.5,-959.5 740.5,-913.5 340.5,-913.5"/>
<text text-anchor="middle" x="404.5" y="-932.8" font-family="Times New Roman,serif" font-size="14.00">encoder_input_layer</text>
<polyline fill="none" stroke="black" points="468.5,-913.5 468.5,-959.5 "/>
<text text-anchor="middle" x="507" y="-932.8" font-family="Times New Roman,serif" font-size="14.00">InputLayer</text>
<polyline fill="none" stroke="black" points="545.5,-913.5 545.5,-959.5 "/>
<text text-anchor="middle" x="573" y="-932.8" font-family="Times New Roman,serif" font-size="14.00">float32</text>
<polyline fill="none" stroke="black" points="600.5,-913.5 600.5,-959.5 "/>
<text text-anchor="middle" x="628" y="-944.3" font-family="Times New Roman,serif" font-size="14.00">input:</text>
<polyline fill="none" stroke="black" points="600.5,-936.5 655.5,-936.5 "/>
<text text-anchor="middle" x="628" y="-921.3" font-family="Times New Roman,serif" font-size="14.00">output:</text>
<polyline fill="none" stroke="black" points="655.5,-913.5 655.5,-959.5 "/>
<text text-anchor="middle" x="698" y="-944.3" font-family="Times New Roman,serif" font-size="14.00">[(None, 42)]</text>
<polyline fill="none" stroke="black" points="655.5,-936.5 740.5,-936.5 "/>
<text text-anchor="middle" x="698" y="-921.3" font-family="Times New Roman,serif" font-size="14.00">[(None, 42)]</text>
</g>
<!-- 2516423364040 -->
<g id="node2" class="node">
<title>2516423364040</title>
<polygon fill="none" stroke="black" points="340,-830.5 340,-876.5 741,-876.5 741,-830.5 340,-830.5"/>
<text text-anchor="middle" x="398.5" y="-849.8" font-family="Times New Roman,serif" font-size="14.00">addGaussianNoise</text>
<polyline fill="none" stroke="black" points="457,-830.5 457,-876.5 "/>
<text text-anchor="middle" x="506" y="-849.8" font-family="Times New Roman,serif" font-size="14.00">GaussianNoise</text>
<polyline fill="none" stroke="black" points="555,-830.5 555,-876.5 "/>
<text text-anchor="middle" x="582.5" y="-849.8" font-family="Times New Roman,serif" font-size="14.00">float32</text>
<polyline fill="none" stroke="black" points="610,-830.5 610,-876.5 "/>
<text text-anchor="middle" x="637.5" y="-861.3" font-family="Times New Roman,serif" font-size="14.00">input:</text>
<polyline fill="none" stroke="black" points="610,-853.5 665,-853.5 "/>
<text text-anchor="middle" x="637.5" y="-838.3" font-family="Times New Roman,serif" font-size="14.00">output:</text>
<polyline fill="none" stroke="black" points="665,-830.5 665,-876.5 "/>
<text text-anchor="middle" x="703" y="-861.3" font-family="Times New Roman,serif" font-size="14.00">(None, 42)</text>
<polyline fill="none" stroke="black" points="665,-853.5 741,-853.5 "/>
<text text-anchor="middle" x="703" y="-838.3" font-family="Times New Roman,serif" font-size="14.00">(None, 42)</text>
</g>
<!-- 2516352274696&#45;&gt;2516423364040 -->
<g id="edge1" class="edge">
<title>2516352274696&#45;&gt;2516423364040</title>
<path fill="none" stroke="black" d="M540.5,-913.37C540.5,-905.15 540.5,-895.66 540.5,-886.73"/>
<polygon fill="black" stroke="black" points="544,-886.61 540.5,-876.61 537,-886.61 544,-886.61"/>
</g>
<!-- 2516423362760 -->
<g id="node3" class="node">
<title>2516423362760</title>
<polygon fill="none" stroke="black" points="91,-747.5 91,-793.5 374,-793.5 374,-747.5 91,-747.5"/>
<text text-anchor="middle" x="114.5" y="-766.8" font-family="Times New Roman,serif" font-size="14.00">dense</text>
<polyline fill="none" stroke="black" points="138,-747.5 138,-793.5 "/>
<text text-anchor="middle" x="163" y="-766.8" font-family="Times New Roman,serif" font-size="14.00">Dense</text>
<polyline fill="none" stroke="black" points="188,-747.5 188,-793.5 "/>
<text text-anchor="middle" x="215.5" y="-766.8" font-family="Times New Roman,serif" font-size="14.00">float32</text>
<polyline fill="none" stroke="black" points="243,-747.5 243,-793.5 "/>
<text text-anchor="middle" x="270.5" y="-778.3" font-family="Times New Roman,serif" font-size="14.00">input:</text>
<polyline fill="none" stroke="black" points="243,-770.5 298,-770.5 "/>
<text text-anchor="middle" x="270.5" y="-755.3" font-family="Times New Roman,serif" font-size="14.00">output:</text>
<polyline fill="none" stroke="black" points="298,-747.5 298,-793.5 "/>
<text text-anchor="middle" x="336" y="-778.3" font-family="Times New Roman,serif" font-size="14.00">(None, 42)</text>
<polyline fill="none" stroke="black" points="298,-770.5 374,-770.5 "/>
<text text-anchor="middle" x="336" y="-755.3" font-family="Times New Roman,serif" font-size="14.00">(None, 42)</text>
</g>
<!-- 2516423364040&#45;&gt;2516423362760 -->
<g id="edge2" class="edge">
<title>2516423364040&#45;&gt;2516423362760</title>
<path fill="none" stroke="black" d="M456.74,-830.47C416.34,-819.85 367.73,-807.06 326.11,-796.12"/>
<polygon fill="black" stroke="black" points="326.8,-792.68 316.24,-793.52 325.02,-799.45 326.8,-792.68"/>
</g>
<!-- 2516423350344 -->
<g id="node4" class="node">
<title>2516423350344</title>
<polygon fill="none" stroke="black" points="392,-747.5 392,-793.5 689,-793.5 689,-747.5 392,-747.5"/>
<text text-anchor="middle" x="422.5" y="-766.8" font-family="Times New Roman,serif" font-size="14.00">dense_1</text>
<polyline fill="none" stroke="black" points="453,-747.5 453,-793.5 "/>
<text text-anchor="middle" x="478" y="-766.8" font-family="Times New Roman,serif" font-size="14.00">Dense</text>
<polyline fill="none" stroke="black" points="503,-747.5 503,-793.5 "/>
<text text-anchor="middle" x="530.5" y="-766.8" font-family="Times New Roman,serif" font-size="14.00">float32</text>
<polyline fill="none" stroke="black" points="558,-747.5 558,-793.5 "/>
<text text-anchor="middle" x="585.5" y="-778.3" font-family="Times New Roman,serif" font-size="14.00">input:</text>
<polyline fill="none" stroke="black" points="558,-770.5 613,-770.5 "/>
<text text-anchor="middle" x="585.5" y="-755.3" font-family="Times New Roman,serif" font-size="14.00">output:</text>
<polyline fill="none" stroke="black" points="613,-747.5 613,-793.5 "/>
<text text-anchor="middle" x="651" y="-778.3" font-family="Times New Roman,serif" font-size="14.00">(None, 42)</text>
<polyline fill="none" stroke="black" points="613,-770.5 689,-770.5 "/>
<text text-anchor="middle" x="651" y="-755.3" font-family="Times New Roman,serif" font-size="14.00">(None, 42)</text>
</g>
<!-- 2516423364040&#45;&gt;2516423350344 -->
<g id="edge3" class="edge">
<title>2516423364040&#45;&gt;2516423350344</title>
<path fill="none" stroke="black" d="M540.5,-830.37C540.5,-822.15 540.5,-812.66 540.5,-803.73"/>
<polygon fill="black" stroke="black" points="544,-803.61 540.5,-793.61 537,-803.61 544,-803.61"/>
</g>
<!-- 2516423316616 -->
<g id="node8" class="node">
<title>2516423316616</title>
<polygon fill="none" stroke="black" points="707,-747.5 707,-793.5 1004,-793.5 1004,-747.5 707,-747.5"/>
<text text-anchor="middle" x="737.5" y="-766.8" font-family="Times New Roman,serif" font-size="14.00">dense_2</text>
<polyline fill="none" stroke="black" points="768,-747.5 768,-793.5 "/>
<text text-anchor="middle" x="793" y="-766.8" font-family="Times New Roman,serif" font-size="14.00">Dense</text>
<polyline fill="none" stroke="black" points="818,-747.5 818,-793.5 "/>
<text text-anchor="middle" x="845.5" y="-766.8" font-family="Times New Roman,serif" font-size="14.00">float32</text>
<polyline fill="none" stroke="black" points="873,-747.5 873,-793.5 "/>
<text text-anchor="middle" x="900.5" y="-778.3" font-family="Times New Roman,serif" font-size="14.00">input:</text>
<polyline fill="none" stroke="black" points="873,-770.5 928,-770.5 "/>
<text text-anchor="middle" x="900.5" y="-755.3" font-family="Times New Roman,serif" font-size="14.00">output:</text>
<polyline fill="none" stroke="black" points="928,-747.5 928,-793.5 "/>
<text text-anchor="middle" x="966" y="-778.3" font-family="Times New Roman,serif" font-size="14.00">(None, 42)</text>
<polyline fill="none" stroke="black" points="928,-770.5 1004,-770.5 "/>
<text text-anchor="middle" x="966" y="-755.3" font-family="Times New Roman,serif" font-size="14.00">(None, 42)</text>
</g>
<!-- 2516423364040&#45;&gt;2516423316616 -->
<g id="edge7" class="edge">
<title>2516423364040&#45;&gt;2516423316616</title>
<path fill="none" stroke="black" d="M626.16,-830.47C667.57,-819.83 717.41,-807.01 760.04,-796.05"/>
<polygon fill="black" stroke="black" points="761.04,-799.4 769.86,-793.52 759.3,-792.62 761.04,-799.4"/>
</g>
<!-- 2516423271304 -->
<g id="node5" class="node">
<title>2516423271304</title>
<polygon fill="none" stroke="black" points="31.5,-664.5 31.5,-710.5 433.5,-710.5 433.5,-664.5 31.5,-664.5"/>
<text text-anchor="middle" x="84.5" y="-683.8" font-family="Times New Roman,serif" font-size="14.00">tf.linalg.matmul</text>
<polyline fill="none" stroke="black" points="137.5,-664.5 137.5,-710.5 "/>
<text text-anchor="middle" x="184.5" y="-683.8" font-family="Times New Roman,serif" font-size="14.00">TFOpLambda</text>
<polyline fill="none" stroke="black" points="231.5,-664.5 231.5,-710.5 "/>
<text text-anchor="middle" x="259" y="-683.8" font-family="Times New Roman,serif" font-size="14.00">float32</text>
<polyline fill="none" stroke="black" points="286.5,-664.5 286.5,-710.5 "/>
<text text-anchor="middle" x="314" y="-695.3" font-family="Times New Roman,serif" font-size="14.00">input:</text>
<polyline fill="none" stroke="black" points="286.5,-687.5 341.5,-687.5 "/>
<text text-anchor="middle" x="314" y="-672.3" font-family="Times New Roman,serif" font-size="14.00">output:</text>
<polyline fill="none" stroke="black" points="341.5,-664.5 341.5,-710.5 "/>
<text text-anchor="middle" x="387.5" y="-695.3" font-family="Times New Roman,serif" font-size="14.00">(None, 42)</text>
<polyline fill="none" stroke="black" points="341.5,-687.5 433.5,-687.5 "/>
<text text-anchor="middle" x="387.5" y="-672.3" font-family="Times New Roman,serif" font-size="14.00">(None, None)</text>
</g>
<!-- 2516423362760&#45;&gt;2516423271304 -->
<g id="edge4" class="edge">
<title>2516423362760&#45;&gt;2516423271304</title>
<path fill="none" stroke="black" d="M232.5,-747.37C232.5,-739.15 232.5,-729.66 232.5,-720.73"/>
<polygon fill="black" stroke="black" points="236,-720.61 232.5,-710.61 229,-720.61 236,-720.61"/>
</g>
<!-- 2516423293768 -->
<g id="node6" class="node">
<title>2516423293768</title>
<polygon fill="none" stroke="black" points="35.5,-581.5 35.5,-627.5 429.5,-627.5 429.5,-581.5 35.5,-581.5"/>
<text text-anchor="middle" x="84.5" y="-600.8" font-family="Times New Roman,serif" font-size="14.00">tf.math.truediv</text>
<polyline fill="none" stroke="black" points="133.5,-581.5 133.5,-627.5 "/>
<text text-anchor="middle" x="180.5" y="-600.8" font-family="Times New Roman,serif" font-size="14.00">TFOpLambda</text>
<polyline fill="none" stroke="black" points="227.5,-581.5 227.5,-627.5 "/>
<text text-anchor="middle" x="255" y="-600.8" font-family="Times New Roman,serif" font-size="14.00">float32</text>
<polyline fill="none" stroke="black" points="282.5,-581.5 282.5,-627.5 "/>
<text text-anchor="middle" x="310" y="-612.3" font-family="Times New Roman,serif" font-size="14.00">input:</text>
<polyline fill="none" stroke="black" points="282.5,-604.5 337.5,-604.5 "/>
<text text-anchor="middle" x="310" y="-589.3" font-family="Times New Roman,serif" font-size="14.00">output:</text>
<polyline fill="none" stroke="black" points="337.5,-581.5 337.5,-627.5 "/>
<text text-anchor="middle" x="383.5" y="-612.3" font-family="Times New Roman,serif" font-size="14.00">(None, None)</text>
<polyline fill="none" stroke="black" points="337.5,-604.5 429.5,-604.5 "/>
<text text-anchor="middle" x="383.5" y="-589.3" font-family="Times New Roman,serif" font-size="14.00">(None, None)</text>
</g>
<!-- 2516423271304&#45;&gt;2516423293768 -->
<g id="edge5" class="edge">
<title>2516423271304&#45;&gt;2516423293768</title>
<path fill="none" stroke="black" d="M232.5,-664.37C232.5,-656.15 232.5,-646.66 232.5,-637.73"/>
<polygon fill="black" stroke="black" points="236,-637.61 232.5,-627.61 229,-637.61 236,-637.61"/>
</g>
<!-- 2516423291976 -->
<g id="node7" class="node">
<title>2516423291976</title>
<polygon fill="none" stroke="black" points="39.5,-498.5 39.5,-544.5 425.5,-544.5 425.5,-498.5 39.5,-498.5"/>
<text text-anchor="middle" x="84.5" y="-517.8" font-family="Times New Roman,serif" font-size="14.00">tf.nn.softmax</text>
<polyline fill="none" stroke="black" points="129.5,-498.5 129.5,-544.5 "/>
<text text-anchor="middle" x="176.5" y="-517.8" font-family="Times New Roman,serif" font-size="14.00">TFOpLambda</text>
<polyline fill="none" stroke="black" points="223.5,-498.5 223.5,-544.5 "/>
<text text-anchor="middle" x="251" y="-517.8" font-family="Times New Roman,serif" font-size="14.00">float32</text>
<polyline fill="none" stroke="black" points="278.5,-498.5 278.5,-544.5 "/>
<text text-anchor="middle" x="306" y="-529.3" font-family="Times New Roman,serif" font-size="14.00">input:</text>
<polyline fill="none" stroke="black" points="278.5,-521.5 333.5,-521.5 "/>
<text text-anchor="middle" x="306" y="-506.3" font-family="Times New Roman,serif" font-size="14.00">output:</text>
<polyline fill="none" stroke="black" points="333.5,-498.5 333.5,-544.5 "/>
<text text-anchor="middle" x="379.5" y="-529.3" font-family="Times New Roman,serif" font-size="14.00">(None, None)</text>
<polyline fill="none" stroke="black" points="333.5,-521.5 425.5,-521.5 "/>
<text text-anchor="middle" x="379.5" y="-506.3" font-family="Times New Roman,serif" font-size="14.00">(None, None)</text>
</g>
<!-- 2516423293768&#45;&gt;2516423291976 -->
<g id="edge6" class="edge">
<title>2516423293768&#45;&gt;2516423291976</title>
<path fill="none" stroke="black" d="M232.5,-581.37C232.5,-573.15 232.5,-563.66 232.5,-554.73"/>
<polygon fill="black" stroke="black" points="236,-554.61 232.5,-544.61 229,-554.61 236,-554.61"/>
</g>
<!-- 2516423292040 -->
<g id="node9" class="node">
<title>2516423292040</title>
<polygon fill="none" stroke="black" points="25,-415.5 25,-461.5 440,-461.5 440,-415.5 25,-415.5"/>
<text text-anchor="middle" x="84.5" y="-434.8" font-family="Times New Roman,serif" font-size="14.00">tf.linalg.matmul_1</text>
<polyline fill="none" stroke="black" points="144,-415.5 144,-461.5 "/>
<text text-anchor="middle" x="191" y="-434.8" font-family="Times New Roman,serif" font-size="14.00">TFOpLambda</text>
<polyline fill="none" stroke="black" points="238,-415.5 238,-461.5 "/>
<text text-anchor="middle" x="265.5" y="-434.8" font-family="Times New Roman,serif" font-size="14.00">float32</text>
<polyline fill="none" stroke="black" points="293,-415.5 293,-461.5 "/>
<text text-anchor="middle" x="320.5" y="-446.3" font-family="Times New Roman,serif" font-size="14.00">input:</text>
<polyline fill="none" stroke="black" points="293,-438.5 348,-438.5 "/>
<text text-anchor="middle" x="320.5" y="-423.3" font-family="Times New Roman,serif" font-size="14.00">output:</text>
<polyline fill="none" stroke="black" points="348,-415.5 348,-461.5 "/>
<text text-anchor="middle" x="394" y="-446.3" font-family="Times New Roman,serif" font-size="14.00">(None, None)</text>
<polyline fill="none" stroke="black" points="348,-438.5 440,-438.5 "/>
<text text-anchor="middle" x="394" y="-423.3" font-family="Times New Roman,serif" font-size="14.00">(None, 42)</text>
</g>
<!-- 2516423291976&#45;&gt;2516423292040 -->
<g id="edge8" class="edge">
<title>2516423291976&#45;&gt;2516423292040</title>
<path fill="none" stroke="black" d="M232.5,-498.37C232.5,-490.15 232.5,-480.66 232.5,-471.73"/>
<polygon fill="black" stroke="black" points="236,-471.61 232.5,-461.61 229,-471.61 236,-471.61"/>
</g>
<!-- 2516354515016 -->
<g id="node10" class="node">
<title>2516354515016</title>
<polygon fill="none" stroke="black" points="77.5,-332.5 77.5,-378.5 387.5,-378.5 387.5,-332.5 77.5,-332.5"/>
<text text-anchor="middle" x="114.5" y="-351.8" font-family="Times New Roman,serif" font-size="14.00">hidden_40</text>
<polyline fill="none" stroke="black" points="151.5,-332.5 151.5,-378.5 "/>
<text text-anchor="middle" x="176.5" y="-351.8" font-family="Times New Roman,serif" font-size="14.00">Dense</text>
<polyline fill="none" stroke="black" points="201.5,-332.5 201.5,-378.5 "/>
<text text-anchor="middle" x="229" y="-351.8" font-family="Times New Roman,serif" font-size="14.00">float32</text>
<polyline fill="none" stroke="black" points="256.5,-332.5 256.5,-378.5 "/>
<text text-anchor="middle" x="284" y="-363.3" font-family="Times New Roman,serif" font-size="14.00">input:</text>
<polyline fill="none" stroke="black" points="256.5,-355.5 311.5,-355.5 "/>
<text text-anchor="middle" x="284" y="-340.3" font-family="Times New Roman,serif" font-size="14.00">output:</text>
<polyline fill="none" stroke="black" points="311.5,-332.5 311.5,-378.5 "/>
<text text-anchor="middle" x="349.5" y="-363.3" font-family="Times New Roman,serif" font-size="14.00">(None, 42)</text>
<polyline fill="none" stroke="black" points="311.5,-355.5 387.5,-355.5 "/>
<text text-anchor="middle" x="349.5" y="-340.3" font-family="Times New Roman,serif" font-size="14.00">(None, 40)</text>
</g>
<!-- 2516423292040&#45;&gt;2516354515016 -->
<g id="edge9" class="edge">
<title>2516423292040&#45;&gt;2516354515016</title>
<path fill="none" stroke="black" d="M232.5,-415.37C232.5,-407.15 232.5,-397.66 232.5,-388.73"/>
<polygon fill="black" stroke="black" points="236,-388.61 232.5,-378.61 229,-388.61 236,-388.61"/>
</g>
<!-- 2516423246152 -->
<g id="node11" class="node">
<title>2516423246152</title>
<polygon fill="none" stroke="black" points="77.5,-249.5 77.5,-295.5 387.5,-295.5 387.5,-249.5 77.5,-249.5"/>
<text text-anchor="middle" x="114.5" y="-268.8" font-family="Times New Roman,serif" font-size="14.00">hidden_32</text>
<polyline fill="none" stroke="black" points="151.5,-249.5 151.5,-295.5 "/>
<text text-anchor="middle" x="176.5" y="-268.8" font-family="Times New Roman,serif" font-size="14.00">Dense</text>
<polyline fill="none" stroke="black" points="201.5,-249.5 201.5,-295.5 "/>
<text text-anchor="middle" x="229" y="-268.8" font-family="Times New Roman,serif" font-size="14.00">float32</text>
<polyline fill="none" stroke="black" points="256.5,-249.5 256.5,-295.5 "/>
<text text-anchor="middle" x="284" y="-280.3" font-family="Times New Roman,serif" font-size="14.00">input:</text>
<polyline fill="none" stroke="black" points="256.5,-272.5 311.5,-272.5 "/>
<text text-anchor="middle" x="284" y="-257.3" font-family="Times New Roman,serif" font-size="14.00">output:</text>
<polyline fill="none" stroke="black" points="311.5,-249.5 311.5,-295.5 "/>
<text text-anchor="middle" x="349.5" y="-280.3" font-family="Times New Roman,serif" font-size="14.00">(None, 40)</text>
<polyline fill="none" stroke="black" points="311.5,-272.5 387.5,-272.5 "/>
<text text-anchor="middle" x="349.5" y="-257.3" font-family="Times New Roman,serif" font-size="14.00">(None, 32)</text>
</g>
<!-- 2516354515016&#45;&gt;2516423246152 -->
<g id="edge10" class="edge">
<title>2516354515016&#45;&gt;2516423246152</title>
<path fill="none" stroke="black" d="M232.5,-332.37C232.5,-324.15 232.5,-314.66 232.5,-305.73"/>
<polygon fill="black" stroke="black" points="236,-305.61 232.5,-295.61 229,-305.61 236,-305.61"/>
</g>
<!-- 2516423210952 -->
<g id="node12" class="node">
<title>2516423210952</title>
<polygon fill="none" stroke="black" points="77.5,-166.5 77.5,-212.5 387.5,-212.5 387.5,-166.5 77.5,-166.5"/>
<text text-anchor="middle" x="114.5" y="-185.8" font-family="Times New Roman,serif" font-size="14.00">hidden_16</text>
<polyline fill="none" stroke="black" points="151.5,-166.5 151.5,-212.5 "/>
<text text-anchor="middle" x="176.5" y="-185.8" font-family="Times New Roman,serif" font-size="14.00">Dense</text>
<polyline fill="none" stroke="black" points="201.5,-166.5 201.5,-212.5 "/>
<text text-anchor="middle" x="229" y="-185.8" font-family="Times New Roman,serif" font-size="14.00">float32</text>
<polyline fill="none" stroke="black" points="256.5,-166.5 256.5,-212.5 "/>
<text text-anchor="middle" x="284" y="-197.3" font-family="Times New Roman,serif" font-size="14.00">input:</text>
<polyline fill="none" stroke="black" points="256.5,-189.5 311.5,-189.5 "/>
<text text-anchor="middle" x="284" y="-174.3" font-family="Times New Roman,serif" font-size="14.00">output:</text>
<polyline fill="none" stroke="black" points="311.5,-166.5 311.5,-212.5 "/>
<text text-anchor="middle" x="349.5" y="-197.3" font-family="Times New Roman,serif" font-size="14.00">(None, 32)</text>
<polyline fill="none" stroke="black" points="311.5,-189.5 387.5,-189.5 "/>
<text text-anchor="middle" x="349.5" y="-174.3" font-family="Times New Roman,serif" font-size="14.00">(None, 16)</text>
</g>
<!-- 2516423246152&#45;&gt;2516423210952 -->
<g id="edge11" class="edge">
<title>2516423246152&#45;&gt;2516423210952</title>
<path fill="none" stroke="black" d="M232.5,-249.37C232.5,-241.15 232.5,-231.66 232.5,-222.73"/>
<polygon fill="black" stroke="black" points="236,-222.61 232.5,-212.61 229,-222.61 236,-222.61"/>
</g>
<!-- 2516423231880 -->
<g id="node13" class="node">
<title>2516423231880</title>
<polygon fill="none" stroke="black" points="0,-83.5 0,-129.5 465,-129.5 465,-83.5 0,-83.5"/>
<text text-anchor="middle" x="69.5" y="-102.8" font-family="Times New Roman,serif" font-size="14.00">activity_regularization</text>
<polyline fill="none" stroke="black" points="139,-83.5 139,-129.5 "/>
<text text-anchor="middle" x="209" y="-102.8" font-family="Times New Roman,serif" font-size="14.00">ActivityRegularization</text>
<polyline fill="none" stroke="black" points="279,-83.5 279,-129.5 "/>
<text text-anchor="middle" x="306.5" y="-102.8" font-family="Times New Roman,serif" font-size="14.00">float32</text>
<polyline fill="none" stroke="black" points="334,-83.5 334,-129.5 "/>
<text text-anchor="middle" x="361.5" y="-114.3" font-family="Times New Roman,serif" font-size="14.00">input:</text>
<polyline fill="none" stroke="black" points="334,-106.5 389,-106.5 "/>
<text text-anchor="middle" x="361.5" y="-91.3" font-family="Times New Roman,serif" font-size="14.00">output:</text>
<polyline fill="none" stroke="black" points="389,-83.5 389,-129.5 "/>
<text text-anchor="middle" x="427" y="-114.3" font-family="Times New Roman,serif" font-size="14.00">(None, 16)</text>
<polyline fill="none" stroke="black" points="389,-106.5 465,-106.5 "/>
<text text-anchor="middle" x="427" y="-91.3" font-family="Times New Roman,serif" font-size="14.00">(None, 16)</text>
</g>
<!-- 2516423210952&#45;&gt;2516423231880 -->
<g id="edge12" class="edge">
<title>2516423210952&#45;&gt;2516423231880</title>
<path fill="none" stroke="black" d="M232.5,-166.37C232.5,-158.15 232.5,-148.66 232.5,-139.73"/>
<polygon fill="black" stroke="black" points="236,-139.61 232.5,-129.61 229,-139.61 236,-139.61"/>
</g>
<!-- 2516423273928 -->
<g id="node14" class="node">
<title>2516423273928</title>
<polygon fill="none" stroke="black" points="47.5,-0.5 47.5,-46.5 417.5,-46.5 417.5,-0.5 47.5,-0.5"/>
<text text-anchor="middle" x="114.5" y="-19.8" font-family="Times New Roman,serif" font-size="14.00">eccoder_output_layer</text>
<polyline fill="none" stroke="black" points="181.5,-0.5 181.5,-46.5 "/>
<text text-anchor="middle" x="206.5" y="-19.8" font-family="Times New Roman,serif" font-size="14.00">Dense</text>
<polyline fill="none" stroke="black" points="231.5,-0.5 231.5,-46.5 "/>
<text text-anchor="middle" x="259" y="-19.8" font-family="Times New Roman,serif" font-size="14.00">float32</text>
<polyline fill="none" stroke="black" points="286.5,-0.5 286.5,-46.5 "/>
<text text-anchor="middle" x="314" y="-31.3" font-family="Times New Roman,serif" font-size="14.00">input:</text>
<polyline fill="none" stroke="black" points="286.5,-23.5 341.5,-23.5 "/>
<text text-anchor="middle" x="314" y="-8.3" font-family="Times New Roman,serif" font-size="14.00">output:</text>
<polyline fill="none" stroke="black" points="341.5,-0.5 341.5,-46.5 "/>
<text text-anchor="middle" x="379.5" y="-31.3" font-family="Times New Roman,serif" font-size="14.00">(None, 16)</text>
<polyline fill="none" stroke="black" points="341.5,-23.5 417.5,-23.5 "/>
<text text-anchor="middle" x="379.5" y="-8.3" font-family="Times New Roman,serif" font-size="14.00">(None, 4)</text>
</g>
<!-- 2516423231880&#45;&gt;2516423273928 -->
<g id="edge13" class="edge">
<title>2516423231880&#45;&gt;2516423273928</title>
<path fill="none" stroke="black" d="M232.5,-83.37C232.5,-75.15 232.5,-65.66 232.5,-56.73"/>
<polygon fill="black" stroke="black" points="236,-56.61 232.5,-46.61 229,-56.61 236,-56.61"/>
</g>
</g>
</svg>
