<?xml version="1.0" encoding="utf-8" standalone="no"?>
<!DOCTYPE svg PUBLIC "-//W3C//DTD SVG 1.1//EN"
  "http://www.w3.org/Graphics/SVG/1.1/DTD/svg11.dtd">
<svg xmlns:xlink="http://www.w3.org/1999/xlink" width="460.8pt" height="345.6pt" viewBox="0 0 460.8 345.6" xmlns="http://www.w3.org/2000/svg" version="1.1">
 <metadata>
  <rdf:RDF xmlns:dc="http://purl.org/dc/elements/1.1/" xmlns:cc="http://creativecommons.org/ns#" xmlns:rdf="http://www.w3.org/1999/02/22-rdf-syntax-ns#">
   <cc:Work>
    <dc:type rdf:resource="http://purl.org/dc/dcmitype/StillImage"/>
    <dc:date>2024-01-05T21:01:36.376283</dc:date>
    <dc:format>image/svg+xml</dc:format>
    <dc:creator>
     <cc:Agent>
      <dc:title>Matplotlib v3.5.3, https://matplotlib.org/</dc:title>
     </cc:Agent>
    </dc:creator>
   </cc:Work>
  </rdf:RDF>
 </metadata>
 <defs>
  <style type="text/css">*{stroke-linejoin: round; stroke-linecap: butt}</style>
 </defs>
 <g id="figure_1">
  <g id="patch_1">
   <path d="M 0 345.6 
L 460.8 345.6 
L 460.8 0 
L 0 0 
z
" style="fill: #ffffff"/>
  </g>
  <g id="axes_1">
   <g id="patch_2">
    <path d="M 57.6 307.584 
L 414.72 307.584 
L 414.72 41.472 
L 57.6 41.472 
z
" style="fill: #ffffff"/>
   </g>
   <g id="matplotlib.axis_1">
    <g id="xtick_1">
     <g id="line2d_1">
      <defs>
       <path id="m2fbc6ed3a4" d="M 0 0 
L 0 3.5 
" style="stroke: #000000; stroke-width: 0.8"/>
      </defs>
      <g>
       <use xlink:href="#m2fbc6ed3a4" x="73.832727" y="307.584" style="stroke: #000000; stroke-width: 0.8"/>
      </g>
     </g>
     <g id="text_1">
      <!-- 0.0 -->
      <g transform="translate(65.881165 322.182437)scale(0.1 -0.1)">
       <defs>
        <path id="DejaVuSans-30" d="M 2034 4250 
Q 1547 4250 1301 3770 
Q 1056 3291 1056 2328 
Q 1056 1369 1301 889 
Q 1547 409 2034 409 
Q 2525 409 2770 889 
Q 3016 1369 3016 2328 
Q 3016 3291 2770 3770 
Q 2525 4250 2034 4250 
z
M 2034 4750 
Q 2819 4750 3233 4129 
Q 3647 3509 3647 2328 
Q 3647 1150 3233 529 
Q 2819 -91 2034 -91 
Q 1250 -91 836 529 
Q 422 1150 422 2328 
Q 422 3509 836 4129 
Q 1250 4750 2034 4750 
z
" transform="scale(0.015625)"/>
        <path id="DejaVuSans-2e" d="M 684 794 
L 1344 794 
L 1344 0 
L 684 0 
L 684 794 
z
" transform="scale(0.015625)"/>
       </defs>
       <use xlink:href="#DejaVuSans-30"/>
       <use xlink:href="#DejaVuSans-2e" x="63.623047"/>
       <use xlink:href="#DejaVuSans-30" x="95.410156"/>
      </g>
     </g>
    </g>
    <g id="xtick_2">
     <g id="line2d_2">
      <g>
       <use xlink:href="#m2fbc6ed3a4" x="138.763636" y="307.584" style="stroke: #000000; stroke-width: 0.8"/>
      </g>
     </g>
     <g id="text_2">
      <!-- 0.2 -->
      <g transform="translate(130.812074 322.182437)scale(0.1 -0.1)">
       <defs>
        <path id="DejaVuSans-32" d="M 1228 531 
L 3431 531 
L 3431 0 
L 469 0 
L 469 531 
Q 828 903 1448 1529 
Q 2069 2156 2228 2338 
Q 2531 2678 2651 2914 
Q 2772 3150 2772 3378 
Q 2772 3750 2511 3984 
Q 2250 4219 1831 4219 
Q 1534 4219 1204 4116 
Q 875 4013 500 3803 
L 500 4441 
Q 881 4594 1212 4672 
Q 1544 4750 1819 4750 
Q 2544 4750 2975 4387 
Q 3406 4025 3406 3419 
Q 3406 3131 3298 2873 
Q 3191 2616 2906 2266 
Q 2828 2175 2409 1742 
Q 1991 1309 1228 531 
z
" transform="scale(0.015625)"/>
       </defs>
       <use xlink:href="#DejaVuSans-30"/>
       <use xlink:href="#DejaVuSans-2e" x="63.623047"/>
       <use xlink:href="#DejaVuSans-32" x="95.410156"/>
      </g>
     </g>
    </g>
    <g id="xtick_3">
     <g id="line2d_3">
      <g>
       <use xlink:href="#m2fbc6ed3a4" x="203.694545" y="307.584" style="stroke: #000000; stroke-width: 0.8"/>
      </g>
     </g>
     <g id="text_3">
      <!-- 0.4 -->
      <g transform="translate(195.742983 322.182437)scale(0.1 -0.1)">
       <defs>
        <path id="DejaVuSans-34" d="M 2419 4116 
L 825 1625 
L 2419 1625 
L 2419 4116 
z
M 2253 4666 
L 3047 4666 
L 3047 1625 
L 3713 1625 
L 3713 1100 
L 3047 1100 
L 3047 0 
L 2419 0 
L 2419 1100 
L 313 1100 
L 313 1709 
L 2253 4666 
z
" transform="scale(0.015625)"/>
       </defs>
       <use xlink:href="#DejaVuSans-30"/>
       <use xlink:href="#DejaVuSans-2e" x="63.623047"/>
       <use xlink:href="#DejaVuSans-34" x="95.410156"/>
      </g>
     </g>
    </g>
    <g id="xtick_4">
     <g id="line2d_4">
      <g>
       <use xlink:href="#m2fbc6ed3a4" x="268.625455" y="307.584" style="stroke: #000000; stroke-width: 0.8"/>
      </g>
     </g>
     <g id="text_4">
      <!-- 0.6 -->
      <g transform="translate(260.673892 322.182437)scale(0.1 -0.1)">
       <defs>
        <path id="DejaVuSans-36" d="M 2113 2584 
Q 1688 2584 1439 2293 
Q 1191 2003 1191 1497 
Q 1191 994 1439 701 
Q 1688 409 2113 409 
Q 2538 409 2786 701 
Q 3034 994 3034 1497 
Q 3034 2003 2786 2293 
Q 2538 2584 2113 2584 
z
M 3366 4563 
L 3366 3988 
Q 3128 4100 2886 4159 
Q 2644 4219 2406 4219 
Q 1781 4219 1451 3797 
Q 1122 3375 1075 2522 
Q 1259 2794 1537 2939 
Q 1816 3084 2150 3084 
Q 2853 3084 3261 2657 
Q 3669 2231 3669 1497 
Q 3669 778 3244 343 
Q 2819 -91 2113 -91 
Q 1303 -91 875 529 
Q 447 1150 447 2328 
Q 447 3434 972 4092 
Q 1497 4750 2381 4750 
Q 2619 4750 2861 4703 
Q 3103 4656 3366 4563 
z
" transform="scale(0.015625)"/>
       </defs>
       <use xlink:href="#DejaVuSans-30"/>
       <use xlink:href="#DejaVuSans-2e" x="63.623047"/>
       <use xlink:href="#DejaVuSans-36" x="95.410156"/>
      </g>
     </g>
    </g>
    <g id="xtick_5">
     <g id="line2d_5">
      <g>
       <use xlink:href="#m2fbc6ed3a4" x="333.556364" y="307.584" style="stroke: #000000; stroke-width: 0.8"/>
      </g>
     </g>
     <g id="text_5">
      <!-- 0.8 -->
      <g transform="translate(325.604801 322.182437)scale(0.1 -0.1)">
       <defs>
        <path id="DejaVuSans-38" d="M 2034 2216 
Q 1584 2216 1326 1975 
Q 1069 1734 1069 1313 
Q 1069 891 1326 650 
Q 1584 409 2034 409 
Q 2484 409 2743 651 
Q 3003 894 3003 1313 
Q 3003 1734 2745 1975 
Q 2488 2216 2034 2216 
z
M 1403 2484 
Q 997 2584 770 2862 
Q 544 3141 544 3541 
Q 544 4100 942 4425 
Q 1341 4750 2034 4750 
Q 2731 4750 3128 4425 
Q 3525 4100 3525 3541 
Q 3525 3141 3298 2862 
Q 3072 2584 2669 2484 
Q 3125 2378 3379 2068 
Q 3634 1759 3634 1313 
Q 3634 634 3220 271 
Q 2806 -91 2034 -91 
Q 1263 -91 848 271 
Q 434 634 434 1313 
Q 434 1759 690 2068 
Q 947 2378 1403 2484 
z
M 1172 3481 
Q 1172 3119 1398 2916 
Q 1625 2713 2034 2713 
Q 2441 2713 2670 2916 
Q 2900 3119 2900 3481 
Q 2900 3844 2670 4047 
Q 2441 4250 2034 4250 
Q 1625 4250 1398 4047 
Q 1172 3844 1172 3481 
z
" transform="scale(0.015625)"/>
       </defs>
       <use xlink:href="#DejaVuSans-30"/>
       <use xlink:href="#DejaVuSans-2e" x="63.623047"/>
       <use xlink:href="#DejaVuSans-38" x="95.410156"/>
      </g>
     </g>
    </g>
    <g id="xtick_6">
     <g id="line2d_6">
      <g>
       <use xlink:href="#m2fbc6ed3a4" x="398.487273" y="307.584" style="stroke: #000000; stroke-width: 0.8"/>
      </g>
     </g>
     <g id="text_6">
      <!-- 1.0 -->
      <g transform="translate(390.53571 322.182437)scale(0.1 -0.1)">
       <defs>
        <path id="DejaVuSans-31" d="M 794 531 
L 1825 531 
L 1825 4091 
L 703 3866 
L 703 4441 
L 1819 4666 
L 2450 4666 
L 2450 531 
L 3481 531 
L 3481 0 
L 794 0 
L 794 531 
z
" transform="scale(0.015625)"/>
       </defs>
       <use xlink:href="#DejaVuSans-31"/>
       <use xlink:href="#DejaVuSans-2e" x="63.623047"/>
       <use xlink:href="#DejaVuSans-30" x="95.410156"/>
      </g>
     </g>
    </g>
    <g id="text_7">
     <!-- False Positive Rate -->
     <g transform="translate(189.693594 335.860562)scale(0.1 -0.1)">
      <defs>
       <path id="DejaVuSans-46" d="M 628 4666 
L 3309 4666 
L 3309 4134 
L 1259 4134 
L 1259 2759 
L 3109 2759 
L 3109 2228 
L 1259 2228 
L 1259 0 
L 628 0 
L 628 4666 
z
" transform="scale(0.015625)"/>
       <path id="DejaVuSans-61" d="M 2194 1759 
Q 1497 1759 1228 1600 
Q 959 1441 959 1056 
Q 959 750 1161 570 
Q 1363 391 1709 391 
Q 2188 391 2477 730 
Q 2766 1069 2766 1631 
L 2766 1759 
L 2194 1759 
z
M 3341 1997 
L 3341 0 
L 2766 0 
L 2766 531 
Q 2569 213 2275 61 
Q 1981 -91 1556 -91 
Q 1019 -91 701 211 
Q 384 513 384 1019 
Q 384 1609 779 1909 
Q 1175 2209 1959 2209 
L 2766 2209 
L 2766 2266 
Q 2766 2663 2505 2880 
Q 2244 3097 1772 3097 
Q 1472 3097 1187 3025 
Q 903 2953 641 2809 
L 641 3341 
Q 956 3463 1253 3523 
Q 1550 3584 1831 3584 
Q 2591 3584 2966 3190 
Q 3341 2797 3341 1997 
z
" transform="scale(0.015625)"/>
       <path id="DejaVuSans-6c" d="M 603 4863 
L 1178 4863 
L 1178 0 
L 603 0 
L 603 4863 
z
" transform="scale(0.015625)"/>
       <path id="DejaVuSans-73" d="M 2834 3397 
L 2834 2853 
Q 2591 2978 2328 3040 
Q 2066 3103 1784 3103 
Q 1356 3103 1142 2972 
Q 928 2841 928 2578 
Q 928 2378 1081 2264 
Q 1234 2150 1697 2047 
L 1894 2003 
Q 2506 1872 2764 1633 
Q 3022 1394 3022 966 
Q 3022 478 2636 193 
Q 2250 -91 1575 -91 
Q 1294 -91 989 -36 
Q 684 19 347 128 
L 347 722 
Q 666 556 975 473 
Q 1284 391 1588 391 
Q 1994 391 2212 530 
Q 2431 669 2431 922 
Q 2431 1156 2273 1281 
Q 2116 1406 1581 1522 
L 1381 1569 
Q 847 1681 609 1914 
Q 372 2147 372 2553 
Q 372 3047 722 3315 
Q 1072 3584 1716 3584 
Q 2034 3584 2315 3537 
Q 2597 3491 2834 3397 
z
" transform="scale(0.015625)"/>
       <path id="DejaVuSans-65" d="M 3597 1894 
L 3597 1613 
L 953 1613 
Q 991 1019 1311 708 
Q 1631 397 2203 397 
Q 2534 397 2845 478 
Q 3156 559 3463 722 
L 3463 178 
Q 3153 47 2828 -22 
Q 2503 -91 2169 -91 
Q 1331 -91 842 396 
Q 353 884 353 1716 
Q 353 2575 817 3079 
Q 1281 3584 2069 3584 
Q 2775 3584 3186 3129 
Q 3597 2675 3597 1894 
z
M 3022 2063 
Q 3016 2534 2758 2815 
Q 2500 3097 2075 3097 
Q 1594 3097 1305 2825 
Q 1016 2553 972 2059 
L 3022 2063 
z
" transform="scale(0.015625)"/>
       <path id="DejaVuSans-20" transform="scale(0.015625)"/>
       <path id="DejaVuSans-50" d="M 1259 4147 
L 1259 2394 
L 2053 2394 
Q 2494 2394 2734 2622 
Q 2975 2850 2975 3272 
Q 2975 3691 2734 3919 
Q 2494 4147 2053 4147 
L 1259 4147 
z
M 628 4666 
L 2053 4666 
Q 2838 4666 3239 4311 
Q 3641 3956 3641 3272 
Q 3641 2581 3239 2228 
Q 2838 1875 2053 1875 
L 1259 1875 
L 1259 0 
L 628 0 
L 628 4666 
z
" transform="scale(0.015625)"/>
       <path id="DejaVuSans-6f" d="M 1959 3097 
Q 1497 3097 1228 2736 
Q 959 2375 959 1747 
Q 959 1119 1226 758 
Q 1494 397 1959 397 
Q 2419 397 2687 759 
Q 2956 1122 2956 1747 
Q 2956 2369 2687 2733 
Q 2419 3097 1959 3097 
z
M 1959 3584 
Q 2709 3584 3137 3096 
Q 3566 2609 3566 1747 
Q 3566 888 3137 398 
Q 2709 -91 1959 -91 
Q 1206 -91 779 398 
Q 353 888 353 1747 
Q 353 2609 779 3096 
Q 1206 3584 1959 3584 
z
" transform="scale(0.015625)"/>
       <path id="DejaVuSans-69" d="M 603 3500 
L 1178 3500 
L 1178 0 
L 603 0 
L 603 3500 
z
M 603 4863 
L 1178 4863 
L 1178 4134 
L 603 4134 
L 603 4863 
z
" transform="scale(0.015625)"/>
       <path id="DejaVuSans-74" d="M 1172 4494 
L 1172 3500 
L 2356 3500 
L 2356 3053 
L 1172 3053 
L 1172 1153 
Q 1172 725 1289 603 
Q 1406 481 1766 481 
L 2356 481 
L 2356 0 
L 1766 0 
Q 1100 0 847 248 
Q 594 497 594 1153 
L 594 3053 
L 172 3053 
L 172 3500 
L 594 3500 
L 594 4494 
L 1172 4494 
z
" transform="scale(0.015625)"/>
       <path id="DejaVuSans-76" d="M 191 3500 
L 800 3500 
L 1894 563 
L 2988 3500 
L 3597 3500 
L 2284 0 
L 1503 0 
L 191 3500 
z
" transform="scale(0.015625)"/>
       <path id="DejaVuSans-52" d="M 2841 2188 
Q 3044 2119 3236 1894 
Q 3428 1669 3622 1275 
L 4263 0 
L 3584 0 
L 2988 1197 
Q 2756 1666 2539 1819 
Q 2322 1972 1947 1972 
L 1259 1972 
L 1259 0 
L 628 0 
L 628 4666 
L 2053 4666 
Q 2853 4666 3247 4331 
Q 3641 3997 3641 3322 
Q 3641 2881 3436 2590 
Q 3231 2300 2841 2188 
z
M 1259 4147 
L 1259 2491 
L 2053 2491 
Q 2509 2491 2742 2702 
Q 2975 2913 2975 3322 
Q 2975 3731 2742 3939 
Q 2509 4147 2053 4147 
L 1259 4147 
z
" transform="scale(0.015625)"/>
      </defs>
      <use xlink:href="#DejaVuSans-46"/>
      <use xlink:href="#DejaVuSans-61" x="48.394531"/>
      <use xlink:href="#DejaVuSans-6c" x="109.673828"/>
      <use xlink:href="#DejaVuSans-73" x="137.457031"/>
      <use xlink:href="#DejaVuSans-65" x="189.556641"/>
      <use xlink:href="#DejaVuSans-20" x="251.080078"/>
      <use xlink:href="#DejaVuSans-50" x="282.867188"/>
      <use xlink:href="#DejaVuSans-6f" x="339.544922"/>
      <use xlink:href="#DejaVuSans-73" x="400.726562"/>
      <use xlink:href="#DejaVuSans-69" x="452.826172"/>
      <use xlink:href="#DejaVuSans-74" x="480.609375"/>
      <use xlink:href="#DejaVuSans-69" x="519.818359"/>
      <use xlink:href="#DejaVuSans-76" x="547.601562"/>
      <use xlink:href="#DejaVuSans-65" x="606.78125"/>
      <use xlink:href="#DejaVuSans-20" x="668.304688"/>
      <use xlink:href="#DejaVuSans-52" x="700.091797"/>
      <use xlink:href="#DejaVuSans-61" x="767.324219"/>
      <use xlink:href="#DejaVuSans-74" x="828.603516"/>
      <use xlink:href="#DejaVuSans-65" x="867.8125"/>
     </g>
    </g>
   </g>
   <g id="matplotlib.axis_2">
    <g id="ytick_1">
     <g id="line2d_7">
      <defs>
       <path id="m94eb58acbf" d="M 0 0 
L -3.5 0 
" style="stroke: #000000; stroke-width: 0.8"/>
      </defs>
      <g>
       <use xlink:href="#m94eb58acbf" x="57.6" y="295.488" style="stroke: #000000; stroke-width: 0.8"/>
      </g>
     </g>
     <g id="text_8">
      <!-- 0.0 -->
      <g transform="translate(34.696875 299.287219)scale(0.1 -0.1)">
       <use xlink:href="#DejaVuSans-30"/>
       <use xlink:href="#DejaVuSans-2e" x="63.623047"/>
       <use xlink:href="#DejaVuSans-30" x="95.410156"/>
      </g>
     </g>
    </g>
    <g id="ytick_2">
     <g id="line2d_8">
      <g>
       <use xlink:href="#m94eb58acbf" x="57.6" y="247.104" style="stroke: #000000; stroke-width: 0.8"/>
      </g>
     </g>
     <g id="text_9">
      <!-- 0.2 -->
      <g transform="translate(34.696875 250.903219)scale(0.1 -0.1)">
       <use xlink:href="#DejaVuSans-30"/>
       <use xlink:href="#DejaVuSans-2e" x="63.623047"/>
       <use xlink:href="#DejaVuSans-32" x="95.410156"/>
      </g>
     </g>
    </g>
    <g id="ytick_3">
     <g id="line2d_9">
      <g>
       <use xlink:href="#m94eb58acbf" x="57.6" y="198.72" style="stroke: #000000; stroke-width: 0.8"/>
      </g>
     </g>
     <g id="text_10">
      <!-- 0.4 -->
      <g transform="translate(34.696875 202.519219)scale(0.1 -0.1)">
       <use xlink:href="#DejaVuSans-30"/>
       <use xlink:href="#DejaVuSans-2e" x="63.623047"/>
       <use xlink:href="#DejaVuSans-34" x="95.410156"/>
      </g>
     </g>
    </g>
    <g id="ytick_4">
     <g id="line2d_10">
      <g>
       <use xlink:href="#m94eb58acbf" x="57.6" y="150.336" style="stroke: #000000; stroke-width: 0.8"/>
      </g>
     </g>
     <g id="text_11">
      <!-- 0.6 -->
      <g transform="translate(34.696875 154.135219)scale(0.1 -0.1)">
       <use xlink:href="#DejaVuSans-30"/>
       <use xlink:href="#DejaVuSans-2e" x="63.623047"/>
       <use xlink:href="#DejaVuSans-36" x="95.410156"/>
      </g>
     </g>
    </g>
    <g id="ytick_5">
     <g id="line2d_11">
      <g>
       <use xlink:href="#m94eb58acbf" x="57.6" y="101.952" style="stroke: #000000; stroke-width: 0.8"/>
      </g>
     </g>
     <g id="text_12">
      <!-- 0.8 -->
      <g transform="translate(34.696875 105.751219)scale(0.1 -0.1)">
       <use xlink:href="#DejaVuSans-30"/>
       <use xlink:href="#DejaVuSans-2e" x="63.623047"/>
       <use xlink:href="#DejaVuSans-38" x="95.410156"/>
      </g>
     </g>
    </g>
    <g id="ytick_6">
     <g id="line2d_12">
      <g>
       <use xlink:href="#m94eb58acbf" x="57.6" y="53.568" style="stroke: #000000; stroke-width: 0.8"/>
      </g>
     </g>
     <g id="text_13">
      <!-- 1.0 -->
      <g transform="translate(34.696875 57.367219)scale(0.1 -0.1)">
       <use xlink:href="#DejaVuSans-31"/>
       <use xlink:href="#DejaVuSans-2e" x="63.623047"/>
       <use xlink:href="#DejaVuSans-30" x="95.410156"/>
      </g>
     </g>
    </g>
    <g id="text_14">
     <!-- True Positive Rate -->
     <g transform="translate(28.617187 219.057687)rotate(-90)scale(0.1 -0.1)">
      <defs>
       <path id="DejaVuSans-54" d="M -19 4666 
L 3928 4666 
L 3928 4134 
L 2272 4134 
L 2272 0 
L 1638 0 
L 1638 4134 
L -19 4134 
L -19 4666 
z
" transform="scale(0.015625)"/>
       <path id="DejaVuSans-72" d="M 2631 2963 
Q 2534 3019 2420 3045 
Q 2306 3072 2169 3072 
Q 1681 3072 1420 2755 
Q 1159 2438 1159 1844 
L 1159 0 
L 581 0 
L 581 3500 
L 1159 3500 
L 1159 2956 
Q 1341 3275 1631 3429 
Q 1922 3584 2338 3584 
Q 2397 3584 2469 3576 
Q 2541 3569 2628 3553 
L 2631 2963 
z
" transform="scale(0.015625)"/>
       <path id="DejaVuSans-75" d="M 544 1381 
L 544 3500 
L 1119 3500 
L 1119 1403 
Q 1119 906 1312 657 
Q 1506 409 1894 409 
Q 2359 409 2629 706 
Q 2900 1003 2900 1516 
L 2900 3500 
L 3475 3500 
L 3475 0 
L 2900 0 
L 2900 538 
Q 2691 219 2414 64 
Q 2138 -91 1772 -91 
Q 1169 -91 856 284 
Q 544 659 544 1381 
z
M 1991 3584 
L 1991 3584 
z
" transform="scale(0.015625)"/>
      </defs>
      <use xlink:href="#DejaVuSans-54"/>
      <use xlink:href="#DejaVuSans-72" x="46.333984"/>
      <use xlink:href="#DejaVuSans-75" x="87.447266"/>
      <use xlink:href="#DejaVuSans-65" x="150.826172"/>
      <use xlink:href="#DejaVuSans-20" x="212.349609"/>
      <use xlink:href="#DejaVuSans-50" x="244.136719"/>
      <use xlink:href="#DejaVuSans-6f" x="300.814453"/>
      <use xlink:href="#DejaVuSans-73" x="361.996094"/>
      <use xlink:href="#DejaVuSans-69" x="414.095703"/>
      <use xlink:href="#DejaVuSans-74" x="441.878906"/>
      <use xlink:href="#DejaVuSans-69" x="481.087891"/>
      <use xlink:href="#DejaVuSans-76" x="508.871094"/>
      <use xlink:href="#DejaVuSans-65" x="568.050781"/>
      <use xlink:href="#DejaVuSans-20" x="629.574219"/>
      <use xlink:href="#DejaVuSans-52" x="661.361328"/>
      <use xlink:href="#DejaVuSans-61" x="728.59375"/>
      <use xlink:href="#DejaVuSans-74" x="789.873047"/>
      <use xlink:href="#DejaVuSans-65" x="829.082031"/>
     </g>
    </g>
   </g>
   <g id="line2d_13">
    <path d="M 73.832727 295.488 
L 73.832727 289.501133 
L 73.963901 289.501133 
L 73.963901 287.73037 
L 74.095074 287.73037 
L 74.095074 285.790963 
L 74.226248 285.790963 
L 74.226248 284.947742 
L 74.357421 284.947742 
L 74.357421 284.526132 
L 74.619769 284.526132 
L 74.619769 282.671046 
L 74.750942 282.671046 
L 74.750942 279.045198 
L 74.882116 279.045198 
L 74.882116 277.190112 
L 75.013289 277.190112 
L 75.013289 274.997739 
L 75.144463 274.997739 
L 75.144463 273.901552 
L 75.275636 273.901552 
L 75.275636 272.636721 
L 75.40681 272.636721 
L 75.40681 268.420618 
L 75.537983 268.420618 
L 75.537983 266.987143 
L 75.669157 266.987143 
L 75.669157 265.216379 
L 75.800331 265.216379 
L 75.800331 262.096463 
L 76.062678 262.012141 
L 76.062678 261.674853 
L 76.193851 261.674853 
L 76.193851 259.566801 
L 76.325025 259.566801 
L 76.325025 258.72358 
L 76.456198 258.72358 
L 76.456198 256.531207 
L 76.587372 256.531207 
L 76.587372 255.519342 
L 76.718545 255.519342 
L 76.718545 252.483748 
L 76.849719 252.483748 
L 76.849719 251.893493 
L 76.980893 251.893493 
L 76.980893 250.207052 
L 77.112066 250.207052 
L 77.112066 249.363831 
L 77.24324 249.363831 
L 77.24324 246.159593 
L 77.374413 246.159593 
L 77.374413 245.316372 
L 77.505587 245.316372 
L 77.505587 244.304507 
L 77.63676 244.304507 
L 77.63676 244.135863 
L 77.767934 244.135863 
L 77.767934 242.618066 
L 77.899107 242.618066 
L 77.899107 241.521879 
L 78.030281 241.521879 
L 78.030281 240.847303 
L 78.161455 240.847303 
L 78.161455 238.570607 
L 78.292628 238.570607 
L 78.292628 238.317641 
L 78.554975 238.317641 
L 78.554975 237.727387 
L 78.686149 237.727387 
L 78.686149 237.05281 
L 78.817322 237.05281 
L 78.817322 235.450691 
L 78.948496 235.450691 
L 78.948496 234.944758 
L 79.079669 234.944758 
L 79.079669 232.077808 
L 79.210843 232.077808 
L 79.210843 230.644333 
L 79.342017 230.644333 
L 79.342017 230.475689 
L 79.47319 230.475689 
L 79.47319 229.969757 
L 79.604364 229.969757 
L 79.604364 228.704926 
L 79.735537 228.704926 
L 79.735537 228.114671 
L 79.866711 228.114671 
L 79.866711 227.693061 
L 80.129058 227.693061 
L 80.129058 225.247721 
L 80.260231 225.247721 
L 80.260231 224.994755 
L 80.391405 224.994755 
L 80.391405 223.476958 
L 80.522579 223.476958 
L 80.522579 223.055348 
L 80.784926 222.971025 
L 80.784926 222.127805 
L 80.916099 222.127805 
L 80.916099 221.53755 
L 81.047273 221.53755 
L 81.047273 219.345177 
L 81.178446 219.345177 
L 81.178446 219.176533 
L 81.30962 219.176533 
L 81.30962 218.754922 
L 81.571967 218.6706 
L 81.571967 218.501956 
L 81.70314 218.501956 
L 81.70314 215.635006 
L 81.834314 215.635006 
L 81.834314 215.297718 
L 81.965488 215.297718 
L 81.965488 215.129074 
L 82.096661 215.129074 
L 82.096661 214.791785 
L 82.227835 214.791785 
L 82.227835 213.526954 
L 82.359008 213.526954 
L 82.359008 213.35831 
L 82.621355 213.35831 
L 82.621355 210.575682 
L 82.752529 210.575682 
L 82.752529 210.154072 
L 82.883702 210.154072 
L 82.883702 209.479495 
L 83.014876 209.479495 
L 83.014876 207.877376 
L 83.14605 207.877376 
L 83.14605 207.540088 
L 83.277223 207.540088 
L 83.277223 207.2028 
L 83.408397 207.2028 
L 83.408397 206.696867 
L 83.53957 206.696867 
L 83.53957 206.190935 
L 83.670744 206.190935 
L 83.670744 205.516358 
L 83.933091 205.432036 
L 83.933091 204.420171 
L 84.064264 204.420171 
L 84.064264 203.998561 
L 84.195438 203.998561 
L 84.195438 201.553221 
L 84.326612 201.553221 
L 84.326612 200.878645 
L 84.457785 200.878645 
L 84.457785 200.710001 
L 84.588959 200.710001 
L 84.588959 200.541357 
L 84.720132 200.541357 
L 84.720132 199.951102 
L 84.851306 199.951102 
L 84.851306 199.107881 
L 84.982479 199.107881 
L 84.982479 198.348983 
L 85.113653 198.348983 
L 85.113653 197.674406 
L 85.376 197.590084 
L 85.376 196.99983 
L 85.769521 196.99983 
L 85.769521 196.240931 
L 85.900694 196.240931 
L 85.900694 195.397711 
L 86.163041 195.313389 
L 86.163041 194.9761 
L 86.294215 194.9761 
L 86.294215 194.638812 
L 86.425388 194.638812 
L 86.425388 193.626947 
L 86.556562 193.626947 
L 86.556562 193.121015 
L 86.818909 193.036693 
L 86.818909 192.783727 
L 86.950083 192.783727 
L 86.950083 192.277794 
L 87.081256 192.277794 
L 87.081256 191.434574 
L 87.474777 191.350252 
L 87.474777 191.181608 
L 87.60595 191.181608 
L 87.60595 190.338387 
L 87.999471 190.338387 
L 87.999471 190.085421 
L 88.130645 190.085421 
L 88.130645 189.832455 
L 88.261818 189.832455 
L 88.261818 189.495166 
L 88.392992 189.495166 
L 88.392992 189.073556 
L 88.524165 189.073556 
L 88.524165 188.736268 
L 88.655339 188.736268 
L 88.655339 188.146013 
L 88.917686 188.061691 
L 88.917686 187.302793 
L 89.04886 187.302793 
L 89.04886 186.543894 
L 89.311207 186.459572 
L 89.311207 186.37525 
L 89.44238 186.37525 
L 89.44238 184.688809 
L 89.835901 184.604487 
L 89.835901 184.520165 
L 90.098248 184.435842 
L 90.098248 184.267198 
L 90.360595 184.267198 
L 90.360595 184.014232 
L 90.491769 184.014232 
L 90.491769 183.423978 
L 90.754116 183.423978 
L 90.754116 182.074825 
L 90.885289 182.074825 
L 90.885289 181.653214 
L 91.016463 181.653214 
L 91.016463 181.231604 
L 91.147636 181.231604 
L 91.147636 180.978638 
L 91.27881 180.978638 
L 91.27881 180.472705 
L 91.409983 180.472705 
L 91.409983 180.304061 
L 91.541157 180.304061 
L 91.541157 179.798129 
L 91.672331 179.798129 
L 91.672331 179.629485 
L 91.803504 179.629485 
L 91.803504 179.376519 
L 91.934678 179.376519 
L 91.934678 178.533298 
L 92.328198 178.448976 
L 92.328198 178.027366 
L 92.459372 178.027366 
L 92.459372 177.605755 
L 92.590545 177.605755 
L 92.590545 177.015501 
L 92.721719 177.015501 
L 92.721719 176.762535 
L 92.852893 176.762535 
L 92.852893 176.003636 
L 93.11524 176.003636 
L 93.11524 175.75067 
L 93.246413 175.75067 
L 93.246413 175.497704 
L 93.377587 175.497704 
L 93.377587 175.244738 
L 93.771107 175.160415 
L 93.771107 174.738805 
L 93.902281 174.738805 
L 93.902281 174.570161 
L 94.033455 174.570161 
L 94.033455 173.895585 
L 94.164628 173.895585 
L 94.164628 173.558296 
L 94.295802 173.558296 
L 94.295802 173.221008 
L 94.426975 173.221008 
L 94.426975 173.052364 
L 94.689322 173.052364 
L 94.689322 172.88372 
L 94.951669 172.88372 
L 94.951669 172.630754 
L 95.082843 172.630754 
L 95.082843 172.293465 
L 95.214017 172.293465 
L 95.214017 171.618889 
L 95.34519 171.618889 
L 95.34519 171.112956 
L 95.476364 171.112956 
L 95.476364 170.944312 
L 95.607537 170.944312 
L 95.607537 170.522702 
L 95.738711 170.522702 
L 95.738711 170.185414 
L 95.869884 170.185414 
L 95.869884 169.679481 
L 96.001058 169.679481 
L 96.001058 169.510837 
L 96.132231 169.510837 
L 96.132231 169.342193 
L 96.263405 169.342193 
L 96.263405 169.089227 
L 96.656926 169.004905 
L 96.656926 168.41465 
L 96.788099 168.41465 
L 96.788099 168.246006 
L 96.919273 168.246006 
L 96.919273 167.740074 
L 97.18162 167.740074 
L 97.18162 167.57143 
L 97.443967 167.487108 
L 97.443967 167.402786 
L 97.57514 167.402786 
L 97.57514 167.234142 
L 97.968661 167.149819 
L 97.968661 166.981175 
L 98.099835 166.981175 
L 98.099835 166.643887 
L 98.231008 166.643887 
L 98.231008 166.475243 
L 98.362182 166.475243 
L 98.362182 165.294734 
L 98.493355 165.294734 
L 98.493355 165.12609 
L 99.01805 165.041768 
L 99.01805 164.873124 
L 99.149223 164.873124 
L 99.149223 164.70448 
L 99.280397 164.70448 
L 99.280397 164.114225 
L 99.41157 164.114225 
L 99.41157 163.776937 
L 99.673917 163.692615 
L 99.673917 163.10236 
L 99.805091 163.10236 
L 99.805091 162.596428 
L 99.936264 162.596428 
L 99.936264 162.25914 
L 100.067438 162.25914 
L 100.067438 161.753207 
L 100.198612 161.753207 
L 100.198612 161.584563 
L 100.329785 161.584563 
L 100.329785 161.415919 
L 100.854479 161.331597 
L 100.854479 161.162953 
L 101.116826 161.078631 
L 101.116826 160.23541 
L 101.379174 160.151088 
L 101.379174 160.066766 
L 101.772694 159.982444 
L 101.772694 159.476512 
L 102.297388 159.39219 
L 102.297388 159.307868 
L 102.559736 159.307868 
L 102.559736 159.139223 
L 102.822083 159.139223 
L 102.822083 158.886257 
L 102.953256 158.886257 
L 102.953256 158.633291 
L 103.08443 158.633291 
L 103.08443 157.79007 
L 103.215603 157.79007 
L 103.215603 157.284138 
L 103.346777 157.284138 
L 103.346777 156.778206 
L 103.47795 156.778206 
L 103.47795 156.525239 
L 103.609124 156.525239 
L 103.609124 156.019307 
L 103.871471 155.934985 
L 103.871471 155.597697 
L 104.133818 155.513375 
L 104.133818 155.176086 
L 104.264992 155.176086 
L 104.264992 154.585832 
L 104.396165 154.585832 
L 104.396165 154.332866 
L 104.527339 154.332866 
L 104.527339 154.0799 
L 105.052033 153.995578 
L 105.052033 153.826933 
L 105.31438 153.742611 
L 105.31438 153.405323 
L 105.707901 153.321001 
L 105.707901 153.152357 
L 105.970248 153.152357 
L 105.970248 152.983713 
L 106.494942 152.899391 
L 106.494942 152.730747 
L 106.757289 152.730747 
L 106.757289 152.562102 
L 107.15081 152.47778 
L 107.15081 152.05617 
L 107.281983 152.05617 
L 107.281983 151.803204 
L 107.413157 151.803204 
L 107.413157 151.550238 
L 107.544331 151.550238 
L 107.544331 151.381594 
L 107.675504 151.381594 
L 107.675504 151.128627 
L 107.806678 151.128627 
L 107.806678 150.959983 
L 107.937851 150.959983 
L 107.937851 150.538373 
L 108.069025 150.538373 
L 108.069025 150.369729 
L 108.200198 150.369729 
L 108.200198 150.201085 
L 108.462545 150.116763 
L 108.462545 149.863796 
L 109.38076 149.779474 
L 109.38076 149.18922 
L 109.643107 149.104898 
L 109.643107 149.020576 
L 110.036628 149.020576 
L 110.036628 148.683288 
L 110.298975 148.683288 
L 110.298975 148.345999 
L 110.561322 148.261677 
L 110.561322 148.177355 
L 110.692496 148.177355 
L 110.692496 148.008711 
L 110.823669 148.008711 
L 110.823669 147.840067 
L 111.086017 147.840067 
L 111.086017 147.671423 
L 111.610711 147.671423 
L 111.610711 147.249812 
L 111.741884 147.249812 
L 111.741884 146.74388 
L 112.004231 146.659558 
L 112.004231 146.32227 
L 112.266579 146.32227 
L 112.266579 146.153626 
L 112.660099 146.153626 
L 112.660099 145.816337 
L 112.791273 145.816337 
L 112.791273 145.563371 
L 112.922446 145.563371 
L 112.922446 145.394727 
L 113.05362 145.394727 
L 113.05362 145.057439 
L 113.315967 145.057439 
L 113.315967 144.635829 
L 113.44714 144.635829 
L 113.44714 144.214218 
L 113.578314 144.214218 
L 113.578314 144.045574 
L 113.709488 144.045574 
L 113.709488 143.87693 
L 113.840661 143.87693 
L 113.840661 143.708286 
L 113.971835 143.708286 
L 113.971835 143.539642 
L 114.103008 143.539642 
L 114.103008 143.370998 
L 114.496529 143.286675 
L 114.496529 143.202353 
L 114.627702 143.202353 
L 114.627702 142.949387 
L 114.89005 142.865065 
L 114.89005 142.780743 
L 115.545917 142.696421 
L 115.545917 142.612099 
L 115.677091 142.612099 
L 115.677091 142.359133 
L 115.939438 142.359133 
L 115.939438 142.190489 
L 116.070612 142.190489 
L 116.070612 142.021845 
L 116.201785 142.021845 
L 116.201785 141.768878 
L 116.332959 141.768878 
L 116.332959 141.600234 
L 116.464132 141.600234 
L 116.464132 141.094302 
L 116.726479 141.094302 
L 116.726479 140.925658 
L 117.382347 140.925658 
L 117.382347 140.504047 
L 117.775868 140.504047 
L 117.775868 140.251081 
L 117.907041 140.251081 
L 117.907041 140.082437 
L 118.431736 139.998115 
L 118.431736 139.913793 
L 118.694083 139.913793 
L 118.694083 139.492183 
L 118.95643 139.407861 
L 118.95643 139.154894 
L 119.087603 139.154894 
L 119.087603 138.98625 
L 119.34995 138.901928 
L 119.34995 138.648962 
L 119.743471 138.56464 
L 119.743471 138.227352 
L 120.136992 138.14303 
L 120.136992 137.974386 
L 120.530512 137.974386 
L 120.530512 137.721419 
L 120.661686 137.721419 
L 120.661686 137.552775 
L 120.79286 137.552775 
L 120.79286 137.215487 
L 120.924033 137.215487 
L 120.924033 136.709555 
L 121.317554 136.709555 
L 121.317554 136.287944 
L 121.973421 136.203622 
L 121.973421 136.034978 
L 122.235769 135.950656 
L 122.235769 135.866334 
L 122.629289 135.782012 
L 122.629289 135.69769 
L 123.02281 135.613368 
L 123.02281 135.529046 
L 123.285157 135.444724 
L 123.285157 135.191757 
L 123.547504 135.191757 
L 123.547504 134.938791 
L 123.678678 134.938791 
L 123.678678 134.770147 
L 123.941025 134.685825 
L 123.941025 134.517181 
L 124.728066 134.432859 
L 124.728066 134.348537 
L 125.383934 134.264215 
L 125.383934 134.179893 
L 125.646281 134.179893 
L 125.646281 134.011249 
L 126.302149 133.926926 
L 126.302149 133.842604 
L 126.433322 133.842604 
L 126.433322 133.25235 
L 126.695669 133.168028 
L 126.695669 133.083706 
L 127.08919 132.999384 
L 127.08919 132.915062 
L 127.351537 132.915062 
L 127.351537 132.662096 
L 128.400926 132.577773 
L 128.400926 131.818875 
L 128.794446 131.734553 
L 128.794446 131.650231 
L 129.187967 131.650231 
L 129.187967 131.059976 
L 129.31914 131.059976 
L 129.31914 130.554044 
L 130.106182 130.469722 
L 130.106182 130.048112 
L 130.499702 130.048112 
L 130.499702 129.795145 
L 130.76205 129.710823 
L 130.76205 129.626501 
L 130.893223 129.626501 
L 130.893223 129.289213 
L 131.286744 129.204891 
L 131.286744 129.120569 
L 131.811438 129.036247 
L 131.811438 128.867603 
L 132.336132 128.783281 
L 132.336132 128.698959 
L 133.123174 128.614636 
L 133.123174 128.530314 
L 133.254347 128.530314 
L 133.254347 128.024382 
L 133.779041 127.94006 
L 133.779041 127.771416 
L 134.172562 127.687094 
L 134.172562 127.434128 
L 134.303736 127.434128 
L 134.303736 127.265483 
L 134.82843 127.181161 
L 134.82843 127.012517 
L 134.959603 127.012517 
L 134.959603 126.843873 
L 135.22195 126.843873 
L 135.22195 126.506585 
L 135.484298 126.506585 
L 135.484298 126.253619 
L 135.746645 126.169297 
L 135.746645 126.084975 
L 136.008992 126.084975 
L 136.008992 125.91633 
L 136.66486 125.832008 
L 136.66486 125.579042 
L 137.320727 125.49472 
L 137.320727 125.326076 
L 137.714248 125.241754 
L 137.714248 125.07311 
L 137.976595 125.07311 
L 137.976595 124.904466 
L 138.107769 124.904466 
L 138.107769 124.651499 
L 138.501289 124.567177 
L 138.501289 124.398533 
L 139.157157 124.314211 
L 139.157157 124.229889 
L 139.944198 124.145567 
L 139.944198 123.892601 
L 140.075372 123.892601 
L 140.075372 123.723957 
L 140.206545 123.723957 
L 140.206545 123.470991 
L 140.73124 123.386669 
L 140.73124 123.302346 
L 141.649455 123.218024 
L 141.649455 123.04938 
L 141.911802 122.965058 
L 141.911802 122.796414 
L 142.830017 122.712092 
L 142.830017 122.62777 
L 142.96119 122.62777 
L 142.96119 122.459126 
L 143.092364 122.459126 
L 143.092364 121.868871 
L 143.485884 121.784549 
L 143.485884 121.447261 
L 144.535273 121.362939 
L 144.535273 121.278617 
L 144.666446 121.278617 
L 144.666446 120.941329 
L 145.059967 120.857007 
L 145.059967 120.772685 
L 145.322314 120.688362 
L 145.322314 120.519718 
L 145.847008 120.435396 
L 145.847008 120.351074 
L 146.63405 120.266752 
L 146.63405 120.098108 
L 147.945785 120.013786 
L 147.945785 119.76082 
L 148.208132 119.76082 
L 148.208132 119.507854 
L 148.601653 119.423532 
L 148.601653 119.339209 
L 148.732826 119.339209 
L 148.732826 119.170565 
L 148.995174 119.086243 
L 148.995174 118.748955 
L 149.651041 118.664633 
L 149.651041 118.580311 
L 150.569256 118.495989 
L 150.569256 118.074379 
L 150.70043 118.074379 
L 150.70043 117.905734 
L 150.831603 117.905734 
L 150.831603 117.73709 
L 151.356298 117.652768 
L 151.356298 117.568446 
L 151.618645 117.568446 
L 151.618645 117.31548 
L 152.668033 117.231158 
L 152.668033 116.978192 
L 153.455074 116.89387 
L 153.455074 116.725226 
L 153.848595 116.725226 
L 153.848595 116.556581 
L 154.504463 116.472259 
L 154.504463 116.387937 
L 154.635636 116.387937 
L 154.635636 116.219293 
L 155.029157 116.134971 
L 155.029157 115.966327 
L 155.291504 115.882005 
L 155.291504 115.713361 
L 156.209719 115.629039 
L 156.209719 115.544717 
L 156.60324 115.544717 
L 156.60324 115.376072 
L 156.99676 115.29175 
L 156.99676 115.123106 
L 157.127934 115.123106 
L 157.127934 114.785818 
L 157.390281 114.701496 
L 157.390281 114.617174 
L 157.652628 114.617174 
L 157.652628 114.44853 
L 158.439669 114.364208 
L 158.439669 114.279886 
L 159.226711 114.279886 
L 159.226711 114.026919 
L 159.489058 113.942597 
L 159.489058 113.858275 
L 159.751405 113.773953 
L 159.751405 113.520987 
L 160.013752 113.436665 
L 160.013752 113.352343 
L 160.276099 113.352343 
L 160.276099 113.099377 
L 161.325488 113.015055 
L 161.325488 112.930733 
L 161.719008 112.930733 
L 161.719008 112.762089 
L 162.637223 112.762089 
L 162.637223 112.593444 
L 163.686612 112.509122 
L 163.686612 112.4248 
L 164.342479 112.340478 
L 164.342479 112.256156 
L 164.998347 112.171834 
L 164.998347 111.918868 
L 165.391868 111.834546 
L 165.391868 111.497258 
L 165.916562 111.497258 
L 165.916562 111.328613 
L 166.178909 111.328613 
L 166.178909 111.075647 
L 166.310083 111.075647 
L 166.310083 110.738359 
L 166.834777 110.654037 
L 166.834777 110.485393 
L 167.097124 110.485393 
L 167.097124 110.232427 
L 167.490645 110.148105 
L 167.490645 110.063783 
L 168.015339 110.063783 
L 168.015339 109.895138 
L 168.671207 109.810816 
L 168.671207 109.389206 
L 168.933554 109.304884 
L 168.933554 109.051918 
L 169.720595 108.967596 
L 169.720595 108.883274 
L 170.507636 108.883274 
L 170.507636 108.714629 
L 171.163504 108.630307 
L 171.163504 108.545985 
L 171.688198 108.545985 
L 171.688198 108.208697 
L 171.950545 108.208697 
L 171.950545 107.871409 
L 172.212893 107.871409 
L 172.212893 107.702765 
L 172.999934 107.618443 
L 172.999934 107.449799 
L 173.393455 107.449799 
L 173.393455 107.281154 
L 173.786975 107.196832 
L 173.786975 107.028188 
L 174.70519 107.028188 
L 174.70519 106.859544 
L 175.098711 106.775222 
L 175.098711 106.6909 
L 175.492231 106.606578 
L 175.492231 106.522256 
L 175.885752 106.437934 
L 175.885752 106.353612 
L 176.410446 106.26929 
L 176.410446 106.184968 
L 176.803967 106.100646 
L 176.803967 105.763357 
L 177.328661 105.763357 
L 177.328661 105.594713 
L 177.459835 105.594713 
L 177.459835 105.426069 
L 177.984529 105.341747 
L 177.984529 105.257425 
L 179.033917 105.173103 
L 179.033917 104.920137 
L 179.558612 104.835815 
L 179.558612 104.751493 
L 179.689785 104.751493 
L 179.689785 104.329882 
L 180.083306 104.329882 
L 180.083306 104.076916 
L 180.476826 103.992594 
L 180.476826 103.908272 
L 181.263868 103.908272 
L 181.263868 103.739628 
L 181.657388 103.655306 
L 181.657388 103.570984 
L 182.313256 103.486662 
L 182.313256 103.318017 
L 182.706777 103.233695 
L 182.706777 103.149373 
L 182.969124 103.065051 
L 182.969124 102.812085 
L 183.756165 102.812085 
L 183.756165 102.474797 
L 184.018512 102.474797 
L 184.018512 102.306153 
L 184.149686 102.306153 
L 184.149686 102.053186 
L 184.67438 102.053186 
L 184.67438 101.884542 
L 185.461421 101.80022 
L 185.461421 101.715898 
L 185.592595 101.715898 
L 185.592595 101.547254 
L 185.986116 101.462932 
L 185.986116 101.37861 
L 186.117289 101.37861 
L 186.117289 101.209966 
L 186.773157 101.209966 
L 186.773157 100.872678 
L 187.035504 100.788356 
L 187.035504 100.451067 
L 187.429025 100.366745 
L 187.429025 100.198101 
L 188.609587 100.198101 
L 188.609587 99.945135 
L 189.003107 99.945135 
L 189.003107 99.692169 
L 189.134281 99.692169 
L 189.134281 99.35488 
L 189.527802 99.270558 
L 189.527802 98.93327 
L 189.790149 98.93327 
L 189.790149 98.764626 
L 190.708364 98.680304 
L 190.708364 98.427338 
L 190.970711 98.427338 
L 190.970711 98.258694 
L 191.364231 98.174372 
L 191.364231 98.090049 
L 191.495405 98.090049 
L 191.495405 97.921405 
L 192.282446 97.837083 
L 192.282446 97.752761 
L 193.594182 97.668439 
L 193.594182 97.499795 
L 194.905917 97.415473 
L 194.905917 97.331151 
L 195.430612 97.246829 
L 195.430612 97.162507 
L 195.692959 97.162507 
L 195.692959 96.909541 
L 195.824132 96.909541 
L 195.824132 96.740896 
L 196.086479 96.656574 
L 196.086479 96.572252 
L 196.611174 96.48793 
L 196.611174 96.403608 
L 196.873521 96.403608 
L 196.873521 96.234964 
L 197.660562 96.150642 
L 197.660562 96.06632 
L 198.054083 95.981998 
L 198.054083 95.64471 
L 198.447603 95.560388 
L 198.447603 95.391743 
L 200.808727 95.307421 
L 200.808727 95.054455 
L 201.595769 95.054455 
L 201.595769 94.885811 
L 202.645157 94.801489 
L 202.645157 94.717167 
L 203.038678 94.632845 
L 203.038678 94.548523 
L 203.301025 94.464201 
L 203.301025 94.379879 
L 203.432198 94.379879 
L 203.432198 94.126913 
L 204.088066 94.04259 
L 204.088066 93.958268 
L 204.61276 93.873946 
L 204.61276 93.789624 
L 205.268628 93.705302 
L 205.268628 93.452336 
L 205.530975 93.452336 
L 205.530975 93.283692 
L 206.44919 93.19937 
L 206.44919 93.115048 
L 206.973884 93.030726 
L 206.973884 92.946404 
L 207.367405 92.862082 
L 207.367405 92.693437 
L 207.498579 92.693437 
L 207.498579 92.524793 
L 208.547967 92.440471 
L 208.547967 92.187505 
L 210.51557 92.103183 
L 210.51557 92.018861 
L 210.646744 92.018861 
L 210.646744 91.850217 
L 211.040264 91.765895 
L 211.040264 91.597251 
L 211.171438 91.597251 
L 211.171438 91.428606 
L 211.827306 91.344284 
L 211.827306 91.17564 
L 213.007868 91.091318 
L 213.007868 91.006996 
L 213.139041 91.006996 
L 213.139041 90.838352 
L 214.057256 90.75403 
L 214.057256 90.585386 
L 214.713124 90.585386 
L 214.713124 90.33242 
L 215.237818 90.248098 
L 215.237818 90.163776 
L 215.500165 90.163776 
L 215.500165 89.995131 
L 216.02486 89.910809 
L 216.02486 89.826487 
L 216.41838 89.826487 
L 216.41838 89.657843 
L 217.074248 89.573521 
L 217.074248 89.236233 
L 217.730116 89.151911 
L 217.730116 89.067589 
L 218.123636 89.067589 
L 218.123636 88.898945 
L 218.25481 88.898945 
L 218.25481 88.645978 
L 218.385983 88.645978 
L 218.385983 88.393012 
L 218.779504 88.393012 
L 218.779504 88.140046 
L 219.173025 88.055724 
L 219.173025 87.971402 
L 219.435372 87.88708 
L 219.435372 87.718436 
L 219.828893 87.634114 
L 219.828893 87.46547 
L 219.960066 87.46547 
L 219.960066 87.296825 
L 221.140628 87.212503 
L 221.140628 87.128181 
L 222.452364 87.043859 
L 222.452364 86.875215 
L 222.845884 86.790893 
L 222.845884 86.706571 
L 222.977058 86.706571 
L 222.977058 86.453605 
L 224.026446 86.369283 
L 224.026446 86.031994 
L 224.419967 86.031994 
L 224.419967 85.86335 
L 224.813488 85.779028 
L 224.813488 85.694706 
L 224.944661 85.694706 
L 224.944661 85.357418 
L 225.731702 85.273096 
L 225.731702 85.188774 
L 226.125223 85.104452 
L 226.125223 85.02013 
L 226.38757 84.935808 
L 226.38757 84.851486 
L 226.518744 84.851486 
L 226.518744 84.682841 
L 227.436959 84.598519 
L 227.436959 84.514197 
L 229.011041 84.429875 
L 229.011041 84.345553 
L 229.666909 84.261231 
L 229.666909 84.176909 
L 229.798083 84.176909 
L 229.798083 84.008265 
L 231.109818 83.923943 
L 231.109818 83.839621 
L 232.159207 83.755299 
L 232.159207 83.586655 
L 232.815074 83.502333 
L 232.815074 83.41801 
L 233.470942 83.333688 
L 233.470942 83.249366 
L 233.733289 83.165044 
L 233.733289 83.080722 
L 234.520331 82.9964 
L 234.520331 82.912078 
L 234.782678 82.912078 
L 234.782678 82.743434 
L 236.094413 82.659112 
L 236.094413 82.57479 
L 237.143802 82.490468 
L 237.143802 82.321824 
L 237.406149 82.237502 
L 237.406149 82.068857 
L 237.930843 81.984535 
L 237.930843 81.900213 
L 238.849058 81.900213 
L 238.849058 81.731569 
L 240.02962 81.647247 
L 240.02962 81.562925 
L 240.160793 81.562925 
L 240.160793 81.394281 
L 240.42314 81.309959 
L 240.42314 81.225637 
L 241.210182 81.141315 
L 241.210182 81.056993 
L 241.734876 80.972671 
L 241.734876 80.888349 
L 242.521917 80.888349 
L 242.521917 80.719704 
L 242.653091 80.719704 
L 242.653091 80.55106 
L 243.046612 80.466738 
L 243.046612 80.382416 
L 243.702479 80.298094 
L 243.702479 80.213772 
L 244.620694 80.12945 
L 244.620694 79.960806 
L 245.014215 79.876484 
L 245.014215 79.792162 
L 245.670083 79.792162 
L 245.670083 79.623518 
L 246.588298 79.539196 
L 246.588298 79.286229 
L 246.719471 79.286229 
L 246.719471 79.117585 
L 247.244165 79.033263 
L 247.244165 78.780297 
L 248.424727 78.695975 
L 248.424727 78.611653 
L 248.555901 78.611653 
L 248.555901 78.443009 
L 249.342942 78.358687 
L 249.342942 78.274365 
L 250.392331 78.190043 
L 250.392331 78.10572 
L 250.654678 78.021398 
L 250.654678 77.937076 
L 251.572893 77.852754 
L 251.572893 77.768432 
L 251.966413 77.68411 
L 251.966413 77.599788 
L 252.491107 77.515466 
L 252.491107 77.178178 
L 253.146975 77.178178 
L 253.146975 77.009534 
L 254.196364 76.925212 
L 254.196364 76.84089 
L 254.983405 76.756567 
L 254.983405 76.672245 
L 255.245752 76.587923 
L 255.245752 76.503601 
L 256.29514 76.419279 
L 256.29514 76.334957 
L 256.951008 76.250635 
L 256.951008 75.829025 
L 257.082182 75.829025 
L 257.082182 75.660381 
L 257.73805 75.576059 
L 257.73805 75.491736 
L 258.656264 75.491736 
L 258.656264 75.323092 
L 259.574479 75.23877 
L 259.574479 75.154448 
L 259.836826 75.070126 
L 259.836826 74.985804 
L 260.230347 74.901482 
L 260.230347 74.81716 
L 260.886215 74.81716 
L 260.886215 74.648516 
L 264.165554 74.648516 
L 264.165554 74.479872 
L 265.083769 74.39555 
L 265.083769 74.311228 
L 265.477289 74.226906 
L 265.477289 74.142583 
L 266.395504 74.058261 
L 266.395504 73.973939 
L 266.920198 73.889617 
L 266.920198 73.805295 
L 267.313719 73.720973 
L 267.313719 73.636651 
L 267.576066 73.552329 
L 267.576066 73.468007 
L 268.10076 73.468007 
L 268.10076 73.299363 
L 269.150149 73.215041 
L 269.150149 72.962075 
L 270.068364 72.962075 
L 270.068364 72.79343 
L 270.986579 72.79343 
L 270.986579 72.624786 
L 272.691835 72.540464 
L 272.691835 72.456142 
L 275.184132 72.37182 
L 275.184132 72.287498 
L 277.020562 72.203176 
L 277.020562 72.034532 
L 277.282909 71.95021 
L 277.282909 71.865888 
L 278.594645 71.781566 
L 278.594645 71.697244 
L 279.250512 71.612922 
L 279.250512 71.359955 
L 280.168727 71.275633 
L 280.168727 71.191311 
L 281.611636 71.106989 
L 281.611636 71.022667 
L 282.267504 70.938345 
L 282.267504 70.601057 
L 282.792198 70.516735 
L 282.792198 70.432413 
L 284.366281 70.348091 
L 284.366281 70.263769 
L 285.415669 70.179446 
L 285.415669 70.095124 
L 285.940364 70.010802 
L 285.940364 69.92648 
L 287.252099 69.842158 
L 287.252099 69.757836 
L 287.514446 69.673514 
L 287.514446 69.50487 
L 287.907967 69.420548 
L 287.907967 69.167582 
L 288.432661 69.08326 
L 288.432661 68.998938 
L 288.563835 68.998938 
L 288.563835 68.830293 
L 288.957355 68.830293 
L 288.957355 68.661649 
L 289.48205 68.577327 
L 289.48205 68.493005 
L 291.712 68.408683 
L 291.712 68.324361 
L 293.023736 68.240039 
L 293.023736 68.155717 
L 293.94195 68.071395 
L 293.94195 67.987073 
L 294.204298 67.902751 
L 294.204298 67.818429 
L 294.728992 67.734107 
L 294.728992 67.649785 
L 294.860165 67.649785 
L 294.860165 67.48114 
L 296.958942 67.396818 
L 296.958942 67.312496 
L 297.090116 67.312496 
L 297.090116 67.143852 
L 297.877157 67.143852 
L 297.877157 66.890886 
L 299.057719 66.806564 
L 299.057719 66.63792 
L 299.320066 66.553598 
L 299.320066 66.384954 
L 299.45124 66.384954 
L 299.45124 66.21631 
L 301.025322 66.131987 
L 301.025322 66.047665 
L 301.418843 66.047665 
L 301.418843 65.879021 
L 302.599405 65.794699 
L 302.599405 65.541733 
L 303.51762 65.457411 
L 303.51762 65.373089 
L 304.960529 65.288767 
L 304.960529 65.035801 
L 305.222876 64.951479 
L 305.222876 64.782834 
L 305.74757 64.698512 
L 305.74757 64.61419 
L 306.141091 64.529868 
L 306.141091 64.445546 
L 307.452826 64.361224 
L 307.452826 64.276902 
L 309.682777 64.19258 
L 309.682777 64.023936 
L 310.207471 64.023936 
L 310.207471 63.686648 
L 310.863339 63.602326 
L 310.863339 63.518003 
L 312.830942 63.433681 
L 312.830942 63.349359 
L 313.355636 63.265037 
L 313.355636 63.012071 
L 314.405025 62.927749 
L 314.405025 62.843427 
L 314.929719 62.843427 
L 314.929719 62.674783 
L 315.585587 62.590461 
L 315.585587 62.421817 
L 316.503802 62.337495 
L 316.503802 62.16885 
L 317.684364 62.16885 
L 317.684364 62.000206 
L 318.209058 61.915884 
L 318.209058 61.831562 
L 319.258446 61.74724 
L 319.258446 61.662918 
L 319.914314 61.578596 
L 319.914314 61.494274 
L 321.488397 61.409952 
L 321.488397 61.32563 
L 322.144264 61.241308 
L 322.144264 61.156986 
L 323.324826 61.072664 
L 323.324826 60.988342 
L 323.849521 60.90402 
L 323.849521 60.819697 
L 324.898909 60.735375 
L 324.898909 60.651053 
L 325.030083 60.651053 
L 325.030083 60.398087 
L 325.423603 60.313765 
L 325.423603 60.229443 
L 327.653554 60.145121 
L 327.653554 60.060799 
L 327.784727 60.060799 
L 327.784727 59.723511 
L 328.178248 59.639189 
L 328.178248 59.554867 
L 328.309421 59.554867 
L 328.309421 59.3019 
L 328.965289 59.217578 
L 328.965289 59.048934 
L 330.277025 59.048934 
L 330.277025 58.627324 
L 331.19524 58.543002 
L 331.19524 58.45868 
L 332.113455 58.374358 
L 332.113455 58.290036 
L 333.42519 58.205713 
L 333.42519 58.121391 
L 333.949884 58.037069 
L 333.949884 57.784103 
L 334.999273 57.784103 
L 334.999273 57.615459 
L 336.835702 57.531137 
L 336.835702 57.446815 
L 338.540959 57.362493 
L 338.540959 57.193849 
L 342.476165 57.109527 
L 342.476165 57.025205 
L 343.525554 56.940883 
L 343.525554 56.85656 
L 346.280198 56.772238 
L 346.280198 56.687916 
L 346.673719 56.687916 
L 346.673719 56.519272 
L 348.116628 56.43495 
L 348.116628 56.350628 
L 351.13362 56.266306 
L 351.13362 56.181984 
L 352.576529 56.097662 
L 352.576529 56.01334 
L 353.625917 55.929018 
L 353.625917 55.844696 
L 357.42995 55.760374 
L 357.42995 55.59173 
L 358.479339 55.507407 
L 358.479339 55.254441 
L 360.578116 55.170119 
L 360.578116 55.085797 
L 366.612099 55.001475 
L 366.612099 54.832831 
L 367.39914 54.748509 
L 367.39914 54.664187 
L 368.317355 54.579865 
L 368.317355 54.495543 
L 371.334347 54.411221 
L 371.334347 54.326899 
L 372.777256 54.242577 
L 372.777256 54.158254 
L 375.269554 54.073932 
L 375.269554 53.98961 
L 377.630678 53.905288 
L 377.630678 53.820966 
L 377.761851 53.820966 
L 377.761851 53.652322 
L 398.487273 53.568 
L 398.487273 53.568 
" clip-path="url(#p8c1ce2452b)" style="fill: none; stroke: #1f77b4; stroke-width: 1.5; stroke-linecap: square"/>
   </g>
   <g id="line2d_14">
    <path d="M 73.832727 295.488 
L 73.832727 281.021673 
L 73.945887 281.021673 
L 73.945887 280.044218 
L 74.285365 279.946473 
L 74.285365 278.2848 
L 74.511684 278.187055 
L 74.511684 277.405091 
L 74.624844 277.405091 
L 74.624844 276.329891 
L 74.738003 276.329891 
L 74.738003 276.036655 
L 74.851163 276.036655 
L 74.851163 275.254691 
L 74.964322 275.254691 
L 74.964322 275.0592 
L 75.077482 275.0592 
L 75.077482 273.006545 
L 75.190641 273.006545 
L 75.190641 272.713309 
L 75.303801 272.713309 
L 75.303801 272.322327 
L 75.41696 272.322327 
L 75.41696 272.029091 
L 75.530119 272.029091 
L 75.530119 271.735855 
L 75.756438 271.735855 
L 75.756438 268.998982 
L 75.869598 268.998982 
L 75.869598 267.239564 
L 75.982757 267.239564 
L 75.982757 267.044073 
L 76.095917 267.044073 
L 76.095917 265.675636 
L 76.548555 265.577891 
L 76.548555 264.893673 
L 76.774874 264.893673 
L 76.774874 263.916218 
L 76.888033 263.916218 
L 76.888033 262.059055 
L 77.001193 262.059055 
L 77.001193 261.668073 
L 77.114352 261.668073 
L 77.114352 261.277091 
L 77.227512 261.277091 
L 77.227512 260.495127 
L 77.340671 260.495127 
L 77.340671 260.201891 
L 77.56699 260.104145 
L 77.56699 257.953745 
L 77.68015 257.953745 
L 77.68015 257.660509 
L 77.793309 257.660509 
L 77.793309 256.878545 
L 78.019628 256.878545 
L 78.019628 256.585309 
L 78.132787 256.585309 
L 78.132787 256.292073 
L 78.245947 256.292073 
L 78.245947 254.532655 
L 78.359106 254.532655 
L 78.359106 253.946182 
L 78.472266 253.946182 
L 78.472266 253.750691 
L 78.585425 253.750691 
L 78.585425 252.870982 
L 78.698585 252.870982 
L 78.698585 250.818327 
L 78.924904 250.818327 
L 78.924904 249.840873 
L 79.038063 249.840873 
L 79.038063 249.547636 
L 79.151223 249.547636 
L 79.151223 248.472436 
L 79.264382 248.472436 
L 79.264382 248.1792 
L 79.490701 248.1792 
L 79.490701 247.397236 
L 79.83018 247.397236 
L 79.83018 247.104 
L 80.056499 247.006255 
L 80.056499 246.810764 
L 80.169658 246.810764 
L 80.169658 246.0288 
L 80.282818 246.0288 
L 80.282818 245.637818 
L 80.395977 245.637818 
L 80.395977 245.344582 
L 80.622296 245.246836 
L 80.622296 244.660364 
L 81.188093 244.660364 
L 81.188093 243.682909 
L 81.527572 243.585164 
L 81.527572 243.194182 
L 81.98021 243.096436 
L 81.98021 242.900945 
L 82.546007 242.8032 
L 82.546007 242.705455 
L 82.772326 242.607709 
L 82.772326 241.043782 
L 82.998645 240.946036 
L 82.998645 240.750545 
L 83.451283 240.6528 
L 83.451283 240.164073 
L 83.564442 240.164073 
L 83.564442 239.870836 
L 83.677602 239.870836 
L 83.677602 239.5776 
L 83.903921 239.479855 
L 83.903921 239.284364 
L 84.01708 239.284364 
L 84.01708 238.600145 
L 84.13024 238.600145 
L 84.13024 238.306909 
L 84.243399 238.306909 
L 84.243399 238.111418 
L 84.356559 238.111418 
L 84.356559 237.915927 
L 84.469718 237.915927 
L 84.469718 236.938473 
L 84.696037 236.840727 
L 84.696037 236.449745 
L 84.809197 236.449745 
L 84.809197 235.961018 
L 84.922356 235.961018 
L 84.922356 235.667782 
L 85.035516 235.667782 
L 85.035516 235.374545 
L 85.374994 235.2768 
L 85.374994 234.397091 
L 85.601313 234.397091 
L 85.601313 233.908364 
L 85.714473 233.908364 
L 85.714473 233.712873 
L 85.940792 233.712873 
L 85.940792 233.517382 
L 86.053951 233.517382 
L 86.053951 233.224145 
L 86.28027 233.224145 
L 86.28027 232.833164 
L 86.393429 232.833164 
L 86.393429 232.344436 
L 86.506589 232.344436 
L 86.506589 232.0512 
L 86.846067 232.0512 
L 86.846067 231.757964 
L 87.072386 231.660218 
L 87.072386 230.389527 
L 87.185546 230.389527 
L 87.185546 230.194036 
L 87.298705 230.194036 
L 87.298705 229.998545 
L 87.411865 229.998545 
L 87.411865 229.705309 
L 87.864503 229.705309 
L 87.864503 229.314327 
L 88.090822 229.314327 
L 88.090822 229.118836 
L 88.203981 229.118836 
L 88.203981 227.652655 
L 88.317141 227.652655 
L 88.317141 227.066182 
L 88.4303 227.066182 
L 88.4303 226.6752 
L 88.54346 226.6752 
L 88.54346 226.479709 
L 88.769779 226.381964 
L 88.769779 226.088727 
L 89.109257 225.990982 
L 89.109257 225.893236 
L 89.561895 225.795491 
L 89.561895 225.111273 
L 89.675054 225.111273 
L 89.675054 224.720291 
L 89.788214 224.720291 
L 89.788214 224.231564 
L 89.901373 224.231564 
L 89.901373 224.036073 
L 90.240852 224.036073 
L 90.240852 223.742836 
L 90.354011 223.742836 
L 90.354011 223.156364 
L 90.58033 223.156364 
L 90.58033 222.863127 
L 90.69349 222.863127 
L 90.69349 221.787927 
L 91.032968 221.690182 
L 91.032968 221.592436 
L 91.372447 221.494691 
L 91.372447 221.396945 
L 91.598765 221.396945 
L 91.598765 221.103709 
L 91.711925 221.103709 
L 91.711925 220.517236 
L 92.051403 220.517236 
L 92.051403 219.930764 
L 92.390882 219.833018 
L 92.390882 218.855564 
L 92.504041 218.855564 
L 92.504041 218.269091 
L 92.84352 218.171345 
L 92.84352 217.878109 
L 93.069839 217.780364 
L 93.069839 217.682618 
L 93.296158 217.584873 
L 93.296158 217.291636 
L 93.409317 217.291636 
L 93.409317 216.900655 
L 93.522477 216.900655 
L 93.522477 216.020945 
L 93.748796 215.9232 
L 93.748796 214.848 
L 93.861955 214.848 
L 93.861955 214.261527 
L 93.975115 214.261527 
L 93.975115 213.968291 
L 94.314593 213.870545 
L 94.314593 213.577309 
L 94.654071 213.479564 
L 94.654071 213.381818 
L 94.767231 213.381818 
L 94.767231 213.088582 
L 95.219869 212.990836 
L 95.219869 212.795345 
L 95.559347 212.6976 
L 95.559347 212.599855 
L 95.672507 212.599855 
L 95.672507 211.720145 
L 95.898826 211.6224 
L 95.898826 211.329164 
L 96.125145 211.231418 
L 96.125145 210.5472 
L 96.351464 210.449455 
L 96.351464 209.667491 
L 96.464623 209.667491 
L 96.464623 209.276509 
L 96.577783 209.276509 
L 96.577783 208.983273 
L 97.14358 208.885527 
L 97.14358 208.494545 
L 97.369899 208.3968 
L 97.369899 208.005818 
L 97.483058 208.005818 
L 97.483058 207.3216 
L 97.596218 207.3216 
L 97.596218 206.930618 
L 97.709377 206.930618 
L 97.709377 206.637382 
L 98.048856 206.637382 
L 98.048856 206.441891 
L 98.162015 206.441891 
L 98.162015 206.148655 
L 98.275175 206.148655 
L 98.275175 205.855418 
L 98.388334 205.855418 
L 98.388334 205.1712 
L 98.614653 205.073455 
L 98.614653 204.975709 
L 98.840972 204.975709 
L 98.840972 204.193745 
L 98.954132 204.193745 
L 98.954132 203.607273 
L 99.067291 203.607273 
L 99.067291 201.847855 
L 99.29361 201.750109 
L 99.29361 200.8704 
L 99.40677 200.8704 
L 99.40677 200.479418 
L 99.633089 200.479418 
L 99.633089 199.7952 
L 99.859407 199.7952 
L 99.859407 199.110982 
L 100.198886 199.110982 
L 100.198886 198.426764 
L 100.538364 198.329018 
L 100.538364 197.938036 
L 100.764683 197.840291 
L 100.764683 197.742545 
L 100.991002 197.6448 
L 100.991002 197.449309 
L 101.104162 197.449309 
L 101.104162 197.253818 
L 101.217321 197.253818 
L 101.217321 197.058327 
L 101.330481 197.058327 
L 101.330481 196.765091 
L 101.44364 196.765091 
L 101.44364 196.374109 
L 101.5568 196.374109 
L 101.5568 196.178618 
L 101.783119 196.080873 
L 101.783119 195.4944 
L 102.122597 195.396655 
L 102.122597 192.953018 
L 102.348916 192.953018 
L 102.348916 192.464291 
L 102.575235 192.366545 
L 102.575235 192.171055 
L 102.801554 192.073309 
L 102.801554 191.975564 
L 102.914713 191.975564 
L 102.914713 191.584582 
L 103.027873 191.584582 
L 103.027873 191.291345 
L 103.254192 191.291345 
L 103.254192 190.607127 
L 103.480511 190.509382 
L 103.480511 190.1184 
L 104.272627 190.020655 
L 104.272627 189.727418 
L 104.385787 189.727418 
L 104.385787 189.531927 
L 104.498946 189.531927 
L 104.498946 189.238691 
L 104.612106 189.238691 
L 104.612106 188.749964 
L 104.838425 188.652218 
L 104.838425 188.554473 
L 104.951584 188.554473 
L 104.951584 188.261236 
L 105.064743 188.261236 
L 105.064743 187.968 
L 105.177903 187.968 
L 105.177903 187.577018 
L 105.291062 187.577018 
L 105.291062 187.186036 
L 105.517381 187.186036 
L 105.517381 186.697309 
L 106.083179 186.599564 
L 106.083179 186.306327 
L 106.196338 186.306327 
L 106.196338 186.110836 
L 106.422657 186.013091 
L 106.422657 185.915345 
L 106.535817 185.915345 
L 106.535817 185.328873 
L 106.762136 185.231127 
L 106.762136 185.133382 
L 106.875295 185.133382 
L 106.875295 184.449164 
L 107.101614 184.351418 
L 107.101614 183.960436 
L 107.214774 183.960436 
L 107.214774 183.764945 
L 107.554252 183.6672 
L 107.554252 183.080727 
L 107.667412 183.080727 
L 107.667412 182.787491 
L 108.00689 182.787491 
L 108.00689 182.494255 
L 108.346368 182.396509 
L 108.346368 182.298764 
L 108.685847 182.298764 
L 108.685847 181.810036 
L 108.799006 181.810036 
L 108.799006 181.614545 
L 109.025325 181.614545 
L 109.025325 181.125818 
L 109.251644 181.028073 
L 109.251644 180.832582 
L 109.477963 180.832582 
L 109.477963 180.637091 
L 109.591123 180.637091 
L 109.591123 180.148364 
L 109.704282 180.148364 
L 109.704282 179.952873 
L 109.817442 179.952873 
L 109.817442 179.659636 
L 109.930601 179.659636 
L 109.930601 179.464145 
L 110.27008 179.3664 
L 110.27008 179.268655 
L 110.496398 179.268655 
L 110.496398 178.682182 
L 110.609558 178.682182 
L 110.609558 178.486691 
L 110.722717 178.486691 
L 110.722717 178.2912 
L 110.835877 178.2912 
L 110.835877 177.900218 
L 110.949036 177.900218 
L 110.949036 177.704727 
L 111.175355 177.606982 
L 111.175355 177.509236 
L 111.514834 177.411491 
L 111.514834 177.118255 
L 111.627993 177.118255 
L 111.627993 176.531782 
L 111.854312 176.531782 
L 111.854312 175.847564 
L 111.967472 175.847564 
L 111.967472 175.652073 
L 112.080631 175.652073 
L 112.080631 175.456582 
L 112.42011 175.358836 
L 112.42011 175.261091 
L 112.646429 175.261091 
L 112.646429 174.772364 
L 112.759588 174.772364 
L 112.759588 174.479127 
L 112.872748 174.479127 
L 112.872748 174.283636 
L 112.985907 174.283636 
L 112.985907 173.501673 
L 113.212226 173.501673 
L 113.212226 173.306182 
L 113.325385 173.306182 
L 113.325385 173.012945 
L 113.438545 173.012945 
L 113.438545 172.719709 
L 113.664864 172.621964 
L 113.664864 172.524218 
L 113.778023 172.524218 
L 113.778023 172.133236 
L 114.004342 172.035491 
L 114.004342 171.84 
L 114.117502 171.84 
L 114.117502 171.546764 
L 114.343821 171.546764 
L 114.343821 171.058036 
L 114.45698 171.058036 
L 114.45698 170.7648 
L 114.683299 170.667055 
L 114.683299 169.787345 
L 115.022778 169.6896 
L 115.022778 169.396364 
L 115.135937 169.396364 
L 115.135937 169.200873 
L 115.362256 169.103127 
L 115.362256 168.027927 
L 115.588575 167.930182 
L 115.588575 167.343709 
L 115.928053 167.245964 
L 115.928053 167.148218 
L 116.154372 167.050473 
L 116.154372 166.854982 
L 116.380691 166.757236 
L 116.380691 166.561745 
L 116.493851 166.561745 
L 116.493851 166.170764 
L 117.059648 166.073018 
L 117.059648 165.877527 
L 117.399127 165.779782 
L 117.399127 165.486545 
L 117.964924 165.3888 
L 117.964924 164.704582 
L 118.417562 164.606836 
L 118.417562 164.509091 
L 118.530722 164.509091 
L 118.530722 164.3136 
L 118.75704 164.3136 
L 118.75704 163.922618 
L 118.8702 163.922618 
L 118.8702 163.336145 
L 118.983359 163.336145 
L 118.983359 162.554182 
L 119.322838 162.456436 
L 119.322838 162.358691 
L 119.549157 162.358691 
L 119.549157 162.1632 
L 119.888635 162.065455 
L 119.888635 161.967709 
L 120.114954 161.869964 
L 120.114954 161.674473 
L 120.567592 161.576727 
L 120.567592 161.283491 
L 121.246549 161.185745 
L 121.246549 161.088 
L 121.472868 161.088 
L 121.472868 160.794764 
L 121.586027 160.794764 
L 121.586027 160.599273 
L 121.699187 160.599273 
L 121.699187 160.306036 
L 122.151825 160.306036 
L 122.151825 159.915055 
L 122.491303 159.817309 
L 122.491303 159.524073 
L 122.604463 159.524073 
L 122.604463 159.230836 
L 122.943941 159.133091 
L 122.943941 158.9376 
L 123.17026 158.839855 
L 123.17026 158.546618 
L 123.509739 158.546618 
L 123.509739 158.057891 
L 123.736058 158.057891 
L 123.736058 157.666909 
L 123.849217 157.666909 
L 123.849217 157.373673 
L 124.188695 157.275927 
L 124.188695 156.591709 
L 124.301855 156.591709 
L 124.301855 156.396218 
L 124.528174 156.396218 
L 124.528174 156.200727 
L 124.641333 156.200727 
L 124.641333 155.907491 
L 125.093971 155.809745 
L 125.093971 155.712 
L 125.207131 155.712 
L 125.207131 155.516509 
L 125.546609 155.418764 
L 125.546609 154.148073 
L 125.659769 154.148073 
L 125.659769 153.952582 
L 125.999247 153.952582 
L 125.999247 153.463855 
L 126.112407 153.463855 
L 126.112407 153.170618 
L 126.565045 153.072873 
L 126.565045 152.877382 
L 126.791363 152.779636 
L 126.791363 152.584145 
L 126.904523 152.584145 
L 126.904523 152.388655 
L 127.130842 152.290909 
L 127.130842 151.704436 
L 127.357161 151.704436 
L 127.357161 151.508945 
L 127.696639 151.508945 
L 127.696639 151.215709 
L 127.809799 151.215709 
L 127.809799 151.020218 
L 127.922958 151.020218 
L 127.922958 150.824727 
L 128.036118 150.824727 
L 128.036118 150.629236 
L 128.149277 150.629236 
L 128.149277 150.336 
L 128.262437 150.336 
L 128.262437 150.140509 
L 128.715075 150.042764 
L 128.715075 149.945018 
L 128.941394 149.847273 
L 128.941394 149.749527 
L 129.054553 149.749527 
L 129.054553 149.554036 
L 129.167713 149.554036 
L 129.167713 149.358545 
L 129.280872 149.358545 
L 129.280872 148.772073 
L 129.507191 148.772073 
L 129.507191 148.1856 
L 129.846669 148.1856 
L 129.846669 147.696873 
L 129.959829 147.696873 
L 129.959829 146.426182 
L 130.299307 146.328436 
L 130.299307 146.132945 
L 130.751945 146.132945 
L 130.751945 145.937455 
L 130.978264 145.839709 
L 130.978264 145.546473 
L 131.091424 145.546473 
L 131.091424 145.253236 
L 131.317743 145.253236 
L 131.317743 145.057745 
L 131.430902 145.057745 
L 131.430902 144.862255 
L 131.544062 144.862255 
L 131.544062 144.666764 
L 131.770381 144.569018 
L 131.770381 144.471273 
L 132.336178 144.373527 
L 132.336178 144.178036 
L 132.562497 144.080291 
L 132.562497 143.787055 
L 132.675656 143.787055 
L 132.675656 143.200582 
L 132.788816 143.200582 
L 132.788816 142.8096 
L 133.128294 142.711855 
L 133.128294 141.832145 
L 133.241454 141.832145 
L 133.241454 141.343418 
L 133.580932 141.245673 
L 133.580932 141.147927 
L 133.807251 141.050182 
L 133.807251 140.854691 
L 134.03357 140.854691 
L 134.03357 140.6592 
L 134.373049 140.6592 
L 134.373049 140.463709 
L 134.486208 140.463709 
L 134.486208 139.974982 
L 134.712527 139.974982 
L 134.712527 139.779491 
L 135.165165 139.779491 
L 135.165165 139.584 
L 135.730962 139.486255 
L 135.730962 139.388509 
L 136.070441 139.388509 
L 136.070441 139.095273 
L 136.409919 139.095273 
L 136.409919 138.215564 
L 136.749398 138.117818 
L 136.749398 137.922327 
L 137.315195 137.824582 
L 137.315195 137.726836 
L 137.767833 137.726836 
L 137.767833 137.238109 
L 138.107311 137.140364 
L 138.107311 137.042618 
L 138.220471 137.042618 
L 138.220471 136.847127 
L 138.559949 136.749382 
L 138.559949 136.651636 
L 138.673109 136.651636 
L 138.673109 136.162909 
L 138.899428 136.162909 
L 138.899428 135.771927 
L 139.465225 135.674182 
L 139.465225 135.478691 
L 139.917863 135.478691 
L 139.917863 134.892218 
L 140.370501 134.794473 
L 140.370501 134.696727 
L 140.59682 134.598982 
L 140.59682 134.403491 
L 140.823139 134.403491 
L 140.823139 134.110255 
L 140.936298 134.110255 
L 140.936298 133.914764 
L 141.049458 133.914764 
L 141.049458 133.719273 
L 141.388936 133.621527 
L 141.388936 133.035055 
L 141.502096 133.035055 
L 141.502096 132.839564 
L 141.954734 132.741818 
L 141.954734 132.448582 
L 142.633691 132.350836 
L 142.633691 132.155345 
L 142.74685 132.155345 
L 142.74685 131.959855 
L 143.086328 131.959855 
L 143.086328 131.275636 
L 143.312647 131.177891 
L 143.312647 130.884655 
L 143.652126 130.786909 
L 143.652126 130.689164 
L 143.878445 130.689164 
L 143.878445 130.298182 
L 144.444242 130.200436 
L 144.444242 130.004945 
L 144.670561 129.9072 
L 144.670561 129.613964 
L 144.89688 129.516218 
L 144.89688 129.320727 
L 145.123199 129.222982 
L 145.123199 129.027491 
L 145.236359 129.027491 
L 145.236359 128.832 
L 145.575837 128.734255 
L 145.575837 128.050036 
L 145.915315 127.952291 
L 145.915315 127.7568 
L 146.141634 127.7568 
L 146.141634 127.463564 
L 146.481113 127.365818 
L 146.481113 126.877091 
L 146.707432 126.877091 
L 146.707432 126.6816 
L 147.16007 126.6816 
L 147.16007 126.486109 
L 147.612708 126.486109 
L 147.612708 126.095127 
L 147.725867 126.095127 
L 147.725867 125.704145 
L 148.065346 125.6064 
L 148.065346 125.019927 
L 148.291665 124.922182 
L 148.291665 124.433455 
L 148.744302 124.335709 
L 148.744302 124.237964 
L 149.3101 124.237964 
L 149.3101 124.042473 
L 149.423259 124.042473 
L 149.423259 123.749236 
L 149.649578 123.749236 
L 149.649578 123.358255 
L 149.762738 123.358255 
L 149.762738 123.162764 
L 150.215376 123.065018 
L 150.215376 122.869527 
L 150.441695 122.869527 
L 150.441695 122.576291 
L 151.007492 122.478545 
L 151.007492 122.3808 
L 151.34697 122.3808 
L 151.34697 122.185309 
L 151.573289 122.185309 
L 151.573289 121.794327 
L 152.139087 121.696582 
L 152.139087 121.501091 
L 152.591725 121.403345 
L 152.591725 121.012364 
L 152.704884 121.012364 
L 152.704884 120.719127 
L 152.818044 120.719127 
L 152.818044 120.523636 
L 152.931203 120.523636 
L 152.931203 119.839418 
L 153.270682 119.741673 
L 153.270682 119.057455 
L 153.497001 119.057455 
L 153.497001 118.764218 
L 153.61016 118.764218 
L 153.61016 118.470982 
L 153.723319 118.470982 
L 153.723319 117.982255 
L 154.062798 117.982255 
L 154.062798 117.786764 
L 154.289117 117.689018 
L 154.289117 117.591273 
L 154.741755 117.493527 
L 154.741755 117.395782 
L 154.968074 117.298036 
L 154.968074 117.200291 
L 155.307552 117.200291 
L 155.307552 116.613818 
L 155.420712 116.613818 
L 155.420712 116.125091 
L 155.76019 116.027345 
L 155.76019 115.831855 
L 155.986509 115.734109 
L 155.986509 115.636364 
L 156.665466 115.538618 
L 156.665466 115.343127 
L 157.004944 115.245382 
L 157.004944 114.952145 
L 157.118104 114.952145 
L 157.118104 114.463418 
L 157.231263 114.463418 
L 157.231263 114.267927 
L 157.570742 114.170182 
L 157.570742 114.072436 
L 157.91022 113.974691 
L 157.91022 113.7792 
L 158.249699 113.681455 
L 158.249699 113.388218 
L 158.362858 113.388218 
L 158.362858 113.192727 
L 158.589177 113.192727 
L 158.589177 112.899491 
L 158.815496 112.899491 
L 158.815496 112.704 
L 158.928656 112.704 
L 158.928656 112.313018 
L 159.268134 112.313018 
L 159.268134 111.726545 
L 159.381293 111.726545 
L 159.381293 111.531055 
L 159.720772 111.531055 
L 159.720772 111.335564 
L 159.833931 111.335564 
L 159.833931 111.140073 
L 159.947091 111.140073 
L 159.947091 110.944582 
L 160.399729 110.846836 
L 160.399729 110.749091 
L 160.965526 110.749091 
L 160.965526 110.358109 
L 161.078686 110.358109 
L 161.078686 110.064873 
L 161.191845 110.064873 
L 161.191845 109.771636 
L 161.305005 109.771636 
L 161.305005 109.576145 
L 161.870802 109.4784 
L 161.870802 109.380655 
L 162.21028 109.282909 
L 162.21028 109.087418 
L 162.662918 108.989673 
L 162.662918 108.794182 
L 163.002397 108.794182 
L 163.002397 108.109964 
L 163.115556 108.109964 
L 163.115556 107.816727 
L 163.455035 107.718982 
L 163.455035 107.230255 
L 163.681354 107.132509 
L 163.681354 106.839273 
L 164.020832 106.741527 
L 164.020832 106.643782 
L 164.247151 106.546036 
L 164.247151 106.350545 
L 164.812948 106.2528 
L 164.812948 105.861818 
L 164.926108 105.861818 
L 164.926108 105.470836 
L 165.491905 105.373091 
L 165.491905 105.1776 
L 166.510341 105.079855 
L 166.510341 104.982109 
L 166.6235 104.982109 
L 166.6235 104.591127 
L 166.73666 104.591127 
L 166.73666 104.297891 
L 167.076138 104.200145 
L 167.076138 104.1024 
L 167.415616 104.004655 
L 167.415616 103.418182 
L 167.528776 103.418182 
L 167.528776 103.124945 
L 167.981414 103.0272 
L 167.981414 102.929455 
L 168.547211 102.831709 
L 168.547211 102.538473 
L 168.660371 102.538473 
L 168.660371 102.245236 
L 168.77353 102.245236 
L 168.77353 102.049745 
L 168.88669 102.049745 
L 168.88669 101.756509 
L 169.226168 101.658764 
L 169.226168 101.463273 
L 169.791966 101.365527 
L 169.791966 101.170036 
L 170.018284 101.170036 
L 170.018284 100.974545 
L 170.357763 100.8768 
L 170.357763 100.681309 
L 170.470922 100.681309 
L 170.470922 100.388073 
L 170.92356 100.290327 
L 170.92356 99.899345 
L 171.149879 99.899345 
L 171.149879 99.703855 
L 171.376198 99.606109 
L 171.376198 99.508364 
L 171.715677 99.508364 
L 171.715677 99.312873 
L 172.168315 99.312873 
L 172.168315 99.117382 
L 172.620953 99.019636 
L 172.620953 98.7264 
L 172.960431 98.628655 
L 172.960431 98.530909 
L 173.413069 98.433164 
L 173.413069 98.237673 
L 173.639388 98.237673 
L 173.639388 97.944436 
L 174.431504 97.846691 
L 174.431504 97.748945 
L 174.657823 97.6512 
L 174.657823 97.162473 
L 174.884142 97.064727 
L 174.884142 96.771491 
L 175.110461 96.771491 
L 175.110461 96.576 
L 175.223621 96.576 
L 175.223621 96.380509 
L 175.449939 96.282764 
L 175.449939 96.087273 
L 176.015737 95.989527 
L 176.015737 95.891782 
L 176.468375 95.794036 
L 176.468375 95.5008 
L 177.034172 95.5008 
L 177.034172 95.012073 
L 177.826289 94.914327 
L 177.826289 94.816582 
L 178.618405 94.816582 
L 178.618405 94.523345 
L 178.731564 94.523345 
L 178.731564 94.327855 
L 179.863159 94.230109 
L 179.863159 94.034618 
L 179.976319 94.034618 
L 179.976319 93.448145 
L 180.315797 93.448145 
L 180.315797 93.252655 
L 180.542116 93.154909 
L 180.542116 92.959418 
L 180.768435 92.861673 
L 180.768435 92.763927 
L 181.673711 92.666182 
L 181.673711 92.568436 
L 181.78687 92.568436 
L 181.78687 92.177455 
L 182.013189 92.177455 
L 182.013189 91.981964 
L 182.126349 91.981964 
L 182.126349 91.590982 
L 182.352668 91.493236 
L 182.352668 91.2 
L 182.465827 91.2 
L 182.465827 90.906764 
L 182.805306 90.809018 
L 182.805306 90.711273 
L 183.371103 90.613527 
L 183.371103 90.418036 
L 183.823741 90.320291 
L 183.823741 90.222545 
L 184.05006 90.1248 
L 184.05006 89.929309 
L 184.276379 89.831564 
L 184.276379 89.636073 
L 184.502698 89.538327 
L 184.502698 89.440582 
L 184.729017 89.440582 
L 184.729017 89.245091 
L 184.842176 89.245091 
L 184.842176 88.951855 
L 185.407974 88.951855 
L 185.407974 88.658618 
L 186.539568 88.560873 
L 186.539568 88.463127 
L 187.105366 88.365382 
L 187.105366 88.072145 
L 187.331685 88.072145 
L 187.331685 87.876655 
L 187.897482 87.778909 
L 187.897482 87.681164 
L 188.010642 87.681164 
L 188.010642 87.485673 
L 188.46328 87.387927 
L 188.46328 87.290182 
L 189.029077 87.192436 
L 189.029077 87.094691 
L 189.708034 86.996945 
L 189.708034 86.801455 
L 189.821193 86.801455 
L 189.821193 86.508218 
L 190.160672 86.410473 
L 190.160672 86.312727 
L 190.50015 86.312727 
L 190.50015 86.019491 
L 191.065948 86.019491 
L 191.065948 85.530764 
L 191.292267 85.530764 
L 191.292267 85.335273 
L 192.197542 85.237527 
L 192.197542 85.139782 
L 192.76334 85.042036 
L 192.76334 84.944291 
L 192.989659 84.944291 
L 192.989659 84.7488 
L 193.442297 84.651055 
L 193.442297 84.553309 
L 193.555456 84.553309 
L 193.555456 84.162327 
L 193.781775 84.064582 
L 193.781775 83.966836 
L 194.234413 83.869091 
L 194.234413 83.6736 
L 194.573891 83.575855 
L 194.573891 83.478109 
L 195.026529 83.380364 
L 195.026529 83.282618 
L 195.479167 83.184873 
L 195.479167 83.087127 
L 196.610762 82.989382 
L 196.610762 82.793891 
L 197.289719 82.696145 
L 197.289719 82.5984 
L 198.081835 82.500655 
L 198.081835 82.207418 
L 198.308154 82.207418 
L 198.308154 82.011927 
L 198.873952 81.914182 
L 198.873952 81.816436 
L 200.118706 81.718691 
L 200.118706 81.327709 
L 200.345025 81.327709 
L 200.345025 81.132218 
L 200.797663 81.034473 
L 200.797663 80.936727 
L 201.023982 80.838982 
L 201.023982 80.741236 
L 201.47662 80.741236 
L 201.47662 80.545745 
L 201.929258 80.545745 
L 201.929258 80.252509 
L 202.155577 80.154764 
L 202.155577 80.057018 
L 202.947693 80.057018 
L 202.947693 79.470545 
L 203.400331 79.3728 
L 203.400331 79.275055 
L 203.739809 79.177309 
L 203.739809 79.079564 
L 204.531926 78.981818 
L 204.531926 78.884073 
L 205.097723 78.786327 
L 205.097723 78.688582 
L 205.66352 78.590836 
L 205.66352 78.493091 
L 206.568796 78.395345 
L 206.568796 78.199855 
L 206.908275 78.102109 
L 206.908275 77.906618 
L 207.247753 77.808873 
L 207.247753 77.515636 
L 207.474072 77.515636 
L 207.474072 77.320145 
L 207.81355 77.2224 
L 207.81355 77.026909 
L 208.379348 76.929164 
L 208.379348 76.831418 
L 208.718826 76.733673 
L 208.718826 76.440436 
L 209.397783 76.342691 
L 209.397783 76.244945 
L 210.642537 76.1472 
L 210.642537 76.049455 
L 211.208335 75.951709 
L 211.208335 75.853964 
L 212.000451 75.756218 
L 212.000451 75.658473 
L 213.018887 75.560727 
L 213.018887 75.462982 
L 214.829438 75.365236 
L 214.829438 75.267491 
L 215.508395 75.169745 
L 215.508395 74.974255 
L 215.734714 74.974255 
L 215.734714 74.778764 
L 215.847874 74.778764 
L 215.847874 74.485527 
L 216.63999 74.387782 
L 216.63999 74.192291 
L 216.866309 74.094545 
L 216.866309 73.9968 
L 218.111063 73.899055 
L 218.111063 73.801309 
L 218.450542 73.703564 
L 218.450542 73.410327 
L 218.79002 73.312582 
L 218.79002 73.214836 
L 219.695296 73.117091 
L 219.695296 73.019345 
L 220.826891 72.9216 
L 220.826891 72.823855 
L 221.732166 72.726109 
L 221.732166 72.628364 
L 222.976921 72.530618 
L 222.976921 72.432873 
L 223.429559 72.335127 
L 223.429559 72.041891 
L 223.769037 71.944145 
L 223.769037 71.8464 
L 225.579589 71.748655 
L 225.579589 71.650909 
L 226.258546 71.553164 
L 226.258546 71.455418 
L 226.371705 71.455418 
L 226.371705 71.259927 
L 226.711183 71.162182 
L 226.711183 71.064436 
L 227.050662 70.966691 
L 227.050662 70.7712 
L 227.955938 70.673455 
L 227.955938 70.575709 
L 228.861214 70.477964 
L 228.861214 70.282473 
L 229.427011 70.184727 
L 229.427011 70.086982 
L 230.332287 69.989236 
L 230.332287 69.891491 
L 231.350722 69.793745 
L 231.350722 69.696 
L 232.255998 69.598255 
L 232.255998 69.500509 
L 233.613912 69.402764 
L 233.613912 69.305018 
L 233.95339 69.305018 
L 233.95339 69.109527 
L 234.179709 69.109527 
L 234.179709 68.914036 
L 234.858666 68.816291 
L 234.858666 68.718545 
L 236.21658 68.6208 
L 236.21658 68.523055 
L 237.008696 68.425309 
L 237.008696 68.229818 
L 237.461334 68.132073 
L 237.461334 68.034327 
L 238.140291 67.936582 
L 238.140291 67.741091 
L 239.498205 67.643345 
L 239.498205 67.5456 
L 240.856118 67.447855 
L 240.856118 67.350109 
L 241.535075 67.252364 
L 241.535075 67.056873 
L 243.006148 66.959127 
L 243.006148 66.861382 
L 243.911424 66.763636 
L 243.911424 66.665891 
L 244.8167 66.568145 
L 244.8167 66.4704 
L 245.721976 66.372655 
L 245.721976 66.274909 
L 248.098325 66.177164 
L 248.098325 65.981673 
L 249.22992 65.883927 
L 249.22992 65.688436 
L 249.569398 65.590691 
L 249.569398 65.492945 
L 249.682558 65.492945 
L 249.682558 65.297455 
L 252.058907 65.199709 
L 252.058907 65.101964 
L 252.285226 65.004218 
L 252.285226 64.906473 
L 254.322096 64.808727 
L 254.322096 64.710982 
L 255.227372 64.613236 
L 255.227372 64.515491 
L 256.245808 64.417745 
L 256.245808 64.32 
L 257.037924 64.222255 
L 257.037924 64.124509 
L 257.377402 64.124509 
L 257.377402 63.831273 
L 258.735316 63.733527 
L 258.735316 63.538036 
L 259.98007 63.440291 
L 259.98007 63.342545 
L 260.998506 63.2448 
L 260.998506 63.147055 
L 261.790622 63.049309 
L 261.790622 62.951564 
L 263.601174 62.853818 
L 263.601174 62.756073 
L 264.166971 62.658327 
L 264.166971 62.560582 
L 266.317001 62.462836 
L 266.317001 62.1696 
L 267.222277 62.071855 
L 267.222277 61.974109 
L 269.145988 61.876364 
L 269.145988 61.778618 
L 271.069699 61.680873 
L 271.069699 61.583127 
L 271.522337 61.485382 
L 271.522337 61.387636 
L 275.709238 61.289891 
L 275.709238 61.192145 
L 277.632949 61.0944 
L 277.632949 60.996655 
L 278.651384 60.898909 
L 278.651384 60.801164 
L 280.009298 60.703418 
L 280.009298 60.605673 
L 280.914574 60.507927 
L 280.914574 60.410182 
L 283.96988 60.312436 
L 283.96988 60.214691 
L 288.26994 60.116945 
L 288.26994 59.921455 
L 290.193651 59.823709 
L 290.193651 59.725964 
L 290.872608 59.628218 
L 290.872608 59.530473 
L 295.172668 59.432727 
L 295.172668 59.334982 
L 295.512147 59.237236 
L 295.512147 59.139491 
L 296.304263 59.041745 
L 296.304263 58.944 
L 300.038526 58.846255 
L 300.038526 58.748509 
L 301.28328 58.650764 
L 301.28328 58.553018 
L 303.885948 58.455273 
L 303.885948 58.357527 
L 307.507052 58.259782 
L 307.507052 58.064291 
L 308.864965 57.966545 
L 308.864965 57.8688 
L 311.241314 57.771055 
L 311.241314 57.673309 
L 313.391344 57.575564 
L 313.391344 57.477818 
L 317.917724 57.380073 
L 317.917724 57.282327 
L 320.97303 57.184582 
L 320.97303 57.086836 
L 321.765146 57.086836 
L 321.765146 56.891345 
L 325.15993 56.7936 
L 325.15993 56.695855 
L 327.536279 56.598109 
L 327.536279 56.500364 
L 329.799469 56.402618 
L 329.799469 56.304873 
L 332.288977 56.207127 
L 332.288977 56.109382 
L 337.720632 56.011636 
L 337.720632 55.913891 
L 340.775938 55.816145 
L 340.775938 55.7184 
L 346.207593 55.620655 
L 346.207593 55.522909 
L 350.281335 55.425164 
L 350.281335 55.327418 
L 353.56296 55.229673 
L 353.56296 55.131927 
L 357.86302 55.034182 
L 357.86302 54.936436 
L 362.16308 54.838691 
L 362.16308 54.740945 
L 369.518446 54.6432 
L 369.518446 54.545455 
L 373.931666 54.447709 
L 373.931666 54.349964 
L 381.287032 54.252218 
L 381.287032 54.154473 
L 383.77654 54.154473 
L 383.77654 53.958982 
L 385.473933 53.861236 
L 385.473933 53.763491 
L 390.45295 53.665745 
L 390.45295 53.568 
L 398.487273 53.568 
L 398.487273 53.568 
" clip-path="url(#p8c1ce2452b)" style="fill: none; stroke: #ff7f0e; stroke-width: 1.5; stroke-linecap: square"/>
   </g>
   <g id="patch_3">
    <path d="M 57.6 307.584 
L 57.6 41.472 
" style="fill: none; stroke: #000000; stroke-width: 0.8; stroke-linejoin: miter; stroke-linecap: square"/>
   </g>
   <g id="patch_4">
    <path d="M 414.72 307.584 
L 414.72 41.472 
" style="fill: none; stroke: #000000; stroke-width: 0.8; stroke-linejoin: miter; stroke-linecap: square"/>
   </g>
   <g id="patch_5">
    <path d="M 57.6 307.584 
L 414.72 307.584 
" style="fill: none; stroke: #000000; stroke-width: 0.8; stroke-linejoin: miter; stroke-linecap: square"/>
   </g>
   <g id="patch_6">
    <path d="M 57.6 41.472 
L 414.72 41.472 
" style="fill: none; stroke: #000000; stroke-width: 0.8; stroke-linejoin: miter; stroke-linecap: square"/>
   </g>
   <g id="text_15">
    <!-- ROC Curves for Each Class -->
    <g transform="translate(156.01875 35.472)scale(0.12 -0.12)">
     <defs>
      <path id="DejaVuSans-4f" d="M 2522 4238 
Q 1834 4238 1429 3725 
Q 1025 3213 1025 2328 
Q 1025 1447 1429 934 
Q 1834 422 2522 422 
Q 3209 422 3611 934 
Q 4013 1447 4013 2328 
Q 4013 3213 3611 3725 
Q 3209 4238 2522 4238 
z
M 2522 4750 
Q 3503 4750 4090 4092 
Q 4678 3434 4678 2328 
Q 4678 1225 4090 567 
Q 3503 -91 2522 -91 
Q 1538 -91 948 565 
Q 359 1222 359 2328 
Q 359 3434 948 4092 
Q 1538 4750 2522 4750 
z
" transform="scale(0.015625)"/>
      <path id="DejaVuSans-43" d="M 4122 4306 
L 4122 3641 
Q 3803 3938 3442 4084 
Q 3081 4231 2675 4231 
Q 1875 4231 1450 3742 
Q 1025 3253 1025 2328 
Q 1025 1406 1450 917 
Q 1875 428 2675 428 
Q 3081 428 3442 575 
Q 3803 722 4122 1019 
L 4122 359 
Q 3791 134 3420 21 
Q 3050 -91 2638 -91 
Q 1578 -91 968 557 
Q 359 1206 359 2328 
Q 359 3453 968 4101 
Q 1578 4750 2638 4750 
Q 3056 4750 3426 4639 
Q 3797 4528 4122 4306 
z
" transform="scale(0.015625)"/>
      <path id="DejaVuSans-66" d="M 2375 4863 
L 2375 4384 
L 1825 4384 
Q 1516 4384 1395 4259 
Q 1275 4134 1275 3809 
L 1275 3500 
L 2222 3500 
L 2222 3053 
L 1275 3053 
L 1275 0 
L 697 0 
L 697 3053 
L 147 3053 
L 147 3500 
L 697 3500 
L 697 3744 
Q 697 4328 969 4595 
Q 1241 4863 1831 4863 
L 2375 4863 
z
" transform="scale(0.015625)"/>
      <path id="DejaVuSans-45" d="M 628 4666 
L 3578 4666 
L 3578 4134 
L 1259 4134 
L 1259 2753 
L 3481 2753 
L 3481 2222 
L 1259 2222 
L 1259 531 
L 3634 531 
L 3634 0 
L 628 0 
L 628 4666 
z
" transform="scale(0.015625)"/>
      <path id="DejaVuSans-63" d="M 3122 3366 
L 3122 2828 
Q 2878 2963 2633 3030 
Q 2388 3097 2138 3097 
Q 1578 3097 1268 2742 
Q 959 2388 959 1747 
Q 959 1106 1268 751 
Q 1578 397 2138 397 
Q 2388 397 2633 464 
Q 2878 531 3122 666 
L 3122 134 
Q 2881 22 2623 -34 
Q 2366 -91 2075 -91 
Q 1284 -91 818 406 
Q 353 903 353 1747 
Q 353 2603 823 3093 
Q 1294 3584 2113 3584 
Q 2378 3584 2631 3529 
Q 2884 3475 3122 3366 
z
" transform="scale(0.015625)"/>
      <path id="DejaVuSans-68" d="M 3513 2113 
L 3513 0 
L 2938 0 
L 2938 2094 
Q 2938 2591 2744 2837 
Q 2550 3084 2163 3084 
Q 1697 3084 1428 2787 
Q 1159 2491 1159 1978 
L 1159 0 
L 581 0 
L 581 4863 
L 1159 4863 
L 1159 2956 
Q 1366 3272 1645 3428 
Q 1925 3584 2291 3584 
Q 2894 3584 3203 3211 
Q 3513 2838 3513 2113 
z
" transform="scale(0.015625)"/>
     </defs>
     <use xlink:href="#DejaVuSans-52"/>
     <use xlink:href="#DejaVuSans-4f" x="69.482422"/>
     <use xlink:href="#DejaVuSans-43" x="148.193359"/>
     <use xlink:href="#DejaVuSans-20" x="218.017578"/>
     <use xlink:href="#DejaVuSans-43" x="249.804688"/>
     <use xlink:href="#DejaVuSans-75" x="319.628906"/>
     <use xlink:href="#DejaVuSans-72" x="383.007812"/>
     <use xlink:href="#DejaVuSans-76" x="424.121094"/>
     <use xlink:href="#DejaVuSans-65" x="483.300781"/>
     <use xlink:href="#DejaVuSans-73" x="544.824219"/>
     <use xlink:href="#DejaVuSans-20" x="596.923828"/>
     <use xlink:href="#DejaVuSans-66" x="628.710938"/>
     <use xlink:href="#DejaVuSans-6f" x="663.916016"/>
     <use xlink:href="#DejaVuSans-72" x="725.097656"/>
     <use xlink:href="#DejaVuSans-20" x="766.210938"/>
     <use xlink:href="#DejaVuSans-45" x="797.998047"/>
     <use xlink:href="#DejaVuSans-61" x="861.181641"/>
     <use xlink:href="#DejaVuSans-63" x="922.460938"/>
     <use xlink:href="#DejaVuSans-68" x="977.441406"/>
     <use xlink:href="#DejaVuSans-20" x="1040.820312"/>
     <use xlink:href="#DejaVuSans-43" x="1072.607422"/>
     <use xlink:href="#DejaVuSans-6c" x="1142.431641"/>
     <use xlink:href="#DejaVuSans-61" x="1170.214844"/>
     <use xlink:href="#DejaVuSans-73" x="1231.494141"/>
     <use xlink:href="#DejaVuSans-73" x="1283.59375"/>
    </g>
   </g>
   <g id="legend_1">
    <g id="patch_7">
     <path d="M 270.746563 302.584 
L 407.72 302.584 
Q 409.72 302.584 409.72 300.584 
L 409.72 272.22775 
Q 409.72 270.22775 407.72 270.22775 
L 270.746563 270.22775 
Q 268.746563 270.22775 268.746563 272.22775 
L 268.746563 300.584 
Q 268.746563 302.584 270.746563 302.584 
z
" style="fill: #ffffff; opacity: 0.8; stroke: #cccccc; stroke-linejoin: miter"/>
    </g>
    <g id="line2d_15">
     <path d="M 272.746563 278.326187 
L 282.746563 278.326187 
L 292.746563 278.326187 
" style="fill: none; stroke: #1f77b4; stroke-width: 1.5; stroke-linecap: square"/>
    </g>
    <g id="text_16">
     <!-- Class 0 (AUC = 0.83) -->
     <g transform="translate(300.746563 281.826187)scale(0.1 -0.1)">
      <defs>
       <path id="DejaVuSans-28" d="M 1984 4856 
Q 1566 4138 1362 3434 
Q 1159 2731 1159 2009 
Q 1159 1288 1364 580 
Q 1569 -128 1984 -844 
L 1484 -844 
Q 1016 -109 783 600 
Q 550 1309 550 2009 
Q 550 2706 781 3412 
Q 1013 4119 1484 4856 
L 1984 4856 
z
" transform="scale(0.015625)"/>
       <path id="DejaVuSans-41" d="M 2188 4044 
L 1331 1722 
L 3047 1722 
L 2188 4044 
z
M 1831 4666 
L 2547 4666 
L 4325 0 
L 3669 0 
L 3244 1197 
L 1141 1197 
L 716 0 
L 50 0 
L 1831 4666 
z
" transform="scale(0.015625)"/>
       <path id="DejaVuSans-55" d="M 556 4666 
L 1191 4666 
L 1191 1831 
Q 1191 1081 1462 751 
Q 1734 422 2344 422 
Q 2950 422 3222 751 
Q 3494 1081 3494 1831 
L 3494 4666 
L 4128 4666 
L 4128 1753 
Q 4128 841 3676 375 
Q 3225 -91 2344 -91 
Q 1459 -91 1007 375 
Q 556 841 556 1753 
L 556 4666 
z
" transform="scale(0.015625)"/>
       <path id="DejaVuSans-3d" d="M 678 2906 
L 4684 2906 
L 4684 2381 
L 678 2381 
L 678 2906 
z
M 678 1631 
L 4684 1631 
L 4684 1100 
L 678 1100 
L 678 1631 
z
" transform="scale(0.015625)"/>
       <path id="DejaVuSans-33" d="M 2597 2516 
Q 3050 2419 3304 2112 
Q 3559 1806 3559 1356 
Q 3559 666 3084 287 
Q 2609 -91 1734 -91 
Q 1441 -91 1130 -33 
Q 819 25 488 141 
L 488 750 
Q 750 597 1062 519 
Q 1375 441 1716 441 
Q 2309 441 2620 675 
Q 2931 909 2931 1356 
Q 2931 1769 2642 2001 
Q 2353 2234 1838 2234 
L 1294 2234 
L 1294 2753 
L 1863 2753 
Q 2328 2753 2575 2939 
Q 2822 3125 2822 3475 
Q 2822 3834 2567 4026 
Q 2313 4219 1838 4219 
Q 1578 4219 1281 4162 
Q 984 4106 628 3988 
L 628 4550 
Q 988 4650 1302 4700 
Q 1616 4750 1894 4750 
Q 2613 4750 3031 4423 
Q 3450 4097 3450 3541 
Q 3450 3153 3228 2886 
Q 3006 2619 2597 2516 
z
" transform="scale(0.015625)"/>
       <path id="DejaVuSans-29" d="M 513 4856 
L 1013 4856 
Q 1481 4119 1714 3412 
Q 1947 2706 1947 2009 
Q 1947 1309 1714 600 
Q 1481 -109 1013 -844 
L 513 -844 
Q 928 -128 1133 580 
Q 1338 1288 1338 2009 
Q 1338 2731 1133 3434 
Q 928 4138 513 4856 
z
" transform="scale(0.015625)"/>
      </defs>
      <use xlink:href="#DejaVuSans-43"/>
      <use xlink:href="#DejaVuSans-6c" x="69.824219"/>
      <use xlink:href="#DejaVuSans-61" x="97.607422"/>
      <use xlink:href="#DejaVuSans-73" x="158.886719"/>
      <use xlink:href="#DejaVuSans-73" x="210.986328"/>
      <use xlink:href="#DejaVuSans-20" x="263.085938"/>
      <use xlink:href="#DejaVuSans-30" x="294.873047"/>
      <use xlink:href="#DejaVuSans-20" x="358.496094"/>
      <use xlink:href="#DejaVuSans-28" x="390.283203"/>
      <use xlink:href="#DejaVuSans-41" x="429.296875"/>
      <use xlink:href="#DejaVuSans-55" x="497.705078"/>
      <use xlink:href="#DejaVuSans-43" x="570.898438"/>
      <use xlink:href="#DejaVuSans-20" x="640.722656"/>
      <use xlink:href="#DejaVuSans-3d" x="672.509766"/>
      <use xlink:href="#DejaVuSans-20" x="756.298828"/>
      <use xlink:href="#DejaVuSans-30" x="788.085938"/>
      <use xlink:href="#DejaVuSans-2e" x="851.708984"/>
      <use xlink:href="#DejaVuSans-38" x="883.496094"/>
      <use xlink:href="#DejaVuSans-33" x="947.119141"/>
      <use xlink:href="#DejaVuSans-29" x="1010.742188"/>
     </g>
    </g>
    <g id="line2d_16">
     <path d="M 272.746563 293.004312 
L 282.746563 293.004312 
L 292.746563 293.004312 
" style="fill: none; stroke: #ff7f0e; stroke-width: 1.5; stroke-linecap: square"/>
    </g>
    <g id="text_17">
     <!-- Class 1 (AUC = 0.83) -->
     <g transform="translate(300.746563 296.504312)scale(0.1 -0.1)">
      <use xlink:href="#DejaVuSans-43"/>
      <use xlink:href="#DejaVuSans-6c" x="69.824219"/>
      <use xlink:href="#DejaVuSans-61" x="97.607422"/>
      <use xlink:href="#DejaVuSans-73" x="158.886719"/>
      <use xlink:href="#DejaVuSans-73" x="210.986328"/>
      <use xlink:href="#DejaVuSans-20" x="263.085938"/>
      <use xlink:href="#DejaVuSans-31" x="294.873047"/>
      <use xlink:href="#DejaVuSans-20" x="358.496094"/>
      <use xlink:href="#DejaVuSans-28" x="390.283203"/>
      <use xlink:href="#DejaVuSans-41" x="429.296875"/>
      <use xlink:href="#DejaVuSans-55" x="497.705078"/>
      <use xlink:href="#DejaVuSans-43" x="570.898438"/>
      <use xlink:href="#DejaVuSans-20" x="640.722656"/>
      <use xlink:href="#DejaVuSans-3d" x="672.509766"/>
      <use xlink:href="#DejaVuSans-20" x="756.298828"/>
      <use xlink:href="#DejaVuSans-30" x="788.085938"/>
      <use xlink:href="#DejaVuSans-2e" x="851.708984"/>
      <use xlink:href="#DejaVuSans-38" x="883.496094"/>
      <use xlink:href="#DejaVuSans-33" x="947.119141"/>
      <use xlink:href="#DejaVuSans-29" x="1010.742188"/>
     </g>
    </g>
   </g>
  </g>
 </g>
 <defs>
  <clipPath id="p8c1ce2452b">
   <rect x="57.6" y="41.472" width="357.12" height="266.112"/>
  </clipPath>
 </defs>
</svg>
