<?xml version="1.0" encoding="utf-8" standalone="no"?>
<!DOCTYPE svg PUBLIC "-//W3C//DTD SVG 1.1//EN"
  "http://www.w3.org/Graphics/SVG/1.1/DTD/svg11.dtd">
<svg xmlns:xlink="http://www.w3.org/1999/xlink" width="460.8pt" height="345.6pt" viewBox="0 0 460.8 345.6" xmlns="http://www.w3.org/2000/svg" version="1.1">
 <metadata>
  <rdf:RDF xmlns:dc="http://purl.org/dc/elements/1.1/" xmlns:cc="http://creativecommons.org/ns#" xmlns:rdf="http://www.w3.org/1999/02/22-rdf-syntax-ns#">
   <cc:Work>
    <dc:type rdf:resource="http://purl.org/dc/dcmitype/StillImage"/>
    <dc:date>2024-01-05T20:56:04.350446</dc:date>
    <dc:format>image/svg+xml</dc:format>
    <dc:creator>
     <cc:Agent>
      <dc:title>Matplotlib v3.5.3, https://matplotlib.org/</dc:title>
     </cc:Agent>
    </dc:creator>
   </cc:Work>
  </rdf:RDF>
 </metadata>
 <defs>
  <style type="text/css">*{stroke-linejoin: round; stroke-linecap: butt}</style>
 </defs>
 <g id="figure_1">
  <g id="patch_1">
   <path d="M 0 345.6 
L 460.8 345.6 
L 460.8 0 
L 0 0 
z
" style="fill: #ffffff"/>
  </g>
  <g id="axes_1">
   <g id="patch_2">
    <path d="M 57.6 307.584 
L 414.72 307.584 
L 414.72 41.472 
L 57.6 41.472 
z
" style="fill: #ffffff"/>
   </g>
   <g id="matplotlib.axis_1">
    <g id="xtick_1">
     <g id="line2d_1">
      <defs>
       <path id="m3cf420f4b3" d="M 0 0 
L 0 3.5 
" style="stroke: #000000; stroke-width: 0.8"/>
      </defs>
      <g>
       <use xlink:href="#m3cf420f4b3" x="73.832727" y="307.584" style="stroke: #000000; stroke-width: 0.8"/>
      </g>
     </g>
     <g id="text_1">
      <!-- 0.0 -->
      <g transform="translate(65.881165 322.182437)scale(0.1 -0.1)">
       <defs>
        <path id="DejaVuSans-30" d="M 2034 4250 
Q 1547 4250 1301 3770 
Q 1056 3291 1056 2328 
Q 1056 1369 1301 889 
Q 1547 409 2034 409 
Q 2525 409 2770 889 
Q 3016 1369 3016 2328 
Q 3016 3291 2770 3770 
Q 2525 4250 2034 4250 
z
M 2034 4750 
Q 2819 4750 3233 4129 
Q 3647 3509 3647 2328 
Q 3647 1150 3233 529 
Q 2819 -91 2034 -91 
Q 1250 -91 836 529 
Q 422 1150 422 2328 
Q 422 3509 836 4129 
Q 1250 4750 2034 4750 
z
" transform="scale(0.015625)"/>
        <path id="DejaVuSans-2e" d="M 684 794 
L 1344 794 
L 1344 0 
L 684 0 
L 684 794 
z
" transform="scale(0.015625)"/>
       </defs>
       <use xlink:href="#DejaVuSans-30"/>
       <use xlink:href="#DejaVuSans-2e" x="63.623047"/>
       <use xlink:href="#DejaVuSans-30" x="95.410156"/>
      </g>
     </g>
    </g>
    <g id="xtick_2">
     <g id="line2d_2">
      <g>
       <use xlink:href="#m3cf420f4b3" x="138.763636" y="307.584" style="stroke: #000000; stroke-width: 0.8"/>
      </g>
     </g>
     <g id="text_2">
      <!-- 0.2 -->
      <g transform="translate(130.812074 322.182437)scale(0.1 -0.1)">
       <defs>
        <path id="DejaVuSans-32" d="M 1228 531 
L 3431 531 
L 3431 0 
L 469 0 
L 469 531 
Q 828 903 1448 1529 
Q 2069 2156 2228 2338 
Q 2531 2678 2651 2914 
Q 2772 3150 2772 3378 
Q 2772 3750 2511 3984 
Q 2250 4219 1831 4219 
Q 1534 4219 1204 4116 
Q 875 4013 500 3803 
L 500 4441 
Q 881 4594 1212 4672 
Q 1544 4750 1819 4750 
Q 2544 4750 2975 4387 
Q 3406 4025 3406 3419 
Q 3406 3131 3298 2873 
Q 3191 2616 2906 2266 
Q 2828 2175 2409 1742 
Q 1991 1309 1228 531 
z
" transform="scale(0.015625)"/>
       </defs>
       <use xlink:href="#DejaVuSans-30"/>
       <use xlink:href="#DejaVuSans-2e" x="63.623047"/>
       <use xlink:href="#DejaVuSans-32" x="95.410156"/>
      </g>
     </g>
    </g>
    <g id="xtick_3">
     <g id="line2d_3">
      <g>
       <use xlink:href="#m3cf420f4b3" x="203.694545" y="307.584" style="stroke: #000000; stroke-width: 0.8"/>
      </g>
     </g>
     <g id="text_3">
      <!-- 0.4 -->
      <g transform="translate(195.742983 322.182437)scale(0.1 -0.1)">
       <defs>
        <path id="DejaVuSans-34" d="M 2419 4116 
L 825 1625 
L 2419 1625 
L 2419 4116 
z
M 2253 4666 
L 3047 4666 
L 3047 1625 
L 3713 1625 
L 3713 1100 
L 3047 1100 
L 3047 0 
L 2419 0 
L 2419 1100 
L 313 1100 
L 313 1709 
L 2253 4666 
z
" transform="scale(0.015625)"/>
       </defs>
       <use xlink:href="#DejaVuSans-30"/>
       <use xlink:href="#DejaVuSans-2e" x="63.623047"/>
       <use xlink:href="#DejaVuSans-34" x="95.410156"/>
      </g>
     </g>
    </g>
    <g id="xtick_4">
     <g id="line2d_4">
      <g>
       <use xlink:href="#m3cf420f4b3" x="268.625455" y="307.584" style="stroke: #000000; stroke-width: 0.8"/>
      </g>
     </g>
     <g id="text_4">
      <!-- 0.6 -->
      <g transform="translate(260.673892 322.182437)scale(0.1 -0.1)">
       <defs>
        <path id="DejaVuSans-36" d="M 2113 2584 
Q 1688 2584 1439 2293 
Q 1191 2003 1191 1497 
Q 1191 994 1439 701 
Q 1688 409 2113 409 
Q 2538 409 2786 701 
Q 3034 994 3034 1497 
Q 3034 2003 2786 2293 
Q 2538 2584 2113 2584 
z
M 3366 4563 
L 3366 3988 
Q 3128 4100 2886 4159 
Q 2644 4219 2406 4219 
Q 1781 4219 1451 3797 
Q 1122 3375 1075 2522 
Q 1259 2794 1537 2939 
Q 1816 3084 2150 3084 
Q 2853 3084 3261 2657 
Q 3669 2231 3669 1497 
Q 3669 778 3244 343 
Q 2819 -91 2113 -91 
Q 1303 -91 875 529 
Q 447 1150 447 2328 
Q 447 3434 972 4092 
Q 1497 4750 2381 4750 
Q 2619 4750 2861 4703 
Q 3103 4656 3366 4563 
z
" transform="scale(0.015625)"/>
       </defs>
       <use xlink:href="#DejaVuSans-30"/>
       <use xlink:href="#DejaVuSans-2e" x="63.623047"/>
       <use xlink:href="#DejaVuSans-36" x="95.410156"/>
      </g>
     </g>
    </g>
    <g id="xtick_5">
     <g id="line2d_5">
      <g>
       <use xlink:href="#m3cf420f4b3" x="333.556364" y="307.584" style="stroke: #000000; stroke-width: 0.8"/>
      </g>
     </g>
     <g id="text_5">
      <!-- 0.8 -->
      <g transform="translate(325.604801 322.182437)scale(0.1 -0.1)">
       <defs>
        <path id="DejaVuSans-38" d="M 2034 2216 
Q 1584 2216 1326 1975 
Q 1069 1734 1069 1313 
Q 1069 891 1326 650 
Q 1584 409 2034 409 
Q 2484 409 2743 651 
Q 3003 894 3003 1313 
Q 3003 1734 2745 1975 
Q 2488 2216 2034 2216 
z
M 1403 2484 
Q 997 2584 770 2862 
Q 544 3141 544 3541 
Q 544 4100 942 4425 
Q 1341 4750 2034 4750 
Q 2731 4750 3128 4425 
Q 3525 4100 3525 3541 
Q 3525 3141 3298 2862 
Q 3072 2584 2669 2484 
Q 3125 2378 3379 2068 
Q 3634 1759 3634 1313 
Q 3634 634 3220 271 
Q 2806 -91 2034 -91 
Q 1263 -91 848 271 
Q 434 634 434 1313 
Q 434 1759 690 2068 
Q 947 2378 1403 2484 
z
M 1172 3481 
Q 1172 3119 1398 2916 
Q 1625 2713 2034 2713 
Q 2441 2713 2670 2916 
Q 2900 3119 2900 3481 
Q 2900 3844 2670 4047 
Q 2441 4250 2034 4250 
Q 1625 4250 1398 4047 
Q 1172 3844 1172 3481 
z
" transform="scale(0.015625)"/>
       </defs>
       <use xlink:href="#DejaVuSans-30"/>
       <use xlink:href="#DejaVuSans-2e" x="63.623047"/>
       <use xlink:href="#DejaVuSans-38" x="95.410156"/>
      </g>
     </g>
    </g>
    <g id="xtick_6">
     <g id="line2d_6">
      <g>
       <use xlink:href="#m3cf420f4b3" x="398.487273" y="307.584" style="stroke: #000000; stroke-width: 0.8"/>
      </g>
     </g>
     <g id="text_6">
      <!-- 1.0 -->
      <g transform="translate(390.53571 322.182437)scale(0.1 -0.1)">
       <defs>
        <path id="DejaVuSans-31" d="M 794 531 
L 1825 531 
L 1825 4091 
L 703 3866 
L 703 4441 
L 1819 4666 
L 2450 4666 
L 2450 531 
L 3481 531 
L 3481 0 
L 794 0 
L 794 531 
z
" transform="scale(0.015625)"/>
       </defs>
       <use xlink:href="#DejaVuSans-31"/>
       <use xlink:href="#DejaVuSans-2e" x="63.623047"/>
       <use xlink:href="#DejaVuSans-30" x="95.410156"/>
      </g>
     </g>
    </g>
    <g id="text_7">
     <!-- False Positive Rate -->
     <g transform="translate(189.693594 335.860562)scale(0.1 -0.1)">
      <defs>
       <path id="DejaVuSans-46" d="M 628 4666 
L 3309 4666 
L 3309 4134 
L 1259 4134 
L 1259 2759 
L 3109 2759 
L 3109 2228 
L 1259 2228 
L 1259 0 
L 628 0 
L 628 4666 
z
" transform="scale(0.015625)"/>
       <path id="DejaVuSans-61" d="M 2194 1759 
Q 1497 1759 1228 1600 
Q 959 1441 959 1056 
Q 959 750 1161 570 
Q 1363 391 1709 391 
Q 2188 391 2477 730 
Q 2766 1069 2766 1631 
L 2766 1759 
L 2194 1759 
z
M 3341 1997 
L 3341 0 
L 2766 0 
L 2766 531 
Q 2569 213 2275 61 
Q 1981 -91 1556 -91 
Q 1019 -91 701 211 
Q 384 513 384 1019 
Q 384 1609 779 1909 
Q 1175 2209 1959 2209 
L 2766 2209 
L 2766 2266 
Q 2766 2663 2505 2880 
Q 2244 3097 1772 3097 
Q 1472 3097 1187 3025 
Q 903 2953 641 2809 
L 641 3341 
Q 956 3463 1253 3523 
Q 1550 3584 1831 3584 
Q 2591 3584 2966 3190 
Q 3341 2797 3341 1997 
z
" transform="scale(0.015625)"/>
       <path id="DejaVuSans-6c" d="M 603 4863 
L 1178 4863 
L 1178 0 
L 603 0 
L 603 4863 
z
" transform="scale(0.015625)"/>
       <path id="DejaVuSans-73" d="M 2834 3397 
L 2834 2853 
Q 2591 2978 2328 3040 
Q 2066 3103 1784 3103 
Q 1356 3103 1142 2972 
Q 928 2841 928 2578 
Q 928 2378 1081 2264 
Q 1234 2150 1697 2047 
L 1894 2003 
Q 2506 1872 2764 1633 
Q 3022 1394 3022 966 
Q 3022 478 2636 193 
Q 2250 -91 1575 -91 
Q 1294 -91 989 -36 
Q 684 19 347 128 
L 347 722 
Q 666 556 975 473 
Q 1284 391 1588 391 
Q 1994 391 2212 530 
Q 2431 669 2431 922 
Q 2431 1156 2273 1281 
Q 2116 1406 1581 1522 
L 1381 1569 
Q 847 1681 609 1914 
Q 372 2147 372 2553 
Q 372 3047 722 3315 
Q 1072 3584 1716 3584 
Q 2034 3584 2315 3537 
Q 2597 3491 2834 3397 
z
" transform="scale(0.015625)"/>
       <path id="DejaVuSans-65" d="M 3597 1894 
L 3597 1613 
L 953 1613 
Q 991 1019 1311 708 
Q 1631 397 2203 397 
Q 2534 397 2845 478 
Q 3156 559 3463 722 
L 3463 178 
Q 3153 47 2828 -22 
Q 2503 -91 2169 -91 
Q 1331 -91 842 396 
Q 353 884 353 1716 
Q 353 2575 817 3079 
Q 1281 3584 2069 3584 
Q 2775 3584 3186 3129 
Q 3597 2675 3597 1894 
z
M 3022 2063 
Q 3016 2534 2758 2815 
Q 2500 3097 2075 3097 
Q 1594 3097 1305 2825 
Q 1016 2553 972 2059 
L 3022 2063 
z
" transform="scale(0.015625)"/>
       <path id="DejaVuSans-20" transform="scale(0.015625)"/>
       <path id="DejaVuSans-50" d="M 1259 4147 
L 1259 2394 
L 2053 2394 
Q 2494 2394 2734 2622 
Q 2975 2850 2975 3272 
Q 2975 3691 2734 3919 
Q 2494 4147 2053 4147 
L 1259 4147 
z
M 628 4666 
L 2053 4666 
Q 2838 4666 3239 4311 
Q 3641 3956 3641 3272 
Q 3641 2581 3239 2228 
Q 2838 1875 2053 1875 
L 1259 1875 
L 1259 0 
L 628 0 
L 628 4666 
z
" transform="scale(0.015625)"/>
       <path id="DejaVuSans-6f" d="M 1959 3097 
Q 1497 3097 1228 2736 
Q 959 2375 959 1747 
Q 959 1119 1226 758 
Q 1494 397 1959 397 
Q 2419 397 2687 759 
Q 2956 1122 2956 1747 
Q 2956 2369 2687 2733 
Q 2419 3097 1959 3097 
z
M 1959 3584 
Q 2709 3584 3137 3096 
Q 3566 2609 3566 1747 
Q 3566 888 3137 398 
Q 2709 -91 1959 -91 
Q 1206 -91 779 398 
Q 353 888 353 1747 
Q 353 2609 779 3096 
Q 1206 3584 1959 3584 
z
" transform="scale(0.015625)"/>
       <path id="DejaVuSans-69" d="M 603 3500 
L 1178 3500 
L 1178 0 
L 603 0 
L 603 3500 
z
M 603 4863 
L 1178 4863 
L 1178 4134 
L 603 4134 
L 603 4863 
z
" transform="scale(0.015625)"/>
       <path id="DejaVuSans-74" d="M 1172 4494 
L 1172 3500 
L 2356 3500 
L 2356 3053 
L 1172 3053 
L 1172 1153 
Q 1172 725 1289 603 
Q 1406 481 1766 481 
L 2356 481 
L 2356 0 
L 1766 0 
Q 1100 0 847 248 
Q 594 497 594 1153 
L 594 3053 
L 172 3053 
L 172 3500 
L 594 3500 
L 594 4494 
L 1172 4494 
z
" transform="scale(0.015625)"/>
       <path id="DejaVuSans-76" d="M 191 3500 
L 800 3500 
L 1894 563 
L 2988 3500 
L 3597 3500 
L 2284 0 
L 1503 0 
L 191 3500 
z
" transform="scale(0.015625)"/>
       <path id="DejaVuSans-52" d="M 2841 2188 
Q 3044 2119 3236 1894 
Q 3428 1669 3622 1275 
L 4263 0 
L 3584 0 
L 2988 1197 
Q 2756 1666 2539 1819 
Q 2322 1972 1947 1972 
L 1259 1972 
L 1259 0 
L 628 0 
L 628 4666 
L 2053 4666 
Q 2853 4666 3247 4331 
Q 3641 3997 3641 3322 
Q 3641 2881 3436 2590 
Q 3231 2300 2841 2188 
z
M 1259 4147 
L 1259 2491 
L 2053 2491 
Q 2509 2491 2742 2702 
Q 2975 2913 2975 3322 
Q 2975 3731 2742 3939 
Q 2509 4147 2053 4147 
L 1259 4147 
z
" transform="scale(0.015625)"/>
      </defs>
      <use xlink:href="#DejaVuSans-46"/>
      <use xlink:href="#DejaVuSans-61" x="48.394531"/>
      <use xlink:href="#DejaVuSans-6c" x="109.673828"/>
      <use xlink:href="#DejaVuSans-73" x="137.457031"/>
      <use xlink:href="#DejaVuSans-65" x="189.556641"/>
      <use xlink:href="#DejaVuSans-20" x="251.080078"/>
      <use xlink:href="#DejaVuSans-50" x="282.867188"/>
      <use xlink:href="#DejaVuSans-6f" x="339.544922"/>
      <use xlink:href="#DejaVuSans-73" x="400.726562"/>
      <use xlink:href="#DejaVuSans-69" x="452.826172"/>
      <use xlink:href="#DejaVuSans-74" x="480.609375"/>
      <use xlink:href="#DejaVuSans-69" x="519.818359"/>
      <use xlink:href="#DejaVuSans-76" x="547.601562"/>
      <use xlink:href="#DejaVuSans-65" x="606.78125"/>
      <use xlink:href="#DejaVuSans-20" x="668.304688"/>
      <use xlink:href="#DejaVuSans-52" x="700.091797"/>
      <use xlink:href="#DejaVuSans-61" x="767.324219"/>
      <use xlink:href="#DejaVuSans-74" x="828.603516"/>
      <use xlink:href="#DejaVuSans-65" x="867.8125"/>
     </g>
    </g>
   </g>
   <g id="matplotlib.axis_2">
    <g id="ytick_1">
     <g id="line2d_7">
      <defs>
       <path id="m1433c4e6ae" d="M 0 0 
L -3.5 0 
" style="stroke: #000000; stroke-width: 0.8"/>
      </defs>
      <g>
       <use xlink:href="#m1433c4e6ae" x="57.6" y="295.488" style="stroke: #000000; stroke-width: 0.8"/>
      </g>
     </g>
     <g id="text_8">
      <!-- 0.0 -->
      <g transform="translate(34.696875 299.287219)scale(0.1 -0.1)">
       <use xlink:href="#DejaVuSans-30"/>
       <use xlink:href="#DejaVuSans-2e" x="63.623047"/>
       <use xlink:href="#DejaVuSans-30" x="95.410156"/>
      </g>
     </g>
    </g>
    <g id="ytick_2">
     <g id="line2d_8">
      <g>
       <use xlink:href="#m1433c4e6ae" x="57.6" y="247.104" style="stroke: #000000; stroke-width: 0.8"/>
      </g>
     </g>
     <g id="text_9">
      <!-- 0.2 -->
      <g transform="translate(34.696875 250.903219)scale(0.1 -0.1)">
       <use xlink:href="#DejaVuSans-30"/>
       <use xlink:href="#DejaVuSans-2e" x="63.623047"/>
       <use xlink:href="#DejaVuSans-32" x="95.410156"/>
      </g>
     </g>
    </g>
    <g id="ytick_3">
     <g id="line2d_9">
      <g>
       <use xlink:href="#m1433c4e6ae" x="57.6" y="198.72" style="stroke: #000000; stroke-width: 0.8"/>
      </g>
     </g>
     <g id="text_10">
      <!-- 0.4 -->
      <g transform="translate(34.696875 202.519219)scale(0.1 -0.1)">
       <use xlink:href="#DejaVuSans-30"/>
       <use xlink:href="#DejaVuSans-2e" x="63.623047"/>
       <use xlink:href="#DejaVuSans-34" x="95.410156"/>
      </g>
     </g>
    </g>
    <g id="ytick_4">
     <g id="line2d_10">
      <g>
       <use xlink:href="#m1433c4e6ae" x="57.6" y="150.336" style="stroke: #000000; stroke-width: 0.8"/>
      </g>
     </g>
     <g id="text_11">
      <!-- 0.6 -->
      <g transform="translate(34.696875 154.135219)scale(0.1 -0.1)">
       <use xlink:href="#DejaVuSans-30"/>
       <use xlink:href="#DejaVuSans-2e" x="63.623047"/>
       <use xlink:href="#DejaVuSans-36" x="95.410156"/>
      </g>
     </g>
    </g>
    <g id="ytick_5">
     <g id="line2d_11">
      <g>
       <use xlink:href="#m1433c4e6ae" x="57.6" y="101.952" style="stroke: #000000; stroke-width: 0.8"/>
      </g>
     </g>
     <g id="text_12">
      <!-- 0.8 -->
      <g transform="translate(34.696875 105.751219)scale(0.1 -0.1)">
       <use xlink:href="#DejaVuSans-30"/>
       <use xlink:href="#DejaVuSans-2e" x="63.623047"/>
       <use xlink:href="#DejaVuSans-38" x="95.410156"/>
      </g>
     </g>
    </g>
    <g id="ytick_6">
     <g id="line2d_12">
      <g>
       <use xlink:href="#m1433c4e6ae" x="57.6" y="53.568" style="stroke: #000000; stroke-width: 0.8"/>
      </g>
     </g>
     <g id="text_13">
      <!-- 1.0 -->
      <g transform="translate(34.696875 57.367219)scale(0.1 -0.1)">
       <use xlink:href="#DejaVuSans-31"/>
       <use xlink:href="#DejaVuSans-2e" x="63.623047"/>
       <use xlink:href="#DejaVuSans-30" x="95.410156"/>
      </g>
     </g>
    </g>
    <g id="text_14">
     <!-- True Positive Rate -->
     <g transform="translate(28.617187 219.057687)rotate(-90)scale(0.1 -0.1)">
      <defs>
       <path id="DejaVuSans-54" d="M -19 4666 
L 3928 4666 
L 3928 4134 
L 2272 4134 
L 2272 0 
L 1638 0 
L 1638 4134 
L -19 4134 
L -19 4666 
z
" transform="scale(0.015625)"/>
       <path id="DejaVuSans-72" d="M 2631 2963 
Q 2534 3019 2420 3045 
Q 2306 3072 2169 3072 
Q 1681 3072 1420 2755 
Q 1159 2438 1159 1844 
L 1159 0 
L 581 0 
L 581 3500 
L 1159 3500 
L 1159 2956 
Q 1341 3275 1631 3429 
Q 1922 3584 2338 3584 
Q 2397 3584 2469 3576 
Q 2541 3569 2628 3553 
L 2631 2963 
z
" transform="scale(0.015625)"/>
       <path id="DejaVuSans-75" d="M 544 1381 
L 544 3500 
L 1119 3500 
L 1119 1403 
Q 1119 906 1312 657 
Q 1506 409 1894 409 
Q 2359 409 2629 706 
Q 2900 1003 2900 1516 
L 2900 3500 
L 3475 3500 
L 3475 0 
L 2900 0 
L 2900 538 
Q 2691 219 2414 64 
Q 2138 -91 1772 -91 
Q 1169 -91 856 284 
Q 544 659 544 1381 
z
M 1991 3584 
L 1991 3584 
z
" transform="scale(0.015625)"/>
      </defs>
      <use xlink:href="#DejaVuSans-54"/>
      <use xlink:href="#DejaVuSans-72" x="46.333984"/>
      <use xlink:href="#DejaVuSans-75" x="87.447266"/>
      <use xlink:href="#DejaVuSans-65" x="150.826172"/>
      <use xlink:href="#DejaVuSans-20" x="212.349609"/>
      <use xlink:href="#DejaVuSans-50" x="244.136719"/>
      <use xlink:href="#DejaVuSans-6f" x="300.814453"/>
      <use xlink:href="#DejaVuSans-73" x="361.996094"/>
      <use xlink:href="#DejaVuSans-69" x="414.095703"/>
      <use xlink:href="#DejaVuSans-74" x="441.878906"/>
      <use xlink:href="#DejaVuSans-69" x="481.087891"/>
      <use xlink:href="#DejaVuSans-76" x="508.871094"/>
      <use xlink:href="#DejaVuSans-65" x="568.050781"/>
      <use xlink:href="#DejaVuSans-20" x="629.574219"/>
      <use xlink:href="#DejaVuSans-52" x="661.361328"/>
      <use xlink:href="#DejaVuSans-61" x="728.59375"/>
      <use xlink:href="#DejaVuSans-74" x="789.873047"/>
      <use xlink:href="#DejaVuSans-65" x="829.082031"/>
     </g>
    </g>
   </g>
   <g id="line2d_13">
    <path d="M 73.832727 295.488 
L 73.832727 288.924279 
L 73.832727 281.422884 
L 73.832727 271.577302 
L 73.832727 264.075907 
L 73.832727 257.043349 
L 73.832727 250.479628 
L 73.832727 239.696372 
L 73.832727 230.788465 
L 73.832727 220.005209 
L 73.832727 212.034977 
L 73.832727 206.40893 
L 73.832727 198.907535 
L 73.99587 192.343814 
L 73.99587 188.124279 
L 73.99587 167.026605 
L 73.99587 161.869395 
L 73.99587 159.525209 
L 74.159013 156.712186 
L 74.159013 154.836837 
L 74.159013 152.023814 
L 74.159013 149.679628 
L 74.159013 144.053581 
L 74.159013 140.771721 
L 74.159013 137.958698 
L 74.322156 133.739163 
L 74.648442 128.113116 
L 74.648442 123.893581 
L 74.648442 122.48707 
L 74.648442 117.798698 
L 74.648442 110.297302 
L 74.811585 106.077767 
L 74.811585 104.671256 
L 74.811585 102.795907 
L 75.137871 101.389395 
L 75.137871 100.451721 
L 75.464157 98.576372 
L 75.6273 97.638698 
L 75.953586 95.294512 
L 76.116729 93.419163 
L 76.116729 91.543814 
L 76.443015 89.199628 
L 76.606158 85.917767 
L 76.932444 84.980093 
L 76.932444 84.042419 
L 77.095587 83.573581 
L 77.095587 82.635907 
L 77.421873 81.698233 
L 77.585016 80.291721 
L 78.237588 78.885209 
L 78.400731 77.947535 
L 78.727017 76.072186 
L 79.053303 75.134512 
L 79.216446 75.134512 
L 79.542732 73.728 
L 80.195304 72.321488 
L 81.337305 72.321488 
L 82.316163 71.383814 
L 82.805592 69.977302 
L 83.131878 69.508465 
L 84.110735 67.633116 
L 84.437021 66.695442 
L 85.415879 63.882419 
L 86.068451 63.413581 
L 87.373595 63.413581 
L 88.18931 63.413581 
L 89.494454 62.475907 
L 90.310169 62.475907 
L 91.125884 61.538233 
L 91.615313 61.538233 
L 92.920457 60.600558 
L 94.225601 60.600558 
L 95.693888 60.600558 
L 96.183317 59.662884 
L 97.325317 58.725209 
L 98.956747 58.725209 
L 99.935605 58.725209 
L 100.75132 58.725209 
L 102.545893 58.725209 
L 104.829895 57.318698 
L 107.929612 56.84986 
L 110.703042 56.381023 
L 113.802759 56.381023 
L 117.228762 55.912186 
L 118.697049 55.912186 
L 122.775624 55.443349 
L 125.87534 54.974512 
L 131.259059 54.505674 
L 135.66392 54.505674 
L 141.047638 54.036837 
L 146.268214 54.036837 
L 154.099077 54.036837 
L 164.213942 54.036837 
L 178.570525 54.036837 
L 197.658255 53.568 
L 219.519415 53.568 
L 259.65259 53.568 
L 398.487273 53.568 
" clip-path="url(#p411aeb0fc2)" style="fill: none; stroke: #1f77b4; stroke-width: 1.5; stroke-linecap: square"/>
   </g>
   <g id="line2d_14">
    <path d="M 73.832727 295.488 
L 73.832727 290.340766 
L 73.832727 274.899064 
L 73.832727 269.75183 
L 73.832727 259.457362 
L 73.832727 254.310128 
L 73.832727 238.868426 
L 73.832727 228.573957 
L 73.964754 228.573957 
L 73.964754 197.690553 
L 73.964754 177.101617 
L 73.964754 156.512681 
L 73.964754 146.218213 
L 73.964754 141.070979 
L 74.096781 135.923745 
L 74.096781 125.629277 
L 74.228808 120.482043 
L 74.228808 110.187574 
L 74.228808 99.893106 
L 74.360836 99.893106 
L 74.360836 84.451404 
L 74.360836 74.156936 
L 74.492863 74.156936 
L 74.492863 69.009702 
L 74.62489 63.862468 
L 74.62489 58.715234 
L 74.888944 58.715234 
L 75.020971 53.568 
L 75.417052 53.568 
L 75.94516 53.568 
L 76.209214 53.568 
L 77.001377 53.568 
L 77.265431 53.568 
L 77.793539 53.568 
L 78.057593 53.568 
L 79.11381 53.568 
L 79.773945 53.568 
L 80.302053 53.568 
L 81.622324 53.568 
L 85.187055 53.568 
L 87.695569 53.568 
L 91.524354 53.568 
L 97.597598 53.568 
L 106.575439 53.568 
L 127.567742 53.568 
L 398.487273 53.568 
" clip-path="url(#p411aeb0fc2)" style="fill: none; stroke: #ff7f0e; stroke-width: 1.5; stroke-linecap: square"/>
   </g>
   <g id="line2d_15">
    <path d="M 73.832727 295.488 
L 73.832727 275.328 
L 73.832727 154.368 
L 73.962902 154.368 
L 73.962902 114.048 
L 74.613773 114.048 
L 75.004295 114.048 
L 75.524992 114.048 
L 75.655167 114.048 
L 77.477606 114.048 
L 80.081091 73.728 
L 84.116492 53.568 
L 95.571825 53.568 
L 398.487273 53.568 
" clip-path="url(#p411aeb0fc2)" style="fill: none; stroke: #2ca02c; stroke-width: 1.5; stroke-linecap: square"/>
   </g>
   <g id="line2d_16">
    <path d="M 73.832727 295.488 
L 73.832727 293.092752 
L 73.832727 285.90701 
L 73.832727 283.511762 
L 73.832727 276.32602 
L 73.832727 271.535525 
L 73.832727 264.349782 
L 73.832727 259.559287 
L 73.832727 257.16404 
L 73.832727 249.978297 
L 73.832727 247.58305 
L 73.832727 242.792554 
L 73.832727 238.002059 
L 73.832727 223.630574 
L 73.832727 216.444832 
L 73.832727 211.654337 
L 73.832727 209.259089 
L 73.832727 187.701861 
L 73.832727 182.911366 
L 73.832727 175.725624 
L 73.832727 170.935129 
L 73.832727 163.749386 
L 73.832727 161.354139 
L 73.832727 154.168396 
L 73.832727 151.773149 
L 73.832727 144.587406 
L 73.832727 139.796911 
L 73.832727 130.215921 
L 73.832727 125.425426 
L 73.832727 120.634931 
L 74.10271 115.844436 
L 74.10271 111.053941 
L 74.372693 111.053941 
L 74.507685 111.053941 
L 74.642676 108.658693 
L 74.777668 103.868198 
L 74.777668 101.47295 
L 74.912659 101.47295 
L 74.912659 96.682455 
L 75.047651 96.682455 
L 75.317634 94.287208 
L 75.452625 91.89196 
L 75.992591 91.89196 
L 76.262574 89.496713 
L 76.937532 89.496713 
L 77.207515 87.101465 
L 77.477498 87.101465 
L 77.747481 84.706218 
L 78.422438 84.706218 
L 79.097396 82.31097 
L 79.367379 82.31097 
L 80.447311 82.31097 
L 81.932217 79.915723 
L 83.552115 77.520475 
L 84.632047 72.72998 
L 86.656919 67.939485 
L 88.681792 67.939485 
L 91.516613 63.14899 
L 93.406494 60.753743 
L 99.34612 55.963248 
L 105.015763 55.963248 
L 114.060193 55.963248 
L 123.914572 55.963248 
L 137.413721 55.963248 
L 158.06742 53.568 
L 192.625243 53.568 
L 398.487273 53.568 
" clip-path="url(#p411aeb0fc2)" style="fill: none; stroke: #d62728; stroke-width: 1.5; stroke-linecap: square"/>
   </g>
   <g id="line2d_17">
    <path d="M 73.832727 295.488 
L 73.832727 287.145931 
L 73.832727 274.632828 
L 73.832727 257.94869 
L 73.832727 249.606621 
L 73.832727 241.264552 
L 73.832727 207.896276 
L 73.832727 199.554207 
L 73.832727 195.383172 
L 73.832727 170.356966 
L 73.832727 157.843862 
L 73.832727 149.501793 
L 73.832727 136.98869 
L 73.832727 132.817655 
L 73.832727 124.475586 
L 73.832727 120.304552 
L 73.965348 120.304552 
L 73.965348 111.962483 
L 73.965348 103.620414 
L 73.965348 95.278345 
L 73.965348 91.10731 
L 73.965348 82.765241 
L 73.965348 70.252138 
L 74.097968 66.081103 
L 74.230588 57.739034 
L 74.628449 57.739034 
L 75.15893 57.739034 
L 75.556791 57.739034 
L 75.689412 53.568 
L 75.954652 53.568 
L 76.352513 53.568 
L 77.148235 53.568 
L 78.474439 53.568 
L 79.00492 53.568 
L 79.800642 53.568 
L 82.718289 53.568 
L 83.514011 53.568 
L 88.023102 53.568 
L 97.969626 53.568 
L 123.432727 53.568 
L 398.487273 53.568 
" clip-path="url(#p411aeb0fc2)" style="fill: none; stroke: #9467bd; stroke-width: 1.5; stroke-linecap: square"/>
   </g>
   <g id="line2d_18">
    <path d="M 73.832727 295.488 
L 73.832727 123.802839 
L 73.832727 98.830452 
L 73.832727 94.148129 
L 73.832727 87.905032 
L 73.832727 80.101161 
L 73.832727 73.858065 
L 73.832727 72.29729 
L 73.832727 69.175742 
L 73.832727 56.689548 
L 74.385096 56.689548 
L 74.66128 56.689548 
L 75.35174 56.689548 
L 75.489833 55.128774 
L 75.627925 55.128774 
L 76.042201 55.128774 
L 76.732662 55.128774 
L 77.008846 53.568 
L 77.28503 53.568 
L 78.113583 53.568 
L 78.804043 53.568 
L 79.080227 53.568 
L 81.289701 53.568 
L 83.222991 53.568 
L 91.370425 53.568 
L 398.487273 53.568 
" clip-path="url(#p411aeb0fc2)" style="fill: none; stroke: #8c564b; stroke-width: 1.5; stroke-linecap: square"/>
   </g>
   <g id="line2d_19">
    <path d="M 73.832727 295.488 
L 73.832727 237.524385 
L 73.832727 202.815633 
L 73.832727 181.990382 
L 74.012194 161.512218 
L 74.012194 146.240367 
L 74.012194 135.480654 
L 74.012194 128.191816 
L 74.012194 121.250066 
L 74.012194 117.779191 
L 74.012194 113.267053 
L 74.012194 106.67239 
L 74.012194 102.50734 
L 74.012194 99.73064 
L 74.012194 97.301027 
L 74.012194 91.747627 
L 74.19166 88.623839 
L 74.19166 87.582577 
L 74.19166 86.194227 
L 74.19166 82.723352 
L 74.19166 79.599564 
L 74.19166 78.211214 
L 74.19166 77.517039 
L 74.550592 75.434514 
L 74.550592 74.046164 
L 74.550592 73.004901 
L 74.550592 71.616551 
L 74.730059 71.269463 
L 74.730059 69.534026 
L 74.730059 68.839851 
L 74.909525 68.492763 
L 75.268458 67.451501 
L 75.268458 67.104413 
L 75.447924 65.716063 
L 75.447924 65.368976 
L 75.806857 64.674801 
L 75.806857 64.327713 
L 75.806857 63.633538 
L 75.806857 62.592275 
L 75.986323 61.203925 
L 76.165789 61.203925 
L 76.524722 61.203925 
L 76.704188 60.50975 
L 77.60152 60.50975 
L 77.60152 60.162663 
L 77.780986 60.162663 
L 78.139919 59.468488 
L 78.498851 59.468488 
L 78.678318 59.1214 
L 78.857784 58.427225 
L 79.03725 58.427225 
L 79.575649 58.080138 
L 79.755115 58.080138 
L 80.472981 58.080138 
L 81.190846 57.73305 
L 81.729245 57.73305 
L 82.44711 57.038875 
L 82.806043 57.038875 
L 83.703374 57.038875 
L 84.062307 57.038875 
L 84.600706 56.691788 
L 85.139104 56.691788 
L 85.318571 56.691788 
L 86.754301 56.3447 
L 87.651633 56.3447 
L 88.190032 56.3447 
L 88.548964 55.650525 
L 89.625762 55.303438 
L 91.240959 55.303438 
L 93.035622 55.303438 
L 94.650819 54.95635 
L 97.52228 54.95635 
L 99.675875 54.95635 
L 101.650005 54.95635 
L 103.085735 54.609263 
L 103.983066 54.609263 
L 107.572393 54.609263 
L 110.264387 54.262175 
L 113.494781 54.262175 
L 117.263573 53.915088 
L 123.365427 53.915088 
L 129.287815 53.915088 
L 140.414726 53.915088 
L 158.540823 53.915088 
L 192.639421 53.568 
L 398.487273 53.568 
" clip-path="url(#p411aeb0fc2)" style="fill: none; stroke: #e377c2; stroke-width: 1.5; stroke-linecap: square"/>
   </g>
   <g id="line2d_20">
    <path d="M 73.832727 295.488 
L 73.832727 233.601488 
L 73.832727 216.723349 
L 73.832727 182.96707 
L 73.832727 171.714977 
L 73.832727 160.462884 
L 73.832727 143.584744 
L 73.96454 143.584744 
L 73.96454 132.332651 
L 73.96454 92.950326 
L 73.96454 81.698233 
L 74.096353 76.072186 
L 74.096353 70.44614 
L 74.228165 64.820093 
L 74.359978 64.820093 
L 74.359978 59.194047 
L 74.49179 53.568 
L 74.623603 53.568 
L 75.019041 53.568 
L 75.546292 53.568 
L 75.809917 53.568 
L 76.205355 53.568 
L 76.46898 53.568 
L 76.996231 53.568 
L 77.259856 53.568 
L 78.577983 53.568 
L 81.082423 53.568 
L 84.904989 53.568 
L 96.504502 53.568 
L 398.487273 53.568 
" clip-path="url(#p411aeb0fc2)" style="fill: none; stroke: #7f7f7f; stroke-width: 1.5; stroke-linecap: square"/>
   </g>
   <g id="line2d_21">
    <path d="M 73.832727 295.488 
L 73.832727 245.718 
L 73.832727 205.398 
L 73.832727 176.418 
L 73.832727 162.558 
L 73.832727 150.588 
L 73.832727 140.508 
L 73.832727 136.728 
L 73.832727 125.388 
L 73.832727 120.978 
L 73.832727 114.678 
L 73.832727 108.378 
L 73.832727 106.488 
L 73.832727 105.228 
L 73.832727 99.558 
L 73.832727 98.298 
L 73.832727 95.148 
L 73.832727 89.478 
L 73.832727 87.588 
L 73.832727 85.068 
L 73.985722 83.178 
L 73.985722 75.618 
L 73.985722 74.988 
L 73.985722 73.728 
L 73.985722 71.838 
L 73.985722 70.578 
L 73.985722 68.688 
L 73.985722 68.058 
L 73.985722 66.168 
L 73.985722 62.388 
L 74.138716 62.388 
L 74.138716 61.128 
L 74.444706 60.498 
L 74.5977 59.868 
L 74.903689 59.868 
L 75.056684 59.238 
L 75.056684 57.978 
L 75.209679 57.978 
L 75.209679 57.348 
L 75.515668 57.348 
L 75.515668 56.718 
L 75.668662 56.718 
L 75.974652 56.088 
L 76.280641 56.088 
L 76.892619 56.088 
L 77.198609 56.088 
L 77.504598 56.088 
L 77.963582 55.458 
L 80.258501 55.458 
L 81.176468 54.828 
L 81.329463 54.828 
L 81.788447 54.828 
L 83.624382 54.828 
L 84.695344 54.828 
L 86.837268 54.198 
L 87.449247 54.198 
L 88.367214 54.198 
L 89.744166 54.198 
L 91.274112 54.198 
L 94.334004 54.198 
L 98.311864 54.198 
L 101.983734 54.198 
L 106.114588 54.198 
L 112.846351 54.198 
L 121.873032 54.198 
L 135.489552 53.568 
L 168.99537 53.568 
L 398.487273 53.568 
" clip-path="url(#p411aeb0fc2)" style="fill: none; stroke: #bcbd22; stroke-width: 1.5; stroke-linecap: square"/>
   </g>
   <g id="line2d_22">
    <path d="M 73.832727 295.488 
L 73.832727 268.608 
L 73.832727 107.328 
L 74.222781 107.328 
L 74.482816 107.328 
L 74.612834 80.448 
L 75.392941 80.448 
L 75.522959 80.448 
L 75.782995 80.448 
L 77.86328 80.448 
L 79.553512 80.448 
L 82.413905 80.448 
L 94.11551 80.448 
L 398.487273 53.568 
" clip-path="url(#p411aeb0fc2)" style="fill: none; stroke: #17becf; stroke-width: 1.5; stroke-linecap: square"/>
   </g>
   <g id="line2d_23">
    <path d="M 73.832727 295.488 
L 73.832727 250.688 
L 73.832727 196.928 
L 73.832727 173.034667 
L 73.832727 161.088 
L 73.832727 143.168 
L 73.832727 134.208 
L 73.832727 128.234667 
L 73.832727 116.288 
L 73.832727 110.314667 
L 73.832727 98.368 
L 73.832727 92.394667 
L 73.832727 80.448 
L 73.832727 74.474667 
L 73.832727 68.501333 
L 73.966605 68.501333 
L 73.966605 62.528 
L 74.100484 62.528 
L 74.100484 59.541333 
L 74.502118 59.541333 
L 74.502118 53.568 
L 74.635996 53.568 
L 75.439265 53.568 
L 75.707022 53.568 
L 75.974778 53.568 
L 76.778047 53.568 
L 77.31356 53.568 
L 77.715194 53.568 
L 78.518463 53.568 
L 79.991123 53.568 
L 83.070321 53.568 
L 87.756056 53.568 
L 99.1357 53.568 
L 398.487273 53.568 
" clip-path="url(#p411aeb0fc2)" style="fill: none; stroke: #1f77b4; stroke-width: 1.5; stroke-linecap: square"/>
   </g>
   <g id="line2d_24">
    <path d="M 73.832727 295.488 
L 73.832727 289.989818 
L 73.832727 278.993455 
L 73.966993 265.248 
L 73.966993 254.251636 
L 73.966993 248.753455 
L 73.966993 235.008 
L 73.966993 224.011636 
L 73.966993 221.262545 
L 73.966993 204.768 
L 73.966993 199.269818 
L 73.966993 182.775273 
L 73.966993 177.277091 
L 73.966993 169.029818 
L 73.966993 163.531636 
L 73.966993 147.037091 
L 73.966993 144.288 
L 73.966993 122.295273 
L 73.966993 103.051636 
L 73.966993 97.553455 
L 73.966993 94.804364 
L 74.101259 94.804364 
L 74.101259 89.306182 
L 74.101259 83.808 
L 74.101259 75.560727 
L 74.235524 75.560727 
L 74.235524 72.811636 
L 74.36979 72.811636 
L 74.638322 72.811636 
L 74.772587 67.313455 
L 74.906853 64.564364 
L 74.906853 61.815273 
L 75.175385 61.815273 
L 75.578182 61.815273 
L 76.115245 61.815273 
L 76.115245 59.066182 
L 76.24951 59.066182 
L 76.652308 59.066182 
L 76.786573 59.066182 
L 77.189371 59.066182 
L 77.726434 59.066182 
L 78.397762 59.066182 
L 79.471888 59.066182 
L 81.083077 59.066182 
L 82.828531 59.066182 
L 85.245315 59.066182 
L 88.199161 59.066182 
L 94.912448 53.568 
L 107.130629 53.568 
L 139.085874 53.568 
L 398.487273 53.568 
" clip-path="url(#p411aeb0fc2)" style="fill: none; stroke: #ff7f0e; stroke-width: 1.5; stroke-linecap: square"/>
   </g>
   <g id="line2d_25">
    <path d="M 73.832727 295.488 
L 73.832727 223.565838 
L 73.832727 182.156108 
L 73.832727 149.464216 
L 73.832727 138.566919 
L 73.832727 121.131243 
L 73.832727 114.592865 
L 73.832727 105.875027 
L 73.832727 101.516108 
L 73.832727 84.080432 
L 73.832727 77.542054 
L 73.832727 75.362595 
L 73.832727 71.003676 
L 73.832727 66.644757 
L 73.968282 66.644757 
L 73.968282 60.106378 
L 74.103838 60.106378 
L 74.103838 53.568 
L 74.239393 53.568 
L 74.510503 53.568 
L 74.917168 53.568 
L 75.188279 53.568 
L 76.001609 53.568 
L 76.408275 53.568 
L 77.357161 53.568 
L 78.441602 53.568 
L 80.068263 53.568 
L 83.999362 53.568 
L 97.012655 53.568 
L 398.487273 53.568 
" clip-path="url(#p411aeb0fc2)" style="fill: none; stroke: #2ca02c; stroke-width: 1.5; stroke-linecap: square"/>
   </g>
   <g id="line2d_26">
    <path d="M 73.832727 295.488 
L 73.832727 289.558588 
L 73.832727 280.071529 
L 73.832727 271.770353 
L 73.832727 259.911529 
L 73.832727 250.424471 
L 73.832727 245.680941 
L 73.832727 239.751529 
L 73.832727 232.636235 
L 73.832727 216.033882 
L 73.832727 210.104471 
L 73.832727 200.617412 
L 73.832727 197.059765 
L 73.832727 191.130353 
L 73.832727 182.829176 
L 73.832727 179.271529 
L 73.973759 173.342118 
L 73.973759 170.970353 
L 73.973759 167.412706 
L 73.973759 157.925647 
L 74.11479 153.182118 
L 74.11479 146.066824 
L 74.11479 141.323294 
L 74.11479 136.579765 
L 74.255822 134.208 
L 74.255822 131.836235 
L 74.255822 124.720941 
L 74.255822 123.535059 
L 74.255822 118.791529 
L 74.396853 116.419765 
L 74.396853 111.676235 
L 74.537885 104.560941 
L 74.537885 103.375059 
L 74.537885 98.631529 
L 74.678916 97.445647 
L 74.819948 95.073882 
L 74.819948 92.702118 
L 74.960979 91.516235 
L 75.102011 87.958588 
L 75.384074 87.958588 
L 75.384074 86.772706 
L 75.807168 82.029176 
L 75.807168 78.471529 
L 75.9482 74.913882 
L 76.230263 74.913882 
L 76.371295 72.542118 
L 76.794389 71.356235 
L 76.935421 70.170353 
L 77.358515 70.170353 
L 77.499547 67.798588 
L 78.345736 67.798588 
L 78.76883 67.798588 
L 79.473988 67.798588 
L 79.473988 66.612706 
L 80.038114 66.612706 
L 80.320177 65.426824 
L 80.743271 64.240941 
L 81.025334 64.240941 
L 81.166366 64.240941 
L 81.589461 64.240941 
L 82.012555 63.055059 
L 82.858744 63.055059 
L 83.845965 63.055059 
L 84.128028 61.869176 
L 85.679374 60.683294 
L 87.08969 59.497412 
L 88.217942 55.939765 
L 89.769288 55.939765 
L 91.461667 55.939765 
L 92.307856 55.939765 
L 95.692612 55.939765 
L 97.667053 55.939765 
L 100.628715 55.939765 
L 103.449345 54.753882 
L 106.69307 54.753882 
L 112.475362 54.753882 
L 120.232095 53.568 
L 129.822238 53.568 
L 143.92539 53.568 
L 177.49089 53.568 
L 398.487273 53.568 
" clip-path="url(#p411aeb0fc2)" style="fill: none; stroke: #d62728; stroke-width: 1.5; stroke-linecap: square"/>
   </g>
   <g id="patch_3">
    <path d="M 57.6 307.584 
L 57.6 41.472 
" style="fill: none; stroke: #000000; stroke-width: 0.8; stroke-linejoin: miter; stroke-linecap: square"/>
   </g>
   <g id="patch_4">
    <path d="M 414.72 307.584 
L 414.72 41.472 
" style="fill: none; stroke: #000000; stroke-width: 0.8; stroke-linejoin: miter; stroke-linecap: square"/>
   </g>
   <g id="patch_5">
    <path d="M 57.6 307.584 
L 414.72 307.584 
" style="fill: none; stroke: #000000; stroke-width: 0.8; stroke-linejoin: miter; stroke-linecap: square"/>
   </g>
   <g id="patch_6">
    <path d="M 57.6 41.472 
L 414.72 41.472 
" style="fill: none; stroke: #000000; stroke-width: 0.8; stroke-linejoin: miter; stroke-linecap: square"/>
   </g>
   <g id="text_15">
    <!-- ROC Curves for Each Class -->
    <g transform="translate(156.01875 35.472)scale(0.12 -0.12)">
     <defs>
      <path id="DejaVuSans-4f" d="M 2522 4238 
Q 1834 4238 1429 3725 
Q 1025 3213 1025 2328 
Q 1025 1447 1429 934 
Q 1834 422 2522 422 
Q 3209 422 3611 934 
Q 4013 1447 4013 2328 
Q 4013 3213 3611 3725 
Q 3209 4238 2522 4238 
z
M 2522 4750 
Q 3503 4750 4090 4092 
Q 4678 3434 4678 2328 
Q 4678 1225 4090 567 
Q 3503 -91 2522 -91 
Q 1538 -91 948 565 
Q 359 1222 359 2328 
Q 359 3434 948 4092 
Q 1538 4750 2522 4750 
z
" transform="scale(0.015625)"/>
      <path id="DejaVuSans-43" d="M 4122 4306 
L 4122 3641 
Q 3803 3938 3442 4084 
Q 3081 4231 2675 4231 
Q 1875 4231 1450 3742 
Q 1025 3253 1025 2328 
Q 1025 1406 1450 917 
Q 1875 428 2675 428 
Q 3081 428 3442 575 
Q 3803 722 4122 1019 
L 4122 359 
Q 3791 134 3420 21 
Q 3050 -91 2638 -91 
Q 1578 -91 968 557 
Q 359 1206 359 2328 
Q 359 3453 968 4101 
Q 1578 4750 2638 4750 
Q 3056 4750 3426 4639 
Q 3797 4528 4122 4306 
z
" transform="scale(0.015625)"/>
      <path id="DejaVuSans-66" d="M 2375 4863 
L 2375 4384 
L 1825 4384 
Q 1516 4384 1395 4259 
Q 1275 4134 1275 3809 
L 1275 3500 
L 2222 3500 
L 2222 3053 
L 1275 3053 
L 1275 0 
L 697 0 
L 697 3053 
L 147 3053 
L 147 3500 
L 697 3500 
L 697 3744 
Q 697 4328 969 4595 
Q 1241 4863 1831 4863 
L 2375 4863 
z
" transform="scale(0.015625)"/>
      <path id="DejaVuSans-45" d="M 628 4666 
L 3578 4666 
L 3578 4134 
L 1259 4134 
L 1259 2753 
L 3481 2753 
L 3481 2222 
L 1259 2222 
L 1259 531 
L 3634 531 
L 3634 0 
L 628 0 
L 628 4666 
z
" transform="scale(0.015625)"/>
      <path id="DejaVuSans-63" d="M 3122 3366 
L 3122 2828 
Q 2878 2963 2633 3030 
Q 2388 3097 2138 3097 
Q 1578 3097 1268 2742 
Q 959 2388 959 1747 
Q 959 1106 1268 751 
Q 1578 397 2138 397 
Q 2388 397 2633 464 
Q 2878 531 3122 666 
L 3122 134 
Q 2881 22 2623 -34 
Q 2366 -91 2075 -91 
Q 1284 -91 818 406 
Q 353 903 353 1747 
Q 353 2603 823 3093 
Q 1294 3584 2113 3584 
Q 2378 3584 2631 3529 
Q 2884 3475 3122 3366 
z
" transform="scale(0.015625)"/>
      <path id="DejaVuSans-68" d="M 3513 2113 
L 3513 0 
L 2938 0 
L 2938 2094 
Q 2938 2591 2744 2837 
Q 2550 3084 2163 3084 
Q 1697 3084 1428 2787 
Q 1159 2491 1159 1978 
L 1159 0 
L 581 0 
L 581 4863 
L 1159 4863 
L 1159 2956 
Q 1366 3272 1645 3428 
Q 1925 3584 2291 3584 
Q 2894 3584 3203 3211 
Q 3513 2838 3513 2113 
z
" transform="scale(0.015625)"/>
     </defs>
     <use xlink:href="#DejaVuSans-52"/>
     <use xlink:href="#DejaVuSans-4f" x="69.482422"/>
     <use xlink:href="#DejaVuSans-43" x="148.193359"/>
     <use xlink:href="#DejaVuSans-20" x="218.017578"/>
     <use xlink:href="#DejaVuSans-43" x="249.804688"/>
     <use xlink:href="#DejaVuSans-75" x="319.628906"/>
     <use xlink:href="#DejaVuSans-72" x="383.007812"/>
     <use xlink:href="#DejaVuSans-76" x="424.121094"/>
     <use xlink:href="#DejaVuSans-65" x="483.300781"/>
     <use xlink:href="#DejaVuSans-73" x="544.824219"/>
     <use xlink:href="#DejaVuSans-20" x="596.923828"/>
     <use xlink:href="#DejaVuSans-66" x="628.710938"/>
     <use xlink:href="#DejaVuSans-6f" x="663.916016"/>
     <use xlink:href="#DejaVuSans-72" x="725.097656"/>
     <use xlink:href="#DejaVuSans-20" x="766.210938"/>
     <use xlink:href="#DejaVuSans-45" x="797.998047"/>
     <use xlink:href="#DejaVuSans-61" x="861.181641"/>
     <use xlink:href="#DejaVuSans-63" x="922.460938"/>
     <use xlink:href="#DejaVuSans-68" x="977.441406"/>
     <use xlink:href="#DejaVuSans-20" x="1040.820312"/>
     <use xlink:href="#DejaVuSans-43" x="1072.607422"/>
     <use xlink:href="#DejaVuSans-6c" x="1142.431641"/>
     <use xlink:href="#DejaVuSans-61" x="1170.214844"/>
     <use xlink:href="#DejaVuSans-73" x="1231.494141"/>
     <use xlink:href="#DejaVuSans-73" x="1283.59375"/>
    </g>
   </g>
   <g id="legend_1">
    <g id="patch_7">
     <path d="M 264.384063 302.584 
L 407.72 302.584 
Q 409.72 302.584 409.72 300.584 
L 409.72 96.09025 
Q 409.72 94.09025 407.72 94.09025 
L 264.384063 94.09025 
Q 262.384063 94.09025 262.384063 96.09025 
L 262.384063 300.584 
Q 262.384063 302.584 264.384063 302.584 
z
" style="fill: #ffffff; opacity: 0.8; stroke: #cccccc; stroke-linejoin: miter"/>
    </g>
    <g id="line2d_27">
     <path d="M 266.384063 102.188688 
L 276.384063 102.188688 
L 286.384063 102.188688 
" style="fill: none; stroke: #1f77b4; stroke-width: 1.5; stroke-linecap: square"/>
    </g>
    <g id="text_16">
     <!-- Class 0 (AUC = 0.99) -->
     <g transform="translate(294.384063 105.688688)scale(0.1 -0.1)">
      <defs>
       <path id="DejaVuSans-28" d="M 1984 4856 
Q 1566 4138 1362 3434 
Q 1159 2731 1159 2009 
Q 1159 1288 1364 580 
Q 1569 -128 1984 -844 
L 1484 -844 
Q 1016 -109 783 600 
Q 550 1309 550 2009 
Q 550 2706 781 3412 
Q 1013 4119 1484 4856 
L 1984 4856 
z
" transform="scale(0.015625)"/>
       <path id="DejaVuSans-41" d="M 2188 4044 
L 1331 1722 
L 3047 1722 
L 2188 4044 
z
M 1831 4666 
L 2547 4666 
L 4325 0 
L 3669 0 
L 3244 1197 
L 1141 1197 
L 716 0 
L 50 0 
L 1831 4666 
z
" transform="scale(0.015625)"/>
       <path id="DejaVuSans-55" d="M 556 4666 
L 1191 4666 
L 1191 1831 
Q 1191 1081 1462 751 
Q 1734 422 2344 422 
Q 2950 422 3222 751 
Q 3494 1081 3494 1831 
L 3494 4666 
L 4128 4666 
L 4128 1753 
Q 4128 841 3676 375 
Q 3225 -91 2344 -91 
Q 1459 -91 1007 375 
Q 556 841 556 1753 
L 556 4666 
z
" transform="scale(0.015625)"/>
       <path id="DejaVuSans-3d" d="M 678 2906 
L 4684 2906 
L 4684 2381 
L 678 2381 
L 678 2906 
z
M 678 1631 
L 4684 1631 
L 4684 1100 
L 678 1100 
L 678 1631 
z
" transform="scale(0.015625)"/>
       <path id="DejaVuSans-39" d="M 703 97 
L 703 672 
Q 941 559 1184 500 
Q 1428 441 1663 441 
Q 2288 441 2617 861 
Q 2947 1281 2994 2138 
Q 2813 1869 2534 1725 
Q 2256 1581 1919 1581 
Q 1219 1581 811 2004 
Q 403 2428 403 3163 
Q 403 3881 828 4315 
Q 1253 4750 1959 4750 
Q 2769 4750 3195 4129 
Q 3622 3509 3622 2328 
Q 3622 1225 3098 567 
Q 2575 -91 1691 -91 
Q 1453 -91 1209 -44 
Q 966 3 703 97 
z
M 1959 2075 
Q 2384 2075 2632 2365 
Q 2881 2656 2881 3163 
Q 2881 3666 2632 3958 
Q 2384 4250 1959 4250 
Q 1534 4250 1286 3958 
Q 1038 3666 1038 3163 
Q 1038 2656 1286 2365 
Q 1534 2075 1959 2075 
z
" transform="scale(0.015625)"/>
       <path id="DejaVuSans-29" d="M 513 4856 
L 1013 4856 
Q 1481 4119 1714 3412 
Q 1947 2706 1947 2009 
Q 1947 1309 1714 600 
Q 1481 -109 1013 -844 
L 513 -844 
Q 928 -128 1133 580 
Q 1338 1288 1338 2009 
Q 1338 2731 1133 3434 
Q 928 4138 513 4856 
z
" transform="scale(0.015625)"/>
      </defs>
      <use xlink:href="#DejaVuSans-43"/>
      <use xlink:href="#DejaVuSans-6c" x="69.824219"/>
      <use xlink:href="#DejaVuSans-61" x="97.607422"/>
      <use xlink:href="#DejaVuSans-73" x="158.886719"/>
      <use xlink:href="#DejaVuSans-73" x="210.986328"/>
      <use xlink:href="#DejaVuSans-20" x="263.085938"/>
      <use xlink:href="#DejaVuSans-30" x="294.873047"/>
      <use xlink:href="#DejaVuSans-20" x="358.496094"/>
      <use xlink:href="#DejaVuSans-28" x="390.283203"/>
      <use xlink:href="#DejaVuSans-41" x="429.296875"/>
      <use xlink:href="#DejaVuSans-55" x="497.705078"/>
      <use xlink:href="#DejaVuSans-43" x="570.898438"/>
      <use xlink:href="#DejaVuSans-20" x="640.722656"/>
      <use xlink:href="#DejaVuSans-3d" x="672.509766"/>
      <use xlink:href="#DejaVuSans-20" x="756.298828"/>
      <use xlink:href="#DejaVuSans-30" x="788.085938"/>
      <use xlink:href="#DejaVuSans-2e" x="851.708984"/>
      <use xlink:href="#DejaVuSans-39" x="883.496094"/>
      <use xlink:href="#DejaVuSans-39" x="947.119141"/>
      <use xlink:href="#DejaVuSans-29" x="1010.742188"/>
     </g>
    </g>
    <g id="line2d_28">
     <path d="M 266.384063 116.866813 
L 276.384063 116.866813 
L 286.384063 116.866813 
" style="fill: none; stroke: #ff7f0e; stroke-width: 1.5; stroke-linecap: square"/>
    </g>
    <g id="text_17">
     <!-- Class 1 (AUC = 1.00) -->
     <g transform="translate(294.384063 120.366813)scale(0.1 -0.1)">
      <use xlink:href="#DejaVuSans-43"/>
      <use xlink:href="#DejaVuSans-6c" x="69.824219"/>
      <use xlink:href="#DejaVuSans-61" x="97.607422"/>
      <use xlink:href="#DejaVuSans-73" x="158.886719"/>
      <use xlink:href="#DejaVuSans-73" x="210.986328"/>
      <use xlink:href="#DejaVuSans-20" x="263.085938"/>
      <use xlink:href="#DejaVuSans-31" x="294.873047"/>
      <use xlink:href="#DejaVuSans-20" x="358.496094"/>
      <use xlink:href="#DejaVuSans-28" x="390.283203"/>
      <use xlink:href="#DejaVuSans-41" x="429.296875"/>
      <use xlink:href="#DejaVuSans-55" x="497.705078"/>
      <use xlink:href="#DejaVuSans-43" x="570.898438"/>
      <use xlink:href="#DejaVuSans-20" x="640.722656"/>
      <use xlink:href="#DejaVuSans-3d" x="672.509766"/>
      <use xlink:href="#DejaVuSans-20" x="756.298828"/>
      <use xlink:href="#DejaVuSans-31" x="788.085938"/>
      <use xlink:href="#DejaVuSans-2e" x="851.708984"/>
      <use xlink:href="#DejaVuSans-30" x="883.496094"/>
      <use xlink:href="#DejaVuSans-30" x="947.119141"/>
      <use xlink:href="#DejaVuSans-29" x="1010.742188"/>
     </g>
    </g>
    <g id="line2d_29">
     <path d="M 266.384063 131.544938 
L 276.384063 131.544938 
L 286.384063 131.544938 
" style="fill: none; stroke: #2ca02c; stroke-width: 1.5; stroke-linecap: square"/>
    </g>
    <g id="text_18">
     <!-- Class 2 (AUC = 1.00) -->
     <g transform="translate(294.384063 135.044938)scale(0.1 -0.1)">
      <use xlink:href="#DejaVuSans-43"/>
      <use xlink:href="#DejaVuSans-6c" x="69.824219"/>
      <use xlink:href="#DejaVuSans-61" x="97.607422"/>
      <use xlink:href="#DejaVuSans-73" x="158.886719"/>
      <use xlink:href="#DejaVuSans-73" x="210.986328"/>
      <use xlink:href="#DejaVuSans-20" x="263.085938"/>
      <use xlink:href="#DejaVuSans-32" x="294.873047"/>
      <use xlink:href="#DejaVuSans-20" x="358.496094"/>
      <use xlink:href="#DejaVuSans-28" x="390.283203"/>
      <use xlink:href="#DejaVuSans-41" x="429.296875"/>
      <use xlink:href="#DejaVuSans-55" x="497.705078"/>
      <use xlink:href="#DejaVuSans-43" x="570.898438"/>
      <use xlink:href="#DejaVuSans-20" x="640.722656"/>
      <use xlink:href="#DejaVuSans-3d" x="672.509766"/>
      <use xlink:href="#DejaVuSans-20" x="756.298828"/>
      <use xlink:href="#DejaVuSans-31" x="788.085938"/>
      <use xlink:href="#DejaVuSans-2e" x="851.708984"/>
      <use xlink:href="#DejaVuSans-30" x="883.496094"/>
      <use xlink:href="#DejaVuSans-30" x="947.119141"/>
      <use xlink:href="#DejaVuSans-29" x="1010.742188"/>
     </g>
    </g>
    <g id="line2d_30">
     <path d="M 266.384063 146.223063 
L 276.384063 146.223063 
L 286.384063 146.223063 
" style="fill: none; stroke: #d62728; stroke-width: 1.5; stroke-linecap: square"/>
    </g>
    <g id="text_19">
     <!-- Class 3 (AUC = 0.99) -->
     <g transform="translate(294.384063 149.723063)scale(0.1 -0.1)">
      <defs>
       <path id="DejaVuSans-33" d="M 2597 2516 
Q 3050 2419 3304 2112 
Q 3559 1806 3559 1356 
Q 3559 666 3084 287 
Q 2609 -91 1734 -91 
Q 1441 -91 1130 -33 
Q 819 25 488 141 
L 488 750 
Q 750 597 1062 519 
Q 1375 441 1716 441 
Q 2309 441 2620 675 
Q 2931 909 2931 1356 
Q 2931 1769 2642 2001 
Q 2353 2234 1838 2234 
L 1294 2234 
L 1294 2753 
L 1863 2753 
Q 2328 2753 2575 2939 
Q 2822 3125 2822 3475 
Q 2822 3834 2567 4026 
Q 2313 4219 1838 4219 
Q 1578 4219 1281 4162 
Q 984 4106 628 3988 
L 628 4550 
Q 988 4650 1302 4700 
Q 1616 4750 1894 4750 
Q 2613 4750 3031 4423 
Q 3450 4097 3450 3541 
Q 3450 3153 3228 2886 
Q 3006 2619 2597 2516 
z
" transform="scale(0.015625)"/>
      </defs>
      <use xlink:href="#DejaVuSans-43"/>
      <use xlink:href="#DejaVuSans-6c" x="69.824219"/>
      <use xlink:href="#DejaVuSans-61" x="97.607422"/>
      <use xlink:href="#DejaVuSans-73" x="158.886719"/>
      <use xlink:href="#DejaVuSans-73" x="210.986328"/>
      <use xlink:href="#DejaVuSans-20" x="263.085938"/>
      <use xlink:href="#DejaVuSans-33" x="294.873047"/>
      <use xlink:href="#DejaVuSans-20" x="358.496094"/>
      <use xlink:href="#DejaVuSans-28" x="390.283203"/>
      <use xlink:href="#DejaVuSans-41" x="429.296875"/>
      <use xlink:href="#DejaVuSans-55" x="497.705078"/>
      <use xlink:href="#DejaVuSans-43" x="570.898438"/>
      <use xlink:href="#DejaVuSans-20" x="640.722656"/>
      <use xlink:href="#DejaVuSans-3d" x="672.509766"/>
      <use xlink:href="#DejaVuSans-20" x="756.298828"/>
      <use xlink:href="#DejaVuSans-30" x="788.085938"/>
      <use xlink:href="#DejaVuSans-2e" x="851.708984"/>
      <use xlink:href="#DejaVuSans-39" x="883.496094"/>
      <use xlink:href="#DejaVuSans-39" x="947.119141"/>
      <use xlink:href="#DejaVuSans-29" x="1010.742188"/>
     </g>
    </g>
    <g id="line2d_31">
     <path d="M 266.384063 160.901188 
L 276.384063 160.901188 
L 286.384063 160.901188 
" style="fill: none; stroke: #9467bd; stroke-width: 1.5; stroke-linecap: square"/>
    </g>
    <g id="text_20">
     <!-- Class 4 (AUC = 1.00) -->
     <g transform="translate(294.384063 164.401188)scale(0.1 -0.1)">
      <use xlink:href="#DejaVuSans-43"/>
      <use xlink:href="#DejaVuSans-6c" x="69.824219"/>
      <use xlink:href="#DejaVuSans-61" x="97.607422"/>
      <use xlink:href="#DejaVuSans-73" x="158.886719"/>
      <use xlink:href="#DejaVuSans-73" x="210.986328"/>
      <use xlink:href="#DejaVuSans-20" x="263.085938"/>
      <use xlink:href="#DejaVuSans-34" x="294.873047"/>
      <use xlink:href="#DejaVuSans-20" x="358.496094"/>
      <use xlink:href="#DejaVuSans-28" x="390.283203"/>
      <use xlink:href="#DejaVuSans-41" x="429.296875"/>
      <use xlink:href="#DejaVuSans-55" x="497.705078"/>
      <use xlink:href="#DejaVuSans-43" x="570.898438"/>
      <use xlink:href="#DejaVuSans-20" x="640.722656"/>
      <use xlink:href="#DejaVuSans-3d" x="672.509766"/>
      <use xlink:href="#DejaVuSans-20" x="756.298828"/>
      <use xlink:href="#DejaVuSans-31" x="788.085938"/>
      <use xlink:href="#DejaVuSans-2e" x="851.708984"/>
      <use xlink:href="#DejaVuSans-30" x="883.496094"/>
      <use xlink:href="#DejaVuSans-30" x="947.119141"/>
      <use xlink:href="#DejaVuSans-29" x="1010.742188"/>
     </g>
    </g>
    <g id="line2d_32">
     <path d="M 266.384063 175.579313 
L 276.384063 175.579313 
L 286.384063 175.579313 
" style="fill: none; stroke: #8c564b; stroke-width: 1.5; stroke-linecap: square"/>
    </g>
    <g id="text_21">
     <!-- Class 5 (AUC = 1.00) -->
     <g transform="translate(294.384063 179.079313)scale(0.1 -0.1)">
      <defs>
       <path id="DejaVuSans-35" d="M 691 4666 
L 3169 4666 
L 3169 4134 
L 1269 4134 
L 1269 2991 
Q 1406 3038 1543 3061 
Q 1681 3084 1819 3084 
Q 2600 3084 3056 2656 
Q 3513 2228 3513 1497 
Q 3513 744 3044 326 
Q 2575 -91 1722 -91 
Q 1428 -91 1123 -41 
Q 819 9 494 109 
L 494 744 
Q 775 591 1075 516 
Q 1375 441 1709 441 
Q 2250 441 2565 725 
Q 2881 1009 2881 1497 
Q 2881 1984 2565 2268 
Q 2250 2553 1709 2553 
Q 1456 2553 1204 2497 
Q 953 2441 691 2322 
L 691 4666 
z
" transform="scale(0.015625)"/>
      </defs>
      <use xlink:href="#DejaVuSans-43"/>
      <use xlink:href="#DejaVuSans-6c" x="69.824219"/>
      <use xlink:href="#DejaVuSans-61" x="97.607422"/>
      <use xlink:href="#DejaVuSans-73" x="158.886719"/>
      <use xlink:href="#DejaVuSans-73" x="210.986328"/>
      <use xlink:href="#DejaVuSans-20" x="263.085938"/>
      <use xlink:href="#DejaVuSans-35" x="294.873047"/>
      <use xlink:href="#DejaVuSans-20" x="358.496094"/>
      <use xlink:href="#DejaVuSans-28" x="390.283203"/>
      <use xlink:href="#DejaVuSans-41" x="429.296875"/>
      <use xlink:href="#DejaVuSans-55" x="497.705078"/>
      <use xlink:href="#DejaVuSans-43" x="570.898438"/>
      <use xlink:href="#DejaVuSans-20" x="640.722656"/>
      <use xlink:href="#DejaVuSans-3d" x="672.509766"/>
      <use xlink:href="#DejaVuSans-20" x="756.298828"/>
      <use xlink:href="#DejaVuSans-31" x="788.085938"/>
      <use xlink:href="#DejaVuSans-2e" x="851.708984"/>
      <use xlink:href="#DejaVuSans-30" x="883.496094"/>
      <use xlink:href="#DejaVuSans-30" x="947.119141"/>
      <use xlink:href="#DejaVuSans-29" x="1010.742188"/>
     </g>
    </g>
    <g id="line2d_33">
     <path d="M 266.384063 190.257438 
L 276.384063 190.257438 
L 286.384063 190.257438 
" style="fill: none; stroke: #e377c2; stroke-width: 1.5; stroke-linecap: square"/>
    </g>
    <g id="text_22">
     <!-- Class 6 (AUC = 1.00) -->
     <g transform="translate(294.384063 193.757438)scale(0.1 -0.1)">
      <use xlink:href="#DejaVuSans-43"/>
      <use xlink:href="#DejaVuSans-6c" x="69.824219"/>
      <use xlink:href="#DejaVuSans-61" x="97.607422"/>
      <use xlink:href="#DejaVuSans-73" x="158.886719"/>
      <use xlink:href="#DejaVuSans-73" x="210.986328"/>
      <use xlink:href="#DejaVuSans-20" x="263.085938"/>
      <use xlink:href="#DejaVuSans-36" x="294.873047"/>
      <use xlink:href="#DejaVuSans-20" x="358.496094"/>
      <use xlink:href="#DejaVuSans-28" x="390.283203"/>
      <use xlink:href="#DejaVuSans-41" x="429.296875"/>
      <use xlink:href="#DejaVuSans-55" x="497.705078"/>
      <use xlink:href="#DejaVuSans-43" x="570.898438"/>
      <use xlink:href="#DejaVuSans-20" x="640.722656"/>
      <use xlink:href="#DejaVuSans-3d" x="672.509766"/>
      <use xlink:href="#DejaVuSans-20" x="756.298828"/>
      <use xlink:href="#DejaVuSans-31" x="788.085938"/>
      <use xlink:href="#DejaVuSans-2e" x="851.708984"/>
      <use xlink:href="#DejaVuSans-30" x="883.496094"/>
      <use xlink:href="#DejaVuSans-30" x="947.119141"/>
      <use xlink:href="#DejaVuSans-29" x="1010.742188"/>
     </g>
    </g>
    <g id="line2d_34">
     <path d="M 266.384063 204.935563 
L 276.384063 204.935563 
L 286.384063 204.935563 
" style="fill: none; stroke: #7f7f7f; stroke-width: 1.5; stroke-linecap: square"/>
    </g>
    <g id="text_23">
     <!-- Class 7 (AUC = 1.00) -->
     <g transform="translate(294.384063 208.435563)scale(0.1 -0.1)">
      <defs>
       <path id="DejaVuSans-37" d="M 525 4666 
L 3525 4666 
L 3525 4397 
L 1831 0 
L 1172 0 
L 2766 4134 
L 525 4134 
L 525 4666 
z
" transform="scale(0.015625)"/>
      </defs>
      <use xlink:href="#DejaVuSans-43"/>
      <use xlink:href="#DejaVuSans-6c" x="69.824219"/>
      <use xlink:href="#DejaVuSans-61" x="97.607422"/>
      <use xlink:href="#DejaVuSans-73" x="158.886719"/>
      <use xlink:href="#DejaVuSans-73" x="210.986328"/>
      <use xlink:href="#DejaVuSans-20" x="263.085938"/>
      <use xlink:href="#DejaVuSans-37" x="294.873047"/>
      <use xlink:href="#DejaVuSans-20" x="358.496094"/>
      <use xlink:href="#DejaVuSans-28" x="390.283203"/>
      <use xlink:href="#DejaVuSans-41" x="429.296875"/>
      <use xlink:href="#DejaVuSans-55" x="497.705078"/>
      <use xlink:href="#DejaVuSans-43" x="570.898438"/>
      <use xlink:href="#DejaVuSans-20" x="640.722656"/>
      <use xlink:href="#DejaVuSans-3d" x="672.509766"/>
      <use xlink:href="#DejaVuSans-20" x="756.298828"/>
      <use xlink:href="#DejaVuSans-31" x="788.085938"/>
      <use xlink:href="#DejaVuSans-2e" x="851.708984"/>
      <use xlink:href="#DejaVuSans-30" x="883.496094"/>
      <use xlink:href="#DejaVuSans-30" x="947.119141"/>
      <use xlink:href="#DejaVuSans-29" x="1010.742188"/>
     </g>
    </g>
    <g id="line2d_35">
     <path d="M 266.384063 219.613688 
L 276.384063 219.613688 
L 286.384063 219.613688 
" style="fill: none; stroke: #bcbd22; stroke-width: 1.5; stroke-linecap: square"/>
    </g>
    <g id="text_24">
     <!-- Class 8 (AUC = 1.00) -->
     <g transform="translate(294.384063 223.113688)scale(0.1 -0.1)">
      <use xlink:href="#DejaVuSans-43"/>
      <use xlink:href="#DejaVuSans-6c" x="69.824219"/>
      <use xlink:href="#DejaVuSans-61" x="97.607422"/>
      <use xlink:href="#DejaVuSans-73" x="158.886719"/>
      <use xlink:href="#DejaVuSans-73" x="210.986328"/>
      <use xlink:href="#DejaVuSans-20" x="263.085938"/>
      <use xlink:href="#DejaVuSans-38" x="294.873047"/>
      <use xlink:href="#DejaVuSans-20" x="358.496094"/>
      <use xlink:href="#DejaVuSans-28" x="390.283203"/>
      <use xlink:href="#DejaVuSans-41" x="429.296875"/>
      <use xlink:href="#DejaVuSans-55" x="497.705078"/>
      <use xlink:href="#DejaVuSans-43" x="570.898438"/>
      <use xlink:href="#DejaVuSans-20" x="640.722656"/>
      <use xlink:href="#DejaVuSans-3d" x="672.509766"/>
      <use xlink:href="#DejaVuSans-20" x="756.298828"/>
      <use xlink:href="#DejaVuSans-31" x="788.085938"/>
      <use xlink:href="#DejaVuSans-2e" x="851.708984"/>
      <use xlink:href="#DejaVuSans-30" x="883.496094"/>
      <use xlink:href="#DejaVuSans-30" x="947.119141"/>
      <use xlink:href="#DejaVuSans-29" x="1010.742188"/>
     </g>
    </g>
    <g id="line2d_36">
     <path d="M 266.384063 234.291812 
L 276.384063 234.291812 
L 286.384063 234.291812 
" style="fill: none; stroke: #17becf; stroke-width: 1.5; stroke-linecap: square"/>
    </g>
    <g id="text_25">
     <!-- Class 9 (AUC = 0.94) -->
     <g transform="translate(294.384063 237.791812)scale(0.1 -0.1)">
      <use xlink:href="#DejaVuSans-43"/>
      <use xlink:href="#DejaVuSans-6c" x="69.824219"/>
      <use xlink:href="#DejaVuSans-61" x="97.607422"/>
      <use xlink:href="#DejaVuSans-73" x="158.886719"/>
      <use xlink:href="#DejaVuSans-73" x="210.986328"/>
      <use xlink:href="#DejaVuSans-20" x="263.085938"/>
      <use xlink:href="#DejaVuSans-39" x="294.873047"/>
      <use xlink:href="#DejaVuSans-20" x="358.496094"/>
      <use xlink:href="#DejaVuSans-28" x="390.283203"/>
      <use xlink:href="#DejaVuSans-41" x="429.296875"/>
      <use xlink:href="#DejaVuSans-55" x="497.705078"/>
      <use xlink:href="#DejaVuSans-43" x="570.898438"/>
      <use xlink:href="#DejaVuSans-20" x="640.722656"/>
      <use xlink:href="#DejaVuSans-3d" x="672.509766"/>
      <use xlink:href="#DejaVuSans-20" x="756.298828"/>
      <use xlink:href="#DejaVuSans-30" x="788.085938"/>
      <use xlink:href="#DejaVuSans-2e" x="851.708984"/>
      <use xlink:href="#DejaVuSans-39" x="883.496094"/>
      <use xlink:href="#DejaVuSans-34" x="947.119141"/>
      <use xlink:href="#DejaVuSans-29" x="1010.742188"/>
     </g>
    </g>
    <g id="line2d_37">
     <path d="M 266.384063 248.969937 
L 276.384063 248.969937 
L 286.384063 248.969937 
" style="fill: none; stroke: #1f77b4; stroke-width: 1.5; stroke-linecap: square"/>
    </g>
    <g id="text_26">
     <!-- Class 10 (AUC = 1.00) -->
     <g transform="translate(294.384063 252.469937)scale(0.1 -0.1)">
      <use xlink:href="#DejaVuSans-43"/>
      <use xlink:href="#DejaVuSans-6c" x="69.824219"/>
      <use xlink:href="#DejaVuSans-61" x="97.607422"/>
      <use xlink:href="#DejaVuSans-73" x="158.886719"/>
      <use xlink:href="#DejaVuSans-73" x="210.986328"/>
      <use xlink:href="#DejaVuSans-20" x="263.085938"/>
      <use xlink:href="#DejaVuSans-31" x="294.873047"/>
      <use xlink:href="#DejaVuSans-30" x="358.496094"/>
      <use xlink:href="#DejaVuSans-20" x="422.119141"/>
      <use xlink:href="#DejaVuSans-28" x="453.90625"/>
      <use xlink:href="#DejaVuSans-41" x="492.919922"/>
      <use xlink:href="#DejaVuSans-55" x="561.328125"/>
      <use xlink:href="#DejaVuSans-43" x="634.521484"/>
      <use xlink:href="#DejaVuSans-20" x="704.345703"/>
      <use xlink:href="#DejaVuSans-3d" x="736.132812"/>
      <use xlink:href="#DejaVuSans-20" x="819.921875"/>
      <use xlink:href="#DejaVuSans-31" x="851.708984"/>
      <use xlink:href="#DejaVuSans-2e" x="915.332031"/>
      <use xlink:href="#DejaVuSans-30" x="947.119141"/>
      <use xlink:href="#DejaVuSans-30" x="1010.742188"/>
      <use xlink:href="#DejaVuSans-29" x="1074.365234"/>
     </g>
    </g>
    <g id="line2d_38">
     <path d="M 266.384063 263.648062 
L 276.384063 263.648062 
L 286.384063 263.648062 
" style="fill: none; stroke: #ff7f0e; stroke-width: 1.5; stroke-linecap: square"/>
    </g>
    <g id="text_27">
     <!-- Class 11 (AUC = 1.00) -->
     <g transform="translate(294.384063 267.148062)scale(0.1 -0.1)">
      <use xlink:href="#DejaVuSans-43"/>
      <use xlink:href="#DejaVuSans-6c" x="69.824219"/>
      <use xlink:href="#DejaVuSans-61" x="97.607422"/>
      <use xlink:href="#DejaVuSans-73" x="158.886719"/>
      <use xlink:href="#DejaVuSans-73" x="210.986328"/>
      <use xlink:href="#DejaVuSans-20" x="263.085938"/>
      <use xlink:href="#DejaVuSans-31" x="294.873047"/>
      <use xlink:href="#DejaVuSans-31" x="358.496094"/>
      <use xlink:href="#DejaVuSans-20" x="422.119141"/>
      <use xlink:href="#DejaVuSans-28" x="453.90625"/>
      <use xlink:href="#DejaVuSans-41" x="492.919922"/>
      <use xlink:href="#DejaVuSans-55" x="561.328125"/>
      <use xlink:href="#DejaVuSans-43" x="634.521484"/>
      <use xlink:href="#DejaVuSans-20" x="704.345703"/>
      <use xlink:href="#DejaVuSans-3d" x="736.132812"/>
      <use xlink:href="#DejaVuSans-20" x="819.921875"/>
      <use xlink:href="#DejaVuSans-31" x="851.708984"/>
      <use xlink:href="#DejaVuSans-2e" x="915.332031"/>
      <use xlink:href="#DejaVuSans-30" x="947.119141"/>
      <use xlink:href="#DejaVuSans-30" x="1010.742188"/>
      <use xlink:href="#DejaVuSans-29" x="1074.365234"/>
     </g>
    </g>
    <g id="line2d_39">
     <path d="M 266.384063 278.326187 
L 276.384063 278.326187 
L 286.384063 278.326187 
" style="fill: none; stroke: #2ca02c; stroke-width: 1.5; stroke-linecap: square"/>
    </g>
    <g id="text_28">
     <!-- Class 12 (AUC = 1.00) -->
     <g transform="translate(294.384063 281.826187)scale(0.1 -0.1)">
      <use xlink:href="#DejaVuSans-43"/>
      <use xlink:href="#DejaVuSans-6c" x="69.824219"/>
      <use xlink:href="#DejaVuSans-61" x="97.607422"/>
      <use xlink:href="#DejaVuSans-73" x="158.886719"/>
      <use xlink:href="#DejaVuSans-73" x="210.986328"/>
      <use xlink:href="#DejaVuSans-20" x="263.085938"/>
      <use xlink:href="#DejaVuSans-31" x="294.873047"/>
      <use xlink:href="#DejaVuSans-32" x="358.496094"/>
      <use xlink:href="#DejaVuSans-20" x="422.119141"/>
      <use xlink:href="#DejaVuSans-28" x="453.90625"/>
      <use xlink:href="#DejaVuSans-41" x="492.919922"/>
      <use xlink:href="#DejaVuSans-55" x="561.328125"/>
      <use xlink:href="#DejaVuSans-43" x="634.521484"/>
      <use xlink:href="#DejaVuSans-20" x="704.345703"/>
      <use xlink:href="#DejaVuSans-3d" x="736.132812"/>
      <use xlink:href="#DejaVuSans-20" x="819.921875"/>
      <use xlink:href="#DejaVuSans-31" x="851.708984"/>
      <use xlink:href="#DejaVuSans-2e" x="915.332031"/>
      <use xlink:href="#DejaVuSans-30" x="947.119141"/>
      <use xlink:href="#DejaVuSans-30" x="1010.742188"/>
      <use xlink:href="#DejaVuSans-29" x="1074.365234"/>
     </g>
    </g>
    <g id="line2d_40">
     <path d="M 266.384063 293.004312 
L 276.384063 293.004312 
L 286.384063 293.004312 
" style="fill: none; stroke: #d62728; stroke-width: 1.5; stroke-linecap: square"/>
    </g>
    <g id="text_29">
     <!-- Class 13 (AUC = 1.00) -->
     <g transform="translate(294.384063 296.504312)scale(0.1 -0.1)">
      <use xlink:href="#DejaVuSans-43"/>
      <use xlink:href="#DejaVuSans-6c" x="69.824219"/>
      <use xlink:href="#DejaVuSans-61" x="97.607422"/>
      <use xlink:href="#DejaVuSans-73" x="158.886719"/>
      <use xlink:href="#DejaVuSans-73" x="210.986328"/>
      <use xlink:href="#DejaVuSans-20" x="263.085938"/>
      <use xlink:href="#DejaVuSans-31" x="294.873047"/>
      <use xlink:href="#DejaVuSans-33" x="358.496094"/>
      <use xlink:href="#DejaVuSans-20" x="422.119141"/>
      <use xlink:href="#DejaVuSans-28" x="453.90625"/>
      <use xlink:href="#DejaVuSans-41" x="492.919922"/>
      <use xlink:href="#DejaVuSans-55" x="561.328125"/>
      <use xlink:href="#DejaVuSans-43" x="634.521484"/>
      <use xlink:href="#DejaVuSans-20" x="704.345703"/>
      <use xlink:href="#DejaVuSans-3d" x="736.132812"/>
      <use xlink:href="#DejaVuSans-20" x="819.921875"/>
      <use xlink:href="#DejaVuSans-31" x="851.708984"/>
      <use xlink:href="#DejaVuSans-2e" x="915.332031"/>
      <use xlink:href="#DejaVuSans-30" x="947.119141"/>
      <use xlink:href="#DejaVuSans-30" x="1010.742188"/>
      <use xlink:href="#DejaVuSans-29" x="1074.365234"/>
     </g>
    </g>
   </g>
  </g>
 </g>
 <defs>
  <clipPath id="p411aeb0fc2">
   <rect x="57.6" y="41.472" width="357.12" height="266.112"/>
  </clipPath>
 </defs>
</svg>
