<?xml version="1.0" encoding="utf-8" standalone="no"?>
<!DOCTYPE svg PUBLIC "-//W3C//DTD SVG 1.1//EN"
  "http://www.w3.org/Graphics/SVG/1.1/DTD/svg11.dtd">
<svg xmlns:xlink="http://www.w3.org/1999/xlink" width="460.8pt" height="345.6pt" viewBox="0 0 460.8 345.6" xmlns="http://www.w3.org/2000/svg" version="1.1">
 <metadata>
  <rdf:RDF xmlns:dc="http://purl.org/dc/elements/1.1/" xmlns:cc="http://creativecommons.org/ns#" xmlns:rdf="http://www.w3.org/1999/02/22-rdf-syntax-ns#">
   <cc:Work>
    <dc:type rdf:resource="http://purl.org/dc/dcmitype/StillImage"/>
    <dc:date>2024-01-05T20:38:29.344334</dc:date>
    <dc:format>image/svg+xml</dc:format>
    <dc:creator>
     <cc:Agent>
      <dc:title>Matplotlib v3.5.3, https://matplotlib.org/</dc:title>
     </cc:Agent>
    </dc:creator>
   </cc:Work>
  </rdf:RDF>
 </metadata>
 <defs>
  <style type="text/css">*{stroke-linejoin: round; stroke-linecap: butt}</style>
 </defs>
 <g id="figure_1">
  <g id="patch_1">
   <path d="M 0 345.6 
L 460.8 345.6 
L 460.8 0 
L 0 0 
z
" style="fill: #ffffff"/>
  </g>
  <g id="axes_1">
   <g id="patch_2">
    <path d="M 57.6 307.584 
L 414.72 307.584 
L 414.72 41.472 
L 57.6 41.472 
z
" style="fill: #ffffff"/>
   </g>
   <g id="matplotlib.axis_1">
    <g id="xtick_1">
     <g id="line2d_1">
      <defs>
       <path id="mb3b8cf9778" d="M 0 0 
L 0 3.5 
" style="stroke: #000000; stroke-width: 0.8"/>
      </defs>
      <g>
       <use xlink:href="#mb3b8cf9778" x="73.832727" y="307.584" style="stroke: #000000; stroke-width: 0.8"/>
      </g>
     </g>
     <g id="text_1">
      <!-- 0.0 -->
      <g transform="translate(65.881165 322.182437)scale(0.1 -0.1)">
       <defs>
        <path id="DejaVuSans-30" d="M 2034 4250 
Q 1547 4250 1301 3770 
Q 1056 3291 1056 2328 
Q 1056 1369 1301 889 
Q 1547 409 2034 409 
Q 2525 409 2770 889 
Q 3016 1369 3016 2328 
Q 3016 3291 2770 3770 
Q 2525 4250 2034 4250 
z
M 2034 4750 
Q 2819 4750 3233 4129 
Q 3647 3509 3647 2328 
Q 3647 1150 3233 529 
Q 2819 -91 2034 -91 
Q 1250 -91 836 529 
Q 422 1150 422 2328 
Q 422 3509 836 4129 
Q 1250 4750 2034 4750 
z
" transform="scale(0.015625)"/>
        <path id="DejaVuSans-2e" d="M 684 794 
L 1344 794 
L 1344 0 
L 684 0 
L 684 794 
z
" transform="scale(0.015625)"/>
       </defs>
       <use xlink:href="#DejaVuSans-30"/>
       <use xlink:href="#DejaVuSans-2e" x="63.623047"/>
       <use xlink:href="#DejaVuSans-30" x="95.410156"/>
      </g>
     </g>
    </g>
    <g id="xtick_2">
     <g id="line2d_2">
      <g>
       <use xlink:href="#mb3b8cf9778" x="138.763636" y="307.584" style="stroke: #000000; stroke-width: 0.8"/>
      </g>
     </g>
     <g id="text_2">
      <!-- 0.2 -->
      <g transform="translate(130.812074 322.182437)scale(0.1 -0.1)">
       <defs>
        <path id="DejaVuSans-32" d="M 1228 531 
L 3431 531 
L 3431 0 
L 469 0 
L 469 531 
Q 828 903 1448 1529 
Q 2069 2156 2228 2338 
Q 2531 2678 2651 2914 
Q 2772 3150 2772 3378 
Q 2772 3750 2511 3984 
Q 2250 4219 1831 4219 
Q 1534 4219 1204 4116 
Q 875 4013 500 3803 
L 500 4441 
Q 881 4594 1212 4672 
Q 1544 4750 1819 4750 
Q 2544 4750 2975 4387 
Q 3406 4025 3406 3419 
Q 3406 3131 3298 2873 
Q 3191 2616 2906 2266 
Q 2828 2175 2409 1742 
Q 1991 1309 1228 531 
z
" transform="scale(0.015625)"/>
       </defs>
       <use xlink:href="#DejaVuSans-30"/>
       <use xlink:href="#DejaVuSans-2e" x="63.623047"/>
       <use xlink:href="#DejaVuSans-32" x="95.410156"/>
      </g>
     </g>
    </g>
    <g id="xtick_3">
     <g id="line2d_3">
      <g>
       <use xlink:href="#mb3b8cf9778" x="203.694545" y="307.584" style="stroke: #000000; stroke-width: 0.8"/>
      </g>
     </g>
     <g id="text_3">
      <!-- 0.4 -->
      <g transform="translate(195.742983 322.182437)scale(0.1 -0.1)">
       <defs>
        <path id="DejaVuSans-34" d="M 2419 4116 
L 825 1625 
L 2419 1625 
L 2419 4116 
z
M 2253 4666 
L 3047 4666 
L 3047 1625 
L 3713 1625 
L 3713 1100 
L 3047 1100 
L 3047 0 
L 2419 0 
L 2419 1100 
L 313 1100 
L 313 1709 
L 2253 4666 
z
" transform="scale(0.015625)"/>
       </defs>
       <use xlink:href="#DejaVuSans-30"/>
       <use xlink:href="#DejaVuSans-2e" x="63.623047"/>
       <use xlink:href="#DejaVuSans-34" x="95.410156"/>
      </g>
     </g>
    </g>
    <g id="xtick_4">
     <g id="line2d_4">
      <g>
       <use xlink:href="#mb3b8cf9778" x="268.625455" y="307.584" style="stroke: #000000; stroke-width: 0.8"/>
      </g>
     </g>
     <g id="text_4">
      <!-- 0.6 -->
      <g transform="translate(260.673892 322.182437)scale(0.1 -0.1)">
       <defs>
        <path id="DejaVuSans-36" d="M 2113 2584 
Q 1688 2584 1439 2293 
Q 1191 2003 1191 1497 
Q 1191 994 1439 701 
Q 1688 409 2113 409 
Q 2538 409 2786 701 
Q 3034 994 3034 1497 
Q 3034 2003 2786 2293 
Q 2538 2584 2113 2584 
z
M 3366 4563 
L 3366 3988 
Q 3128 4100 2886 4159 
Q 2644 4219 2406 4219 
Q 1781 4219 1451 3797 
Q 1122 3375 1075 2522 
Q 1259 2794 1537 2939 
Q 1816 3084 2150 3084 
Q 2853 3084 3261 2657 
Q 3669 2231 3669 1497 
Q 3669 778 3244 343 
Q 2819 -91 2113 -91 
Q 1303 -91 875 529 
Q 447 1150 447 2328 
Q 447 3434 972 4092 
Q 1497 4750 2381 4750 
Q 2619 4750 2861 4703 
Q 3103 4656 3366 4563 
z
" transform="scale(0.015625)"/>
       </defs>
       <use xlink:href="#DejaVuSans-30"/>
       <use xlink:href="#DejaVuSans-2e" x="63.623047"/>
       <use xlink:href="#DejaVuSans-36" x="95.410156"/>
      </g>
     </g>
    </g>
    <g id="xtick_5">
     <g id="line2d_5">
      <g>
       <use xlink:href="#mb3b8cf9778" x="333.556364" y="307.584" style="stroke: #000000; stroke-width: 0.8"/>
      </g>
     </g>
     <g id="text_5">
      <!-- 0.8 -->
      <g transform="translate(325.604801 322.182437)scale(0.1 -0.1)">
       <defs>
        <path id="DejaVuSans-38" d="M 2034 2216 
Q 1584 2216 1326 1975 
Q 1069 1734 1069 1313 
Q 1069 891 1326 650 
Q 1584 409 2034 409 
Q 2484 409 2743 651 
Q 3003 894 3003 1313 
Q 3003 1734 2745 1975 
Q 2488 2216 2034 2216 
z
M 1403 2484 
Q 997 2584 770 2862 
Q 544 3141 544 3541 
Q 544 4100 942 4425 
Q 1341 4750 2034 4750 
Q 2731 4750 3128 4425 
Q 3525 4100 3525 3541 
Q 3525 3141 3298 2862 
Q 3072 2584 2669 2484 
Q 3125 2378 3379 2068 
Q 3634 1759 3634 1313 
Q 3634 634 3220 271 
Q 2806 -91 2034 -91 
Q 1263 -91 848 271 
Q 434 634 434 1313 
Q 434 1759 690 2068 
Q 947 2378 1403 2484 
z
M 1172 3481 
Q 1172 3119 1398 2916 
Q 1625 2713 2034 2713 
Q 2441 2713 2670 2916 
Q 2900 3119 2900 3481 
Q 2900 3844 2670 4047 
Q 2441 4250 2034 4250 
Q 1625 4250 1398 4047 
Q 1172 3844 1172 3481 
z
" transform="scale(0.015625)"/>
       </defs>
       <use xlink:href="#DejaVuSans-30"/>
       <use xlink:href="#DejaVuSans-2e" x="63.623047"/>
       <use xlink:href="#DejaVuSans-38" x="95.410156"/>
      </g>
     </g>
    </g>
    <g id="xtick_6">
     <g id="line2d_6">
      <g>
       <use xlink:href="#mb3b8cf9778" x="398.487273" y="307.584" style="stroke: #000000; stroke-width: 0.8"/>
      </g>
     </g>
     <g id="text_6">
      <!-- 1.0 -->
      <g transform="translate(390.53571 322.182437)scale(0.1 -0.1)">
       <defs>
        <path id="DejaVuSans-31" d="M 794 531 
L 1825 531 
L 1825 4091 
L 703 3866 
L 703 4441 
L 1819 4666 
L 2450 4666 
L 2450 531 
L 3481 531 
L 3481 0 
L 794 0 
L 794 531 
z
" transform="scale(0.015625)"/>
       </defs>
       <use xlink:href="#DejaVuSans-31"/>
       <use xlink:href="#DejaVuSans-2e" x="63.623047"/>
       <use xlink:href="#DejaVuSans-30" x="95.410156"/>
      </g>
     </g>
    </g>
    <g id="text_7">
     <!-- False Positive Rate -->
     <g transform="translate(189.693594 335.860562)scale(0.1 -0.1)">
      <defs>
       <path id="DejaVuSans-46" d="M 628 4666 
L 3309 4666 
L 3309 4134 
L 1259 4134 
L 1259 2759 
L 3109 2759 
L 3109 2228 
L 1259 2228 
L 1259 0 
L 628 0 
L 628 4666 
z
" transform="scale(0.015625)"/>
       <path id="DejaVuSans-61" d="M 2194 1759 
Q 1497 1759 1228 1600 
Q 959 1441 959 1056 
Q 959 750 1161 570 
Q 1363 391 1709 391 
Q 2188 391 2477 730 
Q 2766 1069 2766 1631 
L 2766 1759 
L 2194 1759 
z
M 3341 1997 
L 3341 0 
L 2766 0 
L 2766 531 
Q 2569 213 2275 61 
Q 1981 -91 1556 -91 
Q 1019 -91 701 211 
Q 384 513 384 1019 
Q 384 1609 779 1909 
Q 1175 2209 1959 2209 
L 2766 2209 
L 2766 2266 
Q 2766 2663 2505 2880 
Q 2244 3097 1772 3097 
Q 1472 3097 1187 3025 
Q 903 2953 641 2809 
L 641 3341 
Q 956 3463 1253 3523 
Q 1550 3584 1831 3584 
Q 2591 3584 2966 3190 
Q 3341 2797 3341 1997 
z
" transform="scale(0.015625)"/>
       <path id="DejaVuSans-6c" d="M 603 4863 
L 1178 4863 
L 1178 0 
L 603 0 
L 603 4863 
z
" transform="scale(0.015625)"/>
       <path id="DejaVuSans-73" d="M 2834 3397 
L 2834 2853 
Q 2591 2978 2328 3040 
Q 2066 3103 1784 3103 
Q 1356 3103 1142 2972 
Q 928 2841 928 2578 
Q 928 2378 1081 2264 
Q 1234 2150 1697 2047 
L 1894 2003 
Q 2506 1872 2764 1633 
Q 3022 1394 3022 966 
Q 3022 478 2636 193 
Q 2250 -91 1575 -91 
Q 1294 -91 989 -36 
Q 684 19 347 128 
L 347 722 
Q 666 556 975 473 
Q 1284 391 1588 391 
Q 1994 391 2212 530 
Q 2431 669 2431 922 
Q 2431 1156 2273 1281 
Q 2116 1406 1581 1522 
L 1381 1569 
Q 847 1681 609 1914 
Q 372 2147 372 2553 
Q 372 3047 722 3315 
Q 1072 3584 1716 3584 
Q 2034 3584 2315 3537 
Q 2597 3491 2834 3397 
z
" transform="scale(0.015625)"/>
       <path id="DejaVuSans-65" d="M 3597 1894 
L 3597 1613 
L 953 1613 
Q 991 1019 1311 708 
Q 1631 397 2203 397 
Q 2534 397 2845 478 
Q 3156 559 3463 722 
L 3463 178 
Q 3153 47 2828 -22 
Q 2503 -91 2169 -91 
Q 1331 -91 842 396 
Q 353 884 353 1716 
Q 353 2575 817 3079 
Q 1281 3584 2069 3584 
Q 2775 3584 3186 3129 
Q 3597 2675 3597 1894 
z
M 3022 2063 
Q 3016 2534 2758 2815 
Q 2500 3097 2075 3097 
Q 1594 3097 1305 2825 
Q 1016 2553 972 2059 
L 3022 2063 
z
" transform="scale(0.015625)"/>
       <path id="DejaVuSans-20" transform="scale(0.015625)"/>
       <path id="DejaVuSans-50" d="M 1259 4147 
L 1259 2394 
L 2053 2394 
Q 2494 2394 2734 2622 
Q 2975 2850 2975 3272 
Q 2975 3691 2734 3919 
Q 2494 4147 2053 4147 
L 1259 4147 
z
M 628 4666 
L 2053 4666 
Q 2838 4666 3239 4311 
Q 3641 3956 3641 3272 
Q 3641 2581 3239 2228 
Q 2838 1875 2053 1875 
L 1259 1875 
L 1259 0 
L 628 0 
L 628 4666 
z
" transform="scale(0.015625)"/>
       <path id="DejaVuSans-6f" d="M 1959 3097 
Q 1497 3097 1228 2736 
Q 959 2375 959 1747 
Q 959 1119 1226 758 
Q 1494 397 1959 397 
Q 2419 397 2687 759 
Q 2956 1122 2956 1747 
Q 2956 2369 2687 2733 
Q 2419 3097 1959 3097 
z
M 1959 3584 
Q 2709 3584 3137 3096 
Q 3566 2609 3566 1747 
Q 3566 888 3137 398 
Q 2709 -91 1959 -91 
Q 1206 -91 779 398 
Q 353 888 353 1747 
Q 353 2609 779 3096 
Q 1206 3584 1959 3584 
z
" transform="scale(0.015625)"/>
       <path id="DejaVuSans-69" d="M 603 3500 
L 1178 3500 
L 1178 0 
L 603 0 
L 603 3500 
z
M 603 4863 
L 1178 4863 
L 1178 4134 
L 603 4134 
L 603 4863 
z
" transform="scale(0.015625)"/>
       <path id="DejaVuSans-74" d="M 1172 4494 
L 1172 3500 
L 2356 3500 
L 2356 3053 
L 1172 3053 
L 1172 1153 
Q 1172 725 1289 603 
Q 1406 481 1766 481 
L 2356 481 
L 2356 0 
L 1766 0 
Q 1100 0 847 248 
Q 594 497 594 1153 
L 594 3053 
L 172 3053 
L 172 3500 
L 594 3500 
L 594 4494 
L 1172 4494 
z
" transform="scale(0.015625)"/>
       <path id="DejaVuSans-76" d="M 191 3500 
L 800 3500 
L 1894 563 
L 2988 3500 
L 3597 3500 
L 2284 0 
L 1503 0 
L 191 3500 
z
" transform="scale(0.015625)"/>
       <path id="DejaVuSans-52" d="M 2841 2188 
Q 3044 2119 3236 1894 
Q 3428 1669 3622 1275 
L 4263 0 
L 3584 0 
L 2988 1197 
Q 2756 1666 2539 1819 
Q 2322 1972 1947 1972 
L 1259 1972 
L 1259 0 
L 628 0 
L 628 4666 
L 2053 4666 
Q 2853 4666 3247 4331 
Q 3641 3997 3641 3322 
Q 3641 2881 3436 2590 
Q 3231 2300 2841 2188 
z
M 1259 4147 
L 1259 2491 
L 2053 2491 
Q 2509 2491 2742 2702 
Q 2975 2913 2975 3322 
Q 2975 3731 2742 3939 
Q 2509 4147 2053 4147 
L 1259 4147 
z
" transform="scale(0.015625)"/>
      </defs>
      <use xlink:href="#DejaVuSans-46"/>
      <use xlink:href="#DejaVuSans-61" x="48.394531"/>
      <use xlink:href="#DejaVuSans-6c" x="109.673828"/>
      <use xlink:href="#DejaVuSans-73" x="137.457031"/>
      <use xlink:href="#DejaVuSans-65" x="189.556641"/>
      <use xlink:href="#DejaVuSans-20" x="251.080078"/>
      <use xlink:href="#DejaVuSans-50" x="282.867188"/>
      <use xlink:href="#DejaVuSans-6f" x="339.544922"/>
      <use xlink:href="#DejaVuSans-73" x="400.726562"/>
      <use xlink:href="#DejaVuSans-69" x="452.826172"/>
      <use xlink:href="#DejaVuSans-74" x="480.609375"/>
      <use xlink:href="#DejaVuSans-69" x="519.818359"/>
      <use xlink:href="#DejaVuSans-76" x="547.601562"/>
      <use xlink:href="#DejaVuSans-65" x="606.78125"/>
      <use xlink:href="#DejaVuSans-20" x="668.304688"/>
      <use xlink:href="#DejaVuSans-52" x="700.091797"/>
      <use xlink:href="#DejaVuSans-61" x="767.324219"/>
      <use xlink:href="#DejaVuSans-74" x="828.603516"/>
      <use xlink:href="#DejaVuSans-65" x="867.8125"/>
     </g>
    </g>
   </g>
   <g id="matplotlib.axis_2">
    <g id="ytick_1">
     <g id="line2d_7">
      <defs>
       <path id="m9ff38fcb7b" d="M 0 0 
L -3.5 0 
" style="stroke: #000000; stroke-width: 0.8"/>
      </defs>
      <g>
       <use xlink:href="#m9ff38fcb7b" x="57.6" y="295.488" style="stroke: #000000; stroke-width: 0.8"/>
      </g>
     </g>
     <g id="text_8">
      <!-- 0.0 -->
      <g transform="translate(34.696875 299.287219)scale(0.1 -0.1)">
       <use xlink:href="#DejaVuSans-30"/>
       <use xlink:href="#DejaVuSans-2e" x="63.623047"/>
       <use xlink:href="#DejaVuSans-30" x="95.410156"/>
      </g>
     </g>
    </g>
    <g id="ytick_2">
     <g id="line2d_8">
      <g>
       <use xlink:href="#m9ff38fcb7b" x="57.6" y="247.104" style="stroke: #000000; stroke-width: 0.8"/>
      </g>
     </g>
     <g id="text_9">
      <!-- 0.2 -->
      <g transform="translate(34.696875 250.903219)scale(0.1 -0.1)">
       <use xlink:href="#DejaVuSans-30"/>
       <use xlink:href="#DejaVuSans-2e" x="63.623047"/>
       <use xlink:href="#DejaVuSans-32" x="95.410156"/>
      </g>
     </g>
    </g>
    <g id="ytick_3">
     <g id="line2d_9">
      <g>
       <use xlink:href="#m9ff38fcb7b" x="57.6" y="198.72" style="stroke: #000000; stroke-width: 0.8"/>
      </g>
     </g>
     <g id="text_10">
      <!-- 0.4 -->
      <g transform="translate(34.696875 202.519219)scale(0.1 -0.1)">
       <use xlink:href="#DejaVuSans-30"/>
       <use xlink:href="#DejaVuSans-2e" x="63.623047"/>
       <use xlink:href="#DejaVuSans-34" x="95.410156"/>
      </g>
     </g>
    </g>
    <g id="ytick_4">
     <g id="line2d_10">
      <g>
       <use xlink:href="#m9ff38fcb7b" x="57.6" y="150.336" style="stroke: #000000; stroke-width: 0.8"/>
      </g>
     </g>
     <g id="text_11">
      <!-- 0.6 -->
      <g transform="translate(34.696875 154.135219)scale(0.1 -0.1)">
       <use xlink:href="#DejaVuSans-30"/>
       <use xlink:href="#DejaVuSans-2e" x="63.623047"/>
       <use xlink:href="#DejaVuSans-36" x="95.410156"/>
      </g>
     </g>
    </g>
    <g id="ytick_5">
     <g id="line2d_11">
      <g>
       <use xlink:href="#m9ff38fcb7b" x="57.6" y="101.952" style="stroke: #000000; stroke-width: 0.8"/>
      </g>
     </g>
     <g id="text_12">
      <!-- 0.8 -->
      <g transform="translate(34.696875 105.751219)scale(0.1 -0.1)">
       <use xlink:href="#DejaVuSans-30"/>
       <use xlink:href="#DejaVuSans-2e" x="63.623047"/>
       <use xlink:href="#DejaVuSans-38" x="95.410156"/>
      </g>
     </g>
    </g>
    <g id="ytick_6">
     <g id="line2d_12">
      <g>
       <use xlink:href="#m9ff38fcb7b" x="57.6" y="53.568" style="stroke: #000000; stroke-width: 0.8"/>
      </g>
     </g>
     <g id="text_13">
      <!-- 1.0 -->
      <g transform="translate(34.696875 57.367219)scale(0.1 -0.1)">
       <use xlink:href="#DejaVuSans-31"/>
       <use xlink:href="#DejaVuSans-2e" x="63.623047"/>
       <use xlink:href="#DejaVuSans-30" x="95.410156"/>
      </g>
     </g>
    </g>
    <g id="text_14">
     <!-- True Positive Rate -->
     <g transform="translate(28.617187 219.057687)rotate(-90)scale(0.1 -0.1)">
      <defs>
       <path id="DejaVuSans-54" d="M -19 4666 
L 3928 4666 
L 3928 4134 
L 2272 4134 
L 2272 0 
L 1638 0 
L 1638 4134 
L -19 4134 
L -19 4666 
z
" transform="scale(0.015625)"/>
       <path id="DejaVuSans-72" d="M 2631 2963 
Q 2534 3019 2420 3045 
Q 2306 3072 2169 3072 
Q 1681 3072 1420 2755 
Q 1159 2438 1159 1844 
L 1159 0 
L 581 0 
L 581 3500 
L 1159 3500 
L 1159 2956 
Q 1341 3275 1631 3429 
Q 1922 3584 2338 3584 
Q 2397 3584 2469 3576 
Q 2541 3569 2628 3553 
L 2631 2963 
z
" transform="scale(0.015625)"/>
       <path id="DejaVuSans-75" d="M 544 1381 
L 544 3500 
L 1119 3500 
L 1119 1403 
Q 1119 906 1312 657 
Q 1506 409 1894 409 
Q 2359 409 2629 706 
Q 2900 1003 2900 1516 
L 2900 3500 
L 3475 3500 
L 3475 0 
L 2900 0 
L 2900 538 
Q 2691 219 2414 64 
Q 2138 -91 1772 -91 
Q 1169 -91 856 284 
Q 544 659 544 1381 
z
M 1991 3584 
L 1991 3584 
z
" transform="scale(0.015625)"/>
      </defs>
      <use xlink:href="#DejaVuSans-54"/>
      <use xlink:href="#DejaVuSans-72" x="46.333984"/>
      <use xlink:href="#DejaVuSans-75" x="87.447266"/>
      <use xlink:href="#DejaVuSans-65" x="150.826172"/>
      <use xlink:href="#DejaVuSans-20" x="212.349609"/>
      <use xlink:href="#DejaVuSans-50" x="244.136719"/>
      <use xlink:href="#DejaVuSans-6f" x="300.814453"/>
      <use xlink:href="#DejaVuSans-73" x="361.996094"/>
      <use xlink:href="#DejaVuSans-69" x="414.095703"/>
      <use xlink:href="#DejaVuSans-74" x="441.878906"/>
      <use xlink:href="#DejaVuSans-69" x="481.087891"/>
      <use xlink:href="#DejaVuSans-76" x="508.871094"/>
      <use xlink:href="#DejaVuSans-65" x="568.050781"/>
      <use xlink:href="#DejaVuSans-20" x="629.574219"/>
      <use xlink:href="#DejaVuSans-52" x="661.361328"/>
      <use xlink:href="#DejaVuSans-61" x="728.59375"/>
      <use xlink:href="#DejaVuSans-74" x="789.873047"/>
      <use xlink:href="#DejaVuSans-65" x="829.082031"/>
     </g>
    </g>
   </g>
   <g id="line2d_13">
    <path d="M 73.832727 295.488 
L 73.832727 294.134128 
L 73.963373 294.134128 
L 73.963373 293.203341 
L 74.094019 293.203341 
L 74.094019 283.472386 
L 74.224664 283.472386 
L 74.224664 281.10311 
L 74.35531 281.10311 
L 74.35531 274.587601 
L 74.616601 274.587601 
L 74.616601 274.418367 
L 74.747247 274.418367 
L 74.747247 274.079899 
L 74.877893 274.079899 
L 74.877893 272.64141 
L 75.008539 272.64141 
L 75.008539 272.218325 
L 75.139184 272.218325 
L 75.139184 271.456772 
L 75.26983 271.456772 
L 75.26983 269.341347 
L 75.400476 269.341347 
L 75.400476 268.833645 
L 75.531121 268.833645 
L 75.531121 264.602795 
L 75.661767 264.602795 
L 75.661767 263.079689 
L 75.923058 262.995072 
L 75.923058 262.656604 
L 76.18435 262.656604 
L 76.18435 262.233519 
L 76.314995 262.233519 
L 76.314995 261.6412 
L 76.445641 261.6412 
L 76.445641 260.964264 
L 76.576287 260.964264 
L 76.576287 260.79503 
L 76.706933 260.79503 
L 76.706933 260.456562 
L 76.837578 260.456562 
L 76.837578 259.10269 
L 76.968224 259.10269 
L 76.968224 258.171903 
L 77.09887 258.171903 
L 77.09887 257.579584 
L 77.360161 257.494967 
L 77.360161 257.241116 
L 77.490807 257.241116 
L 77.490807 256.818031 
L 77.752098 256.818031 
L 77.752098 256.310329 
L 78.013389 256.310329 
L 78.013389 255.971861 
L 78.274681 255.887244 
L 78.274681 255.548776 
L 78.535972 255.464159 
L 78.535972 255.041075 
L 78.666618 255.041075 
L 78.666618 254.448756 
L 78.797264 254.448756 
L 78.797264 252.841033 
L 78.927909 252.841033 
L 78.927909 252.248714 
L 79.058555 252.248714 
L 79.058555 251.825629 
L 79.189201 251.825629 
L 79.189201 251.317927 
L 79.319846 251.317927 
L 79.319846 251.148693 
L 79.450492 251.148693 
L 79.450492 250.979459 
L 79.581138 250.979459 
L 79.581138 250.556374 
L 79.842429 250.471757 
L 79.842429 250.302523 
L 80.103721 250.302523 
L 80.103721 250.048672 
L 80.495658 250.048672 
L 80.495658 247.84863 
L 80.626303 247.84863 
L 80.626303 247.340928 
L 81.01824 247.256311 
L 81.01824 247.171694 
L 81.148886 247.171694 
L 81.148886 246.663992 
L 81.410177 246.579375 
L 81.410177 246.240907 
L 81.540823 246.240907 
L 81.540823 245.733205 
L 81.671469 245.733205 
L 81.671469 244.379333 
L 81.802115 244.379333 
L 81.802115 244.040865 
L 81.93276 244.040865 
L 81.93276 243.363929 
L 82.063406 243.363929 
L 82.063406 242.602376 
L 82.194052 242.602376 
L 82.194052 241.92544 
L 82.585989 241.840823 
L 82.585989 241.163887 
L 82.716634 241.163887 
L 82.716634 239.725398 
L 82.84728 239.725398 
L 82.84728 239.302313 
L 83.108571 239.302313 
L 83.108571 238.033058 
L 83.369863 237.948441 
L 83.369863 237.525356 
L 83.500509 237.525356 
L 83.500509 236.594569 
L 83.631154 236.594569 
L 83.631154 236.256101 
L 83.7618 236.256101 
L 83.7618 234.817612 
L 83.892446 234.817612 
L 83.892446 234.479144 
L 84.023091 234.479144 
L 84.023091 234.225293 
L 84.153737 234.225293 
L 84.153737 232.956038 
L 84.545674 232.871421 
L 84.545674 232.363719 
L 85.068257 232.279102 
L 85.068257 232.025251 
L 85.329548 231.940634 
L 85.329548 231.602166 
L 85.460194 231.602166 
L 85.460194 231.348315 
L 85.982777 231.263698 
L 85.982777 230.755996 
L 86.113422 230.755996 
L 86.113422 230.163677 
L 86.374714 230.163677 
L 86.374714 229.317507 
L 86.505359 229.317507 
L 86.505359 229.148273 
L 86.636005 229.148273 
L 86.636005 228.555954 
L 86.766651 228.555954 
L 86.766651 228.048252 
L 87.027942 228.048252 
L 87.027942 227.371316 
L 87.550525 227.371316 
L 87.550525 227.032848 
L 87.681171 227.032848 
L 87.681171 226.863614 
L 87.942462 226.778997 
L 87.942462 226.69438 
L 88.073108 226.69438 
L 88.073108 226.355912 
L 88.203753 226.355912 
L 88.203753 225.678976 
L 88.334399 225.678976 
L 88.334399 224.494338 
L 88.465045 224.494338 
L 88.465045 224.15587 
L 88.595691 224.15587 
L 88.595691 223.732785 
L 88.726336 223.732785 
L 88.726336 223.055849 
L 89.118273 222.971232 
L 89.118273 222.801998 
L 89.248919 222.801998 
L 89.248919 222.632764 
L 89.379565 222.632764 
L 89.379565 221.448126 
L 89.51021 221.448126 
L 89.51021 221.278892 
L 89.640856 221.278892 
L 89.640856 220.686573 
L 89.902147 220.601956 
L 89.902147 220.432722 
L 90.032793 220.432722 
L 90.032793 220.263488 
L 90.163439 220.263488 
L 90.163439 219.755786 
L 90.294085 219.755786 
L 90.294085 219.501935 
L 90.686022 219.501935 
L 90.686022 219.248084 
L 90.816667 219.248084 
L 90.816667 218.571148 
L 90.947313 218.571148 
L 90.947313 218.317297 
L 91.208604 218.23268 
L 91.208604 217.301893 
L 91.469896 217.301893 
L 91.469896 216.371106 
L 91.600541 216.371106 
L 91.600541 215.863404 
L 91.861833 215.778787 
L 91.861833 215.440319 
L 91.992479 215.440319 
L 91.992479 214.932617 
L 92.25377 214.932617 
L 92.25377 214.763383 
L 92.384416 214.763383 
L 92.384416 214.509532 
L 92.515061 214.509532 
L 92.515061 213.663362 
L 92.776353 213.663362 
L 92.776353 212.394107 
L 93.16829 212.30949 
L 93.16829 211.971022 
L 93.429581 211.886405 
L 93.429581 211.632554 
L 93.690873 211.547937 
L 93.690873 210.786384 
L 93.821518 210.786384 
L 93.821518 209.940214 
L 93.952164 209.940214 
L 93.952164 209.77098 
L 94.08281 209.77098 
L 94.08281 209.347895 
L 94.213455 209.347895 
L 94.213455 209.009427 
L 94.474747 208.92481 
L 94.474747 208.501725 
L 94.605392 208.501725 
L 94.605392 208.247874 
L 94.736038 208.247874 
L 94.736038 208.07864 
L 94.866684 208.07864 
L 94.866684 207.909406 
L 95.389267 207.824789 
L 95.389267 207.317087 
L 95.781204 207.317087 
L 95.781204 207.063236 
L 95.911849 207.063236 
L 95.911849 206.555534 
L 96.042495 206.555534 
L 96.042495 206.301683 
L 96.173141 206.301683 
L 96.173141 206.047832 
L 96.303786 206.047832 
L 96.303786 205.709364 
L 96.434432 205.709364 
L 96.434432 205.286279 
L 96.565078 205.286279 
L 96.565078 204.778577 
L 96.695723 204.778577 
L 96.695723 204.186258 
L 96.826369 204.186258 
L 96.826369 204.017024 
L 96.957015 204.017024 
L 96.957015 203.593939 
L 97.087661 203.593939 
L 97.087661 203.424705 
L 97.218306 203.424705 
L 97.218306 203.00162 
L 97.479598 203.00162 
L 97.479598 201.563131 
L 97.871535 201.478514 
L 97.871535 200.970812 
L 98.00218 200.970812 
L 98.00218 200.547727 
L 98.132826 200.547727 
L 98.132826 200.124642 
L 98.263472 200.124642 
L 98.263472 199.193855 
L 98.394117 199.193855 
L 98.394117 198.940004 
L 98.524763 198.940004 
L 98.524763 198.77077 
L 98.655409 198.77077 
L 98.655409 198.009217 
L 98.786055 198.009217 
L 98.786055 197.586132 
L 99.047346 197.501515 
L 99.047346 196.739962 
L 99.308637 196.739962 
L 99.308637 196.570728 
L 99.569929 196.486111 
L 99.569929 196.23226 
L 100.092511 196.147643 
L 100.092511 195.978409 
L 100.223157 195.978409 
L 100.223157 195.639941 
L 100.484449 195.555324 
L 100.484449 195.470707 
L 100.74574 195.38609 
L 100.74574 194.963005 
L 101.007031 194.963005 
L 101.007031 194.455303 
L 101.137677 194.455303 
L 101.137677 193.439899 
L 101.268323 193.439899 
L 101.268323 192.84758 
L 101.529614 192.84758 
L 101.529614 192.424495 
L 101.66026 192.424495 
L 101.66026 192.255261 
L 101.790905 192.255261 
L 101.790905 192.086027 
L 102.182843 192.00141 
L 102.182843 191.832176 
L 102.313488 191.832176 
L 102.313488 191.493708 
L 102.444134 191.493708 
L 102.444134 191.15524 
L 102.57478 191.15524 
L 102.57478 190.055219 
L 102.705425 190.055219 
L 102.705425 189.716751 
L 102.836071 189.716751 
L 102.836071 189.124432 
L 102.966717 189.124432 
L 102.966717 188.447496 
L 103.097362 188.447496 
L 103.097362 188.278262 
L 103.228008 188.278262 
L 103.228008 188.024411 
L 103.358654 188.024411 
L 103.358654 186.670539 
L 103.619945 186.670539 
L 103.619945 186.501305 
L 103.881237 186.416688 
L 103.881237 186.332071 
L 104.011882 186.332071 
L 104.011882 186.162837 
L 104.403819 186.162837 
L 104.403819 185.993603 
L 104.926402 185.993603 
L 104.926402 185.655135 
L 105.057048 185.655135 
L 105.057048 185.062816 
L 105.318339 184.978199 
L 105.318339 184.38588 
L 105.448985 184.38588 
L 105.448985 183.624327 
L 105.579631 183.624327 
L 105.579631 183.455093 
L 105.710276 183.455093 
L 105.710276 183.116625 
L 105.840922 183.116625 
L 105.840922 182.947391 
L 105.971568 182.947391 
L 105.971568 182.355072 
L 106.102213 182.355072 
L 106.102213 182.101221 
L 106.232859 182.101221 
L 106.232859 181.678136 
L 106.363505 181.678136 
L 106.363505 181.255051 
L 106.755442 181.255051 
L 106.755442 181.085817 
L 106.886087 181.085817 
L 106.886087 180.916583 
L 107.016733 180.916583 
L 107.016733 180.747349 
L 107.147379 180.747349 
L 107.147379 180.239647 
L 107.539316 180.15503 
L 107.539316 180.070413 
L 107.669962 180.070413 
L 107.669962 179.901179 
L 107.931253 179.816562 
L 107.931253 179.731945 
L 108.192544 179.731945 
L 108.192544 179.562711 
L 108.32319 179.562711 
L 108.32319 178.970392 
L 108.584481 178.885775 
L 108.584481 178.801158 
L 108.845773 178.716541 
L 108.845773 178.378073 
L 109.368356 178.293456 
L 109.368356 178.208839 
L 109.629647 178.208839 
L 109.629647 178.039605 
L 109.760293 178.039605 
L 109.760293 177.870371 
L 109.890938 177.870371 
L 109.890938 177.61652 
L 110.544167 177.531903 
L 110.544167 177.278052 
L 110.674813 177.278052 
L 110.674813 177.108818 
L 110.936104 177.108818 
L 110.936104 176.854967 
L 111.197395 176.854967 
L 111.197395 176.685733 
L 111.458687 176.601116 
L 111.458687 176.516499 
L 111.589332 176.516499 
L 111.589332 176.178031 
L 111.719978 176.178031 
L 111.719978 175.839563 
L 112.111915 175.754946 
L 112.111915 175.07801 
L 112.503852 174.993393 
L 112.503852 174.570308 
L 112.634498 174.570308 
L 112.634498 173.97799 
L 112.765144 173.97799 
L 112.765144 173.724139 
L 112.895789 173.724139 
L 112.895789 173.554905 
L 113.157081 173.470288 
L 113.157081 173.385671 
L 113.287726 173.385671 
L 113.287726 173.216437 
L 113.418372 173.216437 
L 113.418372 172.793352 
L 113.549018 172.793352 
L 113.549018 172.624118 
L 113.679663 172.624118 
L 113.679663 172.201033 
L 114.202246 172.116416 
L 114.202246 172.031799 
L 114.332892 172.031799 
L 114.332892 171.693331 
L 114.724829 171.608714 
L 114.724829 171.524097 
L 114.855475 171.524097 
L 114.855475 171.354863 
L 115.508703 171.270246 
L 115.508703 171.185629 
L 115.639349 171.185629 
L 115.639349 171.016395 
L 116.161932 170.931778 
L 116.161932 170.762544 
L 116.553869 170.677927 
L 116.553869 170.59331 
L 116.81516 170.508693 
L 116.81516 170.339459 
L 117.076451 170.254842 
L 117.076451 170.170225 
L 117.468389 170.170225 
L 117.468389 169.916374 
L 117.599034 169.916374 
L 117.599034 169.662523 
L 117.860326 169.577906 
L 117.860326 169.408672 
L 118.121617 169.408672 
L 118.121617 169.239438 
L 118.252263 169.239438 
L 118.252263 168.985587 
L 118.382908 168.985587 
L 118.382908 168.224034 
L 118.513554 168.224034 
L 118.513554 168.0548 
L 118.6442 168.0548 
L 118.6442 167.800949 
L 118.774845 167.800949 
L 118.774845 167.462481 
L 118.905491 167.462481 
L 118.905491 166.954779 
L 119.297428 166.954779 
L 119.297428 166.700928 
L 119.428074 166.700928 
L 119.428074 166.36246 
L 119.55872 166.36246 
L 119.55872 166.108609 
L 119.820011 166.023992 
L 119.820011 165.770141 
L 120.081302 165.685524 
L 120.081302 165.431673 
L 120.211948 165.431673 
L 120.211948 165.008588 
L 120.342594 165.008588 
L 120.342594 164.500886 
L 120.473239 164.500886 
L 120.473239 164.247035 
L 120.603885 164.247035 
L 120.603885 163.993184 
L 120.734531 163.993184 
L 120.734531 163.82395 
L 120.995822 163.739333 
L 120.995822 163.654716 
L 121.126468 163.654716 
L 121.126468 163.485482 
L 121.257114 163.485482 
L 121.257114 163.147014 
L 121.387759 163.147014 
L 121.387759 162.893163 
L 121.518405 162.893163 
L 121.518405 162.723929 
L 121.910342 162.723929 
L 121.910342 162.300844 
L 122.171633 162.216227 
L 122.171633 162.13161 
L 122.955508 162.046993 
L 122.955508 161.793142 
L 123.216799 161.708525 
L 123.216799 161.370057 
L 123.608736 161.370057 
L 123.608736 161.200823 
L 124.131319 161.116206 
L 124.131319 161.031589 
L 125.045839 160.946972 
L 125.045839 160.862355 
L 125.437776 160.777738 
L 125.437776 160.608504 
L 125.829713 160.608504 
L 125.829713 160.43927 
L 125.960359 160.43927 
L 125.960359 159.170015 
L 126.091004 159.170015 
L 126.091004 159.000781 
L 126.482941 159.000781 
L 126.482941 158.74693 
L 127.397461 158.662313 
L 127.397461 158.408462 
L 127.658753 158.408462 
L 127.658753 157.816143 
L 127.789398 157.816143 
L 127.789398 157.562292 
L 128.05069 157.477675 
L 128.05069 156.885356 
L 128.181335 156.885356 
L 128.181335 156.293037 
L 128.311981 156.293037 
L 128.311981 156.123803 
L 128.442627 156.123803 
L 128.442627 155.954569 
L 128.703918 155.869952 
L 128.703918 155.785335 
L 128.834564 155.785335 
L 128.834564 155.446867 
L 128.965209 155.446867 
L 128.965209 155.277633 
L 129.095855 155.277633 
L 129.095855 155.108399 
L 129.357147 155.023782 
L 129.357147 154.939165 
L 129.749084 154.854548 
L 129.749084 154.51608 
L 130.663603 154.431463 
L 130.663603 154.346846 
L 131.186186 154.262229 
L 131.186186 153.839144 
L 132.100706 153.754527 
L 132.100706 153.246825 
L 132.231352 153.246825 
L 132.231352 153.077591 
L 132.492643 153.077591 
L 132.492643 152.739123 
L 133.015226 152.654506 
L 133.015226 152.569889 
L 133.407163 152.485272 
L 133.407163 152.400655 
L 134.582974 152.316038 
L 134.582974 152.231421 
L 134.974911 152.146804 
L 134.974911 151.892953 
L 135.497494 151.892953 
L 135.497494 151.639102 
L 136.150723 151.554485 
L 136.150723 151.385251 
L 136.673305 151.300634 
L 136.673305 150.708315 
L 137.457179 150.623698 
L 137.457179 150.539081 
L 137.718471 150.454464 
L 137.718471 149.946762 
L 137.979762 149.946762 
L 137.979762 149.43906 
L 138.110408 149.43906 
L 138.110408 149.185209 
L 138.371699 149.100592 
L 138.371699 149.015975 
L 138.502345 149.015975 
L 138.502345 148.762124 
L 138.632991 148.762124 
L 138.632991 148.508273 
L 138.763636 148.508273 
L 138.763636 148.254422 
L 139.155573 148.169805 
L 139.155573 147.408252 
L 139.286219 147.408252 
L 139.286219 147.239018 
L 139.547511 147.154401 
L 139.547511 147.069784 
L 139.678156 147.069784 
L 139.678156 146.90055 
L 139.939448 146.815933 
L 139.939448 146.731316 
L 140.331385 146.731316 
L 140.331385 146.562082 
L 140.592676 146.477465 
L 140.592676 146.223614 
L 140.984613 146.223614 
L 140.984613 145.969763 
L 141.37655 145.885146 
L 141.37655 145.715912 
L 141.768487 145.715912 
L 141.768487 145.462061 
L 141.899133 145.462061 
L 141.899133 145.292827 
L 142.813653 145.20821 
L 142.813653 145.038976 
L 143.336236 145.038976 
L 143.336236 144.785125 
L 143.728173 144.785125 
L 143.728173 144.615891 
L 143.858818 144.615891 
L 143.858818 144.023572 
L 144.250755 144.023572 
L 144.250755 143.854338 
L 144.642693 143.769721 
L 144.642693 143.685104 
L 145.03463 143.600487 
L 145.03463 143.51587 
L 145.818504 143.431253 
L 145.818504 143.092785 
L 145.949149 143.092785 
L 145.949149 142.6697 
L 146.079795 142.6697 
L 146.079795 142.246615 
L 146.210441 142.246615 
L 146.210441 141.738913 
L 146.341087 141.738913 
L 146.341087 141.231211 
L 146.994315 141.146594 
L 146.994315 141.061977 
L 147.516898 141.061977 
L 147.516898 140.892743 
L 147.778189 140.892743 
L 147.778189 140.638892 
L 148.300772 140.554275 
L 148.300772 140.469658 
L 148.431418 140.469658 
L 148.431418 140.215807 
L 148.562063 140.215807 
L 148.562063 139.792722 
L 148.954 139.708105 
L 148.954 139.454254 
L 149.215292 139.369637 
L 149.215292 139.115786 
L 149.345937 139.115786 
L 149.345937 138.946552 
L 149.476583 138.946552 
L 149.476583 138.777318 
L 149.607229 138.777318 
L 149.607229 138.523467 
L 149.86852 138.523467 
L 149.86852 138.100382 
L 150.260457 138.015765 
L 150.260457 137.59268 
L 150.652394 137.508063 
L 150.652394 137.084978 
L 151.305623 137.000361 
L 151.305623 136.577276 
L 151.566914 136.577276 
L 151.566914 136.323425 
L 152.350788 136.238808 
L 152.350788 136.069574 
L 152.742725 135.984957 
L 152.742725 135.90034 
L 152.873371 135.90034 
L 152.873371 135.138787 
L 153.134663 135.05417 
L 153.134663 134.377234 
L 154.571765 134.292617 
L 154.571765 133.700298 
L 154.833057 133.615681 
L 154.833057 133.531064 
L 155.355639 133.446447 
L 155.355639 133.277213 
L 156.008868 133.192596 
L 156.008868 132.938745 
L 156.139513 132.938745 
L 156.139513 132.769511 
L 156.270159 132.769511 
L 156.270159 132.600277 
L 156.531451 132.51566 
L 156.531451 132.431043 
L 156.662096 132.431043 
L 156.662096 132.261809 
L 156.792742 132.261809 
L 156.792742 132.007958 
L 156.923388 132.007958 
L 156.923388 131.838724 
L 157.184679 131.838724 
L 157.184679 131.246405 
L 157.837907 131.161788 
L 157.837907 131.077171 
L 158.099199 130.992554 
L 158.099199 130.907937 
L 158.229845 130.907937 
L 158.229845 130.231001 
L 158.883073 130.146384 
L 158.883073 130.061767 
L 159.405656 130.061767 
L 159.405656 129.723299 
L 159.536301 129.723299 
L 159.536301 129.469448 
L 159.666947 129.469448 
L 159.666947 129.300214 
L 160.058884 129.215597 
L 160.058884 128.877129 
L 160.18953 128.877129 
L 160.18953 128.538661 
L 160.581467 128.538661 
L 160.581467 128.200193 
L 161.10405 128.200193 
L 161.10405 128.030959 
L 161.234695 128.030959 
L 161.234695 127.692491 
L 161.495987 127.692491 
L 161.495987 127.354023 
L 161.626633 127.354023 
L 161.626633 127.015555 
L 161.887924 126.930938 
L 161.887924 126.846321 
L 162.01857 126.846321 
L 162.01857 126.677087 
L 162.802444 126.59247 
L 162.802444 126.507853 
L 163.325027 126.423236 
L 163.325027 126.169385 
L 163.455672 126.169385 
L 163.455672 125.915534 
L 163.586318 125.915534 
L 163.586318 125.407832 
L 163.847609 125.323215 
L 163.847609 125.238598 
L 163.978255 125.238598 
L 163.978255 125.069364 
L 164.239546 125.069364 
L 164.239546 124.815513 
L 164.370192 124.815513 
L 164.370192 124.561662 
L 164.762129 124.477045 
L 164.762129 124.05396 
L 165.284712 123.969343 
L 165.284712 123.461641 
L 165.546003 123.377024 
L 165.546003 123.123173 
L 165.676649 123.123173 
L 165.676649 122.953939 
L 165.93794 122.869322 
L 165.93794 122.784705 
L 166.068586 122.784705 
L 166.068586 122.446237 
L 166.329877 122.36162 
L 166.329877 122.107769 
L 166.85246 122.023152 
L 166.85246 121.769301 
L 167.375043 121.684684 
L 167.375043 121.600067 
L 167.897626 121.51545 
L 167.897626 121.261599 
L 168.028271 121.261599 
L 168.028271 121.007748 
L 168.158917 121.007748 
L 168.158917 120.66928 
L 168.942791 120.584663 
L 168.942791 120.500046 
L 169.204083 120.500046 
L 169.204083 119.992344 
L 169.334728 119.992344 
L 169.334728 119.82311 
L 169.59602 119.738493 
L 169.59602 119.569259 
L 170.118603 119.484642 
L 170.118603 119.400025 
L 170.51054 119.400025 
L 170.51054 119.061557 
L 170.641185 119.061557 
L 170.641185 118.723089 
L 170.771831 118.723089 
L 170.771831 118.384621 
L 171.555705 118.300004 
L 171.555705 118.215387 
L 171.816997 118.13077 
L 171.816997 117.961536 
L 172.208934 117.961536 
L 172.208934 117.623068 
L 172.600871 117.538451 
L 172.600871 117.453834 
L 173.515391 117.369217 
L 173.515391 116.946132 
L 174.42991 116.861515 
L 174.42991 116.776898 
L 174.821847 116.776898 
L 174.821847 116.353813 
L 175.213785 116.269196 
L 175.213785 116.099962 
L 175.34443 116.099962 
L 175.34443 115.930728 
L 175.736367 115.846111 
L 175.736367 115.761494 
L 175.997659 115.676877 
L 175.997659 115.59226 
L 176.128304 115.59226 
L 176.128304 114.915324 
L 176.650887 114.915324 
L 176.650887 114.74609 
L 176.781533 114.74609 
L 176.781533 114.576856 
L 177.434761 114.576856 
L 177.434761 114.407622 
L 178.218635 114.407622 
L 178.218635 114.153771 
L 178.349281 114.153771 
L 178.349281 113.392218 
L 178.871864 113.307601 
L 178.871864 113.222984 
L 179.133155 113.138367 
L 179.133155 112.884516 
L 179.263801 112.884516 
L 179.263801 112.715282 
L 179.394447 112.715282 
L 179.394447 112.546048 
L 179.655738 112.461431 
L 179.655738 112.20758 
L 180.178321 112.122963 
L 180.178321 111.953729 
L 180.700904 111.869112 
L 180.700904 111.784495 
L 180.831549 111.784495 
L 180.831549 111.530644 
L 181.223486 111.446027 
L 181.223486 111.36141 
L 181.876715 111.276793 
L 181.876715 111.192176 
L 182.007361 111.192176 
L 182.007361 111.022942 
L 182.268652 111.022942 
L 182.268652 110.853708 
L 182.660589 110.769091 
L 182.660589 110.684474 
L 182.92188 110.599857 
L 182.92188 110.346006 
L 183.052526 110.346006 
L 183.052526 109.922921 
L 183.313817 109.922921 
L 183.313817 109.584453 
L 183.967046 109.499836 
L 183.967046 109.245985 
L 184.358983 109.161368 
L 184.358983 108.992134 
L 184.620274 108.907517 
L 184.620274 108.569049 
L 184.75092 108.569049 
L 184.75092 108.230581 
L 185.404149 108.145964 
L 185.404149 107.97673 
L 185.534794 107.97673 
L 185.534794 107.807496 
L 185.796086 107.722879 
L 185.796086 107.638262 
L 186.449314 107.553645 
L 186.449314 107.469028 
L 186.971897 107.469028 
L 186.971897 107.215177 
L 187.49448 107.13056 
L 187.49448 106.961326 
L 188.539645 106.876709 
L 188.539645 106.707475 
L 188.800937 106.622858 
L 188.800937 106.538241 
L 189.062228 106.453624 
L 189.062228 106.369007 
L 189.846102 106.28439 
L 189.846102 105.861305 
L 190.891268 105.861305 
L 190.891268 105.607454 
L 191.152559 105.607454 
L 191.152559 105.353603 
L 191.805787 105.268986 
L 191.805787 105.184369 
L 192.197725 105.184369 
L 192.197725 104.845901 
L 192.459016 104.761284 
L 192.459016 104.59205 
L 193.112244 104.507433 
L 193.112244 104.422816 
L 193.24289 104.422816 
L 193.24289 104.168965 
L 193.634827 104.084348 
L 193.634827 103.915114 
L 194.549347 103.830497 
L 194.549347 103.74588 
L 194.810638 103.74588 
L 194.810638 103.576646 
L 195.594513 103.492029 
L 195.594513 103.407412 
L 195.98645 103.322795 
L 195.98645 103.238178 
L 196.117095 103.238178 
L 196.117095 103.068944 
L 196.509032 102.984327 
L 196.509032 102.89971 
L 196.770324 102.815093 
L 196.770324 102.645859 
L 197.554198 102.645859 
L 197.554198 102.392008 
L 197.684844 102.392008 
L 197.684844 102.222774 
L 198.076781 102.138157 
L 198.076781 102.05354 
L 198.338072 102.05354 
L 198.338072 101.884306 
L 198.599363 101.799689 
L 198.599363 101.715072 
L 199.513883 101.630455 
L 199.513883 101.545838 
L 199.775175 101.461221 
L 199.775175 101.376604 
L 200.689695 101.376604 
L 200.689695 101.20737 
L 201.212277 101.122753 
L 201.212277 101.038136 
L 201.342923 101.038136 
L 201.342923 100.868902 
L 201.473569 100.868902 
L 201.473569 100.699668 
L 201.73486 100.699668 
L 201.73486 100.530434 
L 202.126797 100.445817 
L 202.126797 100.022732 
L 202.64938 99.938115 
L 202.64938 99.853498 
L 203.041317 99.768881 
L 203.041317 99.684264 
L 203.5639 99.684264 
L 203.5639 99.51503 
L 204.217128 99.430413 
L 204.217128 99.261179 
L 204.609065 99.261179 
L 204.609065 98.838094 
L 205.131648 98.753477 
L 205.131648 98.245775 
L 205.262294 98.245775 
L 205.262294 98.076541 
L 205.784877 97.991924 
L 205.784877 97.82269 
L 206.046168 97.82269 
L 206.046168 97.399605 
L 207.352625 97.314988 
L 207.352625 97.145754 
L 208.136499 97.061137 
L 208.136499 96.891903 
L 208.528436 96.807286 
L 208.528436 96.722669 
L 209.573602 96.722669 
L 209.573602 96.553435 
L 210.096184 96.468818 
L 210.096184 96.214967 
L 210.880059 96.13035 
L 210.880059 96.045733 
L 211.663933 95.961116 
L 211.663933 95.876499 
L 211.794578 95.876499 
L 211.794578 95.707265 
L 212.05587 95.622648 
L 212.05587 95.538031 
L 213.101035 95.453414 
L 213.101035 95.368797 
L 213.884909 95.28418 
L 213.884909 95.114946 
L 214.276847 95.030329 
L 214.276847 94.861095 
L 214.538138 94.776478 
L 214.538138 94.691861 
L 215.975241 94.607244 
L 215.975241 94.43801 
L 216.759115 94.353393 
L 216.759115 93.930308 
L 217.281697 93.845692 
L 217.281697 93.591841 
L 217.673635 93.507224 
L 217.673635 93.33799 
L 218.326863 93.33799 
L 218.326863 93.084139 
L 219.63332 92.999522 
L 219.63332 92.914905 
L 221.46236 92.830288 
L 221.46236 92.745671 
L 221.593005 92.745671 
L 221.593005 92.49182 
L 222.115588 92.407203 
L 222.115588 92.322586 
L 223.683336 92.237969 
L 223.683336 92.153352 
L 224.989793 92.068735 
L 224.989793 91.64565 
L 225.251085 91.561033 
L 225.251085 91.391799 
L 225.773667 91.307182 
L 225.773667 91.137948 
L 225.904313 91.137948 
L 225.904313 90.968714 
L 226.165605 90.884097 
L 226.165605 90.79948 
L 226.557542 90.714863 
L 226.557542 90.630246 
L 226.688187 90.630246 
L 226.688187 90.461012 
L 228.909164 90.376395 
L 228.909164 90.207161 
L 229.170455 90.122544 
L 229.170455 90.037927 
L 229.562393 89.95331 
L 229.562393 89.868693 
L 230.346267 89.784076 
L 230.346267 89.699459 
L 230.607558 89.699459 
L 230.607558 89.530225 
L 231.130141 89.445608 
L 231.130141 89.276374 
L 231.391432 89.191757 
L 231.391432 89.10714 
L 232.044661 89.022523 
L 232.044661 88.853289 
L 232.305952 88.853289 
L 232.305952 88.514821 
L 232.567243 88.514821 
L 232.567243 88.345587 
L 233.220472 88.26097 
L 233.220472 88.176353 
L 233.481763 88.091736 
L 233.481763 88.007119 
L 234.004346 87.922502 
L 234.004346 87.837885 
L 234.134992 87.837885 
L 234.134992 87.584034 
L 235.310803 87.584034 
L 235.310803 87.330183 
L 236.878551 87.245566 
L 236.878551 87.160949 
L 237.923717 87.076332 
L 237.923717 86.991715 
L 239.099528 86.907098 
L 239.099528 86.822481 
L 240.928568 86.737864 
L 240.928568 86.653247 
L 241.712442 86.653247 
L 241.712442 86.484013 
L 242.235025 86.399396 
L 242.235025 86.314779 
L 243.541482 86.230162 
L 243.541482 86.145545 
L 244.325356 86.060928 
L 244.325356 85.976311 
L 244.978584 85.891694 
L 244.978584 85.637843 
L 246.285041 85.553226 
L 246.285041 85.468609 
L 247.330207 85.468609 
L 247.330207 85.299375 
L 248.767309 85.299375 
L 248.767309 85.130141 
L 249.028601 85.045524 
L 249.028601 84.791673 
L 249.681829 84.707056 
L 249.681829 84.537822 
L 249.943121 84.537822 
L 249.943121 84.199354 
L 250.204412 84.114737 
L 250.204412 83.860886 
L 250.726995 83.776269 
L 250.726995 83.691652 
L 251.249577 83.607035 
L 251.249577 83.353184 
L 251.77216 83.353184 
L 251.77216 83.18395 
L 252.294743 83.099333 
L 252.294743 83.014716 
L 252.68668 83.014716 
L 252.68668 82.845482 
L 253.862491 82.845482 
L 253.862491 82.676248 
L 255.560885 82.591631 
L 255.560885 82.422397 
L 256.344759 82.422397 
L 256.344759 82.253163 
L 256.475405 82.253163 
L 256.475405 82.083929 
L 256.606051 82.083929 
L 256.606051 81.914695 
L 256.997988 81.830078 
L 256.997988 81.745461 
L 257.259279 81.745461 
L 257.259279 81.576227 
L 257.520571 81.576227 
L 257.520571 81.237759 
L 257.781862 81.153142 
L 257.781862 81.068525 
L 258.435091 80.983908 
L 258.435091 80.899291 
L 258.565736 80.899291 
L 258.565736 80.730057 
L 259.741547 80.64544 
L 259.741547 80.560823 
L 260.525422 80.476206 
L 260.525422 80.306972 
L 261.831879 80.222355 
L 261.831879 80.137738 
L 262.485107 80.053121 
L 262.485107 79.968504 
L 263.268981 79.968504 
L 263.268981 79.79927 
L 263.92221 79.79927 
L 263.92221 79.630036 
L 264.575438 79.545419 
L 264.575438 79.460802 
L 264.836729 79.460802 
L 264.836729 79.206951 
L 265.098021 79.206951 
L 265.098021 79.037717 
L 266.012541 78.9531 
L 266.012541 78.868483 
L 266.665769 78.868483 
L 266.665769 78.614632 
L 266.927061 78.614632 
L 266.927061 78.445398 
L 268.102872 78.360781 
L 268.102872 78.276164 
L 268.494809 78.191547 
L 268.494809 78.10693 
L 269.409329 78.022313 
L 269.409329 77.937696 
L 269.931911 77.853079 
L 269.931911 77.768462 
L 270.454494 77.683845 
L 270.454494 77.599228 
L 270.846431 77.514611 
L 270.846431 77.345377 
L 271.49966 77.26076 
L 271.49966 77.176143 
L 271.891597 77.091526 
L 271.891597 77.006909 
L 272.41418 76.922292 
L 272.41418 76.837675 
L 273.459345 76.753058 
L 273.459345 76.668441 
L 273.720637 76.583824 
L 273.720637 76.499207 
L 274.504511 76.41459 
L 274.504511 76.329973 
L 275.419031 76.245356 
L 275.419031 76.160739 
L 275.941613 76.076122 
L 275.941613 75.991505 
L 276.986779 75.906888 
L 276.986779 75.822271 
L 278.031944 75.737654 
L 278.031944 75.483803 
L 278.554527 75.399186 
L 278.554527 75.314569 
L 279.338401 75.229952 
L 279.338401 75.145335 
L 280.383567 75.060718 
L 280.383567 74.806867 
L 281.036795 74.72225 
L 281.036795 74.553016 
L 281.559378 74.468399 
L 281.559378 74.383782 
L 282.212607 74.299165 
L 282.212607 74.214548 
L 283.257772 74.129931 
L 283.257772 74.045314 
L 283.780355 73.960697 
L 283.780355 73.87608 
L 285.217457 73.791463 
L 285.217457 73.706846 
L 286.001332 73.622229 
L 286.001332 73.537612 
L 286.65456 73.452995 
L 286.65456 73.368378 
L 287.699726 73.283761 
L 287.699726 73.199144 
L 288.875537 73.114527 
L 288.875537 72.945293 
L 289.528765 72.860676 
L 289.528765 72.776059 
L 290.443285 72.691442 
L 290.443285 72.522208 
L 290.965868 72.437591 
L 290.965868 72.352974 
L 291.357805 72.352974 
L 291.357805 72.18374 
L 291.619096 72.18374 
L 291.619096 71.760655 
L 292.011033 71.760655 
L 292.011033 71.591421 
L 292.402971 71.591421 
L 292.402971 71.422187 
L 293.31749 71.33757 
L 293.31749 71.252953 
L 293.709427 71.168336 
L 293.709427 71.083719 
L 294.493302 70.999102 
L 294.493302 70.4914 
L 294.754593 70.406783 
L 294.754593 70.322166 
L 295.277176 70.237549 
L 295.277176 69.983698 
L 295.538467 69.899081 
L 295.538467 69.475996 
L 295.930404 69.391379 
L 295.930404 69.222145 
L 296.06105 69.222145 
L 296.06105 68.883677 
L 296.322341 68.883677 
L 296.322341 68.714443 
L 296.844924 68.714443 
L 296.844924 68.545209 
L 297.106215 68.545209 
L 297.106215 68.375975 
L 298.020735 68.291358 
L 298.020735 68.206741 
L 299.719129 68.122124 
L 299.719129 68.037507 
L 300.241712 67.95289 
L 300.241712 67.868273 
L 301.417523 67.868273 
L 301.417523 67.699039 
L 302.593335 67.614422 
L 302.593335 67.360571 
L 302.854626 67.275954 
L 302.854626 67.191337 
L 303.6385 67.10672 
L 303.6385 67.022103 
L 303.899791 67.022103 
L 303.899791 66.852869 
L 304.291729 66.768252 
L 304.291729 66.683635 
L 304.422374 66.683635 
L 304.422374 66.514401 
L 305.728831 66.429784 
L 305.728831 66.26055 
L 306.251414 66.175933 
L 306.251414 66.091316 
L 307.688517 66.006699 
L 307.688517 65.752848 
L 307.949808 65.668231 
L 307.949808 65.583614 
L 308.341745 65.583614 
L 308.341745 65.41438 
L 310.040139 65.41438 
L 310.040139 65.245146 
L 311.085305 65.160529 
L 311.085305 65.075912 
L 311.607887 64.991295 
L 311.607887 64.822061 
L 313.175636 64.737444 
L 313.175636 64.652827 
L 313.95951 64.56821 
L 313.95951 64.483593 
L 314.612738 64.483593 
L 314.612738 64.229742 
L 315.396612 64.145125 
L 315.396612 64.060508 
L 315.919195 63.975891 
L 315.919195 63.891274 
L 316.572424 63.806657 
L 316.572424 63.72204 
L 316.964361 63.637423 
L 316.964361 63.552806 
L 317.356298 63.468189 
L 317.356298 63.383572 
L 318.924046 63.298955 
L 318.924046 63.214338 
L 319.315983 63.214338 
L 319.315983 63.045104 
L 319.70792 63.045104 
L 319.70792 62.87587 
L 321.145023 62.791253 
L 321.145023 62.706636 
L 321.667606 62.622019 
L 321.667606 62.537402 
L 324.672457 62.452785 
L 324.672457 62.283551 
L 324.803102 62.283551 
L 324.803102 62.114317 
L 325.456331 62.0297 
L 325.456331 61.945083 
L 326.109559 61.945083 
L 326.109559 61.775849 
L 328.330536 61.775849 
L 328.330536 61.606615 
L 329.898284 61.521998 
L 329.898284 61.437381 
L 332.380552 61.352764 
L 332.380552 61.268147 
L 334.078946 61.18353 
L 334.078946 61.098913 
L 336.822506 61.014296 
L 336.822506 60.929679 
L 339.174128 60.845062 
L 339.174128 60.760445 
L 340.480585 60.675828 
L 340.480585 60.506594 
L 340.741877 60.421977 
L 340.741877 60.33736 
L 341.656397 60.252743 
L 341.656397 60.168126 
L 342.440271 60.083509 
L 342.440271 59.998892 
L 344.138665 59.914275 
L 344.138665 59.829658 
L 344.530602 59.745041 
L 344.530602 59.660424 
L 344.922539 59.575807 
L 344.922539 59.49119 
L 349.756429 59.406573 
L 349.756429 59.321956 
L 350.540304 59.321956 
L 350.540304 59.152722 
L 354.067737 59.068105 
L 354.067737 58.983488 
L 356.680651 58.898871 
L 356.680651 58.814254 
L 359.032274 58.729637 
L 359.032274 58.560403 
L 360.338731 58.475786 
L 360.338731 58.391169 
L 365.433913 58.306552 
L 365.433913 58.221935 
L 367.262952 58.137318 
L 367.262952 58.052701 
L 368.438763 57.968084 
L 368.438763 57.883467 
L 368.569409 57.883467 
L 368.569409 57.629616 
L 370.921032 57.544999 
L 370.921032 57.375765 
L 373.272654 57.291148 
L 373.272654 57.206531 
L 376.538796 57.121914 
L 376.538796 56.868063 
L 376.930733 56.783446 
L 376.930733 56.698829 
L 377.453316 56.614212 
L 377.453316 56.444978 
L 377.714608 56.360361 
L 377.714608 56.275744 
L 378.106545 56.275744 
L 378.106545 56.10651 
L 379.674293 56.021893 
L 379.674293 55.598808 
L 380.327521 55.598808 
L 380.327521 55.344957 
L 380.458167 55.344957 
L 380.458167 55.006489 
L 380.719459 55.006489 
L 380.719459 54.837255 
L 381.503333 54.752638 
L 381.503333 54.668021 
L 384.638829 54.583404 
L 384.638829 54.498787 
L 385.683995 54.41417 
L 385.683995 54.329553 
L 388.166263 54.244936 
L 388.166263 54.160319 
L 388.688846 54.075702 
L 388.688846 53.991085 
L 391.040468 53.906468 
L 391.040468 53.821851 
L 391.954988 53.821851 
L 391.954988 53.652617 
L 398.487273 53.568 
L 398.487273 53.568 
" clip-path="url(#p55cd40bd1d)" style="fill: none; stroke: #1f77b4; stroke-width: 1.5; stroke-linecap: square"/>
   </g>
   <g id="line2d_14">
    <path d="M 73.832727 295.488 
L 73.832727 291.301859 
L 73.946283 291.301859 
L 73.946283 290.620394 
L 74.173393 290.620394 
L 74.173393 289.93893 
L 74.286948 289.93893 
L 74.286948 288.770704 
L 74.400504 288.770704 
L 74.400504 288.186592 
L 74.514059 288.186592 
L 74.514059 287.991887 
L 74.627614 287.991887 
L 74.627614 287.797183 
L 74.74117 287.797183 
L 74.74117 286.628958 
L 74.854725 286.628958 
L 74.854725 285.947493 
L 74.96828 285.947493 
L 74.96828 285.752789 
L 75.081835 285.752789 
L 75.081835 285.168676 
L 75.195391 285.168676 
L 75.195391 283.124282 
L 75.308946 283.124282 
L 75.308946 282.832225 
L 75.422501 282.832225 
L 75.422501 282.442817 
L 75.536056 282.442817 
L 75.536056 282.248113 
L 75.763167 282.248113 
L 75.763167 282.053408 
L 76.558054 281.956056 
L 76.558054 281.469296 
L 77.12583 281.469296 
L 77.12583 280.787831 
L 77.239386 280.787831 
L 77.239386 280.30107 
L 77.466496 280.30107 
L 77.466496 280.009014 
L 77.693607 279.911662 
L 77.693607 279.81431 
L 78.034273 279.716958 
L 78.034273 279.424901 
L 78.147828 279.424901 
L 78.147828 279.230197 
L 78.602049 279.132845 
L 78.602049 278.256676 
L 78.715604 278.256676 
L 78.715604 276.699042 
L 78.82916 276.699042 
L 78.82916 276.309634 
L 78.942715 276.309634 
L 78.942715 274.946704 
L 79.169825 274.946704 
L 79.169825 273.38907 
L 79.283381 273.38907 
L 79.283381 273.194366 
L 79.737602 273.097014 
L 79.737602 272.415549 
L 79.851157 272.415549 
L 79.851157 272.220845 
L 79.964712 272.220845 
L 79.964712 271.53938 
L 80.078268 271.53938 
L 80.078268 270.857915 
L 80.191823 270.857915 
L 80.191823 269.68969 
L 80.305378 269.68969 
L 80.305378 267.061183 
L 80.418934 267.061183 
L 80.418934 266.185014 
L 80.759599 266.087662 
L 80.759599 265.308845 
L 80.873155 265.308845 
L 80.873155 264.335324 
L 80.98671 264.335324 
L 80.98671 263.264451 
L 81.100265 263.264451 
L 81.100265 262.388282 
L 81.21382 262.388282 
L 81.21382 262.193577 
L 81.327376 262.193577 
L 81.327376 259.759775 
L 81.554486 259.759775 
L 81.554486 259.175662 
L 81.668042 259.175662 
L 81.668042 255.963042 
L 81.781597 255.963042 
L 81.781597 255.573634 
L 82.008707 255.476282 
L 82.008707 255.281577 
L 82.235818 255.184225 
L 82.235818 254.989521 
L 82.349373 254.989521 
L 82.349373 254.697465 
L 82.462929 254.697465 
L 82.462929 253.723944 
L 82.576484 253.723944 
L 82.576484 253.431887 
L 82.690039 253.431887 
L 82.690039 253.139831 
L 82.803594 253.139831 
L 82.803594 252.555718 
L 83.030705 252.458366 
L 83.030705 252.361014 
L 83.371371 252.263662 
L 83.371371 251.776901 
L 83.484926 251.776901 
L 83.484926 251.290141 
L 83.598481 251.290141 
L 83.598481 250.80338 
L 83.712037 250.80338 
L 83.712037 249.537803 
L 83.825592 249.537803 
L 83.825592 249.051042 
L 83.939147 249.051042 
L 83.939147 247.493408 
L 84.052702 247.493408 
L 84.052702 246.811944 
L 84.166258 246.811944 
L 84.166258 246.227831 
L 84.279813 246.227831 
L 84.279813 245.838423 
L 84.393368 245.838423 
L 84.393368 244.378141 
L 84.506924 244.378141 
L 84.506924 244.183437 
L 84.620479 244.183437 
L 84.620479 243.209915 
L 84.847589 243.209915 
L 84.847589 241.55493 
L 85.0747 241.55493 
L 85.0747 241.068169 
L 85.188255 241.068169 
L 85.188255 240.873465 
L 85.301811 240.873465 
L 85.301811 240.581408 
L 85.756032 240.484056 
L 85.756032 239.023775 
L 85.869587 239.023775 
L 85.869587 238.244958 
L 85.983142 238.244958 
L 85.983142 237.952901 
L 86.210253 237.855549 
L 86.210253 237.368789 
L 86.323808 237.368789 
L 86.323808 236.784676 
L 86.550919 236.784676 
L 86.550919 236.49262 
L 86.778029 236.49262 
L 86.778029 236.200563 
L 86.891584 236.200563 
L 86.891584 235.227042 
L 87.00514 235.227042 
L 87.00514 235.032338 
L 87.118695 235.032338 
L 87.118695 234.837634 
L 87.345806 234.740282 
L 87.345806 234.64293 
L 87.459361 234.64293 
L 87.459361 234.448225 
L 87.686471 234.350873 
L 87.686471 233.961465 
L 87.800027 233.961465 
L 87.800027 233.766761 
L 87.913582 233.766761 
L 87.913582 233.572056 
L 88.027137 233.572056 
L 88.027137 233.377352 
L 88.140693 233.377352 
L 88.140693 232.987944 
L 88.481358 232.987944 
L 88.481358 232.501183 
L 88.594914 232.501183 
L 88.594914 232.014423 
L 88.822024 231.91707 
L 88.822024 231.138254 
L 88.93558 231.138254 
L 88.93558 230.748845 
L 89.16269 230.748845 
L 89.16269 230.456789 
L 89.389801 230.359437 
L 89.389801 230.06738 
L 89.503356 230.06738 
L 89.503356 229.58062 
L 89.730466 229.58062 
L 89.730466 228.315042 
L 89.957577 228.315042 
L 89.957577 228.022986 
L 90.184688 227.925634 
L 90.184688 227.828282 
L 90.525353 227.828282 
L 90.525353 226.952113 
L 90.638909 226.952113 
L 90.638909 226.757408 
L 90.866019 226.660056 
L 90.866019 226.368 
L 91.09313 226.368 
L 91.09313 225.686535 
L 91.206685 225.686535 
L 91.206685 225.394479 
L 91.547351 225.297127 
L 91.547351 225.199775 
L 91.660906 225.199775 
L 91.660906 225.00507 
L 91.888017 225.00507 
L 91.888017 224.810366 
L 92.115127 224.713014 
L 92.115127 224.226254 
L 92.342238 224.128901 
L 92.342238 224.031549 
L 92.682904 224.031549 
L 92.682904 223.836845 
L 92.796459 223.836845 
L 92.796459 223.15538 
L 93.02357 223.15538 
L 93.02357 222.279211 
L 93.137125 222.279211 
L 93.137125 222.084507 
L 93.25068 222.084507 
L 93.25068 221.889803 
L 93.364235 221.889803 
L 93.364235 220.81893 
L 93.477791 220.81893 
L 93.477791 220.624225 
L 93.591346 220.624225 
L 93.591346 220.429521 
L 93.704901 220.429521 
L 93.704901 219.942761 
L 93.932012 219.942761 
L 93.932012 219.748056 
L 94.159122 219.748056 
L 94.159122 219.358648 
L 94.386233 219.358648 
L 94.386233 219.163944 
L 95.067565 219.066592 
L 95.067565 218.871887 
L 95.748896 218.774535 
L 95.748896 218.677183 
L 96.203117 218.579831 
L 96.203117 218.482479 
L 96.316673 218.482479 
L 96.316673 218.190423 
L 96.543783 218.09307 
L 96.543783 217.995718 
L 97.225115 217.995718 
L 97.225115 217.703662 
L 97.33867 217.703662 
L 97.33867 217.411606 
L 97.565781 217.314254 
L 97.565781 217.119549 
L 97.792891 217.022197 
L 97.792891 216.438085 
L 98.020002 216.438085 
L 98.020002 216.146028 
L 98.247112 216.146028 
L 98.247112 215.853972 
L 98.814889 215.853972 
L 98.814889 215.659268 
L 99.041999 215.659268 
L 99.041999 215.367211 
L 99.26911 215.269859 
L 99.26911 214.977803 
L 99.496221 214.977803 
L 99.496221 214.491042 
L 99.609776 214.491042 
L 99.609776 214.296338 
L 99.723331 214.296338 
L 99.723331 213.90693 
L 100.063997 213.809577 
L 100.063997 213.030761 
L 100.291108 212.933408 
L 100.291108 212.251944 
L 100.518218 212.154592 
L 100.518218 212.057239 
L 100.631773 212.057239 
L 100.631773 211.667831 
L 100.858884 211.570479 
L 100.858884 211.083718 
L 101.085994 210.986366 
L 101.085994 210.012845 
L 101.19955 210.012845 
L 101.19955 209.720789 
L 101.42666 209.623437 
L 101.42666 209.428732 
L 101.540216 209.428732 
L 101.540216 208.84462 
L 101.653771 208.84462 
L 101.653771 208.552563 
L 101.767326 208.552563 
L 101.767326 208.357859 
L 101.880881 208.357859 
L 101.880881 208.163155 
L 101.994437 208.163155 
L 101.994437 207.968451 
L 102.335103 207.871099 
L 102.335103 207.48169 
L 102.675768 207.48169 
L 102.675768 206.99493 
L 102.789324 206.99493 
L 102.789324 206.702873 
L 102.902879 206.702873 
L 102.902879 206.216113 
L 103.12999 206.118761 
L 103.12999 205.924056 
L 103.243545 205.924056 
L 103.243545 205.729352 
L 103.584211 205.729352 
L 103.584211 205.534648 
L 103.697766 205.534648 
L 103.697766 204.950535 
L 103.811321 204.950535 
L 103.811321 204.26907 
L 104.038432 204.171718 
L 104.038432 203.977014 
L 104.151987 203.977014 
L 104.151987 203.78231 
L 104.265542 203.78231 
L 104.265542 203.587606 
L 104.379098 203.587606 
L 104.379098 203.100845 
L 104.492653 203.100845 
L 104.492653 202.906141 
L 104.606208 202.906141 
L 104.606208 202.516732 
L 104.833319 202.41938 
L 104.833319 202.322028 
L 105.060429 202.224676 
L 105.060429 201.543211 
L 105.173985 201.543211 
L 105.173985 201.348507 
L 105.28754 201.348507 
L 105.28754 201.153803 
L 105.51465 201.056451 
L 105.51465 200.861746 
L 105.628206 200.861746 
L 105.628206 200.667042 
L 105.741761 200.667042 
L 105.741761 200.374986 
L 106.082427 200.277634 
L 106.082427 200.08293 
L 106.195982 200.08293 
L 106.195982 199.790873 
L 106.423093 199.693521 
L 106.423093 199.401465 
L 106.650203 199.304113 
L 106.650203 198.72 
L 106.877314 198.622648 
L 106.877314 198.525296 
L 106.990869 198.525296 
L 106.990869 198.330592 
L 107.104424 198.330592 
L 107.104424 198.135887 
L 107.21798 198.135887 
L 107.21798 197.454423 
L 107.44509 197.454423 
L 107.44509 197.259718 
L 107.785756 197.259718 
L 107.785756 196.772958 
L 107.899311 196.772958 
L 107.899311 196.286197 
L 108.012867 196.286197 
L 108.012867 196.091493 
L 108.239977 196.091493 
L 108.239977 195.896789 
L 108.580643 195.896789 
L 108.580643 195.702085 
L 108.694198 195.702085 
L 108.694198 195.50738 
L 108.807754 195.50738 
L 108.807754 195.215324 
L 109.034864 195.215324 
L 109.034864 194.728563 
L 109.261975 194.728563 
L 109.261975 194.144451 
L 109.489085 194.047099 
L 109.489085 193.65769 
L 109.60264 193.65769 
L 109.60264 193.073577 
L 109.716196 193.073577 
L 109.716196 192.684169 
L 109.943306 192.684169 
L 109.943306 192.392113 
L 110.056862 192.392113 
L 110.056862 192.100056 
L 110.170417 192.100056 
L 110.170417 191.905352 
L 110.283972 191.905352 
L 110.283972 191.223887 
L 110.624638 191.126535 
L 110.624638 190.737127 
L 110.851749 190.639775 
L 110.851749 190.542423 
L 111.419525 190.44507 
L 111.419525 190.250366 
L 111.646636 190.250366 
L 111.646636 190.055662 
L 111.873746 189.95831 
L 111.873746 189.763606 
L 112.327967 189.666254 
L 112.327967 189.568901 
L 112.555078 189.568901 
L 112.555078 188.984789 
L 112.782188 188.984789 
L 112.782188 188.303324 
L 112.895744 188.303324 
L 112.895744 187.719211 
L 113.122854 187.719211 
L 113.122854 186.843042 
L 113.349965 186.843042 
L 113.349965 186.550986 
L 113.46352 186.550986 
L 113.46352 186.25893 
L 113.804186 186.161577 
L 113.804186 185.772169 
L 114.258407 185.674817 
L 114.258407 185.382761 
L 114.485518 185.285408 
L 114.485518 184.993352 
L 114.939739 184.896 
L 114.939739 184.798648 
L 115.39396 184.798648 
L 115.39396 184.603944 
L 115.62107 184.603944 
L 115.62107 184.214535 
L 116.075291 184.117183 
L 116.075291 184.019831 
L 116.415957 183.922479 
L 116.415957 182.851606 
L 116.643068 182.851606 
L 116.643068 182.072789 
L 116.756623 182.072789 
L 116.756623 181.586028 
L 116.870178 181.586028 
L 116.870178 181.099268 
L 117.210844 181.099268 
L 117.210844 180.709859 
L 117.437955 180.612507 
L 117.437955 180.417803 
L 117.55151 180.417803 
L 117.55151 180.028394 
L 117.665065 180.028394 
L 117.665065 179.34693 
L 117.778621 179.34693 
L 117.778621 179.054873 
L 117.892176 179.054873 
L 117.892176 178.762817 
L 118.232842 178.665465 
L 118.232842 178.081352 
L 118.346397 178.081352 
L 118.346397 177.399887 
L 118.459952 177.399887 
L 118.459952 176.718423 
L 118.573508 176.718423 
L 118.573508 175.939606 
L 118.800618 175.842254 
L 118.800618 175.258141 
L 118.914173 175.258141 
L 118.914173 175.063437 
L 119.027729 175.063437 
L 119.027729 174.187268 
L 119.141284 174.187268 
L 119.141284 173.895211 
L 119.48195 173.895211 
L 119.48195 173.019042 
L 119.936171 172.92169 
L 119.936171 172.726986 
L 120.049726 172.726986 
L 120.049726 172.532282 
L 120.276837 172.43493 
L 120.276837 172.337577 
L 120.390392 172.337577 
L 120.390392 172.045521 
L 120.503947 172.045521 
L 120.503947 171.850817 
L 120.731058 171.850817 
L 120.731058 171.656113 
L 121.185279 171.656113 
L 121.185279 171.461408 
L 121.525945 171.364056 
L 121.525945 170.974648 
L 121.753055 170.877296 
L 121.753055 170.779944 
L 121.980166 170.779944 
L 121.980166 170.487887 
L 122.320832 170.390535 
L 122.320832 170.195831 
L 122.434387 170.195831 
L 122.434387 169.903775 
L 122.547942 169.903775 
L 122.547942 169.611718 
L 122.775053 169.514366 
L 122.775053 169.319662 
L 123.002164 169.22231 
L 123.002164 169.124958 
L 123.229274 169.124958 
L 123.229274 168.540845 
L 123.342829 168.540845 
L 123.342829 167.469972 
L 123.683495 167.37262 
L 123.683495 167.275268 
L 123.79705 167.275268 
L 123.79705 167.080563 
L 124.024161 166.983211 
L 124.024161 166.885859 
L 124.478382 166.788507 
L 124.478382 166.496451 
L 124.819048 166.399099 
L 124.819048 166.301746 
L 125.50038 166.204394 
L 125.50038 165.814986 
L 125.613935 165.814986 
L 125.613935 165.230873 
L 125.72749 165.230873 
L 125.72749 165.036169 
L 125.841046 165.036169 
L 125.841046 164.062648 
L 125.954601 164.062648 
L 125.954601 163.867944 
L 126.068156 163.867944 
L 126.068156 163.673239 
L 126.522377 163.575887 
L 126.522377 163.381183 
L 126.635932 163.381183 
L 126.635932 162.212958 
L 126.749488 162.212958 
L 126.749488 161.823549 
L 126.863043 161.823549 
L 126.863043 161.239437 
L 127.203709 161.239437 
L 127.203709 160.752676 
L 127.430819 160.752676 
L 127.430819 160.557972 
L 127.885041 160.46062 
L 127.885041 160.265915 
L 127.998596 160.265915 
L 127.998596 160.071211 
L 128.566372 160.071211 
L 128.566372 159.681803 
L 128.679928 159.681803 
L 128.679928 159.487099 
L 128.907038 159.487099 
L 128.907038 159.09769 
L 129.020593 159.09769 
L 129.020593 158.416225 
L 129.247704 158.318873 
L 129.247704 158.221521 
L 129.474814 158.221521 
L 129.474814 158.026817 
L 129.81548 157.929465 
L 129.81548 157.734761 
L 129.929036 157.734761 
L 129.929036 157.345352 
L 130.042591 157.345352 
L 130.042591 156.955944 
L 130.156146 156.955944 
L 130.156146 156.566535 
L 130.383257 156.469183 
L 130.383257 156.371831 
L 130.723923 156.274479 
L 130.723923 155.88507 
L 130.837478 155.88507 
L 130.837478 155.690366 
L 130.951033 155.690366 
L 130.951033 155.203606 
L 131.405254 155.106254 
L 131.405254 155.008901 
L 131.51881 155.008901 
L 131.51881 154.716845 
L 131.74592 154.716845 
L 131.74592 153.938028 
L 131.859475 153.938028 
L 131.859475 153.743324 
L 132.200141 153.645972 
L 132.200141 153.353915 
L 132.313696 153.353915 
L 132.313696 153.061859 
L 132.540807 153.061859 
L 132.540807 152.18569 
L 133.222139 152.088338 
L 133.222139 151.893634 
L 133.449249 151.893634 
L 133.449249 151.601577 
L 133.789915 151.504225 
L 133.789915 151.406873 
L 134.584802 151.309521 
L 134.584802 151.017465 
L 135.152578 151.017465 
L 135.152578 150.725408 
L 135.379689 150.725408 
L 135.379689 150.336 
L 135.720355 150.238648 
L 135.720355 149.849239 
L 135.947465 149.751887 
L 135.947465 149.557183 
L 136.174576 149.459831 
L 136.174576 149.167775 
L 136.742352 149.167775 
L 136.742352 148.97307 
L 137.083018 148.875718 
L 137.083018 148.681014 
L 137.537239 148.583662 
L 137.537239 148.48631 
L 137.76435 148.388958 
L 137.76435 148.096901 
L 137.99146 148.096901 
L 137.99146 147.415437 
L 138.218571 147.318085 
L 138.218571 147.220732 
L 138.332126 147.220732 
L 138.332126 146.928676 
L 138.445682 146.928676 
L 138.445682 146.539268 
L 138.672792 146.441915 
L 138.672792 146.344563 
L 138.899903 146.344563 
L 138.899903 146.149859 
L 139.013458 146.149859 
L 139.013458 145.955155 
L 139.354124 145.857803 
L 139.354124 145.760451 
L 139.69479 145.760451 
L 139.69479 145.176338 
L 140.035455 145.078986 
L 140.035455 144.981634 
L 140.262566 144.884282 
L 140.262566 144.689577 
L 140.603232 144.592225 
L 140.603232 144.494873 
L 140.716787 144.494873 
L 140.716787 144.300169 
L 140.830342 144.300169 
L 140.830342 143.910761 
L 140.943898 143.910761 
L 140.943898 143.716056 
L 141.171008 143.716056 
L 141.171008 143.521352 
L 141.284564 143.521352 
L 141.284564 143.326648 
L 141.398119 143.326648 
L 141.398119 142.839887 
L 141.738785 142.742535 
L 141.738785 142.547831 
L 142.193006 142.450479 
L 142.193006 142.158423 
L 142.306561 142.158423 
L 142.306561 141.963718 
L 142.647227 141.866366 
L 142.647227 141.769014 
L 143.101448 141.769014 
L 143.101448 141.476958 
L 143.328559 141.379606 
L 143.328559 140.990197 
L 143.669224 140.990197 
L 143.669224 140.795493 
L 144.00989 140.795493 
L 144.00989 140.016676 
L 144.691222 139.919324 
L 144.691222 139.432563 
L 144.918333 139.335211 
L 144.918333 139.237859 
L 145.145443 139.140507 
L 145.145443 139.043155 
L 145.372554 139.043155 
L 145.372554 138.556394 
L 145.486109 138.556394 
L 145.486109 138.264338 
L 145.713219 138.264338 
L 145.713219 138.069634 
L 145.826775 138.069634 
L 145.826775 137.87493 
L 146.167441 137.87493 
L 146.167441 137.485521 
L 146.394551 137.388169 
L 146.394551 136.998761 
L 146.621662 136.901408 
L 146.621662 136.804056 
L 147.075883 136.706704 
L 147.075883 136.414648 
L 147.189438 136.414648 
L 147.189438 136.219944 
L 148.09788 136.122592 
L 148.09788 136.025239 
L 148.438546 135.927887 
L 148.438546 135.830535 
L 148.552101 135.830535 
L 148.552101 135.635831 
L 148.892767 135.635831 
L 148.892767 135.441127 
L 149.006323 135.441127 
L 149.006323 135.14907 
L 149.460544 135.14907 
L 149.460544 134.954366 
L 150.368986 134.857014 
L 150.368986 134.759662 
L 150.596097 134.66231 
L 150.596097 134.467606 
L 150.936762 134.370254 
L 150.936762 134.175549 
L 151.277428 134.078197 
L 151.277428 133.883493 
L 151.390983 133.883493 
L 151.390983 133.591437 
L 151.618094 133.494085 
L 151.618094 133.29938 
L 152.072315 133.202028 
L 152.072315 132.909972 
L 152.412981 132.81262 
L 152.412981 132.617915 
L 152.526536 132.617915 
L 152.526536 132.423211 
L 152.980757 132.325859 
L 152.980757 132.228507 
L 153.434979 132.131155 
L 153.434979 132.033803 
L 153.8892 131.936451 
L 153.8892 131.839099 
L 154.002755 131.839099 
L 154.002755 131.547042 
L 155.138308 131.44969 
L 155.138308 131.352338 
L 155.478974 131.352338 
L 155.478974 130.768225 
L 155.706084 130.768225 
L 155.706084 130.281465 
L 156.160305 130.184113 
L 156.160305 129.794704 
L 157.182303 129.697352 
L 157.182303 129.6 
L 157.409413 129.502648 
L 157.409413 129.307944 
L 157.750079 129.210592 
L 157.750079 129.113239 
L 157.97719 129.113239 
L 157.97719 128.918535 
L 158.658521 128.821183 
L 158.658521 128.529127 
L 158.772077 128.529127 
L 158.772077 128.042366 
L 158.885632 128.042366 
L 158.885632 127.847662 
L 159.453408 127.847662 
L 159.453408 127.360901 
L 159.566964 127.360901 
L 159.566964 127.166197 
L 159.680519 127.166197 
L 159.680519 126.971493 
L 160.248295 126.874141 
L 160.248295 126.582085 
L 160.588961 126.484732 
L 160.588961 126.38738 
L 160.702516 126.38738 
L 160.702516 126.095324 
L 160.816072 126.095324 
L 160.816072 125.803268 
L 161.724514 125.705915 
L 161.724514 125.608563 
L 162.178735 125.608563 
L 162.178735 125.316507 
L 162.405846 125.219155 
L 162.405846 124.927099 
L 162.746511 124.829746 
L 162.746511 124.732394 
L 163.654954 124.635042 
L 163.654954 124.440338 
L 163.768509 124.440338 
L 163.768509 123.953577 
L 164.336285 123.856225 
L 164.336285 123.758873 
L 165.017617 123.661521 
L 165.017617 123.369465 
L 165.244728 123.272113 
L 165.244728 123.077408 
L 165.358283 123.077408 
L 165.358283 122.882704 
L 165.698949 122.882704 
L 165.698949 122.590648 
L 166.15317 122.493296 
L 166.15317 122.395944 
L 166.720946 122.298592 
L 166.720946 122.201239 
L 166.948057 122.103887 
L 166.948057 122.006535 
L 167.515833 121.909183 
L 167.515833 121.811831 
L 168.31072 121.714479 
L 168.31072 121.422423 
L 168.992052 121.32507 
L 168.992052 121.227718 
L 169.105607 121.227718 
L 169.105607 121.033014 
L 169.786939 120.935662 
L 169.786939 120.740958 
L 170.127605 120.643606 
L 170.127605 120.546254 
L 170.922492 120.448901 
L 170.922492 120.351549 
L 171.603823 120.254197 
L 171.603823 120.059493 
L 171.717379 120.059493 
L 171.717379 119.864789 
L 171.830934 119.864789 
L 171.830934 119.378028 
L 172.1716 119.280676 
L 172.1716 119.183324 
L 172.39871 119.085972 
L 172.39871 118.98862 
L 173.307153 118.891268 
L 173.307153 118.696563 
L 173.988484 118.599211 
L 173.988484 118.209803 
L 174.442705 118.209803 
L 174.442705 117.917746 
L 175.351148 117.820394 
L 175.351148 117.723042 
L 175.464703 117.723042 
L 175.464703 117.528338 
L 176.032479 117.430986 
L 176.032479 117.333634 
L 176.4867 117.333634 
L 176.4867 116.944225 
L 176.600256 116.944225 
L 176.600256 116.749521 
L 176.713811 116.749521 
L 176.713811 116.457465 
L 177.735808 116.360113 
L 177.735808 116.262761 
L 177.962919 116.165408 
L 177.962919 115.873352 
L 178.076474 115.873352 
L 178.076474 115.678648 
L 178.871361 115.678648 
L 178.871361 115.483944 
L 179.439138 115.386592 
L 179.439138 115.289239 
L 179.779803 115.191887 
L 179.779803 115.094535 
L 180.120469 114.997183 
L 180.120469 114.899831 
L 180.688246 114.802479 
L 180.688246 114.705127 
L 180.801801 114.705127 
L 180.801801 114.315718 
L 181.142467 114.218366 
L 181.142467 113.92631 
L 181.369577 113.828958 
L 181.369577 113.731606 
L 182.164464 113.731606 
L 182.164464 113.536901 
L 182.27802 113.536901 
L 182.27802 112.660732 
L 183.300017 112.56338 
L 183.300017 112.466028 
L 184.43557 112.368676 
L 184.43557 112.173972 
L 184.776236 112.07662 
L 184.776236 111.687211 
L 184.889791 111.687211 
L 184.889791 111.492507 
L 185.230457 111.492507 
L 185.230457 111.297803 
L 185.798233 111.297803 
L 185.798233 110.908394 
L 186.479565 110.811042 
L 186.479565 110.71369 
L 186.59312 110.71369 
L 186.59312 110.518986 
L 187.160897 110.518986 
L 187.160897 110.324282 
L 187.842228 110.22693 
L 187.842228 110.032225 
L 188.410005 109.934873 
L 188.410005 109.837521 
L 188.977781 109.740169 
L 188.977781 109.642817 
L 189.432002 109.545465 
L 189.432002 109.448113 
L 189.545558 109.448113 
L 189.545558 109.253408 
L 190.454 109.156056 
L 190.454 109.058704 
L 190.68111 108.961352 
L 190.68111 108.669296 
L 191.021776 108.669296 
L 191.021776 108.474592 
L 191.248887 108.474592 
L 191.248887 108.085183 
L 191.362442 108.085183 
L 191.362442 107.793127 
L 191.475997 107.793127 
L 191.475997 107.598423 
L 192.838661 107.50107 
L 192.838661 107.403718 
L 193.974213 107.306366 
L 193.974213 107.209014 
L 194.428435 107.209014 
L 194.428435 106.819606 
L 194.54199 106.819606 
L 194.54199 106.624901 
L 194.7691 106.527549 
L 194.7691 106.332845 
L 194.996211 106.235493 
L 194.996211 106.040789 
L 195.223322 106.040789 
L 195.223322 105.748732 
L 196.245319 105.65138 
L 196.245319 105.359324 
L 196.585985 105.359324 
L 196.585985 104.969915 
L 196.813095 104.969915 
L 196.813095 104.580507 
L 196.926651 104.580507 
L 196.926651 104.288451 
L 197.494427 104.191099 
L 197.494427 103.899042 
L 197.721538 103.899042 
L 197.721538 103.704338 
L 198.175759 103.606986 
L 198.175759 103.31493 
L 198.62998 103.217577 
L 198.62998 103.120225 
L 198.857091 103.120225 
L 198.857091 102.828169 
L 199.084201 102.730817 
L 199.084201 102.633465 
L 199.424867 102.536113 
L 199.424867 102.438761 
L 199.765533 102.341408 
L 199.765533 102.244056 
L 200.78753 102.244056 
L 200.78753 102.049352 
L 201.241751 101.952 
L 201.241751 101.854648 
L 201.923083 101.757296 
L 201.923083 101.659944 
L 202.150194 101.562592 
L 202.150194 101.465239 
L 203.172191 101.367887 
L 203.172191 101.173183 
L 203.967078 101.075831 
L 203.967078 100.978479 
L 204.080633 100.978479 
L 204.080633 100.783775 
L 204.194189 100.783775 
L 204.194189 100.394366 
L 204.989076 100.394366 
L 204.989076 100.10231 
L 205.329741 100.004958 
L 205.329741 99.712901 
L 205.443297 99.712901 
L 205.443297 99.518197 
L 205.783963 99.518197 
L 205.783963 99.128789 
L 206.238184 99.031437 
L 206.238184 98.836732 
L 206.351739 98.836732 
L 206.351739 98.447324 
L 206.465294 98.447324 
L 206.465294 97.960563 
L 206.57885 97.960563 
L 206.57885 97.765859 
L 206.80596 97.668507 
L 206.80596 97.571155 
L 206.919515 97.571155 
L 206.919515 97.279099 
L 207.373737 97.279099 
L 207.373737 97.084394 
L 208.282179 96.987042 
L 208.282179 96.88969 
L 208.395734 96.88969 
L 208.395734 96.305577 
L 208.96351 96.305577 
L 208.96351 96.013521 
L 209.190621 95.916169 
L 209.190621 95.332056 
L 209.758397 95.234704 
L 209.758397 95.04 
L 209.985508 94.942648 
L 209.985508 94.845296 
L 210.326174 94.747944 
L 210.326174 94.650592 
L 211.007505 94.553239 
L 211.007505 94.455887 
L 211.234616 94.358535 
L 211.234616 94.261183 
L 211.688837 94.163831 
L 211.688837 94.066479 
L 213.278611 93.969127 
L 213.278611 93.871775 
L 213.732832 93.774423 
L 213.732832 93.67707 
L 214.527719 93.67707 
L 214.527719 93.482366 
L 214.868385 93.482366 
L 214.868385 92.995606 
L 214.98194 92.995606 
L 214.98194 92.800901 
L 215.322606 92.800901 
L 215.322606 92.508845 
L 217.253046 92.411493 
L 217.253046 92.314141 
L 217.480156 92.314141 
L 217.480156 92.022085 
L 217.820822 91.924732 
L 217.820822 91.730028 
L 217.934378 91.730028 
L 217.934378 91.437972 
L 218.047933 91.437972 
L 218.047933 91.048563 
L 218.161488 91.048563 
L 218.161488 90.853859 
L 218.275043 90.853859 
L 218.275043 90.659155 
L 218.502154 90.659155 
L 218.502154 90.367099 
L 219.06993 90.269746 
L 219.06993 90.172394 
L 219.410596 90.172394 
L 219.410596 89.685634 
L 219.637707 89.588282 
L 219.637707 89.49093 
L 220.319038 89.393577 
L 220.319038 89.101521 
L 220.886815 89.004169 
L 220.886815 88.906817 
L 221.568147 88.809465 
L 221.568147 88.712113 
L 221.795257 88.614761 
L 221.795257 88.517408 
L 222.363033 88.420056 
L 222.363033 88.322704 
L 223.385031 88.225352 
L 223.385031 88.128 
L 224.293473 88.030648 
L 224.293473 87.933296 
L 224.747694 87.835944 
L 224.747694 87.738592 
L 225.201915 87.641239 
L 225.201915 87.543887 
L 225.996802 87.446535 
L 225.996802 87.154479 
L 227.132355 87.057127 
L 227.132355 86.959775 
L 227.700132 86.862423 
L 227.700132 86.76507 
L 229.062795 86.667718 
L 229.062795 86.570366 
L 229.289906 86.570366 
L 229.289906 86.375662 
L 229.630571 86.27831 
L 229.630571 86.180958 
L 230.311903 86.083606 
L 230.311903 85.791549 
L 230.539014 85.694197 
L 230.539014 85.596845 
L 230.879679 85.499493 
L 230.879679 85.402141 
L 230.993235 85.402141 
L 230.993235 85.207437 
L 231.333901 85.110085 
L 231.333901 84.818028 
L 231.674566 84.720676 
L 231.674566 84.623324 
L 231.788122 84.623324 
L 231.788122 84.233915 
L 232.128788 84.136563 
L 232.128788 84.039211 
L 232.355898 83.941859 
L 232.355898 83.747155 
L 232.923675 83.649803 
L 232.923675 83.552451 
L 233.03723 83.552451 
L 233.03723 83.260394 
L 233.832117 83.163042 
L 233.832117 83.06569 
L 234.627004 82.968338 
L 234.627004 82.870986 
L 234.854114 82.773634 
L 234.854114 82.676282 
L 235.421891 82.57893 
L 235.421891 82.481577 
L 236.784554 82.384225 
L 236.784554 82.189521 
L 237.806552 82.092169 
L 237.806552 81.897465 
L 238.374328 81.800113 
L 238.374328 81.702761 
L 238.942104 81.605408 
L 238.942104 81.508056 
L 239.28277 81.410704 
L 239.28277 81.216 
L 239.623436 81.216 
L 239.623436 81.021296 
L 240.191212 80.923944 
L 240.191212 80.534535 
L 240.645434 80.437183 
L 240.645434 80.339831 
L 241.099655 80.242479 
L 241.099655 80.047775 
L 241.326765 79.950423 
L 241.326765 79.658366 
L 241.894542 79.561014 
L 241.894542 79.463662 
L 242.121652 79.36631 
L 242.121652 79.268958 
L 243.14365 79.171606 
L 243.14365 78.976901 
L 243.37076 78.879549 
L 243.37076 78.782197 
L 243.711426 78.684845 
L 243.711426 78.587493 
L 243.824981 78.587493 
L 243.824981 78.392789 
L 244.733424 78.295437 
L 244.733424 78.198085 
L 245.187645 78.100732 
L 245.187645 77.808676 
L 246.323198 77.711324 
L 246.323198 77.613972 
L 247.45875 77.51662 
L 247.45875 77.419268 
L 248.140082 77.321915 
L 248.140082 77.224563 
L 249.38919 77.127211 
L 249.38919 77.029859 
L 250.297632 76.932507 
L 250.297632 76.835155 
L 251.54674 76.737803 
L 251.54674 76.348394 
L 251.773851 76.348394 
L 251.773851 76.056338 
L 252.114517 75.958986 
L 252.114517 75.861634 
L 252.455183 75.764282 
L 252.455183 75.569577 
L 254.612733 75.472225 
L 254.612733 75.374873 
L 255.748286 75.277521 
L 255.748286 75.180169 
L 256.997394 75.082817 
L 256.997394 74.985465 
L 258.927834 74.888113 
L 258.927834 74.790761 
L 259.609165 74.693408 
L 259.609165 74.596056 
L 259.722721 74.596056 
L 259.722721 74.401352 
L 260.176942 74.304 
L 260.176942 74.206648 
L 260.744718 74.206648 
L 260.744718 74.011944 
L 262.902268 73.914592 
L 262.902268 73.817239 
L 263.5836 73.817239 
L 263.5836 73.622535 
L 264.264932 73.525183 
L 264.264932 73.427831 
L 264.492042 73.330479 
L 264.492042 73.233127 
L 265.173374 73.135775 
L 265.173374 72.843718 
L 265.627595 72.746366 
L 265.627595 72.649014 
L 265.968261 72.551662 
L 265.968261 72.356958 
L 267.103814 72.259606 
L 267.103814 72.162254 
L 268.693588 72.064901 
L 268.693588 71.967549 
L 269.261364 71.870197 
L 269.261364 71.772845 
L 271.078249 71.675493 
L 271.078249 71.578141 
L 272.327357 71.480789 
L 272.327357 71.383437 
L 272.440912 71.383437 
L 272.440912 71.188732 
L 274.371352 71.188732 
L 274.371352 70.994028 
L 275.166239 70.896676 
L 275.166239 70.799324 
L 275.961126 70.701972 
L 275.961126 70.60462 
L 277.437344 70.507268 
L 277.437344 70.409915 
L 278.459342 70.312563 
L 278.459342 70.215211 
L 279.140673 70.117859 
L 279.140673 70.020507 
L 280.162671 69.923155 
L 280.162671 69.631099 
L 280.844003 69.631099 
L 280.844003 69.436394 
L 280.957558 69.436394 
L 280.957558 69.24169 
L 281.411779 69.144338 
L 281.411779 69.046986 
L 282.320221 68.949634 
L 282.320221 68.852282 
L 282.887998 68.75493 
L 282.887998 68.657577 
L 283.682885 68.560225 
L 283.682885 68.462873 
L 285.840435 68.365521 
L 285.840435 68.268169 
L 286.294656 68.170817 
L 286.294656 68.073465 
L 286.862433 67.976113 
L 286.862433 67.781408 
L 288.679317 67.684056 
L 288.679317 67.489352 
L 290.155536 67.392 
L 290.155536 67.294648 
L 290.382646 67.294648 
L 290.382646 67.099944 
L 291.518199 67.002592 
L 291.518199 66.905239 
L 292.313086 66.807887 
L 292.313086 66.710535 
L 293.562194 66.710535 
L 293.562194 66.515831 
L 294.924857 66.418479 
L 294.924857 66.321127 
L 296.173965 66.223775 
L 296.173965 66.126423 
L 296.514631 66.126423 
L 296.514631 65.834366 
L 297.536629 65.737014 
L 297.536629 65.639662 
L 297.99085 65.54231 
L 297.99085 65.444958 
L 298.899292 65.347606 
L 298.899292 65.250254 
L 300.716177 65.152901 
L 300.716177 65.055549 
L 301.170398 64.958197 
L 301.170398 64.763493 
L 302.192395 64.666141 
L 302.192395 64.568789 
L 303.214393 64.471437 
L 303.214393 64.374085 
L 305.712609 64.276732 
L 305.712609 64.17938 
L 306.280385 64.082028 
L 306.280385 63.984676 
L 306.621051 63.887324 
L 306.621051 63.789972 
L 307.075272 63.789972 
L 307.075272 63.400563 
L 307.983715 63.400563 
L 307.983715 63.205859 
L 309.459933 63.108507 
L 309.459933 63.011155 
L 310.822597 62.913803 
L 310.822597 62.719099 
L 312.298815 62.621746 
L 312.298815 62.32969 
L 312.753036 62.232338 
L 312.753036 62.134986 
L 313.320813 62.037634 
L 313.320813 61.940282 
L 313.661479 61.940282 
L 313.661479 61.648225 
L 314.456366 61.550873 
L 314.456366 61.453521 
L 314.569921 61.453521 
L 314.569921 61.258817 
L 316.613916 61.161465 
L 316.613916 61.064113 
L 318.998577 60.966761 
L 318.998577 60.869408 
L 320.701906 60.772056 
L 320.701906 60.674704 
L 321.383238 60.577352 
L 321.383238 60.48 
L 323.086567 60.48 
L 323.086567 60.285296 
L 325.584783 60.187944 
L 325.584783 60.090592 
L 326.493225 60.090592 
L 326.493225 59.895887 
L 327.515223 59.798535 
L 327.515223 59.701183 
L 329.445663 59.603831 
L 329.445663 59.506479 
L 331.716768 59.409127 
L 331.716768 59.311775 
L 332.852321 59.214423 
L 332.852321 59.11707 
L 333.647208 59.019718 
L 333.647208 58.922366 
L 333.874318 58.825014 
L 333.874318 58.63031 
L 337.508087 58.532958 
L 337.508087 58.240901 
L 337.848753 58.240901 
L 337.848753 58.046197 
L 338.189419 57.948845 
L 338.189419 57.851493 
L 338.984306 57.754141 
L 338.984306 57.656789 
L 339.892748 57.559437 
L 339.892748 57.462085 
L 341.255412 57.364732 
L 341.255412 57.26738 
L 344.207849 57.170028 
L 344.207849 57.072676 
L 344.889181 56.975324 
L 344.889181 56.877972 
L 345.456957 56.78062 
L 345.456957 56.683268 
L 345.911178 56.683268 
L 345.911178 56.488563 
L 346.59251 56.488563 
L 346.59251 56.293859 
L 347.500952 56.196507 
L 347.500952 56.099155 
L 348.409394 56.001803 
L 348.409394 55.904451 
L 351.475387 55.807099 
L 351.475387 55.709746 
L 352.156718 55.612394 
L 352.156718 55.515042 
L 353.860048 55.41769 
L 353.860048 55.320338 
L 354.427824 55.320338 
L 354.427824 55.125634 
L 354.9956 55.028282 
L 354.9956 54.93093 
L 362.71736 54.833577 
L 362.71736 54.736225 
L 366.237573 54.638873 
L 366.237573 54.541521 
L 367.827347 54.444169 
L 367.827347 54.346817 
L 370.212008 54.249465 
L 370.212008 54.152113 
L 370.439119 54.152113 
L 370.439119 53.957408 
L 382.362423 53.860056 
L 382.362423 53.762704 
L 396.670388 53.665352 
L 396.670388 53.568 
L 398.487273 53.568 
L 398.487273 53.568 
" clip-path="url(#p55cd40bd1d)" style="fill: none; stroke: #ff7f0e; stroke-width: 1.5; stroke-linecap: square"/>
   </g>
   <g id="patch_3">
    <path d="M 57.6 307.584 
L 57.6 41.472 
" style="fill: none; stroke: #000000; stroke-width: 0.8; stroke-linejoin: miter; stroke-linecap: square"/>
   </g>
   <g id="patch_4">
    <path d="M 414.72 307.584 
L 414.72 41.472 
" style="fill: none; stroke: #000000; stroke-width: 0.8; stroke-linejoin: miter; stroke-linecap: square"/>
   </g>
   <g id="patch_5">
    <path d="M 57.6 307.584 
L 414.72 307.584 
" style="fill: none; stroke: #000000; stroke-width: 0.8; stroke-linejoin: miter; stroke-linecap: square"/>
   </g>
   <g id="patch_6">
    <path d="M 57.6 41.472 
L 414.72 41.472 
" style="fill: none; stroke: #000000; stroke-width: 0.8; stroke-linejoin: miter; stroke-linecap: square"/>
   </g>
   <g id="text_15">
    <!-- ROC Curves for Each Class -->
    <g transform="translate(156.01875 35.472)scale(0.12 -0.12)">
     <defs>
      <path id="DejaVuSans-4f" d="M 2522 4238 
Q 1834 4238 1429 3725 
Q 1025 3213 1025 2328 
Q 1025 1447 1429 934 
Q 1834 422 2522 422 
Q 3209 422 3611 934 
Q 4013 1447 4013 2328 
Q 4013 3213 3611 3725 
Q 3209 4238 2522 4238 
z
M 2522 4750 
Q 3503 4750 4090 4092 
Q 4678 3434 4678 2328 
Q 4678 1225 4090 567 
Q 3503 -91 2522 -91 
Q 1538 -91 948 565 
Q 359 1222 359 2328 
Q 359 3434 948 4092 
Q 1538 4750 2522 4750 
z
" transform="scale(0.015625)"/>
      <path id="DejaVuSans-43" d="M 4122 4306 
L 4122 3641 
Q 3803 3938 3442 4084 
Q 3081 4231 2675 4231 
Q 1875 4231 1450 3742 
Q 1025 3253 1025 2328 
Q 1025 1406 1450 917 
Q 1875 428 2675 428 
Q 3081 428 3442 575 
Q 3803 722 4122 1019 
L 4122 359 
Q 3791 134 3420 21 
Q 3050 -91 2638 -91 
Q 1578 -91 968 557 
Q 359 1206 359 2328 
Q 359 3453 968 4101 
Q 1578 4750 2638 4750 
Q 3056 4750 3426 4639 
Q 3797 4528 4122 4306 
z
" transform="scale(0.015625)"/>
      <path id="DejaVuSans-66" d="M 2375 4863 
L 2375 4384 
L 1825 4384 
Q 1516 4384 1395 4259 
Q 1275 4134 1275 3809 
L 1275 3500 
L 2222 3500 
L 2222 3053 
L 1275 3053 
L 1275 0 
L 697 0 
L 697 3053 
L 147 3053 
L 147 3500 
L 697 3500 
L 697 3744 
Q 697 4328 969 4595 
Q 1241 4863 1831 4863 
L 2375 4863 
z
" transform="scale(0.015625)"/>
      <path id="DejaVuSans-45" d="M 628 4666 
L 3578 4666 
L 3578 4134 
L 1259 4134 
L 1259 2753 
L 3481 2753 
L 3481 2222 
L 1259 2222 
L 1259 531 
L 3634 531 
L 3634 0 
L 628 0 
L 628 4666 
z
" transform="scale(0.015625)"/>
      <path id="DejaVuSans-63" d="M 3122 3366 
L 3122 2828 
Q 2878 2963 2633 3030 
Q 2388 3097 2138 3097 
Q 1578 3097 1268 2742 
Q 959 2388 959 1747 
Q 959 1106 1268 751 
Q 1578 397 2138 397 
Q 2388 397 2633 464 
Q 2878 531 3122 666 
L 3122 134 
Q 2881 22 2623 -34 
Q 2366 -91 2075 -91 
Q 1284 -91 818 406 
Q 353 903 353 1747 
Q 353 2603 823 3093 
Q 1294 3584 2113 3584 
Q 2378 3584 2631 3529 
Q 2884 3475 3122 3366 
z
" transform="scale(0.015625)"/>
      <path id="DejaVuSans-68" d="M 3513 2113 
L 3513 0 
L 2938 0 
L 2938 2094 
Q 2938 2591 2744 2837 
Q 2550 3084 2163 3084 
Q 1697 3084 1428 2787 
Q 1159 2491 1159 1978 
L 1159 0 
L 581 0 
L 581 4863 
L 1159 4863 
L 1159 2956 
Q 1366 3272 1645 3428 
Q 1925 3584 2291 3584 
Q 2894 3584 3203 3211 
Q 3513 2838 3513 2113 
z
" transform="scale(0.015625)"/>
     </defs>
     <use xlink:href="#DejaVuSans-52"/>
     <use xlink:href="#DejaVuSans-4f" x="69.482422"/>
     <use xlink:href="#DejaVuSans-43" x="148.193359"/>
     <use xlink:href="#DejaVuSans-20" x="218.017578"/>
     <use xlink:href="#DejaVuSans-43" x="249.804688"/>
     <use xlink:href="#DejaVuSans-75" x="319.628906"/>
     <use xlink:href="#DejaVuSans-72" x="383.007812"/>
     <use xlink:href="#DejaVuSans-76" x="424.121094"/>
     <use xlink:href="#DejaVuSans-65" x="483.300781"/>
     <use xlink:href="#DejaVuSans-73" x="544.824219"/>
     <use xlink:href="#DejaVuSans-20" x="596.923828"/>
     <use xlink:href="#DejaVuSans-66" x="628.710938"/>
     <use xlink:href="#DejaVuSans-6f" x="663.916016"/>
     <use xlink:href="#DejaVuSans-72" x="725.097656"/>
     <use xlink:href="#DejaVuSans-20" x="766.210938"/>
     <use xlink:href="#DejaVuSans-45" x="797.998047"/>
     <use xlink:href="#DejaVuSans-61" x="861.181641"/>
     <use xlink:href="#DejaVuSans-63" x="922.460938"/>
     <use xlink:href="#DejaVuSans-68" x="977.441406"/>
     <use xlink:href="#DejaVuSans-20" x="1040.820312"/>
     <use xlink:href="#DejaVuSans-43" x="1072.607422"/>
     <use xlink:href="#DejaVuSans-6c" x="1142.431641"/>
     <use xlink:href="#DejaVuSans-61" x="1170.214844"/>
     <use xlink:href="#DejaVuSans-73" x="1231.494141"/>
     <use xlink:href="#DejaVuSans-73" x="1283.59375"/>
    </g>
   </g>
   <g id="legend_1">
    <g id="patch_7">
     <path d="M 270.746563 302.584 
L 407.72 302.584 
Q 409.72 302.584 409.72 300.584 
L 409.72 272.22775 
Q 409.72 270.22775 407.72 270.22775 
L 270.746563 270.22775 
Q 268.746563 270.22775 268.746563 272.22775 
L 268.746563 300.584 
Q 268.746563 302.584 270.746563 302.584 
z
" style="fill: #ffffff; opacity: 0.8; stroke: #cccccc; stroke-linejoin: miter"/>
    </g>
    <g id="line2d_15">
     <path d="M 272.746563 278.326187 
L 282.746563 278.326187 
L 292.746563 278.326187 
" style="fill: none; stroke: #1f77b4; stroke-width: 1.5; stroke-linecap: square"/>
    </g>
    <g id="text_16">
     <!-- Class 0 (AUC = 0.78) -->
     <g transform="translate(300.746563 281.826187)scale(0.1 -0.1)">
      <defs>
       <path id="DejaVuSans-28" d="M 1984 4856 
Q 1566 4138 1362 3434 
Q 1159 2731 1159 2009 
Q 1159 1288 1364 580 
Q 1569 -128 1984 -844 
L 1484 -844 
Q 1016 -109 783 600 
Q 550 1309 550 2009 
Q 550 2706 781 3412 
Q 1013 4119 1484 4856 
L 1984 4856 
z
" transform="scale(0.015625)"/>
       <path id="DejaVuSans-41" d="M 2188 4044 
L 1331 1722 
L 3047 1722 
L 2188 4044 
z
M 1831 4666 
L 2547 4666 
L 4325 0 
L 3669 0 
L 3244 1197 
L 1141 1197 
L 716 0 
L 50 0 
L 1831 4666 
z
" transform="scale(0.015625)"/>
       <path id="DejaVuSans-55" d="M 556 4666 
L 1191 4666 
L 1191 1831 
Q 1191 1081 1462 751 
Q 1734 422 2344 422 
Q 2950 422 3222 751 
Q 3494 1081 3494 1831 
L 3494 4666 
L 4128 4666 
L 4128 1753 
Q 4128 841 3676 375 
Q 3225 -91 2344 -91 
Q 1459 -91 1007 375 
Q 556 841 556 1753 
L 556 4666 
z
" transform="scale(0.015625)"/>
       <path id="DejaVuSans-3d" d="M 678 2906 
L 4684 2906 
L 4684 2381 
L 678 2381 
L 678 2906 
z
M 678 1631 
L 4684 1631 
L 4684 1100 
L 678 1100 
L 678 1631 
z
" transform="scale(0.015625)"/>
       <path id="DejaVuSans-37" d="M 525 4666 
L 3525 4666 
L 3525 4397 
L 1831 0 
L 1172 0 
L 2766 4134 
L 525 4134 
L 525 4666 
z
" transform="scale(0.015625)"/>
       <path id="DejaVuSans-29" d="M 513 4856 
L 1013 4856 
Q 1481 4119 1714 3412 
Q 1947 2706 1947 2009 
Q 1947 1309 1714 600 
Q 1481 -109 1013 -844 
L 513 -844 
Q 928 -128 1133 580 
Q 1338 1288 1338 2009 
Q 1338 2731 1133 3434 
Q 928 4138 513 4856 
z
" transform="scale(0.015625)"/>
      </defs>
      <use xlink:href="#DejaVuSans-43"/>
      <use xlink:href="#DejaVuSans-6c" x="69.824219"/>
      <use xlink:href="#DejaVuSans-61" x="97.607422"/>
      <use xlink:href="#DejaVuSans-73" x="158.886719"/>
      <use xlink:href="#DejaVuSans-73" x="210.986328"/>
      <use xlink:href="#DejaVuSans-20" x="263.085938"/>
      <use xlink:href="#DejaVuSans-30" x="294.873047"/>
      <use xlink:href="#DejaVuSans-20" x="358.496094"/>
      <use xlink:href="#DejaVuSans-28" x="390.283203"/>
      <use xlink:href="#DejaVuSans-41" x="429.296875"/>
      <use xlink:href="#DejaVuSans-55" x="497.705078"/>
      <use xlink:href="#DejaVuSans-43" x="570.898438"/>
      <use xlink:href="#DejaVuSans-20" x="640.722656"/>
      <use xlink:href="#DejaVuSans-3d" x="672.509766"/>
      <use xlink:href="#DejaVuSans-20" x="756.298828"/>
      <use xlink:href="#DejaVuSans-30" x="788.085938"/>
      <use xlink:href="#DejaVuSans-2e" x="851.708984"/>
      <use xlink:href="#DejaVuSans-37" x="883.496094"/>
      <use xlink:href="#DejaVuSans-38" x="947.119141"/>
      <use xlink:href="#DejaVuSans-29" x="1010.742188"/>
     </g>
    </g>
    <g id="line2d_16">
     <path d="M 272.746563 293.004312 
L 282.746563 293.004312 
L 292.746563 293.004312 
" style="fill: none; stroke: #ff7f0e; stroke-width: 1.5; stroke-linecap: square"/>
    </g>
    <g id="text_17">
     <!-- Class 1 (AUC = 0.78) -->
     <g transform="translate(300.746563 296.504312)scale(0.1 -0.1)">
      <use xlink:href="#DejaVuSans-43"/>
      <use xlink:href="#DejaVuSans-6c" x="69.824219"/>
      <use xlink:href="#DejaVuSans-61" x="97.607422"/>
      <use xlink:href="#DejaVuSans-73" x="158.886719"/>
      <use xlink:href="#DejaVuSans-73" x="210.986328"/>
      <use xlink:href="#DejaVuSans-20" x="263.085938"/>
      <use xlink:href="#DejaVuSans-31" x="294.873047"/>
      <use xlink:href="#DejaVuSans-20" x="358.496094"/>
      <use xlink:href="#DejaVuSans-28" x="390.283203"/>
      <use xlink:href="#DejaVuSans-41" x="429.296875"/>
      <use xlink:href="#DejaVuSans-55" x="497.705078"/>
      <use xlink:href="#DejaVuSans-43" x="570.898438"/>
      <use xlink:href="#DejaVuSans-20" x="640.722656"/>
      <use xlink:href="#DejaVuSans-3d" x="672.509766"/>
      <use xlink:href="#DejaVuSans-20" x="756.298828"/>
      <use xlink:href="#DejaVuSans-30" x="788.085938"/>
      <use xlink:href="#DejaVuSans-2e" x="851.708984"/>
      <use xlink:href="#DejaVuSans-37" x="883.496094"/>
      <use xlink:href="#DejaVuSans-38" x="947.119141"/>
      <use xlink:href="#DejaVuSans-29" x="1010.742188"/>
     </g>
    </g>
   </g>
  </g>
 </g>
 <defs>
  <clipPath id="p55cd40bd1d">
   <rect x="57.6" y="41.472" width="357.12" height="266.112"/>
  </clipPath>
 </defs>
</svg>
