<?xml version="1.0" encoding="utf-8" standalone="no"?>
<!DOCTYPE svg PUBLIC "-//W3C//DTD SVG 1.1//EN"
  "http://www.w3.org/Graphics/SVG/1.1/DTD/svg11.dtd">
<svg xmlns:xlink="http://www.w3.org/1999/xlink" width="460.8pt" height="345.6pt" viewBox="0 0 460.8 345.6" xmlns="http://www.w3.org/2000/svg" version="1.1">
 <metadata>
  <rdf:RDF xmlns:dc="http://purl.org/dc/elements/1.1/" xmlns:cc="http://creativecommons.org/ns#" xmlns:rdf="http://www.w3.org/1999/02/22-rdf-syntax-ns#">
   <cc:Work>
    <dc:type rdf:resource="http://purl.org/dc/dcmitype/StillImage"/>
    <dc:date>2024-01-05T20:55:52.245386</dc:date>
    <dc:format>image/svg+xml</dc:format>
    <dc:creator>
     <cc:Agent>
      <dc:title>Matplotlib v3.5.3, https://matplotlib.org/</dc:title>
     </cc:Agent>
    </dc:creator>
   </cc:Work>
  </rdf:RDF>
 </metadata>
 <defs>
  <style type="text/css">*{stroke-linejoin: round; stroke-linecap: butt}</style>
 </defs>
 <g id="figure_1">
  <g id="patch_1">
   <path d="M 0 345.6 
L 460.8 345.6 
L 460.8 0 
L 0 0 
z
" style="fill: #ffffff"/>
  </g>
  <g id="axes_1">
   <g id="patch_2">
    <path d="M 57.6 307.584 
L 414.72 307.584 
L 414.72 41.472 
L 57.6 41.472 
z
" style="fill: #ffffff"/>
   </g>
   <g id="matplotlib.axis_1">
    <g id="xtick_1">
     <g id="line2d_1">
      <defs>
       <path id="m3b0fcc4a6a" d="M 0 0 
L 0 3.5 
" style="stroke: #000000; stroke-width: 0.8"/>
      </defs>
      <g>
       <use xlink:href="#m3b0fcc4a6a" x="73.832727" y="307.584" style="stroke: #000000; stroke-width: 0.8"/>
      </g>
     </g>
     <g id="text_1">
      <!-- 0.0 -->
      <g transform="translate(65.881165 322.182437)scale(0.1 -0.1)">
       <defs>
        <path id="DejaVuSans-30" d="M 2034 4250 
Q 1547 4250 1301 3770 
Q 1056 3291 1056 2328 
Q 1056 1369 1301 889 
Q 1547 409 2034 409 
Q 2525 409 2770 889 
Q 3016 1369 3016 2328 
Q 3016 3291 2770 3770 
Q 2525 4250 2034 4250 
z
M 2034 4750 
Q 2819 4750 3233 4129 
Q 3647 3509 3647 2328 
Q 3647 1150 3233 529 
Q 2819 -91 2034 -91 
Q 1250 -91 836 529 
Q 422 1150 422 2328 
Q 422 3509 836 4129 
Q 1250 4750 2034 4750 
z
" transform="scale(0.015625)"/>
        <path id="DejaVuSans-2e" d="M 684 794 
L 1344 794 
L 1344 0 
L 684 0 
L 684 794 
z
" transform="scale(0.015625)"/>
       </defs>
       <use xlink:href="#DejaVuSans-30"/>
       <use xlink:href="#DejaVuSans-2e" x="63.623047"/>
       <use xlink:href="#DejaVuSans-30" x="95.410156"/>
      </g>
     </g>
    </g>
    <g id="xtick_2">
     <g id="line2d_2">
      <g>
       <use xlink:href="#m3b0fcc4a6a" x="138.763636" y="307.584" style="stroke: #000000; stroke-width: 0.8"/>
      </g>
     </g>
     <g id="text_2">
      <!-- 0.2 -->
      <g transform="translate(130.812074 322.182437)scale(0.1 -0.1)">
       <defs>
        <path id="DejaVuSans-32" d="M 1228 531 
L 3431 531 
L 3431 0 
L 469 0 
L 469 531 
Q 828 903 1448 1529 
Q 2069 2156 2228 2338 
Q 2531 2678 2651 2914 
Q 2772 3150 2772 3378 
Q 2772 3750 2511 3984 
Q 2250 4219 1831 4219 
Q 1534 4219 1204 4116 
Q 875 4013 500 3803 
L 500 4441 
Q 881 4594 1212 4672 
Q 1544 4750 1819 4750 
Q 2544 4750 2975 4387 
Q 3406 4025 3406 3419 
Q 3406 3131 3298 2873 
Q 3191 2616 2906 2266 
Q 2828 2175 2409 1742 
Q 1991 1309 1228 531 
z
" transform="scale(0.015625)"/>
       </defs>
       <use xlink:href="#DejaVuSans-30"/>
       <use xlink:href="#DejaVuSans-2e" x="63.623047"/>
       <use xlink:href="#DejaVuSans-32" x="95.410156"/>
      </g>
     </g>
    </g>
    <g id="xtick_3">
     <g id="line2d_3">
      <g>
       <use xlink:href="#m3b0fcc4a6a" x="203.694545" y="307.584" style="stroke: #000000; stroke-width: 0.8"/>
      </g>
     </g>
     <g id="text_3">
      <!-- 0.4 -->
      <g transform="translate(195.742983 322.182437)scale(0.1 -0.1)">
       <defs>
        <path id="DejaVuSans-34" d="M 2419 4116 
L 825 1625 
L 2419 1625 
L 2419 4116 
z
M 2253 4666 
L 3047 4666 
L 3047 1625 
L 3713 1625 
L 3713 1100 
L 3047 1100 
L 3047 0 
L 2419 0 
L 2419 1100 
L 313 1100 
L 313 1709 
L 2253 4666 
z
" transform="scale(0.015625)"/>
       </defs>
       <use xlink:href="#DejaVuSans-30"/>
       <use xlink:href="#DejaVuSans-2e" x="63.623047"/>
       <use xlink:href="#DejaVuSans-34" x="95.410156"/>
      </g>
     </g>
    </g>
    <g id="xtick_4">
     <g id="line2d_4">
      <g>
       <use xlink:href="#m3b0fcc4a6a" x="268.625455" y="307.584" style="stroke: #000000; stroke-width: 0.8"/>
      </g>
     </g>
     <g id="text_4">
      <!-- 0.6 -->
      <g transform="translate(260.673892 322.182437)scale(0.1 -0.1)">
       <defs>
        <path id="DejaVuSans-36" d="M 2113 2584 
Q 1688 2584 1439 2293 
Q 1191 2003 1191 1497 
Q 1191 994 1439 701 
Q 1688 409 2113 409 
Q 2538 409 2786 701 
Q 3034 994 3034 1497 
Q 3034 2003 2786 2293 
Q 2538 2584 2113 2584 
z
M 3366 4563 
L 3366 3988 
Q 3128 4100 2886 4159 
Q 2644 4219 2406 4219 
Q 1781 4219 1451 3797 
Q 1122 3375 1075 2522 
Q 1259 2794 1537 2939 
Q 1816 3084 2150 3084 
Q 2853 3084 3261 2657 
Q 3669 2231 3669 1497 
Q 3669 778 3244 343 
Q 2819 -91 2113 -91 
Q 1303 -91 875 529 
Q 447 1150 447 2328 
Q 447 3434 972 4092 
Q 1497 4750 2381 4750 
Q 2619 4750 2861 4703 
Q 3103 4656 3366 4563 
z
" transform="scale(0.015625)"/>
       </defs>
       <use xlink:href="#DejaVuSans-30"/>
       <use xlink:href="#DejaVuSans-2e" x="63.623047"/>
       <use xlink:href="#DejaVuSans-36" x="95.410156"/>
      </g>
     </g>
    </g>
    <g id="xtick_5">
     <g id="line2d_5">
      <g>
       <use xlink:href="#m3b0fcc4a6a" x="333.556364" y="307.584" style="stroke: #000000; stroke-width: 0.8"/>
      </g>
     </g>
     <g id="text_5">
      <!-- 0.8 -->
      <g transform="translate(325.604801 322.182437)scale(0.1 -0.1)">
       <defs>
        <path id="DejaVuSans-38" d="M 2034 2216 
Q 1584 2216 1326 1975 
Q 1069 1734 1069 1313 
Q 1069 891 1326 650 
Q 1584 409 2034 409 
Q 2484 409 2743 651 
Q 3003 894 3003 1313 
Q 3003 1734 2745 1975 
Q 2488 2216 2034 2216 
z
M 1403 2484 
Q 997 2584 770 2862 
Q 544 3141 544 3541 
Q 544 4100 942 4425 
Q 1341 4750 2034 4750 
Q 2731 4750 3128 4425 
Q 3525 4100 3525 3541 
Q 3525 3141 3298 2862 
Q 3072 2584 2669 2484 
Q 3125 2378 3379 2068 
Q 3634 1759 3634 1313 
Q 3634 634 3220 271 
Q 2806 -91 2034 -91 
Q 1263 -91 848 271 
Q 434 634 434 1313 
Q 434 1759 690 2068 
Q 947 2378 1403 2484 
z
M 1172 3481 
Q 1172 3119 1398 2916 
Q 1625 2713 2034 2713 
Q 2441 2713 2670 2916 
Q 2900 3119 2900 3481 
Q 2900 3844 2670 4047 
Q 2441 4250 2034 4250 
Q 1625 4250 1398 4047 
Q 1172 3844 1172 3481 
z
" transform="scale(0.015625)"/>
       </defs>
       <use xlink:href="#DejaVuSans-30"/>
       <use xlink:href="#DejaVuSans-2e" x="63.623047"/>
       <use xlink:href="#DejaVuSans-38" x="95.410156"/>
      </g>
     </g>
    </g>
    <g id="xtick_6">
     <g id="line2d_6">
      <g>
       <use xlink:href="#m3b0fcc4a6a" x="398.487273" y="307.584" style="stroke: #000000; stroke-width: 0.8"/>
      </g>
     </g>
     <g id="text_6">
      <!-- 1.0 -->
      <g transform="translate(390.53571 322.182437)scale(0.1 -0.1)">
       <defs>
        <path id="DejaVuSans-31" d="M 794 531 
L 1825 531 
L 1825 4091 
L 703 3866 
L 703 4441 
L 1819 4666 
L 2450 4666 
L 2450 531 
L 3481 531 
L 3481 0 
L 794 0 
L 794 531 
z
" transform="scale(0.015625)"/>
       </defs>
       <use xlink:href="#DejaVuSans-31"/>
       <use xlink:href="#DejaVuSans-2e" x="63.623047"/>
       <use xlink:href="#DejaVuSans-30" x="95.410156"/>
      </g>
     </g>
    </g>
    <g id="text_7">
     <!-- False Positive Rate -->
     <g transform="translate(189.693594 335.860562)scale(0.1 -0.1)">
      <defs>
       <path id="DejaVuSans-46" d="M 628 4666 
L 3309 4666 
L 3309 4134 
L 1259 4134 
L 1259 2759 
L 3109 2759 
L 3109 2228 
L 1259 2228 
L 1259 0 
L 628 0 
L 628 4666 
z
" transform="scale(0.015625)"/>
       <path id="DejaVuSans-61" d="M 2194 1759 
Q 1497 1759 1228 1600 
Q 959 1441 959 1056 
Q 959 750 1161 570 
Q 1363 391 1709 391 
Q 2188 391 2477 730 
Q 2766 1069 2766 1631 
L 2766 1759 
L 2194 1759 
z
M 3341 1997 
L 3341 0 
L 2766 0 
L 2766 531 
Q 2569 213 2275 61 
Q 1981 -91 1556 -91 
Q 1019 -91 701 211 
Q 384 513 384 1019 
Q 384 1609 779 1909 
Q 1175 2209 1959 2209 
L 2766 2209 
L 2766 2266 
Q 2766 2663 2505 2880 
Q 2244 3097 1772 3097 
Q 1472 3097 1187 3025 
Q 903 2953 641 2809 
L 641 3341 
Q 956 3463 1253 3523 
Q 1550 3584 1831 3584 
Q 2591 3584 2966 3190 
Q 3341 2797 3341 1997 
z
" transform="scale(0.015625)"/>
       <path id="DejaVuSans-6c" d="M 603 4863 
L 1178 4863 
L 1178 0 
L 603 0 
L 603 4863 
z
" transform="scale(0.015625)"/>
       <path id="DejaVuSans-73" d="M 2834 3397 
L 2834 2853 
Q 2591 2978 2328 3040 
Q 2066 3103 1784 3103 
Q 1356 3103 1142 2972 
Q 928 2841 928 2578 
Q 928 2378 1081 2264 
Q 1234 2150 1697 2047 
L 1894 2003 
Q 2506 1872 2764 1633 
Q 3022 1394 3022 966 
Q 3022 478 2636 193 
Q 2250 -91 1575 -91 
Q 1294 -91 989 -36 
Q 684 19 347 128 
L 347 722 
Q 666 556 975 473 
Q 1284 391 1588 391 
Q 1994 391 2212 530 
Q 2431 669 2431 922 
Q 2431 1156 2273 1281 
Q 2116 1406 1581 1522 
L 1381 1569 
Q 847 1681 609 1914 
Q 372 2147 372 2553 
Q 372 3047 722 3315 
Q 1072 3584 1716 3584 
Q 2034 3584 2315 3537 
Q 2597 3491 2834 3397 
z
" transform="scale(0.015625)"/>
       <path id="DejaVuSans-65" d="M 3597 1894 
L 3597 1613 
L 953 1613 
Q 991 1019 1311 708 
Q 1631 397 2203 397 
Q 2534 397 2845 478 
Q 3156 559 3463 722 
L 3463 178 
Q 3153 47 2828 -22 
Q 2503 -91 2169 -91 
Q 1331 -91 842 396 
Q 353 884 353 1716 
Q 353 2575 817 3079 
Q 1281 3584 2069 3584 
Q 2775 3584 3186 3129 
Q 3597 2675 3597 1894 
z
M 3022 2063 
Q 3016 2534 2758 2815 
Q 2500 3097 2075 3097 
Q 1594 3097 1305 2825 
Q 1016 2553 972 2059 
L 3022 2063 
z
" transform="scale(0.015625)"/>
       <path id="DejaVuSans-20" transform="scale(0.015625)"/>
       <path id="DejaVuSans-50" d="M 1259 4147 
L 1259 2394 
L 2053 2394 
Q 2494 2394 2734 2622 
Q 2975 2850 2975 3272 
Q 2975 3691 2734 3919 
Q 2494 4147 2053 4147 
L 1259 4147 
z
M 628 4666 
L 2053 4666 
Q 2838 4666 3239 4311 
Q 3641 3956 3641 3272 
Q 3641 2581 3239 2228 
Q 2838 1875 2053 1875 
L 1259 1875 
L 1259 0 
L 628 0 
L 628 4666 
z
" transform="scale(0.015625)"/>
       <path id="DejaVuSans-6f" d="M 1959 3097 
Q 1497 3097 1228 2736 
Q 959 2375 959 1747 
Q 959 1119 1226 758 
Q 1494 397 1959 397 
Q 2419 397 2687 759 
Q 2956 1122 2956 1747 
Q 2956 2369 2687 2733 
Q 2419 3097 1959 3097 
z
M 1959 3584 
Q 2709 3584 3137 3096 
Q 3566 2609 3566 1747 
Q 3566 888 3137 398 
Q 2709 -91 1959 -91 
Q 1206 -91 779 398 
Q 353 888 353 1747 
Q 353 2609 779 3096 
Q 1206 3584 1959 3584 
z
" transform="scale(0.015625)"/>
       <path id="DejaVuSans-69" d="M 603 3500 
L 1178 3500 
L 1178 0 
L 603 0 
L 603 3500 
z
M 603 4863 
L 1178 4863 
L 1178 4134 
L 603 4134 
L 603 4863 
z
" transform="scale(0.015625)"/>
       <path id="DejaVuSans-74" d="M 1172 4494 
L 1172 3500 
L 2356 3500 
L 2356 3053 
L 1172 3053 
L 1172 1153 
Q 1172 725 1289 603 
Q 1406 481 1766 481 
L 2356 481 
L 2356 0 
L 1766 0 
Q 1100 0 847 248 
Q 594 497 594 1153 
L 594 3053 
L 172 3053 
L 172 3500 
L 594 3500 
L 594 4494 
L 1172 4494 
z
" transform="scale(0.015625)"/>
       <path id="DejaVuSans-76" d="M 191 3500 
L 800 3500 
L 1894 563 
L 2988 3500 
L 3597 3500 
L 2284 0 
L 1503 0 
L 191 3500 
z
" transform="scale(0.015625)"/>
       <path id="DejaVuSans-52" d="M 2841 2188 
Q 3044 2119 3236 1894 
Q 3428 1669 3622 1275 
L 4263 0 
L 3584 0 
L 2988 1197 
Q 2756 1666 2539 1819 
Q 2322 1972 1947 1972 
L 1259 1972 
L 1259 0 
L 628 0 
L 628 4666 
L 2053 4666 
Q 2853 4666 3247 4331 
Q 3641 3997 3641 3322 
Q 3641 2881 3436 2590 
Q 3231 2300 2841 2188 
z
M 1259 4147 
L 1259 2491 
L 2053 2491 
Q 2509 2491 2742 2702 
Q 2975 2913 2975 3322 
Q 2975 3731 2742 3939 
Q 2509 4147 2053 4147 
L 1259 4147 
z
" transform="scale(0.015625)"/>
      </defs>
      <use xlink:href="#DejaVuSans-46"/>
      <use xlink:href="#DejaVuSans-61" x="48.394531"/>
      <use xlink:href="#DejaVuSans-6c" x="109.673828"/>
      <use xlink:href="#DejaVuSans-73" x="137.457031"/>
      <use xlink:href="#DejaVuSans-65" x="189.556641"/>
      <use xlink:href="#DejaVuSans-20" x="251.080078"/>
      <use xlink:href="#DejaVuSans-50" x="282.867188"/>
      <use xlink:href="#DejaVuSans-6f" x="339.544922"/>
      <use xlink:href="#DejaVuSans-73" x="400.726562"/>
      <use xlink:href="#DejaVuSans-69" x="452.826172"/>
      <use xlink:href="#DejaVuSans-74" x="480.609375"/>
      <use xlink:href="#DejaVuSans-69" x="519.818359"/>
      <use xlink:href="#DejaVuSans-76" x="547.601562"/>
      <use xlink:href="#DejaVuSans-65" x="606.78125"/>
      <use xlink:href="#DejaVuSans-20" x="668.304688"/>
      <use xlink:href="#DejaVuSans-52" x="700.091797"/>
      <use xlink:href="#DejaVuSans-61" x="767.324219"/>
      <use xlink:href="#DejaVuSans-74" x="828.603516"/>
      <use xlink:href="#DejaVuSans-65" x="867.8125"/>
     </g>
    </g>
   </g>
   <g id="matplotlib.axis_2">
    <g id="ytick_1">
     <g id="line2d_7">
      <defs>
       <path id="m9a2cdb7668" d="M 0 0 
L -3.5 0 
" style="stroke: #000000; stroke-width: 0.8"/>
      </defs>
      <g>
       <use xlink:href="#m9a2cdb7668" x="57.6" y="295.488" style="stroke: #000000; stroke-width: 0.8"/>
      </g>
     </g>
     <g id="text_8">
      <!-- 0.0 -->
      <g transform="translate(34.696875 299.287219)scale(0.1 -0.1)">
       <use xlink:href="#DejaVuSans-30"/>
       <use xlink:href="#DejaVuSans-2e" x="63.623047"/>
       <use xlink:href="#DejaVuSans-30" x="95.410156"/>
      </g>
     </g>
    </g>
    <g id="ytick_2">
     <g id="line2d_8">
      <g>
       <use xlink:href="#m9a2cdb7668" x="57.6" y="247.104" style="stroke: #000000; stroke-width: 0.8"/>
      </g>
     </g>
     <g id="text_9">
      <!-- 0.2 -->
      <g transform="translate(34.696875 250.903219)scale(0.1 -0.1)">
       <use xlink:href="#DejaVuSans-30"/>
       <use xlink:href="#DejaVuSans-2e" x="63.623047"/>
       <use xlink:href="#DejaVuSans-32" x="95.410156"/>
      </g>
     </g>
    </g>
    <g id="ytick_3">
     <g id="line2d_9">
      <g>
       <use xlink:href="#m9a2cdb7668" x="57.6" y="198.72" style="stroke: #000000; stroke-width: 0.8"/>
      </g>
     </g>
     <g id="text_10">
      <!-- 0.4 -->
      <g transform="translate(34.696875 202.519219)scale(0.1 -0.1)">
       <use xlink:href="#DejaVuSans-30"/>
       <use xlink:href="#DejaVuSans-2e" x="63.623047"/>
       <use xlink:href="#DejaVuSans-34" x="95.410156"/>
      </g>
     </g>
    </g>
    <g id="ytick_4">
     <g id="line2d_10">
      <g>
       <use xlink:href="#m9a2cdb7668" x="57.6" y="150.336" style="stroke: #000000; stroke-width: 0.8"/>
      </g>
     </g>
     <g id="text_11">
      <!-- 0.6 -->
      <g transform="translate(34.696875 154.135219)scale(0.1 -0.1)">
       <use xlink:href="#DejaVuSans-30"/>
       <use xlink:href="#DejaVuSans-2e" x="63.623047"/>
       <use xlink:href="#DejaVuSans-36" x="95.410156"/>
      </g>
     </g>
    </g>
    <g id="ytick_5">
     <g id="line2d_11">
      <g>
       <use xlink:href="#m9a2cdb7668" x="57.6" y="101.952" style="stroke: #000000; stroke-width: 0.8"/>
      </g>
     </g>
     <g id="text_12">
      <!-- 0.8 -->
      <g transform="translate(34.696875 105.751219)scale(0.1 -0.1)">
       <use xlink:href="#DejaVuSans-30"/>
       <use xlink:href="#DejaVuSans-2e" x="63.623047"/>
       <use xlink:href="#DejaVuSans-38" x="95.410156"/>
      </g>
     </g>
    </g>
    <g id="ytick_6">
     <g id="line2d_12">
      <g>
       <use xlink:href="#m9a2cdb7668" x="57.6" y="53.568" style="stroke: #000000; stroke-width: 0.8"/>
      </g>
     </g>
     <g id="text_13">
      <!-- 1.0 -->
      <g transform="translate(34.696875 57.367219)scale(0.1 -0.1)">
       <use xlink:href="#DejaVuSans-31"/>
       <use xlink:href="#DejaVuSans-2e" x="63.623047"/>
       <use xlink:href="#DejaVuSans-30" x="95.410156"/>
      </g>
     </g>
    </g>
    <g id="text_14">
     <!-- True Positive Rate -->
     <g transform="translate(28.617187 219.057687)rotate(-90)scale(0.1 -0.1)">
      <defs>
       <path id="DejaVuSans-54" d="M -19 4666 
L 3928 4666 
L 3928 4134 
L 2272 4134 
L 2272 0 
L 1638 0 
L 1638 4134 
L -19 4134 
L -19 4666 
z
" transform="scale(0.015625)"/>
       <path id="DejaVuSans-72" d="M 2631 2963 
Q 2534 3019 2420 3045 
Q 2306 3072 2169 3072 
Q 1681 3072 1420 2755 
Q 1159 2438 1159 1844 
L 1159 0 
L 581 0 
L 581 3500 
L 1159 3500 
L 1159 2956 
Q 1341 3275 1631 3429 
Q 1922 3584 2338 3584 
Q 2397 3584 2469 3576 
Q 2541 3569 2628 3553 
L 2631 2963 
z
" transform="scale(0.015625)"/>
       <path id="DejaVuSans-75" d="M 544 1381 
L 544 3500 
L 1119 3500 
L 1119 1403 
Q 1119 906 1312 657 
Q 1506 409 1894 409 
Q 2359 409 2629 706 
Q 2900 1003 2900 1516 
L 2900 3500 
L 3475 3500 
L 3475 0 
L 2900 0 
L 2900 538 
Q 2691 219 2414 64 
Q 2138 -91 1772 -91 
Q 1169 -91 856 284 
Q 544 659 544 1381 
z
M 1991 3584 
L 1991 3584 
z
" transform="scale(0.015625)"/>
      </defs>
      <use xlink:href="#DejaVuSans-54"/>
      <use xlink:href="#DejaVuSans-72" x="46.333984"/>
      <use xlink:href="#DejaVuSans-75" x="87.447266"/>
      <use xlink:href="#DejaVuSans-65" x="150.826172"/>
      <use xlink:href="#DejaVuSans-20" x="212.349609"/>
      <use xlink:href="#DejaVuSans-50" x="244.136719"/>
      <use xlink:href="#DejaVuSans-6f" x="300.814453"/>
      <use xlink:href="#DejaVuSans-73" x="361.996094"/>
      <use xlink:href="#DejaVuSans-69" x="414.095703"/>
      <use xlink:href="#DejaVuSans-74" x="441.878906"/>
      <use xlink:href="#DejaVuSans-69" x="481.087891"/>
      <use xlink:href="#DejaVuSans-76" x="508.871094"/>
      <use xlink:href="#DejaVuSans-65" x="568.050781"/>
      <use xlink:href="#DejaVuSans-20" x="629.574219"/>
      <use xlink:href="#DejaVuSans-52" x="661.361328"/>
      <use xlink:href="#DejaVuSans-61" x="728.59375"/>
      <use xlink:href="#DejaVuSans-74" x="789.873047"/>
      <use xlink:href="#DejaVuSans-65" x="829.082031"/>
     </g>
    </g>
   </g>
   <g id="line2d_13">
    <path d="M 73.832727 295.488 
L 73.832727 288.239461 
L 73.832727 278.272719 
L 73.832727 268.759011 
L 73.832727 259.698337 
L 73.832727 247.919461 
L 73.832727 241.123955 
L 73.832727 227.532944 
L 73.832727 219.831371 
L 74.161992 205.334292 
L 74.161992 198.99182 
L 74.161992 195.820584 
L 74.161992 187.212944 
L 74.161992 182.682607 
L 74.161992 176.793169 
L 74.161992 174.074966 
L 74.161992 168.638562 
L 74.161992 164.108225 
L 74.161992 160.936989 
L 74.161992 157.312719 
L 74.161992 152.329348 
L 74.326624 147.799011 
L 74.326624 143.268674 
L 74.655888 138.738337 
L 74.655888 131.942831 
L 74.655888 129.677663 
L 74.655888 125.60036 
L 74.82052 122.429124 
L 74.985152 120.163955 
L 74.985152 118.804854 
L 74.985152 117.898787 
L 75.314416 113.821483 
L 75.972945 109.291146 
L 75.972945 106.572944 
L 75.972945 105.213843 
L 76.137577 102.948674 
L 76.631473 99.777438 
L 76.796105 97.965303 
L 77.290002 97.059236 
L 77.454634 95.700135 
L 78.113162 94.794067 
L 78.277795 92.075865 
L 78.607059 91.169798 
L 78.771691 89.357663 
L 78.771691 88.904629 
L 78.771691 86.639461 
L 79.100955 85.733393 
L 79.100955 84.374292 
L 79.265587 82.109124 
L 79.759484 79.843955 
L 80.088748 78.484854 
L 80.418012 78.03182 
L 81.076541 75.766652 
L 81.570437 74.407551 
L 81.735069 73.048449 
L 82.228966 73.048449 
L 82.393598 73.048449 
L 82.722862 71.689348 
L 82.887494 70.783281 
L 83.216758 69.877213 
L 83.875287 68.065079 
L 83.875287 66.705978 
L 84.533815 65.79991 
L 84.863079 65.79991 
L 85.68624 64.893843 
L 87.003297 64.440809 
L 87.332561 64.440809 
L 88.155722 63.987775 
L 88.484986 62.17564 
L 89.143515 60.816539 
L 89.472779 60.363506 
L 90.460572 60.363506 
L 93.42395 58.551371 
L 94.24711 57.645303 
L 95.234903 57.645303 
L 96.222696 56.739236 
L 98.198281 56.739236 
L 101.16166 56.739236 
L 103.631141 56.739236 
L 105.112831 56.739236 
L 107.41768 56.739236 
L 109.064001 56.739236 
L 111.533483 56.739236 
L 114.167597 56.286202 
L 117.295608 55.380135 
L 121.246779 55.380135 
L 124.868685 54.927101 
L 128.655224 54.474067 
L 132.935659 54.021034 
L 138.203887 54.021034 
L 145.447701 54.021034 
L 153.514675 54.021034 
L 163.557234 54.021034 
L 175.740011 54.021034 
L 191.873959 54.021034 
L 213.440767 54.021034 
L 254.598798 54.021034 
L 398.487273 53.568 
" clip-path="url(#pf174862368)" style="fill: none; stroke: #1f77b4; stroke-width: 1.5; stroke-linecap: square"/>
   </g>
   <g id="line2d_14">
    <path d="M 73.832727 295.488 
L 73.832727 291.877254 
L 73.832727 281.045015 
L 73.832727 277.434269 
L 73.832727 255.769791 
L 73.832727 241.326806 
L 73.832727 234.105313 
L 73.832727 212.440836 
L 73.832727 208.83009 
L 73.832727 201.608597 
L 73.832727 190.776358 
L 73.832727 183.554866 
L 73.832727 161.890388 
L 73.832727 151.058149 
L 73.832727 143.836657 
L 73.832727 129.393672 
L 73.965837 114.950687 
L 73.965837 111.33994 
L 74.232056 111.33994 
L 74.232056 96.896955 
L 74.498276 96.896955 
L 74.631385 93.286209 
L 74.631385 89.675463 
L 74.764495 86.064716 
L 74.897605 86.064716 
L 75.030715 78.843224 
L 75.163824 75.232478 
L 75.430044 75.232478 
L 75.696263 71.621731 
L 75.962482 71.621731 
L 76.095592 71.621731 
L 76.628031 71.621731 
L 77.16047 71.621731 
L 77.826018 71.621731 
L 78.890896 68.010985 
L 79.822664 64.400239 
L 81.819309 64.400239 
L 82.617967 60.789493 
L 84.481503 60.789493 
L 85.945709 53.568 
L 89.939 53.568 
L 94.864059 53.568 
L 105.379725 53.568 
L 127.342825 53.568 
L 398.487273 53.568 
" clip-path="url(#pf174862368)" style="fill: none; stroke: #ff7f0e; stroke-width: 1.5; stroke-linecap: square"/>
   </g>
   <g id="line2d_15">
    <path d="M 73.832727 295.488 
L 73.832727 265.248 
L 73.832727 204.768 
L 73.832727 83.808 
L 73.962693 83.808 
L 74.092659 53.568 
L 74.482556 53.568 
L 74.742488 53.568 
L 74.872454 53.568 
L 75.392317 53.568 
L 75.522283 53.568 
L 76.042146 53.568 
L 76.951906 53.568 
L 79.29129 53.568 
L 82.410469 53.568 
L 95.796946 53.568 
L 398.487273 53.568 
" clip-path="url(#pf174862368)" style="fill: none; stroke: #2ca02c; stroke-width: 1.5; stroke-linecap: square"/>
   </g>
   <g id="line2d_16">
    <path d="M 73.832727 295.488 
L 73.832727 292.70731 
L 73.832727 289.926621 
L 73.832727 284.365241 
L 73.832727 281.584552 
L 73.832727 273.242483 
L 73.832727 267.681103 
L 73.832727 259.339034 
L 73.832727 245.435586 
L 73.832727 239.874207 
L 73.832727 234.312828 
L 73.832727 225.970759 
L 73.832727 223.190069 
L 73.832727 217.62869 
L 73.832727 214.848 
L 73.832727 198.163862 
L 73.832727 178.699034 
L 73.832727 167.576276 
L 73.832727 164.795586 
L 73.966938 164.795586 
L 73.966938 159.234207 
L 73.966938 150.892138 
L 73.966938 139.769379 
L 73.966938 136.98869 
L 74.235358 131.42731 
L 74.369568 131.42731 
L 74.503778 128.646621 
L 74.503778 123.085241 
L 74.637989 117.523862 
L 74.772199 114.743172 
L 74.906409 114.743172 
L 75.040619 111.962483 
L 75.040619 109.181793 
L 75.30904 109.181793 
L 75.57746 103.620414 
L 75.845881 98.059034 
L 76.114301 98.059034 
L 76.248511 98.059034 
L 76.382722 92.497655 
L 76.785352 92.497655 
L 77.456403 89.716966 
L 77.859034 89.716966 
L 78.395875 89.716966 
L 78.798506 89.716966 
L 79.737977 89.716966 
L 80.811659 84.155586 
L 81.21429 84.155586 
L 82.287972 84.155586 
L 82.959023 81.374897 
L 83.898494 75.813517 
L 85.777438 73.032828 
L 87.38796 73.032828 
L 89.401114 70.252138 
L 93.293211 70.252138 
L 96.916887 70.252138 
L 102.687927 64.690759 
L 111.545802 64.690759 
L 122.685251 56.34869 
L 138.387848 56.34869 
L 159.861484 56.34869 
L 196.098246 56.34869 
L 398.487273 53.568 
" clip-path="url(#pf174862368)" style="fill: none; stroke: #d62728; stroke-width: 1.5; stroke-linecap: square"/>
   </g>
   <g id="line2d_17">
    <path d="M 73.832727 295.488 
L 73.832727 269.829818 
L 73.832727 247.837091 
L 73.832727 240.506182 
L 73.832727 225.844364 
L 73.832727 207.517091 
L 73.832727 185.524364 
L 73.832727 178.193455 
L 73.832727 167.197091 
L 73.832727 159.866182 
L 73.832727 145.204364 
L 73.832727 137.873455 
L 73.832727 130.542545 
L 73.832727 123.211636 
L 73.832727 101.218909 
L 73.965782 97.553455 
L 73.965782 82.891636 
L 73.965782 75.560727 
L 73.965782 71.895273 
L 74.098838 71.895273 
L 74.098838 60.898909 
L 74.231893 60.898909 
L 74.231893 57.233455 
L 74.364948 57.233455 
L 74.364948 53.568 
L 74.897168 53.568 
L 75.296334 53.568 
L 76.49383 53.568 
L 77.026051 53.568 
L 78.356602 53.568 
L 78.489657 53.568 
L 79.154933 53.568 
L 80.352429 53.568 
L 82.082146 53.568 
L 84.211028 53.568 
L 88.468793 53.568 
L 97.649598 53.568 
L 123.32924 53.568 
L 398.487273 53.568 
" clip-path="url(#pf174862368)" style="fill: none; stroke: #9467bd; stroke-width: 1.5; stroke-linecap: square"/>
   </g>
   <g id="line2d_18">
    <path d="M 73.832727 295.488 
L 73.832727 137.037474 
L 73.832727 103.083789 
L 73.832727 93.180632 
L 73.832727 87.521684 
L 73.832727 81.862737 
L 73.832727 77.618526 
L 73.832727 74.789053 
L 73.832727 67.715368 
L 73.832727 64.885895 
L 73.832727 63.471158 
L 73.832727 60.641684 
L 73.971766 60.641684 
L 73.971766 59.226947 
L 74.110804 59.226947 
L 74.110804 54.982737 
L 74.388881 54.982737 
L 74.666957 54.982737 
L 74.666957 53.568 
L 75.223111 53.568 
L 75.501187 53.568 
L 75.640226 53.568 
L 75.918303 53.568 
L 76.057341 53.568 
L 76.613494 53.568 
L 76.752533 53.568 
L 77.308686 53.568 
L 79.255223 53.568 
L 79.950415 53.568 
L 82.87022 53.568 
L 88.848869 53.568 
L 398.487273 53.568 
" clip-path="url(#pf174862368)" style="fill: none; stroke: #8c564b; stroke-width: 1.5; stroke-linecap: square"/>
   </g>
   <g id="line2d_19">
    <path d="M 73.832727 295.488 
L 74.004593 234.713932 
L 74.004593 197.073219 
L 74.004593 177.07659 
L 74.004593 159.040415 
L 74.004593 146.493511 
L 74.004593 124.536428 
L 74.004593 115.51834 
L 74.004593 109.244888 
L 74.004593 103.755618 
L 74.004593 99.050528 
L 74.004593 96.697984 
L 74.176459 93.169167 
L 74.176459 91.208713 
L 74.176459 88.856169 
L 74.176459 86.111533 
L 74.176459 84.935261 
L 74.520191 84.151079 
L 74.520191 82.974807 
L 74.520191 80.230172 
L 74.520191 78.269718 
L 74.520191 77.485536 
L 74.692056 75.525083 
L 74.692056 74.740901 
L 74.692056 72.780447 
L 74.863922 71.996266 
L 74.863922 71.604175 
L 74.863922 69.643721 
L 74.863922 67.291177 
L 75.207654 67.291177 
L 75.207654 66.114904 
L 75.551386 66.114904 
L 75.551386 65.722814 
L 75.723251 65.330723 
L 75.723251 64.546541 
L 75.895117 64.546541 
L 76.066983 63.76236 
L 76.410715 63.370269 
L 76.410715 62.978178 
L 76.410715 62.193997 
L 76.58258 61.801906 
L 76.58258 61.409815 
L 76.754446 61.409815 
L 77.098178 61.017724 
L 77.270044 60.625634 
L 77.270044 60.233543 
L 77.957507 60.233543 
L 78.129373 58.66518 
L 78.301239 58.273089 
L 78.988702 57.488908 
L 79.676165 57.488908 
L 79.848031 57.096817 
L 80.535494 57.096817 
L 80.879226 56.704726 
L 81.051092 56.704726 
L 81.394824 56.704726 
L 81.566689 56.704726 
L 81.566689 56.312635 
L 81.738555 55.920545 
L 81.910421 55.920545 
L 82.426019 55.920545 
L 83.113482 55.920545 
L 83.629079 55.528454 
L 84.316543 55.136363 
L 84.488408 54.352182 
L 85.519603 54.352182 
L 86.550798 54.352182 
L 87.410128 54.352182 
L 88.613188 53.960091 
L 89.816249 53.960091 
L 90.503712 53.960091 
L 91.534907 53.960091 
L 92.737968 53.960091 
L 94.628492 53.960091 
L 95.831553 53.960091 
L 96.862748 53.960091 
L 98.581406 53.960091 
L 102.190589 53.960091 
L 104.59671 53.960091 
L 107.862161 53.960091 
L 110.955746 53.960091 
L 114.90866 53.960091 
L 120.064634 53.960091 
L 127.454865 53.960091 
L 138.454278 53.960091 
L 154.094068 53.960091 
L 186.576709 53.960091 
L 398.487273 53.568 
" clip-path="url(#pf174862368)" style="fill: none; stroke: #e377c2; stroke-width: 1.5; stroke-linecap: square"/>
   </g>
   <g id="line2d_20">
    <path d="M 73.832727 295.488 
L 73.832727 206.359579 
L 73.832727 180.894316 
L 73.832727 149.062737 
L 73.832727 142.696421 
L 73.832727 117.231158 
L 73.832727 98.132211 
L 73.964273 98.132211 
L 73.964273 66.300632 
L 74.095818 59.934316 
L 74.095818 53.568 
L 74.490455 53.568 
L 74.753546 53.568 
L 75.148183 53.568 
L 75.411274 53.568 
L 76.463639 53.568 
L 77.384459 53.568 
L 79.883825 53.568 
L 83.698647 53.568 
L 94.353841 53.568 
L 398.487273 53.568 
" clip-path="url(#pf174862368)" style="fill: none; stroke: #7f7f7f; stroke-width: 1.5; stroke-linecap: square"/>
   </g>
   <g id="line2d_21">
    <path d="M 73.832727 295.488 
L 73.832727 245.57732 
L 73.832727 205.648777 
L 73.832727 182.748583 
L 73.832727 168.656155 
L 73.832727 155.150913 
L 73.832727 145.755961 
L 73.832727 138.709748 
L 73.832727 130.489165 
L 73.832727 121.681398 
L 73.832727 118.158291 
L 73.832727 113.460816 
L 73.832727 108.176155 
L 73.832727 100.542757 
L 73.832727 98.781204 
L 73.832727 95.845282 
L 73.832727 94.083728 
L 73.832727 88.799068 
L 73.832727 86.45033 
L 73.832727 79.404117 
L 73.832727 77.642563 
L 73.832727 75.293825 
L 73.832727 73.532272 
L 73.832727 72.945087 
L 73.832727 71.770718 
L 73.832727 70.009165 
L 73.832727 67.660427 
L 73.832727 64.13732 
L 73.987768 64.13732 
L 73.987768 62.962951 
L 74.142808 62.962951 
L 74.142808 62.375767 
L 74.452889 62.375767 
L 74.452889 61.788583 
L 74.607929 61.788583 
L 74.76297 60.614214 
L 74.91801 60.027029 
L 74.91801 58.265476 
L 75.07305 58.265476 
L 75.07305 57.678291 
L 75.228091 57.678291 
L 75.538171 57.678291 
L 76.003293 57.678291 
L 76.623454 57.091107 
L 76.933535 57.091107 
L 77.708737 57.091107 
L 77.708737 56.503922 
L 78.018817 56.503922 
L 78.483939 56.503922 
L 79.1041 56.503922 
L 79.414181 56.503922 
L 79.879302 56.503922 
L 80.189383 56.503922 
L 81.274665 56.503922 
L 81.739786 56.503922 
L 82.514988 56.503922 
L 84.375473 56.503922 
L 85.925877 56.503922 
L 87.32124 56.503922 
L 88.561563 55.916738 
L 90.577088 55.329553 
L 93.057734 54.742369 
L 95.228299 54.742369 
L 98.639187 54.742369 
L 101.274874 54.742369 
L 106.546246 54.742369 
L 113.212983 54.742369 
L 122.050284 54.742369 
L 137.244241 54.742369 
L 172.283365 54.742369 
L 398.487273 53.568 
" clip-path="url(#pf174862368)" style="fill: none; stroke: #bcbd22; stroke-width: 1.5; stroke-linecap: square"/>
   </g>
   <g id="line2d_22">
    <path d="M 73.832727 295.488 
L 73.832727 265.248 
L 73.832727 204.768 
L 73.832727 144.288 
L 73.832727 83.808 
L 74.482556 83.808 
L 74.612522 53.568 
L 75.002419 53.568 
L 75.392317 53.568 
L 75.652248 53.568 
L 76.172112 53.568 
L 77.471769 53.568 
L 80.980846 53.568 
L 93.847459 53.568 
L 398.487273 53.568 
" clip-path="url(#pf174862368)" style="fill: none; stroke: #17becf; stroke-width: 1.5; stroke-linecap: square"/>
   </g>
   <g id="line2d_23">
    <path d="M 73.832727 295.488 
L 73.832727 223.808 
L 73.832727 190.954667 
L 73.832727 161.088 
L 73.832727 152.128 
L 73.832727 146.154667 
L 73.832727 137.194667 
L 73.832727 131.221333 
L 73.832727 128.234667 
L 73.832727 110.314667 
L 73.832727 98.368 
L 73.832727 92.394667 
L 73.832727 77.461333 
L 73.966605 77.461333 
L 73.966605 68.501333 
L 74.100484 68.501333 
L 74.100484 65.514667 
L 74.903753 65.514667 
L 75.171509 65.514667 
L 75.171509 62.528 
L 75.439265 62.528 
L 75.573143 59.541333 
L 76.108656 59.541333 
L 76.242534 56.554667 
L 76.644169 56.554667 
L 76.911925 56.554667 
L 77.447438 56.554667 
L 78.250707 56.554667 
L 79.321732 56.554667 
L 80.258879 53.568 
L 84.007468 53.568 
L 87.889934 53.568 
L 98.466309 53.568 
L 398.487273 53.568 
" clip-path="url(#pf174862368)" style="fill: none; stroke: #1f77b4; stroke-width: 1.5; stroke-linecap: square"/>
   </g>
   <g id="line2d_24">
    <path d="M 73.832727 295.488 
L 73.832727 290.285419 
L 73.832727 285.082839 
L 73.832727 282.481548 
L 73.832727 266.873806 
L 73.832727 256.468645 
L 73.832727 253.867355 
L 73.832727 243.462194 
L 73.832727 238.259613 
L 73.832727 235.658323 
L 73.832727 225.253161 
L 73.832727 214.848 
L 73.832727 207.044129 
L 73.832727 181.031226 
L 73.832727 170.626065 
L 73.832727 157.619613 
L 73.832727 152.417032 
L 73.832727 126.404129 
L 73.832727 118.600258 
L 73.832727 105.593806 
L 73.832727 100.391226 
L 73.832727 92.587355 
L 73.832727 87.384774 
L 73.832727 79.580903 
L 73.832727 71.777032 
L 73.967271 69.175742 
L 73.967271 66.574452 
L 74.101815 66.574452 
L 74.101815 61.371871 
L 74.236359 61.371871 
L 74.370903 58.770581 
L 74.505447 58.770581 
L 74.639991 56.16929 
L 75.447255 56.16929 
L 75.581799 56.16929 
L 76.119974 56.16929 
L 76.389062 53.568 
L 77.465414 53.568 
L 77.869046 53.568 
L 78.676309 53.568 
L 79.618117 53.568 
L 82.039908 53.568 
L 84.999875 53.568 
L 89.843457 53.568 
L 97.10883 53.568 
L 108.410522 53.568 
L 138.68291 53.568 
L 398.487273 53.568 
" clip-path="url(#pf174862368)" style="fill: none; stroke: #ff7f0e; stroke-width: 1.5; stroke-linecap: square"/>
   </g>
   <g id="line2d_25">
    <path d="M 73.832727 295.488 
L 73.832727 208.584699 
L 73.832727 166.307417 
L 73.832727 142.820039 
L 73.832727 128.727612 
L 73.832727 112.286447 
L 73.832727 100.542757 
L 73.832727 95.845282 
L 73.832727 86.45033 
L 73.832727 84.101592 
L 73.832727 77.055379 
L 73.832727 72.357903 
L 73.832727 58.265476 
L 73.967831 58.265476 
L 73.967831 55.916738 
L 74.102935 55.916738 
L 74.373143 55.916738 
L 74.508247 55.916738 
L 74.778454 55.916738 
L 75.048662 55.916738 
L 75.31887 55.916738 
L 75.724181 55.916738 
L 76.3997 55.916738 
L 77.480531 55.916738 
L 79.642193 55.916738 
L 83.965516 55.916738 
L 95.854654 55.916738 
L 398.487273 53.568 
" clip-path="url(#pf174862368)" style="fill: none; stroke: #2ca02c; stroke-width: 1.5; stroke-linecap: square"/>
   </g>
   <g id="line2d_26">
    <path d="M 73.832727 295.488 
L 73.832727 286.730715 
L 73.832727 273.594787 
L 73.832727 262.648181 
L 73.832727 256.080217 
L 73.832727 240.754968 
L 73.832727 230.903023 
L 73.832727 219.956416 
L 73.832727 217.767095 
L 73.832727 211.199131 
L 73.832727 205.725828 
L 73.832727 196.968543 
L 73.832727 193.684561 
L 73.974808 191.49524 
L 73.974808 178.359312 
L 73.974808 167.412706 
L 73.974808 163.034063 
L 73.974808 157.56076 
L 73.974808 154.276778 
L 73.974808 153.182118 
L 73.974808 147.708814 
L 73.974808 145.519493 
L 73.974808 136.762208 
L 73.974808 131.288905 
L 73.974808 128.004923 
L 73.974808 123.626281 
L 73.974808 110.490353 
L 73.974808 108.301032 
L 73.974808 105.01705 
L 73.974808 103.922389 
L 73.974808 99.543747 
L 74.116889 98.449086 
L 74.25897 96.259765 
L 74.25897 94.070443 
L 74.40105 90.786462 
L 74.40105 88.59714 
L 74.543131 86.407819 
L 74.543131 79.839855 
L 74.827293 76.555873 
L 74.827293 75.461213 
L 74.969373 75.461213 
L 74.969373 74.366552 
L 74.969373 72.177231 
L 75.253535 69.98791 
L 75.253535 65.609267 
L 75.253535 63.419946 
L 75.537696 63.419946 
L 75.963939 63.419946 
L 76.390181 61.230624 
L 76.390181 60.135964 
L 76.816423 60.135964 
L 77.242666 60.135964 
L 77.526827 57.946643 
L 77.668908 57.946643 
L 77.953069 57.946643 
L 78.805554 57.946643 
L 78.947635 57.946643 
L 79.231796 56.851982 
L 79.373877 55.757321 
L 80.226362 55.757321 
L 81.363008 55.757321 
L 83.067977 55.757321 
L 83.920462 54.662661 
L 84.915027 53.568 
L 85.767511 53.568 
L 88.609127 53.568 
L 90.172015 53.568 
L 91.16658 53.568 
L 92.729469 53.568 
L 95.002761 53.568 
L 97.986457 53.568 
L 107.363788 53.568 
L 112.904937 53.568 
L 119.440652 53.568 
L 129.386306 53.568 
L 146.151836 53.568 
L 176.983362 53.568 
L 398.487273 53.568 
" clip-path="url(#pf174862368)" style="fill: none; stroke: #d62728; stroke-width: 1.5; stroke-linecap: square"/>
   </g>
   <g id="patch_3">
    <path d="M 57.6 307.584 
L 57.6 41.472 
" style="fill: none; stroke: #000000; stroke-width: 0.8; stroke-linejoin: miter; stroke-linecap: square"/>
   </g>
   <g id="patch_4">
    <path d="M 414.72 307.584 
L 414.72 41.472 
" style="fill: none; stroke: #000000; stroke-width: 0.8; stroke-linejoin: miter; stroke-linecap: square"/>
   </g>
   <g id="patch_5">
    <path d="M 57.6 307.584 
L 414.72 307.584 
" style="fill: none; stroke: #000000; stroke-width: 0.8; stroke-linejoin: miter; stroke-linecap: square"/>
   </g>
   <g id="patch_6">
    <path d="M 57.6 41.472 
L 414.72 41.472 
" style="fill: none; stroke: #000000; stroke-width: 0.8; stroke-linejoin: miter; stroke-linecap: square"/>
   </g>
   <g id="text_15">
    <!-- ROC Curves for Each Class -->
    <g transform="translate(156.01875 35.472)scale(0.12 -0.12)">
     <defs>
      <path id="DejaVuSans-4f" d="M 2522 4238 
Q 1834 4238 1429 3725 
Q 1025 3213 1025 2328 
Q 1025 1447 1429 934 
Q 1834 422 2522 422 
Q 3209 422 3611 934 
Q 4013 1447 4013 2328 
Q 4013 3213 3611 3725 
Q 3209 4238 2522 4238 
z
M 2522 4750 
Q 3503 4750 4090 4092 
Q 4678 3434 4678 2328 
Q 4678 1225 4090 567 
Q 3503 -91 2522 -91 
Q 1538 -91 948 565 
Q 359 1222 359 2328 
Q 359 3434 948 4092 
Q 1538 4750 2522 4750 
z
" transform="scale(0.015625)"/>
      <path id="DejaVuSans-43" d="M 4122 4306 
L 4122 3641 
Q 3803 3938 3442 4084 
Q 3081 4231 2675 4231 
Q 1875 4231 1450 3742 
Q 1025 3253 1025 2328 
Q 1025 1406 1450 917 
Q 1875 428 2675 428 
Q 3081 428 3442 575 
Q 3803 722 4122 1019 
L 4122 359 
Q 3791 134 3420 21 
Q 3050 -91 2638 -91 
Q 1578 -91 968 557 
Q 359 1206 359 2328 
Q 359 3453 968 4101 
Q 1578 4750 2638 4750 
Q 3056 4750 3426 4639 
Q 3797 4528 4122 4306 
z
" transform="scale(0.015625)"/>
      <path id="DejaVuSans-66" d="M 2375 4863 
L 2375 4384 
L 1825 4384 
Q 1516 4384 1395 4259 
Q 1275 4134 1275 3809 
L 1275 3500 
L 2222 3500 
L 2222 3053 
L 1275 3053 
L 1275 0 
L 697 0 
L 697 3053 
L 147 3053 
L 147 3500 
L 697 3500 
L 697 3744 
Q 697 4328 969 4595 
Q 1241 4863 1831 4863 
L 2375 4863 
z
" transform="scale(0.015625)"/>
      <path id="DejaVuSans-45" d="M 628 4666 
L 3578 4666 
L 3578 4134 
L 1259 4134 
L 1259 2753 
L 3481 2753 
L 3481 2222 
L 1259 2222 
L 1259 531 
L 3634 531 
L 3634 0 
L 628 0 
L 628 4666 
z
" transform="scale(0.015625)"/>
      <path id="DejaVuSans-63" d="M 3122 3366 
L 3122 2828 
Q 2878 2963 2633 3030 
Q 2388 3097 2138 3097 
Q 1578 3097 1268 2742 
Q 959 2388 959 1747 
Q 959 1106 1268 751 
Q 1578 397 2138 397 
Q 2388 397 2633 464 
Q 2878 531 3122 666 
L 3122 134 
Q 2881 22 2623 -34 
Q 2366 -91 2075 -91 
Q 1284 -91 818 406 
Q 353 903 353 1747 
Q 353 2603 823 3093 
Q 1294 3584 2113 3584 
Q 2378 3584 2631 3529 
Q 2884 3475 3122 3366 
z
" transform="scale(0.015625)"/>
      <path id="DejaVuSans-68" d="M 3513 2113 
L 3513 0 
L 2938 0 
L 2938 2094 
Q 2938 2591 2744 2837 
Q 2550 3084 2163 3084 
Q 1697 3084 1428 2787 
Q 1159 2491 1159 1978 
L 1159 0 
L 581 0 
L 581 4863 
L 1159 4863 
L 1159 2956 
Q 1366 3272 1645 3428 
Q 1925 3584 2291 3584 
Q 2894 3584 3203 3211 
Q 3513 2838 3513 2113 
z
" transform="scale(0.015625)"/>
     </defs>
     <use xlink:href="#DejaVuSans-52"/>
     <use xlink:href="#DejaVuSans-4f" x="69.482422"/>
     <use xlink:href="#DejaVuSans-43" x="148.193359"/>
     <use xlink:href="#DejaVuSans-20" x="218.017578"/>
     <use xlink:href="#DejaVuSans-43" x="249.804688"/>
     <use xlink:href="#DejaVuSans-75" x="319.628906"/>
     <use xlink:href="#DejaVuSans-72" x="383.007812"/>
     <use xlink:href="#DejaVuSans-76" x="424.121094"/>
     <use xlink:href="#DejaVuSans-65" x="483.300781"/>
     <use xlink:href="#DejaVuSans-73" x="544.824219"/>
     <use xlink:href="#DejaVuSans-20" x="596.923828"/>
     <use xlink:href="#DejaVuSans-66" x="628.710938"/>
     <use xlink:href="#DejaVuSans-6f" x="663.916016"/>
     <use xlink:href="#DejaVuSans-72" x="725.097656"/>
     <use xlink:href="#DejaVuSans-20" x="766.210938"/>
     <use xlink:href="#DejaVuSans-45" x="797.998047"/>
     <use xlink:href="#DejaVuSans-61" x="861.181641"/>
     <use xlink:href="#DejaVuSans-63" x="922.460938"/>
     <use xlink:href="#DejaVuSans-68" x="977.441406"/>
     <use xlink:href="#DejaVuSans-20" x="1040.820312"/>
     <use xlink:href="#DejaVuSans-43" x="1072.607422"/>
     <use xlink:href="#DejaVuSans-6c" x="1142.431641"/>
     <use xlink:href="#DejaVuSans-61" x="1170.214844"/>
     <use xlink:href="#DejaVuSans-73" x="1231.494141"/>
     <use xlink:href="#DejaVuSans-73" x="1283.59375"/>
    </g>
   </g>
   <g id="legend_1">
    <g id="patch_7">
     <path d="M 264.384063 302.584 
L 407.72 302.584 
Q 409.72 302.584 409.72 300.584 
L 409.72 96.09025 
Q 409.72 94.09025 407.72 94.09025 
L 264.384063 94.09025 
Q 262.384063 94.09025 262.384063 96.09025 
L 262.384063 300.584 
Q 262.384063 302.584 264.384063 302.584 
z
" style="fill: #ffffff; opacity: 0.8; stroke: #cccccc; stroke-linejoin: miter"/>
    </g>
    <g id="line2d_27">
     <path d="M 266.384063 102.188688 
L 276.384063 102.188688 
L 286.384063 102.188688 
" style="fill: none; stroke: #1f77b4; stroke-width: 1.5; stroke-linecap: square"/>
    </g>
    <g id="text_16">
     <!-- Class 0 (AUC = 0.99) -->
     <g transform="translate(294.384063 105.688688)scale(0.1 -0.1)">
      <defs>
       <path id="DejaVuSans-28" d="M 1984 4856 
Q 1566 4138 1362 3434 
Q 1159 2731 1159 2009 
Q 1159 1288 1364 580 
Q 1569 -128 1984 -844 
L 1484 -844 
Q 1016 -109 783 600 
Q 550 1309 550 2009 
Q 550 2706 781 3412 
Q 1013 4119 1484 4856 
L 1984 4856 
z
" transform="scale(0.015625)"/>
       <path id="DejaVuSans-41" d="M 2188 4044 
L 1331 1722 
L 3047 1722 
L 2188 4044 
z
M 1831 4666 
L 2547 4666 
L 4325 0 
L 3669 0 
L 3244 1197 
L 1141 1197 
L 716 0 
L 50 0 
L 1831 4666 
z
" transform="scale(0.015625)"/>
       <path id="DejaVuSans-55" d="M 556 4666 
L 1191 4666 
L 1191 1831 
Q 1191 1081 1462 751 
Q 1734 422 2344 422 
Q 2950 422 3222 751 
Q 3494 1081 3494 1831 
L 3494 4666 
L 4128 4666 
L 4128 1753 
Q 4128 841 3676 375 
Q 3225 -91 2344 -91 
Q 1459 -91 1007 375 
Q 556 841 556 1753 
L 556 4666 
z
" transform="scale(0.015625)"/>
       <path id="DejaVuSans-3d" d="M 678 2906 
L 4684 2906 
L 4684 2381 
L 678 2381 
L 678 2906 
z
M 678 1631 
L 4684 1631 
L 4684 1100 
L 678 1100 
L 678 1631 
z
" transform="scale(0.015625)"/>
       <path id="DejaVuSans-39" d="M 703 97 
L 703 672 
Q 941 559 1184 500 
Q 1428 441 1663 441 
Q 2288 441 2617 861 
Q 2947 1281 2994 2138 
Q 2813 1869 2534 1725 
Q 2256 1581 1919 1581 
Q 1219 1581 811 2004 
Q 403 2428 403 3163 
Q 403 3881 828 4315 
Q 1253 4750 1959 4750 
Q 2769 4750 3195 4129 
Q 3622 3509 3622 2328 
Q 3622 1225 3098 567 
Q 2575 -91 1691 -91 
Q 1453 -91 1209 -44 
Q 966 3 703 97 
z
M 1959 2075 
Q 2384 2075 2632 2365 
Q 2881 2656 2881 3163 
Q 2881 3666 2632 3958 
Q 2384 4250 1959 4250 
Q 1534 4250 1286 3958 
Q 1038 3666 1038 3163 
Q 1038 2656 1286 2365 
Q 1534 2075 1959 2075 
z
" transform="scale(0.015625)"/>
       <path id="DejaVuSans-29" d="M 513 4856 
L 1013 4856 
Q 1481 4119 1714 3412 
Q 1947 2706 1947 2009 
Q 1947 1309 1714 600 
Q 1481 -109 1013 -844 
L 513 -844 
Q 928 -128 1133 580 
Q 1338 1288 1338 2009 
Q 1338 2731 1133 3434 
Q 928 4138 513 4856 
z
" transform="scale(0.015625)"/>
      </defs>
      <use xlink:href="#DejaVuSans-43"/>
      <use xlink:href="#DejaVuSans-6c" x="69.824219"/>
      <use xlink:href="#DejaVuSans-61" x="97.607422"/>
      <use xlink:href="#DejaVuSans-73" x="158.886719"/>
      <use xlink:href="#DejaVuSans-73" x="210.986328"/>
      <use xlink:href="#DejaVuSans-20" x="263.085938"/>
      <use xlink:href="#DejaVuSans-30" x="294.873047"/>
      <use xlink:href="#DejaVuSans-20" x="358.496094"/>
      <use xlink:href="#DejaVuSans-28" x="390.283203"/>
      <use xlink:href="#DejaVuSans-41" x="429.296875"/>
      <use xlink:href="#DejaVuSans-55" x="497.705078"/>
      <use xlink:href="#DejaVuSans-43" x="570.898438"/>
      <use xlink:href="#DejaVuSans-20" x="640.722656"/>
      <use xlink:href="#DejaVuSans-3d" x="672.509766"/>
      <use xlink:href="#DejaVuSans-20" x="756.298828"/>
      <use xlink:href="#DejaVuSans-30" x="788.085938"/>
      <use xlink:href="#DejaVuSans-2e" x="851.708984"/>
      <use xlink:href="#DejaVuSans-39" x="883.496094"/>
      <use xlink:href="#DejaVuSans-39" x="947.119141"/>
      <use xlink:href="#DejaVuSans-29" x="1010.742188"/>
     </g>
    </g>
    <g id="line2d_28">
     <path d="M 266.384063 116.866813 
L 276.384063 116.866813 
L 286.384063 116.866813 
" style="fill: none; stroke: #ff7f0e; stroke-width: 1.5; stroke-linecap: square"/>
    </g>
    <g id="text_17">
     <!-- Class 1 (AUC = 1.00) -->
     <g transform="translate(294.384063 120.366813)scale(0.1 -0.1)">
      <use xlink:href="#DejaVuSans-43"/>
      <use xlink:href="#DejaVuSans-6c" x="69.824219"/>
      <use xlink:href="#DejaVuSans-61" x="97.607422"/>
      <use xlink:href="#DejaVuSans-73" x="158.886719"/>
      <use xlink:href="#DejaVuSans-73" x="210.986328"/>
      <use xlink:href="#DejaVuSans-20" x="263.085938"/>
      <use xlink:href="#DejaVuSans-31" x="294.873047"/>
      <use xlink:href="#DejaVuSans-20" x="358.496094"/>
      <use xlink:href="#DejaVuSans-28" x="390.283203"/>
      <use xlink:href="#DejaVuSans-41" x="429.296875"/>
      <use xlink:href="#DejaVuSans-55" x="497.705078"/>
      <use xlink:href="#DejaVuSans-43" x="570.898438"/>
      <use xlink:href="#DejaVuSans-20" x="640.722656"/>
      <use xlink:href="#DejaVuSans-3d" x="672.509766"/>
      <use xlink:href="#DejaVuSans-20" x="756.298828"/>
      <use xlink:href="#DejaVuSans-31" x="788.085938"/>
      <use xlink:href="#DejaVuSans-2e" x="851.708984"/>
      <use xlink:href="#DejaVuSans-30" x="883.496094"/>
      <use xlink:href="#DejaVuSans-30" x="947.119141"/>
      <use xlink:href="#DejaVuSans-29" x="1010.742188"/>
     </g>
    </g>
    <g id="line2d_29">
     <path d="M 266.384063 131.544938 
L 276.384063 131.544938 
L 286.384063 131.544938 
" style="fill: none; stroke: #2ca02c; stroke-width: 1.5; stroke-linecap: square"/>
    </g>
    <g id="text_18">
     <!-- Class 2 (AUC = 1.00) -->
     <g transform="translate(294.384063 135.044938)scale(0.1 -0.1)">
      <use xlink:href="#DejaVuSans-43"/>
      <use xlink:href="#DejaVuSans-6c" x="69.824219"/>
      <use xlink:href="#DejaVuSans-61" x="97.607422"/>
      <use xlink:href="#DejaVuSans-73" x="158.886719"/>
      <use xlink:href="#DejaVuSans-73" x="210.986328"/>
      <use xlink:href="#DejaVuSans-20" x="263.085938"/>
      <use xlink:href="#DejaVuSans-32" x="294.873047"/>
      <use xlink:href="#DejaVuSans-20" x="358.496094"/>
      <use xlink:href="#DejaVuSans-28" x="390.283203"/>
      <use xlink:href="#DejaVuSans-41" x="429.296875"/>
      <use xlink:href="#DejaVuSans-55" x="497.705078"/>
      <use xlink:href="#DejaVuSans-43" x="570.898438"/>
      <use xlink:href="#DejaVuSans-20" x="640.722656"/>
      <use xlink:href="#DejaVuSans-3d" x="672.509766"/>
      <use xlink:href="#DejaVuSans-20" x="756.298828"/>
      <use xlink:href="#DejaVuSans-31" x="788.085938"/>
      <use xlink:href="#DejaVuSans-2e" x="851.708984"/>
      <use xlink:href="#DejaVuSans-30" x="883.496094"/>
      <use xlink:href="#DejaVuSans-30" x="947.119141"/>
      <use xlink:href="#DejaVuSans-29" x="1010.742188"/>
     </g>
    </g>
    <g id="line2d_30">
     <path d="M 266.384063 146.223063 
L 276.384063 146.223063 
L 286.384063 146.223063 
" style="fill: none; stroke: #d62728; stroke-width: 1.5; stroke-linecap: square"/>
    </g>
    <g id="text_19">
     <!-- Class 3 (AUC = 0.98) -->
     <g transform="translate(294.384063 149.723063)scale(0.1 -0.1)">
      <defs>
       <path id="DejaVuSans-33" d="M 2597 2516 
Q 3050 2419 3304 2112 
Q 3559 1806 3559 1356 
Q 3559 666 3084 287 
Q 2609 -91 1734 -91 
Q 1441 -91 1130 -33 
Q 819 25 488 141 
L 488 750 
Q 750 597 1062 519 
Q 1375 441 1716 441 
Q 2309 441 2620 675 
Q 2931 909 2931 1356 
Q 2931 1769 2642 2001 
Q 2353 2234 1838 2234 
L 1294 2234 
L 1294 2753 
L 1863 2753 
Q 2328 2753 2575 2939 
Q 2822 3125 2822 3475 
Q 2822 3834 2567 4026 
Q 2313 4219 1838 4219 
Q 1578 4219 1281 4162 
Q 984 4106 628 3988 
L 628 4550 
Q 988 4650 1302 4700 
Q 1616 4750 1894 4750 
Q 2613 4750 3031 4423 
Q 3450 4097 3450 3541 
Q 3450 3153 3228 2886 
Q 3006 2619 2597 2516 
z
" transform="scale(0.015625)"/>
      </defs>
      <use xlink:href="#DejaVuSans-43"/>
      <use xlink:href="#DejaVuSans-6c" x="69.824219"/>
      <use xlink:href="#DejaVuSans-61" x="97.607422"/>
      <use xlink:href="#DejaVuSans-73" x="158.886719"/>
      <use xlink:href="#DejaVuSans-73" x="210.986328"/>
      <use xlink:href="#DejaVuSans-20" x="263.085938"/>
      <use xlink:href="#DejaVuSans-33" x="294.873047"/>
      <use xlink:href="#DejaVuSans-20" x="358.496094"/>
      <use xlink:href="#DejaVuSans-28" x="390.283203"/>
      <use xlink:href="#DejaVuSans-41" x="429.296875"/>
      <use xlink:href="#DejaVuSans-55" x="497.705078"/>
      <use xlink:href="#DejaVuSans-43" x="570.898438"/>
      <use xlink:href="#DejaVuSans-20" x="640.722656"/>
      <use xlink:href="#DejaVuSans-3d" x="672.509766"/>
      <use xlink:href="#DejaVuSans-20" x="756.298828"/>
      <use xlink:href="#DejaVuSans-30" x="788.085938"/>
      <use xlink:href="#DejaVuSans-2e" x="851.708984"/>
      <use xlink:href="#DejaVuSans-39" x="883.496094"/>
      <use xlink:href="#DejaVuSans-38" x="947.119141"/>
      <use xlink:href="#DejaVuSans-29" x="1010.742188"/>
     </g>
    </g>
    <g id="line2d_31">
     <path d="M 266.384063 160.901188 
L 276.384063 160.901188 
L 286.384063 160.901188 
" style="fill: none; stroke: #9467bd; stroke-width: 1.5; stroke-linecap: square"/>
    </g>
    <g id="text_20">
     <!-- Class 4 (AUC = 1.00) -->
     <g transform="translate(294.384063 164.401188)scale(0.1 -0.1)">
      <use xlink:href="#DejaVuSans-43"/>
      <use xlink:href="#DejaVuSans-6c" x="69.824219"/>
      <use xlink:href="#DejaVuSans-61" x="97.607422"/>
      <use xlink:href="#DejaVuSans-73" x="158.886719"/>
      <use xlink:href="#DejaVuSans-73" x="210.986328"/>
      <use xlink:href="#DejaVuSans-20" x="263.085938"/>
      <use xlink:href="#DejaVuSans-34" x="294.873047"/>
      <use xlink:href="#DejaVuSans-20" x="358.496094"/>
      <use xlink:href="#DejaVuSans-28" x="390.283203"/>
      <use xlink:href="#DejaVuSans-41" x="429.296875"/>
      <use xlink:href="#DejaVuSans-55" x="497.705078"/>
      <use xlink:href="#DejaVuSans-43" x="570.898438"/>
      <use xlink:href="#DejaVuSans-20" x="640.722656"/>
      <use xlink:href="#DejaVuSans-3d" x="672.509766"/>
      <use xlink:href="#DejaVuSans-20" x="756.298828"/>
      <use xlink:href="#DejaVuSans-31" x="788.085938"/>
      <use xlink:href="#DejaVuSans-2e" x="851.708984"/>
      <use xlink:href="#DejaVuSans-30" x="883.496094"/>
      <use xlink:href="#DejaVuSans-30" x="947.119141"/>
      <use xlink:href="#DejaVuSans-29" x="1010.742188"/>
     </g>
    </g>
    <g id="line2d_32">
     <path d="M 266.384063 175.579313 
L 276.384063 175.579313 
L 286.384063 175.579313 
" style="fill: none; stroke: #8c564b; stroke-width: 1.5; stroke-linecap: square"/>
    </g>
    <g id="text_21">
     <!-- Class 5 (AUC = 1.00) -->
     <g transform="translate(294.384063 179.079313)scale(0.1 -0.1)">
      <defs>
       <path id="DejaVuSans-35" d="M 691 4666 
L 3169 4666 
L 3169 4134 
L 1269 4134 
L 1269 2991 
Q 1406 3038 1543 3061 
Q 1681 3084 1819 3084 
Q 2600 3084 3056 2656 
Q 3513 2228 3513 1497 
Q 3513 744 3044 326 
Q 2575 -91 1722 -91 
Q 1428 -91 1123 -41 
Q 819 9 494 109 
L 494 744 
Q 775 591 1075 516 
Q 1375 441 1709 441 
Q 2250 441 2565 725 
Q 2881 1009 2881 1497 
Q 2881 1984 2565 2268 
Q 2250 2553 1709 2553 
Q 1456 2553 1204 2497 
Q 953 2441 691 2322 
L 691 4666 
z
" transform="scale(0.015625)"/>
      </defs>
      <use xlink:href="#DejaVuSans-43"/>
      <use xlink:href="#DejaVuSans-6c" x="69.824219"/>
      <use xlink:href="#DejaVuSans-61" x="97.607422"/>
      <use xlink:href="#DejaVuSans-73" x="158.886719"/>
      <use xlink:href="#DejaVuSans-73" x="210.986328"/>
      <use xlink:href="#DejaVuSans-20" x="263.085938"/>
      <use xlink:href="#DejaVuSans-35" x="294.873047"/>
      <use xlink:href="#DejaVuSans-20" x="358.496094"/>
      <use xlink:href="#DejaVuSans-28" x="390.283203"/>
      <use xlink:href="#DejaVuSans-41" x="429.296875"/>
      <use xlink:href="#DejaVuSans-55" x="497.705078"/>
      <use xlink:href="#DejaVuSans-43" x="570.898438"/>
      <use xlink:href="#DejaVuSans-20" x="640.722656"/>
      <use xlink:href="#DejaVuSans-3d" x="672.509766"/>
      <use xlink:href="#DejaVuSans-20" x="756.298828"/>
      <use xlink:href="#DejaVuSans-31" x="788.085938"/>
      <use xlink:href="#DejaVuSans-2e" x="851.708984"/>
      <use xlink:href="#DejaVuSans-30" x="883.496094"/>
      <use xlink:href="#DejaVuSans-30" x="947.119141"/>
      <use xlink:href="#DejaVuSans-29" x="1010.742188"/>
     </g>
    </g>
    <g id="line2d_33">
     <path d="M 266.384063 190.257438 
L 276.384063 190.257438 
L 286.384063 190.257438 
" style="fill: none; stroke: #e377c2; stroke-width: 1.5; stroke-linecap: square"/>
    </g>
    <g id="text_22">
     <!-- Class 6 (AUC = 1.00) -->
     <g transform="translate(294.384063 193.757438)scale(0.1 -0.1)">
      <use xlink:href="#DejaVuSans-43"/>
      <use xlink:href="#DejaVuSans-6c" x="69.824219"/>
      <use xlink:href="#DejaVuSans-61" x="97.607422"/>
      <use xlink:href="#DejaVuSans-73" x="158.886719"/>
      <use xlink:href="#DejaVuSans-73" x="210.986328"/>
      <use xlink:href="#DejaVuSans-20" x="263.085938"/>
      <use xlink:href="#DejaVuSans-36" x="294.873047"/>
      <use xlink:href="#DejaVuSans-20" x="358.496094"/>
      <use xlink:href="#DejaVuSans-28" x="390.283203"/>
      <use xlink:href="#DejaVuSans-41" x="429.296875"/>
      <use xlink:href="#DejaVuSans-55" x="497.705078"/>
      <use xlink:href="#DejaVuSans-43" x="570.898438"/>
      <use xlink:href="#DejaVuSans-20" x="640.722656"/>
      <use xlink:href="#DejaVuSans-3d" x="672.509766"/>
      <use xlink:href="#DejaVuSans-20" x="756.298828"/>
      <use xlink:href="#DejaVuSans-31" x="788.085938"/>
      <use xlink:href="#DejaVuSans-2e" x="851.708984"/>
      <use xlink:href="#DejaVuSans-30" x="883.496094"/>
      <use xlink:href="#DejaVuSans-30" x="947.119141"/>
      <use xlink:href="#DejaVuSans-29" x="1010.742188"/>
     </g>
    </g>
    <g id="line2d_34">
     <path d="M 266.384063 204.935563 
L 276.384063 204.935563 
L 286.384063 204.935563 
" style="fill: none; stroke: #7f7f7f; stroke-width: 1.5; stroke-linecap: square"/>
    </g>
    <g id="text_23">
     <!-- Class 7 (AUC = 1.00) -->
     <g transform="translate(294.384063 208.435563)scale(0.1 -0.1)">
      <defs>
       <path id="DejaVuSans-37" d="M 525 4666 
L 3525 4666 
L 3525 4397 
L 1831 0 
L 1172 0 
L 2766 4134 
L 525 4134 
L 525 4666 
z
" transform="scale(0.015625)"/>
      </defs>
      <use xlink:href="#DejaVuSans-43"/>
      <use xlink:href="#DejaVuSans-6c" x="69.824219"/>
      <use xlink:href="#DejaVuSans-61" x="97.607422"/>
      <use xlink:href="#DejaVuSans-73" x="158.886719"/>
      <use xlink:href="#DejaVuSans-73" x="210.986328"/>
      <use xlink:href="#DejaVuSans-20" x="263.085938"/>
      <use xlink:href="#DejaVuSans-37" x="294.873047"/>
      <use xlink:href="#DejaVuSans-20" x="358.496094"/>
      <use xlink:href="#DejaVuSans-28" x="390.283203"/>
      <use xlink:href="#DejaVuSans-41" x="429.296875"/>
      <use xlink:href="#DejaVuSans-55" x="497.705078"/>
      <use xlink:href="#DejaVuSans-43" x="570.898438"/>
      <use xlink:href="#DejaVuSans-20" x="640.722656"/>
      <use xlink:href="#DejaVuSans-3d" x="672.509766"/>
      <use xlink:href="#DejaVuSans-20" x="756.298828"/>
      <use xlink:href="#DejaVuSans-31" x="788.085938"/>
      <use xlink:href="#DejaVuSans-2e" x="851.708984"/>
      <use xlink:href="#DejaVuSans-30" x="883.496094"/>
      <use xlink:href="#DejaVuSans-30" x="947.119141"/>
      <use xlink:href="#DejaVuSans-29" x="1010.742188"/>
     </g>
    </g>
    <g id="line2d_35">
     <path d="M 266.384063 219.613688 
L 276.384063 219.613688 
L 286.384063 219.613688 
" style="fill: none; stroke: #bcbd22; stroke-width: 1.5; stroke-linecap: square"/>
    </g>
    <g id="text_24">
     <!-- Class 8 (AUC = 1.00) -->
     <g transform="translate(294.384063 223.113688)scale(0.1 -0.1)">
      <use xlink:href="#DejaVuSans-43"/>
      <use xlink:href="#DejaVuSans-6c" x="69.824219"/>
      <use xlink:href="#DejaVuSans-61" x="97.607422"/>
      <use xlink:href="#DejaVuSans-73" x="158.886719"/>
      <use xlink:href="#DejaVuSans-73" x="210.986328"/>
      <use xlink:href="#DejaVuSans-20" x="263.085938"/>
      <use xlink:href="#DejaVuSans-38" x="294.873047"/>
      <use xlink:href="#DejaVuSans-20" x="358.496094"/>
      <use xlink:href="#DejaVuSans-28" x="390.283203"/>
      <use xlink:href="#DejaVuSans-41" x="429.296875"/>
      <use xlink:href="#DejaVuSans-55" x="497.705078"/>
      <use xlink:href="#DejaVuSans-43" x="570.898438"/>
      <use xlink:href="#DejaVuSans-20" x="640.722656"/>
      <use xlink:href="#DejaVuSans-3d" x="672.509766"/>
      <use xlink:href="#DejaVuSans-20" x="756.298828"/>
      <use xlink:href="#DejaVuSans-31" x="788.085938"/>
      <use xlink:href="#DejaVuSans-2e" x="851.708984"/>
      <use xlink:href="#DejaVuSans-30" x="883.496094"/>
      <use xlink:href="#DejaVuSans-30" x="947.119141"/>
      <use xlink:href="#DejaVuSans-29" x="1010.742188"/>
     </g>
    </g>
    <g id="line2d_36">
     <path d="M 266.384063 234.291812 
L 276.384063 234.291812 
L 286.384063 234.291812 
" style="fill: none; stroke: #17becf; stroke-width: 1.5; stroke-linecap: square"/>
    </g>
    <g id="text_25">
     <!-- Class 9 (AUC = 1.00) -->
     <g transform="translate(294.384063 237.791812)scale(0.1 -0.1)">
      <use xlink:href="#DejaVuSans-43"/>
      <use xlink:href="#DejaVuSans-6c" x="69.824219"/>
      <use xlink:href="#DejaVuSans-61" x="97.607422"/>
      <use xlink:href="#DejaVuSans-73" x="158.886719"/>
      <use xlink:href="#DejaVuSans-73" x="210.986328"/>
      <use xlink:href="#DejaVuSans-20" x="263.085938"/>
      <use xlink:href="#DejaVuSans-39" x="294.873047"/>
      <use xlink:href="#DejaVuSans-20" x="358.496094"/>
      <use xlink:href="#DejaVuSans-28" x="390.283203"/>
      <use xlink:href="#DejaVuSans-41" x="429.296875"/>
      <use xlink:href="#DejaVuSans-55" x="497.705078"/>
      <use xlink:href="#DejaVuSans-43" x="570.898438"/>
      <use xlink:href="#DejaVuSans-20" x="640.722656"/>
      <use xlink:href="#DejaVuSans-3d" x="672.509766"/>
      <use xlink:href="#DejaVuSans-20" x="756.298828"/>
      <use xlink:href="#DejaVuSans-31" x="788.085938"/>
      <use xlink:href="#DejaVuSans-2e" x="851.708984"/>
      <use xlink:href="#DejaVuSans-30" x="883.496094"/>
      <use xlink:href="#DejaVuSans-30" x="947.119141"/>
      <use xlink:href="#DejaVuSans-29" x="1010.742188"/>
     </g>
    </g>
    <g id="line2d_37">
     <path d="M 266.384063 248.969937 
L 276.384063 248.969937 
L 286.384063 248.969937 
" style="fill: none; stroke: #1f77b4; stroke-width: 1.5; stroke-linecap: square"/>
    </g>
    <g id="text_26">
     <!-- Class 10 (AUC = 1.00) -->
     <g transform="translate(294.384063 252.469937)scale(0.1 -0.1)">
      <use xlink:href="#DejaVuSans-43"/>
      <use xlink:href="#DejaVuSans-6c" x="69.824219"/>
      <use xlink:href="#DejaVuSans-61" x="97.607422"/>
      <use xlink:href="#DejaVuSans-73" x="158.886719"/>
      <use xlink:href="#DejaVuSans-73" x="210.986328"/>
      <use xlink:href="#DejaVuSans-20" x="263.085938"/>
      <use xlink:href="#DejaVuSans-31" x="294.873047"/>
      <use xlink:href="#DejaVuSans-30" x="358.496094"/>
      <use xlink:href="#DejaVuSans-20" x="422.119141"/>
      <use xlink:href="#DejaVuSans-28" x="453.90625"/>
      <use xlink:href="#DejaVuSans-41" x="492.919922"/>
      <use xlink:href="#DejaVuSans-55" x="561.328125"/>
      <use xlink:href="#DejaVuSans-43" x="634.521484"/>
      <use xlink:href="#DejaVuSans-20" x="704.345703"/>
      <use xlink:href="#DejaVuSans-3d" x="736.132812"/>
      <use xlink:href="#DejaVuSans-20" x="819.921875"/>
      <use xlink:href="#DejaVuSans-31" x="851.708984"/>
      <use xlink:href="#DejaVuSans-2e" x="915.332031"/>
      <use xlink:href="#DejaVuSans-30" x="947.119141"/>
      <use xlink:href="#DejaVuSans-30" x="1010.742188"/>
      <use xlink:href="#DejaVuSans-29" x="1074.365234"/>
     </g>
    </g>
    <g id="line2d_38">
     <path d="M 266.384063 263.648062 
L 276.384063 263.648062 
L 286.384063 263.648062 
" style="fill: none; stroke: #ff7f0e; stroke-width: 1.5; stroke-linecap: square"/>
    </g>
    <g id="text_27">
     <!-- Class 11 (AUC = 1.00) -->
     <g transform="translate(294.384063 267.148062)scale(0.1 -0.1)">
      <use xlink:href="#DejaVuSans-43"/>
      <use xlink:href="#DejaVuSans-6c" x="69.824219"/>
      <use xlink:href="#DejaVuSans-61" x="97.607422"/>
      <use xlink:href="#DejaVuSans-73" x="158.886719"/>
      <use xlink:href="#DejaVuSans-73" x="210.986328"/>
      <use xlink:href="#DejaVuSans-20" x="263.085938"/>
      <use xlink:href="#DejaVuSans-31" x="294.873047"/>
      <use xlink:href="#DejaVuSans-31" x="358.496094"/>
      <use xlink:href="#DejaVuSans-20" x="422.119141"/>
      <use xlink:href="#DejaVuSans-28" x="453.90625"/>
      <use xlink:href="#DejaVuSans-41" x="492.919922"/>
      <use xlink:href="#DejaVuSans-55" x="561.328125"/>
      <use xlink:href="#DejaVuSans-43" x="634.521484"/>
      <use xlink:href="#DejaVuSans-20" x="704.345703"/>
      <use xlink:href="#DejaVuSans-3d" x="736.132812"/>
      <use xlink:href="#DejaVuSans-20" x="819.921875"/>
      <use xlink:href="#DejaVuSans-31" x="851.708984"/>
      <use xlink:href="#DejaVuSans-2e" x="915.332031"/>
      <use xlink:href="#DejaVuSans-30" x="947.119141"/>
      <use xlink:href="#DejaVuSans-30" x="1010.742188"/>
      <use xlink:href="#DejaVuSans-29" x="1074.365234"/>
     </g>
    </g>
    <g id="line2d_39">
     <path d="M 266.384063 278.326187 
L 276.384063 278.326187 
L 286.384063 278.326187 
" style="fill: none; stroke: #2ca02c; stroke-width: 1.5; stroke-linecap: square"/>
    </g>
    <g id="text_28">
     <!-- Class 12 (AUC = 0.99) -->
     <g transform="translate(294.384063 281.826187)scale(0.1 -0.1)">
      <use xlink:href="#DejaVuSans-43"/>
      <use xlink:href="#DejaVuSans-6c" x="69.824219"/>
      <use xlink:href="#DejaVuSans-61" x="97.607422"/>
      <use xlink:href="#DejaVuSans-73" x="158.886719"/>
      <use xlink:href="#DejaVuSans-73" x="210.986328"/>
      <use xlink:href="#DejaVuSans-20" x="263.085938"/>
      <use xlink:href="#DejaVuSans-31" x="294.873047"/>
      <use xlink:href="#DejaVuSans-32" x="358.496094"/>
      <use xlink:href="#DejaVuSans-20" x="422.119141"/>
      <use xlink:href="#DejaVuSans-28" x="453.90625"/>
      <use xlink:href="#DejaVuSans-41" x="492.919922"/>
      <use xlink:href="#DejaVuSans-55" x="561.328125"/>
      <use xlink:href="#DejaVuSans-43" x="634.521484"/>
      <use xlink:href="#DejaVuSans-20" x="704.345703"/>
      <use xlink:href="#DejaVuSans-3d" x="736.132812"/>
      <use xlink:href="#DejaVuSans-20" x="819.921875"/>
      <use xlink:href="#DejaVuSans-30" x="851.708984"/>
      <use xlink:href="#DejaVuSans-2e" x="915.332031"/>
      <use xlink:href="#DejaVuSans-39" x="947.119141"/>
      <use xlink:href="#DejaVuSans-39" x="1010.742188"/>
      <use xlink:href="#DejaVuSans-29" x="1074.365234"/>
     </g>
    </g>
    <g id="line2d_40">
     <path d="M 266.384063 293.004312 
L 276.384063 293.004312 
L 286.384063 293.004312 
" style="fill: none; stroke: #d62728; stroke-width: 1.5; stroke-linecap: square"/>
    </g>
    <g id="text_29">
     <!-- Class 13 (AUC = 1.00) -->
     <g transform="translate(294.384063 296.504312)scale(0.1 -0.1)">
      <use xlink:href="#DejaVuSans-43"/>
      <use xlink:href="#DejaVuSans-6c" x="69.824219"/>
      <use xlink:href="#DejaVuSans-61" x="97.607422"/>
      <use xlink:href="#DejaVuSans-73" x="158.886719"/>
      <use xlink:href="#DejaVuSans-73" x="210.986328"/>
      <use xlink:href="#DejaVuSans-20" x="263.085938"/>
      <use xlink:href="#DejaVuSans-31" x="294.873047"/>
      <use xlink:href="#DejaVuSans-33" x="358.496094"/>
      <use xlink:href="#DejaVuSans-20" x="422.119141"/>
      <use xlink:href="#DejaVuSans-28" x="453.90625"/>
      <use xlink:href="#DejaVuSans-41" x="492.919922"/>
      <use xlink:href="#DejaVuSans-55" x="561.328125"/>
      <use xlink:href="#DejaVuSans-43" x="634.521484"/>
      <use xlink:href="#DejaVuSans-20" x="704.345703"/>
      <use xlink:href="#DejaVuSans-3d" x="736.132812"/>
      <use xlink:href="#DejaVuSans-20" x="819.921875"/>
      <use xlink:href="#DejaVuSans-31" x="851.708984"/>
      <use xlink:href="#DejaVuSans-2e" x="915.332031"/>
      <use xlink:href="#DejaVuSans-30" x="947.119141"/>
      <use xlink:href="#DejaVuSans-30" x="1010.742188"/>
      <use xlink:href="#DejaVuSans-29" x="1074.365234"/>
     </g>
    </g>
   </g>
  </g>
 </g>
 <defs>
  <clipPath id="pf174862368">
   <rect x="57.6" y="41.472" width="357.12" height="266.112"/>
  </clipPath>
 </defs>
</svg>
